<svg width="368" height="250" viewBox="0 0 368 250" fill="none" xmlns="http://www.w3.org/2000/svg">
<g clip-path="url(#clip0_399_8512)">
<path d="M235.047 146.009C266.704 146.009 292.367 120.404 292.367 88.819C292.367 57.2339 266.704 31.6292 235.047 31.6292C203.391 31.6292 177.728 57.2339 177.728 88.819C177.728 120.404 203.391 146.009 235.047 146.009Z" fill="white"/>
<path d="M234.57 89.9509C234.114 89.7605 233.827 89.3268 233.817 88.8296L233.594 57.2302C233.594 56.7436 233.881 56.3204 234.294 56.1194C234.453 56.0454 234.623 56.0031 234.814 56.0031C235.492 56.0031 236.044 56.5426 236.044 57.2196L236.256 88.015" fill="#FF5F29"/>
<path d="M232.513 89.2739L226.968 44.1546C226.883 43.4881 227.36 42.8746 228.039 42.7899C228.707 42.7053 229.322 43.1813 229.406 43.8478L235.058 89.7605C235.121 90.2471 234.878 90.7232 234.453 90.9665" fill="#FF5F29"/>
<path d="M235.047 48.3016C234.591 48.3016 234.231 47.9419 234.231 47.487V31.6292C234.231 31.1743 234.591 30.8146 235.047 30.8146C235.503 30.8146 235.864 31.1743 235.864 31.6292V47.487C235.864 47.9419 235.503 48.3016 235.047 48.3016Z" fill="#5774CD"/>
<path d="M235.047 146.876C234.591 146.876 234.231 146.517 234.231 146.062V130.204C234.231 129.749 234.591 129.389 235.047 129.389C235.503 129.389 235.864 129.749 235.864 130.204V146.062C235.864 146.517 235.503 146.876 235.047 146.876Z" fill="#5774CD"/>
<path d="M280.989 66.2858C280.692 66.2858 280.406 66.1271 280.258 65.8415C280.056 65.4395 280.215 64.9528 280.618 64.7413L285.76 62.1177C286.163 61.9167 286.651 62.0754 286.863 62.4774C287.075 62.8794 286.906 63.366 286.503 63.5776L281.36 66.2011C281.244 66.2646 281.116 66.2858 280.989 66.2858Z" fill="#D7E5FF"/>
<path d="M183.962 115.647C183.665 115.647 183.379 115.489 183.231 115.203C183.029 114.801 183.188 114.314 183.591 114.103L188.734 111.479C189.137 111.278 189.624 111.437 189.836 111.839C190.038 112.241 189.879 112.727 189.476 112.939L184.333 115.563C184.217 115.626 184.09 115.647 183.962 115.647Z" fill="#D7E5FF"/>
<path d="M203.345 137.334C203.186 137.334 203.037 137.292 202.899 137.197C202.528 136.943 202.422 136.445 202.666 136.065L205.857 131.262C206.101 130.891 206.61 130.786 206.992 131.029C207.363 131.283 207.469 131.78 207.225 132.161L204.034 136.964C203.875 137.197 203.62 137.323 203.355 137.323L203.345 137.334Z" fill="#D7E5FF"/>
<path d="M263.558 46.7888C263.399 46.7888 263.251 46.7465 263.113 46.6513C262.742 46.3974 262.636 45.9002 262.88 45.5193L266.071 40.7165C266.315 40.3462 266.824 40.2404 267.206 40.4837C267.577 40.7376 267.683 41.2348 267.439 41.6157L264.248 46.4185C264.089 46.6513 263.834 46.7782 263.569 46.7782L263.558 46.7888Z" fill="#D7E5FF"/>
<path d="M261.099 140.635C260.802 140.635 260.516 140.476 260.368 140.19L257.738 135.049C257.537 134.647 257.696 134.16 258.099 133.949C258.501 133.748 258.989 133.906 259.201 134.308L261.831 139.45C262.032 139.852 261.873 140.339 261.47 140.55C261.354 140.614 261.226 140.635 261.099 140.635Z" fill="#D7E5FF"/>
<path d="M211.626 43.8267C211.329 43.8267 211.043 43.668 210.894 43.3824L208.275 38.2516C208.074 37.8496 208.233 37.3629 208.636 37.1514C209.039 36.9504 209.526 37.109 209.738 37.511L212.357 42.6418C212.559 43.0438 212.4 43.5305 211.997 43.7421C211.88 43.8055 211.753 43.8267 211.626 43.8267Z" fill="#D7E5FF"/>
<path d="M192.073 61.2185C191.914 61.2185 191.766 61.1762 191.628 61.0809L186.814 57.8967C186.443 57.6428 186.337 57.1456 186.581 56.7647C186.825 56.3945 187.334 56.2887 187.716 56.532L192.529 59.7163C192.9 59.9701 193.006 60.4674 192.763 60.8482C192.603 61.0809 192.349 61.2079 192.084 61.2079L192.073 61.2185Z" fill="#D7E5FF"/>
<path d="M282.835 121.286C282.676 121.286 282.527 121.243 282.389 121.148L277.576 117.964C277.204 117.71 277.098 117.213 277.342 116.832C277.586 116.462 278.095 116.356 278.477 116.599L283.29 119.784C283.662 120.037 283.768 120.535 283.524 120.916C283.365 121.148 283.11 121.275 282.845 121.275L282.835 121.286Z" fill="#D7E5FF"/>
<path d="M235.047 147.638C202.539 147.638 176.095 121.254 176.095 88.819C176.095 56.3839 202.539 30 235.047 30C267.556 30 294 56.3839 294 88.819C294 121.254 267.556 147.638 235.047 147.638ZM235.047 33.2583C204.341 33.2583 179.361 58.1823 179.361 88.819C179.361 119.456 204.341 144.38 235.047 144.38C265.754 144.38 290.734 119.456 290.734 88.819C290.734 58.1823 265.754 33.2583 235.047 33.2583Z" fill="#5774CD"/>
<path d="M291.783 89.7606H275.974C275.518 89.7606 275.158 89.4009 275.158 88.946C275.158 88.4911 275.518 88.1314 275.974 88.1314H291.783C292.239 88.1314 292.6 88.4911 292.6 88.946C292.6 89.4009 292.239 89.7606 291.783 89.7606Z" fill="#5774CD"/>
<path d="M193.537 89.7605H177.728C177.272 89.7605 176.912 89.4009 176.912 88.946C176.912 88.4911 177.272 88.1314 177.728 88.1314H193.537C193.993 88.1314 194.353 88.4911 194.353 88.946C194.353 89.4009 193.993 89.7605 193.537 89.7605Z" fill="#5774CD"/>
<path d="M238.493 88.819C238.493 90.7126 236.956 92.2572 235.047 92.2572C233.138 92.2572 231.601 90.7232 231.601 88.819C231.601 86.9148 233.138 85.3808 235.047 85.3808C236.956 85.3808 238.493 86.9148 238.493 88.819Z" fill="#FF5F29"/>
<path d="M160.212 128.913C160.212 128.913 157.519 129.59 156.872 130.595C156.226 131.6 156.406 135.589 156.406 135.589C156.406 135.589 128.859 138.244 101.048 169.621C72.9079 201.358 69.2711 220.347 78.5804 234.184C90.8692 252.465 133.164 247.535 133.164 247.535C133.164 247.535 143.354 249.027 179.647 248.477C213.174 247.969 231.877 247.535 231.877 247.535C231.877 247.535 289.632 261.425 285.03 223.267C278.933 172.668 218.072 140.201 206.314 135.589C195.69 131.42 185.988 131.315 185.988 131.315C185.988 131.315 185.458 129.368 184.875 129.03C181.779 127.231 160.223 128.913 160.223 128.913H160.212Z" fill="#D8E7EF"/>
<path d="M160.244 94.246C160.244 94.246 147.669 88.893 146.694 98.6045C145.559 109.861 159.036 109.966 159.036 109.966L160.244 94.246Z" fill="#F48462"/>
<path d="M153.988 104.328C154.105 104.328 154.222 104.296 154.338 104.233C154.667 104.042 154.773 103.619 154.582 103.291L150.383 96.1184C150.192 95.7905 149.768 95.6741 149.44 95.8751C149.111 96.0656 149.005 96.4887 149.196 96.8167L153.394 103.989C153.522 104.211 153.755 104.328 153.988 104.328Z" fill="black"/>
<path d="M115.426 167.558C115.426 167.558 118.246 184.802 104.25 184.262C90.2544 183.723 89.5122 163.803 89.5122 163.803L115.426 167.569V167.558Z" fill="#F48462"/>
<path d="M99.0861 147.5C99.0861 147.5 84.0406 120.492 81.1248 121.857C78.209 123.222 117.228 181.893 118.967 181.057C120.716 180.221 99.0861 147.5 99.0861 147.5Z" fill="#465884"/>
<path d="M149.111 102.17L152.705 102.106C153.087 102.106 153.394 101.789 153.384 101.408C153.384 101.027 153.087 100.731 152.684 100.731L149.1 100.794C148.719 100.794 148.411 101.112 148.422 101.493C148.422 101.873 148.74 102.17 149.111 102.17Z" fill="black"/>
<path d="M182.913 121L183.019 134.171C183.019 134.171 177.919 136.911 171.547 137.017C162.948 137.165 160.042 132.076 160.042 132.076L160.106 116.631L182.902 121H182.913Z" fill="#F48462"/>
<path d="M182.914 120.979C182.914 120.979 178.789 131.643 169.024 130.183C161.156 129.008 158.898 117.869 158.898 117.869L182.903 120.968L182.914 120.979Z" fill="black"/>
<path d="M156.258 83.466C156.258 83.466 150.744 107.575 157.668 118.25C165.09 129.696 177.04 126.279 181.514 122.851C187.547 118.218 188.788 111.796 188.788 111.796C188.788 111.796 197.079 113.447 199.846 106.697C202.752 99.6095 197.588 93.8863 193.432 93.5478C189.286 93.2092 188.798 93.9603 188.798 93.9603L190.018 86.3858C190.018 86.3858 164.793 58.415 156.258 83.4554V83.466Z" fill="#F48462"/>
<path d="M190.155 104.846C190.314 104.846 190.473 104.793 190.601 104.677L197.005 99.1969C197.291 98.9536 197.323 98.5199 197.079 98.2237C196.824 97.938 196.39 97.9063 196.103 98.1496L189.699 103.63C189.413 103.873 189.381 104.307 189.625 104.603C189.763 104.761 189.954 104.846 190.145 104.846H190.155Z" fill="black"/>
<path d="M196.071 105.851C196.283 105.851 196.485 105.756 196.623 105.576C196.856 105.269 196.792 104.836 196.485 104.613L192.71 101.778C192.403 101.545 191.968 101.609 191.745 101.916C191.512 102.223 191.576 102.656 191.883 102.878L195.658 105.714C195.785 105.809 195.923 105.851 196.071 105.851Z" fill="black"/>
<path d="M177.676 98.1813C178.036 98.1813 178.344 97.8957 178.365 97.536L178.598 93.4843C178.619 93.1034 178.333 92.7755 177.951 92.7543C177.58 92.7332 177.241 93.0188 177.22 93.3997L176.986 97.4514C176.965 97.8322 177.252 98.1602 177.633 98.1813C177.644 98.1813 177.665 98.1813 177.676 98.1813Z" fill="black"/>
<path d="M162.121 97.335C162.481 97.335 162.789 97.0494 162.81 96.6897L163.043 92.638C163.065 92.2571 162.778 91.9292 162.397 91.908C162.036 91.8974 161.686 92.1725 161.665 92.5533L161.432 96.6051C161.411 96.9859 161.697 97.3139 162.079 97.335C162.089 97.335 162.11 97.335 162.121 97.335Z" fill="black"/>
<path d="M169.299 108.094C169.299 108.094 169.384 108.094 169.437 108.083C169.808 108.009 170.052 107.65 169.977 107.279C168.79 101.292 170.751 96.3301 170.773 96.2772C170.911 95.9281 170.741 95.5261 170.391 95.3779C170.041 95.2404 169.638 95.4097 169.49 95.7588C169.405 95.9809 167.359 101.154 168.62 107.533C168.684 107.861 168.97 108.083 169.299 108.083V108.094Z" fill="black"/>
<path d="M160.075 88.5651C160.202 88.5651 160.34 88.5228 160.457 88.4487C161.686 87.6236 163.722 87.6765 164.401 87.7717C164.772 87.8246 165.122 87.5601 165.175 87.1792C165.228 86.7984 164.963 86.4599 164.581 86.407C164.464 86.3858 161.58 86.0156 159.672 87.3062C159.354 87.5178 159.28 87.9515 159.492 88.2583C159.629 88.4593 159.842 88.5651 160.064 88.5651H160.075Z" fill="black"/>
<path d="M179.859 90.9559C180.008 90.9559 180.156 90.9136 180.283 90.8078C180.58 90.5751 180.644 90.1414 180.411 89.8452C179 88.0256 176.148 87.486 176.032 87.4649C175.65 87.4014 175.3 87.6447 175.226 88.015C175.152 88.3853 175.406 88.7449 175.777 88.819C175.798 88.819 178.226 89.2845 179.319 90.6809C179.456 90.8607 179.658 90.9454 179.859 90.9454V90.9559Z" fill="black"/>
<path d="M190.706 94.0133C190.706 94.0133 188.098 101.45 187.133 101.143C186.168 100.837 187.791 89.1152 190.6 88.6392C193.41 88.1631 190.706 94.0133 190.706 94.0133Z" fill="black"/>
<path d="M189.53 92.913C189.53 92.913 181.217 91.8022 175.831 87.211C171.282 83.3285 169.713 78.0284 169.713 78.0284C169.713 78.0284 166.15 77.3937 160.87 80.2818C155.6 83.1698 154.71 92.8496 154.71 92.8496C154.71 92.8496 146.068 75.9444 150.861 70.3481C155.653 64.7518 162.789 69.9461 162.789 69.9461C162.789 69.9461 162.015 59.1344 176.721 64.0219C191.428 68.92 194.206 81.9321 194.206 81.9321C194.206 81.9321 199.316 81.7417 199.719 86.4704C200.122 91.2098 197.959 95.8963 197.959 95.8963C197.959 95.8963 195.849 93.6853 192.382 94.7855L188.915 95.8751L189.54 92.913H189.53Z" fill="black"/>
<path d="M160.213 128.913C160.213 128.913 162.81 131.875 169.395 132.658C175.979 133.441 182.267 128.659 182.267 128.659L185.787 136.837L174.675 142.264L157.191 139.143L157.923 131.262L160.202 128.913H160.213Z" fill="#D8E7EF"/>
<path d="M211.7 201.358C211.785 201.358 211.88 201.337 211.965 201.305C212.241 201.199 239.522 190.303 262 200.162C262.35 200.321 262.753 200.162 262.912 199.813C263.061 199.464 262.912 199.062 262.562 198.904C239.543 188.801 211.721 199.919 211.446 200.036C211.096 200.184 210.926 200.586 211.064 200.935C211.17 201.199 211.435 201.368 211.7 201.368V201.358Z" fill="#92B4EA"/>
<path d="M232.418 195.677C232.249 195.423 232.28 195.085 232.482 194.852C233.563 193.614 243.223 182.877 248.407 185.966C249.415 186.569 249.553 187.288 249.489 187.796C249.075 191.043 236.914 194.873 233.192 195.963C233.129 195.984 233.065 195.994 233.001 195.994C232.768 195.994 232.545 195.878 232.418 195.677ZM235.281 193.879C241.706 191.795 247.93 189.055 248.111 187.626C248.132 187.447 247.856 187.256 247.686 187.15C247.262 186.897 246.775 186.78 246.244 186.78C243.064 186.78 238.271 190.864 235.281 193.879Z" fill="#92B4EA"/>
<path d="M93.1918 158.026C93.1918 158.026 80.85 157.603 84.1581 151.69C87.4662 145.776 109.372 141.322 112.266 147.723C115.161 154.123 93.1918 158.026 93.1918 158.026Z" fill="#F48462"/>
<path d="M95.3221 167.992C95.3221 167.992 82.9803 167.569 86.2884 161.655C89.5965 155.741 111.502 151.288 114.397 157.688C117.291 164.088 95.3221 167.992 95.3221 167.992Z" fill="#F48462"/>
<path d="M103.476 175.101C100.751 175.609 97.9098 175.503 95.3015 174.54C92.9688 173.683 91.0391 172.202 92.6189 169.653C95.7786 164.554 115.33 161.486 117.631 167.262C119.349 171.568 108.905 174.096 103.476 175.101Z" fill="#F48462"/>
<path d="M90.0845 156.683C90.0845 156.683 90.1587 156.683 90.1905 156.683L107.028 154.059C107.399 153.996 107.664 153.647 107.601 153.277C107.537 152.906 107.187 152.642 106.816 152.705L89.9785 155.329C89.6074 155.392 89.3423 155.741 89.4059 156.112C89.4589 156.45 89.7558 156.694 90.0845 156.694V156.683Z" fill="black"/>
<path d="M93.669 166.955C93.669 166.955 93.7432 166.955 93.775 166.955L110.612 164.332C110.984 164.268 111.249 163.919 111.185 163.549C111.121 163.168 110.782 162.914 110.4 162.977L93.563 165.601C93.1919 165.665 92.9268 166.014 92.9904 166.384C93.0434 166.722 93.3403 166.966 93.669 166.966V166.955Z" fill="black"/>
<path d="M167.708 142.253C168.779 142.253 169.914 142.148 171.133 141.894C171.504 141.82 171.748 141.449 171.674 141.079C171.6 140.709 171.229 140.465 170.857 140.54C161.421 142.475 157.042 135.303 156.999 135.229C156.809 134.901 156.384 134.795 156.056 134.986C155.727 135.176 155.621 135.599 155.812 135.927C155.854 136.001 159.671 142.243 167.708 142.243V142.253Z" fill="#92B4EA"/>
<path d="M172.077 115.118C173.508 115.118 175.746 114.547 177.336 111.458C177.506 111.119 177.378 110.707 177.039 110.527C176.7 110.347 176.286 110.485 176.106 110.823C174.166 114.589 171.261 113.658 171.133 113.616C170.773 113.5 170.381 113.68 170.253 114.039C170.126 114.399 170.317 114.79 170.677 114.917C170.688 114.917 171.25 115.108 172.066 115.108L172.077 115.118Z" fill="black"/>
<path d="M182.914 174.921V169.219C182.914 169.219 174.877 166.955 164.496 167.78C154.116 168.605 146.63 173.588 146.63 173.588C146.63 173.588 137.183 168.521 126.092 167.59C115.002 166.669 108.523 167.59 108.523 167.59L109.732 174.91L149.111 182.443L182.924 174.91L182.914 174.921Z" fill="white"/>
<path d="M107.664 172.488L118.765 248.477H194.915L183.814 172.488H107.664Z" fill="#68B6D8"/>
<path d="M143.492 172.488L152.896 248.477H160.287L150.882 172.488H143.492Z" fill="#53AAC9"/>
<path d="M209.261 208.985C209.261 208.985 198.499 185.997 196.771 184.368C195.053 182.728 174.993 175.926 172.257 176.064C169.532 176.201 173.816 182.263 175.958 183.977C178.099 185.691 180.877 187.542 180.877 187.542C180.877 187.542 165.864 187.542 164.464 190.07C163.064 192.599 167.094 194.937 167.094 194.937C167.094 194.937 161.718 195.391 163.648 198.84C165.577 202.278 180.315 206.129 180.315 206.129C180.315 206.129 183.125 220.749 193.05 224.209C202.963 227.668 207.607 226.695 207.607 226.695L209.261 208.985Z" fill="#F48462"/>
<path d="M192.371 189.287C192.721 189.287 193.028 189.023 193.06 188.663C193.092 188.282 192.816 187.954 192.435 187.912L180.952 186.844C180.57 186.812 180.241 187.087 180.199 187.468C180.167 187.849 180.443 188.177 180.824 188.219L192.307 189.287C192.307 189.287 192.35 189.287 192.371 189.287Z" fill="black"/>
<path d="M185.913 196.925C186.274 196.925 186.581 196.64 186.603 196.269C186.624 195.889 186.327 195.561 185.945 195.55L174.908 194.968C174.537 194.968 174.197 195.243 174.187 195.624C174.165 196.005 174.462 196.333 174.844 196.343L185.882 196.925C185.882 196.925 185.903 196.925 185.924 196.925H185.913Z" fill="black"/>
</g>
<defs>
<clipPath id="clip0_399_8512">
<rect width="220" height="220" fill="white" transform="translate(74 30)"/>
</clipPath>
</defs>
</svg>
