<svg width="500" height="250" viewBox="0 0 500 250" fill="none" xmlns="http://www.w3.org/2000/svg">
<path d="M266.859 9H122.109C117.078 9 113 12.439 113 16.6812V113.656C113 117.899 117.078 121.338 122.109 121.338H266.859C271.89 121.338 275.969 117.899 275.969 113.656V16.6812C275.969 12.439 271.89 9 266.859 9Z" fill="white" stroke="black" stroke-width="1.74044" stroke-linecap="round" stroke-linejoin="round"/>
<path d="M167.519 95.9735H163.934V94.1811H167.519V95.9735ZM160.349 95.9735H156.764V94.1811H160.349V95.9735ZM153.179 95.9735H149.594V94.1811H153.179V95.9735ZM146.009 95.9735H142.424V94.1811H146.009V95.9735ZM138.839 95.9735H135.945C135.694 95.9735 135.443 95.9735 135.201 95.9466L135.317 94.1542C135.523 94.1721 135.738 94.1721 135.945 94.1721H138.839V95.9646V95.9735ZM169.01 95.7955L168.947 94.0031C170.05 93.9672 171.372 93.2794 172.384 92.8671L173.057 94.5251C171.847 95.0181 170.319 95.7507 169.01 95.7955ZM131.437 95.0235C130.245 94.4947 129.169 93.7598 128.228 92.8457L129.474 91.5641C130.262 92.3259 131.168 92.9443 132.163 93.3924L131.428 95.0325L131.437 95.0235ZM174.993 93.0966L173.783 91.7702C174.599 91.0263 175.262 90.166 175.773 89.1891L177.359 90.0226C176.759 91.1787 175.961 92.2094 174.993 93.0966ZM125.961 89.6999C125.396 88.5259 125.046 87.2622 124.921 85.9626L126.704 85.7923C126.812 86.8857 127.099 87.9343 127.574 88.9202L125.961 89.6999ZM178.525 86.3211L176.75 86.0971C176.804 85.7027 176.822 85.2994 176.822 84.8961V82.6287H178.614V84.8961C178.614 85.3711 178.587 85.8551 178.525 86.3211ZM126.66 82.2971H124.867V78.7121H126.66V82.2971ZM178.614 79.0437H176.822V75.4588H178.614V79.0437ZM126.66 75.1272H124.867V71.5423H126.66V75.1272ZM178.614 71.8739H176.822V68.289H178.614V71.8739ZM126.66 67.9574H124.867V64.3724H126.66V67.9574ZM178.614 64.704H176.822V61.1191H178.614V64.704ZM126.66 60.7875H124.867V57.2026H126.66V60.7875ZM178.614 57.5342H176.822V53.9493H178.614V57.5342ZM126.66 53.6177H124.867V53.3219C124.867 52.121 125.055 50.9379 125.432 49.8087L127.135 50.3733C126.821 51.3233 126.66 52.3092 126.66 53.3219V53.6177ZM176.436 50.6601C176.123 49.6115 175.63 48.6346 174.975 47.7563L176.409 46.6808C177.198 47.7294 177.781 48.8945 178.157 50.1492L176.436 50.6601ZM128.685 47.5143L127.287 46.394C128.103 45.3723 129.079 44.512 130.2 43.8308L131.132 45.3634C130.2 45.937 129.375 46.654 128.685 47.5143ZM172.6 45.5247C171.677 44.9242 170.674 44.494 169.607 44.2521L170.01 42.5044C171.283 42.7912 172.484 43.302 173.586 44.019L172.609 45.5157L172.6 45.5247ZM134.161 44.1893L133.821 42.4327C134.52 42.2983 135.228 42.2266 135.945 42.2266H137.567V44.019H135.954C135.389 44.0101 134.753 44.0728 134.17 44.1893H134.161ZM166.237 44.019H162.652V42.2266H166.237V44.019ZM159.067 44.019H155.482V42.2266H159.067V44.019ZM151.898 44.019H148.313V42.2266H151.898V44.019ZM144.728 44.019H141.143V42.2266H144.728V44.019Z" fill="black"/>
<path d="M233.338 45.2124H188.634C188.141 45.2124 187.737 44.8091 187.737 44.3162C187.737 43.8232 188.141 43.4199 188.634 43.4199H233.338C233.83 43.4199 234.234 43.8232 234.234 44.3162C234.234 44.8091 233.83 45.2124 233.338 45.2124Z" fill="black"/>
<path d="M260.162 54.146H188.634C188.141 54.146 187.737 53.7427 187.737 53.2497C187.737 52.7568 188.141 52.3535 188.634 52.3535H260.162C260.655 52.3535 261.058 52.7568 261.058 53.2497C261.058 53.7427 260.655 54.146 260.162 54.146Z" fill="black"/>
<path d="M260.162 63.0893H188.634C188.141 63.0893 187.737 62.686 187.737 62.1931C187.737 61.7002 188.141 61.2969 188.634 61.2969H260.162C260.655 61.2969 261.058 61.7002 261.058 62.1931C261.058 62.686 260.655 63.0893 260.162 63.0893Z" fill="black"/>
<path d="M236.321 93.1845H196.385C192.11 93.1845 188.633 89.7161 188.633 85.4321C188.633 81.1481 192.101 77.6797 196.385 77.6797H236.321C240.596 77.6797 244.074 81.1481 244.074 85.4321C244.074 89.7161 240.605 93.1845 236.321 93.1845Z" fill="#D08625"/>
<path d="M122.193 19.4047C123.63 19.4047 124.795 18.2394 124.795 16.802C124.795 15.3645 123.63 14.1992 122.193 14.1992C120.755 14.1992 119.59 15.3645 119.59 16.802C119.59 18.2394 120.755 19.4047 122.193 19.4047Z" stroke="black" stroke-width="1.74044" stroke-linecap="round" stroke-linejoin="round"/>
<path d="M130.943 19.4047C132.38 19.4047 133.545 18.2394 133.545 16.802C133.545 15.3645 132.38 14.1992 130.943 14.1992C129.505 14.1992 128.34 15.3645 128.34 16.802C128.34 18.2394 129.505 19.4047 130.943 19.4047Z" stroke="black" stroke-width="1.74044" stroke-linecap="round" stroke-linejoin="round"/>
<path d="M139.692 19.4047C141.129 19.4047 142.294 18.2394 142.294 16.802C142.294 15.3645 141.129 14.1992 139.692 14.1992C138.254 14.1992 137.089 15.3645 137.089 16.802C137.089 18.2394 138.254 19.4047 139.692 19.4047Z" stroke="black" stroke-width="1.74044" stroke-linecap="round" stroke-linejoin="round"/>
<path d="M341.212 109.14C337.201 101.252 332.099 95.0182 327.178 91.118C329.361 87.471 330.635 83.2148 330.635 78.658C330.635 65.2092 319.734 54.2997 306.277 54.2997C303.049 54.2997 299.972 54.9405 297.147 56.0877C292.749 51.7445 286.705 49.0547 280.036 49.0547C266.579 49.0547 255.677 59.9562 255.677 73.413C255.677 78.0805 257.014 82.4237 259.285 86.1261C256.959 90.9123 253.122 98.2143 249.712 101.814C244.396 107.431 242.268 114.511 245.725 119.638C249.182 124.764 256.366 123.791 258.494 129.163C260.622 134.534 265.408 146.258 282.963 142.35C300.517 138.442 313.816 143.814 320.469 136.243C327.123 128.672 328.982 129.89 331.64 128.182C334.298 126.473 346.797 120.12 341.212 109.132V109.14Z" fill="black"/>
<path d="M364.027 239.095L348.244 162.863L292.424 131.678L253.983 146.503C241.128 151.463 231.405 162.27 227.837 175.576L210.805 239.095" fill="#F5B400"/>
<path d="M364.027 239.095L348.244 162.863L292.424 131.678L253.983 146.503C241.128 151.463 231.405 162.27 227.837 175.576L210.805 239.095" stroke="black" stroke-width="1.74044" stroke-linecap="round" stroke-linejoin="round"/>
<path d="M308.571 140.703L300.81 98.0703L273.92 102.967L280.02 136.471L259.546 144.366C261.627 156.288 277.876 165.568 297.622 165.568C312.036 165.568 324.591 160.615 331.126 153.306L308.571 140.711V140.703Z" fill="white" stroke="black" stroke-width="1.74044" stroke-linecap="round" stroke-linejoin="round"/>
<path d="M385.435 166.154C384.517 164.137 383.053 162.499 381.258 161.209C381.258 161.194 381.265 161.178 381.273 161.162C381.313 160.3 381.186 159.445 380.886 158.63C374.865 142.247 354.937 138.837 354.091 138.702C352.39 138.425 350.681 138.829 349.281 139.834C347.881 140.838 346.955 142.334 346.678 144.034C346.425 145.577 346.741 147.128 347.548 148.449C347.461 148.378 347.382 148.306 347.303 148.243C346.029 147.318 344.597 147.017 343.039 147.357C342.406 147.492 340.927 147.824 340.357 163.67C340.365 164.595 340.674 185.979 347.485 191.81C346.828 195.457 340.65 221.476 336.449 238.904C336.386 239.165 336.449 239.434 336.607 239.648C336.773 239.854 337.027 239.98 337.288 239.98H379.122C379.122 239.98 379.169 239.98 379.193 239.98C379.24 239.98 379.28 239.957 379.327 239.941C379.383 239.925 379.438 239.917 379.485 239.893C379.533 239.87 379.58 239.838 379.62 239.798C379.667 239.767 379.707 239.735 379.747 239.696C379.786 239.656 379.81 239.608 379.841 239.561C379.873 239.514 379.905 239.466 379.921 239.419C379.944 239.363 379.944 239.308 379.952 239.252C379.952 239.205 379.976 239.165 379.976 239.118C379.976 239.102 379.976 239.094 379.976 239.086C379.976 239.071 379.976 239.063 379.976 239.047C378.884 225.859 378.006 205.124 380.047 202.062C386.439 192.482 389.153 174.366 385.427 166.178L385.435 166.154Z" fill="white"/>
<path d="M216.011 157.425L218.946 152.687C226.129 141.081 227.158 126.699 221.715 114.183L210.244 87.8314C209.041 85.5926 206.043 85.1258 204.208 86.8662C203.235 87.7918 202.863 89.1921 203.108 90.5212L205.758 104.84C204.603 103.48 202.705 102.831 200.846 103.408C198.528 104.128 197.23 106.604 197.752 108.978L197.966 109.943C197.104 109.761 196.178 109.816 195.268 110.188C193.164 111.05 192.064 113.384 192.555 115.607L193.045 117.838C190.514 117.822 188.441 119.848 188.401 122.387L188.33 126.976C188.299 128.937 188.963 130.868 190.284 132.316C191.423 133.558 192.381 133.676 193.283 133.605L196.083 144.427C198.369 153.256 207.008 158.897 216.011 157.425Z" fill="white" stroke="black" stroke-width="1.74044" stroke-linecap="round" stroke-linejoin="round"/>
<path d="M203.504 125.544C202.666 124.942 202.017 124.056 201.732 122.98L197.903 109.508" stroke="black" stroke-width="1.74044" stroke-linecap="round" stroke-linejoin="round"/>
<path d="M205.98 105.078L207.294 109.421" stroke="black" stroke-width="1.74044" stroke-linecap="round" stroke-linejoin="round"/>
<path d="M196.779 131.557C195.941 132.822 194.493 133.653 192.855 133.629" stroke="black" stroke-width="1.74044" stroke-linecap="round" stroke-linejoin="round"/>
<path d="M220.014 126.848L209.729 111.01C208.804 109.586 206.945 109.096 205.442 109.887C204.208 110.536 203.511 111.881 203.709 113.257L205.03 122.806C201.439 128.597 201.399 135.914 204.927 141.745L205.426 142.568" stroke="black" stroke-width="1.74044" stroke-linecap="round" stroke-linejoin="round"/>
<path d="M202.254 133.027C202.048 133.106 201.843 133.169 201.621 133.217C199.129 133.771 196.661 132.196 196.115 129.704L193.164 118.02" stroke="black" stroke-width="1.74044" stroke-linecap="round" stroke-linejoin="round"/>
<path d="M205.695 153.288L211.281 239.092H217.965H228.638H250.836L225.054 132.506" fill="white"/>
<path d="M250.836 239.092L225.054 132.506" stroke="black" stroke-width="1.74044" stroke-linecap="round" stroke-linejoin="round"/>
<path d="M205.142 155.812L210.727 239.093" stroke="black" stroke-width="1.74044" stroke-linecap="round" stroke-linejoin="round"/>
<path d="M204.001 231.584H304.875C308.182 231.584 310.864 234.266 310.864 237.573V240.009H204.001V231.584Z" fill="#A63019"/>
<path d="M245.463 240.017H148.299L126.947 175.478C124.882 169.244 129.526 162.82 136.092 162.82H212.964C217.118 162.82 220.804 165.486 222.11 169.426L245.463 240.017Z" fill="#A63019"/>
<path d="M184.55 207.759C187.222 205.086 187.222 200.754 184.55 198.081C181.877 195.409 177.544 195.409 174.872 198.081C172.2 200.754 172.2 205.086 174.872 207.759C177.544 210.431 181.877 210.431 184.55 207.759Z" fill="white" stroke="#A63019" stroke-width="1.74044" stroke-linecap="round" stroke-linejoin="round"/>
<path d="M281.499 121.281C270.028 121.281 260.732 111.985 260.732 100.514V84.1065C260.732 72.6354 270.028 63.3398 281.499 63.3398C292.97 63.3398 302.266 72.6354 302.266 84.1065V100.514C302.266 111.985 292.97 121.281 281.499 121.281Z" fill="white" stroke="black" stroke-width="1.74044" stroke-linecap="round" stroke-linejoin="round"/>
<path d="M281.58 90.3318C281.572 91.6181 282.335 92.6637 283.275 92.6673C284.216 92.6709 284.98 91.6312 284.984 90.337C284.988 89.0428 284.229 88.005 283.289 88.0014C282.348 87.9978 281.584 89.0376 281.58 90.3318Z" fill="black"/>
<path d="M262.594 90.3318C262.586 91.6181 263.349 92.6637 264.289 92.6673C265.229 92.6709 265.994 91.6312 265.998 90.337C266.001 89.0428 265.243 88.005 264.302 88.0014C263.362 87.9978 262.597 89.0376 262.594 90.3318Z" fill="black"/>
<path d="M269.434 90.6022C269.434 95.7365 265.273 99.8977 260.138 99.8977C255.004 99.8977 250.843 95.7365 250.843 90.6022C250.843 85.4679 255.004 81.3066 260.138 81.3066C265.273 81.3066 269.434 85.4679 269.434 90.6022Z" stroke="#A63019" stroke-width="1.74044" stroke-linecap="round" stroke-linejoin="round"/>
<path d="M292.851 90.6022C292.851 95.7365 288.69 99.8977 283.555 99.8977C278.421 99.8977 274.26 95.7365 274.26 90.6022C274.26 85.4679 278.421 81.3066 283.555 81.3066C288.69 81.3066 292.851 85.4679 292.851 90.6022Z" stroke="#A63019" stroke-width="1.74044" stroke-linecap="round" stroke-linejoin="round"/>
<path d="M269.291 88.7971C270.565 87.5234 272.637 87.5234 273.911 88.7971" stroke="#A63019" stroke-width="1.74044" stroke-linecap="round" stroke-linejoin="round"/>
<path d="M270.993 89.043C270.993 89.043 269.102 97.6582 268.794 99.541C268.627 100.546 271.721 101.74 271.721 101.74" stroke="black" stroke-width="1.74044" stroke-linecap="round" stroke-linejoin="round"/>
<path d="M269.767 106.385C269.767 106.385 273.675 109.075 279.537 104.922" stroke="black" stroke-width="1.74044" stroke-linecap="round" stroke-linejoin="round"/>
<path d="M312.992 97.1054C312.992 101.694 309.274 105.412 304.686 105.412C300.097 105.412 296.379 101.694 296.379 97.1054C296.379 92.517 300.097 88.8066 304.686 88.8066C309.274 88.8066 312.992 92.5249 312.992 97.1054Z" fill="white"/>
<path d="M302.083 97.1375C302.083 97.1375 302.985 92.8576 307.257 93.087" stroke="black" stroke-width="1.74044" stroke-linecap="round" stroke-linejoin="round"/>
<path d="M288.469 58.918C283.453 58.918 278.762 60.342 274.79 62.8102C274.672 63.807 274.608 64.8197 274.608 65.8481C274.608 80.1988 286.246 91.8361 300.596 91.8361C305.612 91.8361 310.303 90.4121 314.275 87.9438C314.393 86.947 314.457 85.9344 314.457 84.9059C314.457 70.5552 302.819 58.918 288.469 58.918Z" fill="black"/>
<path d="M355.617 165.758C353.006 165.038 351.488 162.657 351.124 158.867C350.839 155.861 348.806 146.969 343.22 148.195C341.765 148.512 341.219 163.646 341.219 163.646C341.219 163.646 341.464 186.287 348.394 191.414C348.711 191.651 337.287 239.094 337.287 239.094" stroke="black" stroke-width="1.74044" stroke-linecap="round" stroke-linejoin="round"/>
<path d="M300.889 126.574H340.919V162.404C340.919 167.324 336.924 171.311 332.011 171.311H309.804C304.884 171.311 300.897 167.316 300.897 162.404V126.574H300.889Z" fill="#D08625"/>
<path d="M343.252 136.592H336.821C333.557 136.592 330.911 139.238 330.911 142.501V151.876C330.911 155.14 333.557 157.786 336.821 157.786H343.252C346.516 157.786 349.162 155.14 349.162 151.876V142.501C349.162 139.238 346.516 136.592 343.252 136.592Z" stroke="#D08625" stroke-width="1.74044" stroke-linecap="round" stroke-linejoin="round"/>
<path d="M366.772 158.187C361.479 152.278 352.263 150.601 352.152 150.585C349.106 150.086 347.042 147.215 347.54 144.169C348.038 141.123 350.91 139.058 353.956 139.557C354.779 139.691 374.232 143.038 380.07 158.931C380.339 159.659 380.442 160.402 380.411 161.122" fill="white"/>
<path d="M366.772 158.187C361.479 152.278 352.263 150.601 352.152 150.585C349.106 150.086 347.042 147.215 347.54 144.169C348.038 141.123 350.91 139.058 353.956 139.557C354.779 139.691 374.232 143.038 380.07 158.931C380.339 159.659 380.442 160.402 380.411 161.122" stroke="black" stroke-width="1.74044" stroke-linecap="round" stroke-linejoin="round"/>
<path d="M379.114 239.092C379.114 239.092 376.376 205.984 379.327 201.554C385.696 191.997 388.18 174.292 384.636 166.507C381.099 158.723 368.624 156.674 361.045 159.142C353.205 161.698 356.433 168.928 357.564 169.316" stroke="black" stroke-width="1.74044" stroke-linecap="round" stroke-linejoin="round"/>
<path d="M357.651 178.991C354.843 177.298 353.846 169.609 362.342 167.488C370.839 165.368 376.677 169.078 376.677 169.078" stroke="black" stroke-width="1.74044" stroke-linecap="round" stroke-linejoin="round"/>
<path d="M365.522 187.929C360.214 193.767 354.368 187.399 355.254 183.151C355.942 179.86 361.535 171.735 375.609 179.433" stroke="black" stroke-width="1.74044" stroke-linecap="round" stroke-linejoin="round"/>
<path d="M362.603 186.602C362.603 186.602 367.65 187.132 367.381 190.32" stroke="black" stroke-width="1.74044" stroke-linecap="round" stroke-linejoin="round"/>
<path d="M360.784 158.322C356.227 159.809 355.238 162.744 355.096 164.635C353.324 163.789 352.279 161.827 351.987 158.781C351.789 156.724 350.95 152.879 349.131 150.197C349.962 150.83 350.942 151.257 352.003 151.431C352.082 151.447 359.645 152.808 364.834 157.475C363.371 157.634 362.002 157.919 360.784 158.314V158.322Z" fill="white"/>
<path d="M251.223 188.857L245.448 213.682" stroke="black" stroke-width="1.74044" stroke-linecap="round" stroke-linejoin="round"/>
</svg>
