<svg width="390" height="51" viewBox="0 0 390 51" fill="none" xmlns="http://www.w3.org/2000/svg">
<rect x="0.5" y="0.505371" width="389" height="49" rx="24.5" fill="white"/>
<path d="M69.8057 31.7386L69.6482 31.5744C69.2836 31.194 69.2766 30.5959 69.6324 30.2072L74.3927 25.0054L69.6248 19.8813C69.2713 19.5015 69.2671 18.9144 69.615 18.5295L69.8072 18.3169C70.2013 17.881 70.8845 17.8771 71.2834 18.3086L76.8468 24.3265C77.201 24.7098 77.201 25.301 76.8468 25.6842L71.2618 31.7254C70.8708 32.1483 70.2043 32.1544 69.8057 31.7386Z" fill="#94B73D"/>
<path d="M76.3312 31.7386L76.1737 31.5744C75.8091 31.194 75.8021 30.5959 76.1579 30.2072L80.9183 25.0054L76.1503 19.8813C75.7968 19.5015 75.7926 18.9144 76.1405 18.5295L76.3327 18.3169C76.7268 17.881 77.41 17.8771 77.8089 18.3086L83.3723 24.3265C83.7265 24.7098 83.7265 25.301 83.3723 25.6842L77.7874 31.7254C77.3964 32.1483 76.7298 32.1544 76.3312 31.7386Z" fill="#94B73D"/>
<path d="M102.545 26.2051H97.9795L97.9551 23.6904H101.788C102.464 23.6904 103.017 23.605 103.448 23.4341C103.88 23.255 104.201 22.9987 104.413 22.665C104.632 22.3232 104.742 21.9082 104.742 21.4199C104.742 20.8665 104.636 20.4189 104.425 20.0771C104.221 19.7354 103.9 19.4871 103.46 19.3325C103.029 19.1779 102.472 19.1006 101.788 19.1006H99.249V34.0054H95.5869V16.2319H101.788C102.822 16.2319 103.745 16.3296 104.559 16.5249C105.381 16.7202 106.077 17.0173 106.646 17.416C107.216 17.8148 107.652 18.3193 107.953 18.9297C108.254 19.5319 108.404 20.248 108.404 21.0781C108.404 21.8105 108.237 22.486 107.904 23.1045C107.578 23.723 107.062 24.2275 106.354 24.6182C105.654 25.0088 104.738 25.2244 103.607 25.2651L102.545 26.2051ZM102.386 34.0054H96.9785L98.4067 31.1489H102.386C103.029 31.1489 103.554 31.0472 103.961 30.8438C104.368 30.6322 104.669 30.3473 104.864 29.9893C105.06 29.6312 105.157 29.2202 105.157 28.7563C105.157 28.2355 105.068 27.7839 104.889 27.4014C104.718 27.0189 104.441 26.7259 104.059 26.5225C103.676 26.3109 103.172 26.2051 102.545 26.2051H99.0171L99.0415 23.6904H103.436L104.278 24.6792C105.361 24.6629 106.231 24.8542 106.891 25.2529C107.558 25.6436 108.042 26.1522 108.343 26.7788C108.653 27.4054 108.807 28.0768 108.807 28.793C108.807 29.9323 108.559 30.8926 108.062 31.6738C107.566 32.4469 106.838 33.0288 105.877 33.4194C104.925 33.8101 103.762 34.0054 102.386 34.0054ZM117.413 34.2495C116.388 34.2495 115.468 34.0868 114.654 33.7612C113.84 33.4276 113.149 32.9678 112.579 32.3818C112.018 31.7959 111.586 31.1164 111.285 30.3433C110.984 29.562 110.833 28.7319 110.833 27.853V27.3647C110.833 26.3638 110.976 25.4482 111.261 24.6182C111.546 23.7881 111.952 23.0679 112.481 22.4575C113.019 21.8472 113.67 21.3792 114.435 21.0537C115.2 20.7201 116.062 20.5532 117.022 20.5532C117.958 20.5532 118.788 20.7078 119.513 21.0171C120.237 21.3263 120.843 21.7658 121.332 22.3354C121.828 22.9051 122.202 23.5887 122.455 24.3862C122.707 25.1756 122.833 26.0545 122.833 27.0229V28.4878H112.335V26.144H119.378V25.8755C119.378 25.3872 119.289 24.9518 119.11 24.5693C118.939 24.1787 118.679 23.8695 118.329 23.6416C117.979 23.4137 117.531 23.2998 116.986 23.2998C116.522 23.2998 116.123 23.4015 115.79 23.605C115.456 23.8084 115.183 24.0933 114.972 24.4595C114.768 24.8257 114.614 25.257 114.508 25.7534C114.41 26.2417 114.361 26.7788 114.361 27.3647V27.853C114.361 28.382 114.435 28.8703 114.581 29.3179C114.736 29.7655 114.951 30.152 115.228 30.4775C115.513 30.8031 115.855 31.0553 116.253 31.2344C116.66 31.4134 117.12 31.5029 117.633 31.5029C118.268 31.5029 118.858 31.3809 119.403 31.1367C119.956 30.8844 120.432 30.506 120.831 30.0015L122.54 31.8569C122.263 32.2557 121.885 32.6382 121.405 33.0044C120.933 33.3706 120.363 33.6717 119.696 33.9077C119.028 34.1356 118.268 34.2495 117.413 34.2495ZM128.546 15.2554V34.0054H125.018V15.2554H128.546ZM139.264 30.8438V20.7974H142.779V34.0054H139.471L139.264 30.8438ZM139.654 28.1338L140.692 28.1094C140.692 28.9883 140.59 29.8062 140.387 30.563C140.183 31.3117 139.878 31.9627 139.471 32.5161C139.064 33.0614 138.552 33.4886 137.933 33.7979C137.315 34.099 136.586 34.2495 135.748 34.2495C135.105 34.2495 134.511 34.16 133.966 33.981C133.429 33.7938 132.965 33.5049 132.574 33.1143C132.192 32.7155 131.891 32.2069 131.671 31.5884C131.459 30.9618 131.354 30.209 131.354 29.3301V20.7974H134.869V29.3545C134.869 29.7451 134.914 30.0747 135.003 30.3433C135.101 30.6118 135.235 30.8315 135.406 31.0024C135.577 31.1733 135.777 31.2954 136.004 31.3687C136.24 31.4419 136.501 31.4785 136.786 31.4785C137.51 31.4785 138.08 31.332 138.495 31.0391C138.918 30.7461 139.215 30.3473 139.386 29.8428C139.565 29.3301 139.654 28.7604 139.654 28.1338ZM148.98 23.5317V34.0054H145.453V20.7974H148.761L148.98 23.5317ZM148.492 26.9375H147.516C147.516 26.0179 147.625 25.1715 147.845 24.3984C148.073 23.6172 148.403 22.9417 148.834 22.3721C149.273 21.7943 149.815 21.3467 150.458 21.0293C151.1 20.7119 151.845 20.5532 152.691 20.5532C153.277 20.5532 153.814 20.6427 154.303 20.8218C154.791 20.9927 155.21 21.2653 155.56 21.6396C155.918 22.0059 156.195 22.486 156.39 23.0801C156.585 23.666 156.683 24.37 156.683 25.1919V34.0054H153.167V25.5825C153.167 24.9803 153.086 24.5164 152.923 24.1909C152.761 23.8654 152.529 23.6375 152.228 23.5073C151.935 23.3771 151.581 23.312 151.166 23.312C150.71 23.312 150.311 23.4056 149.969 23.5928C149.636 23.7799 149.359 24.0404 149.139 24.374C148.919 24.6995 148.757 25.082 148.651 25.5215C148.545 25.9609 148.492 26.4329 148.492 26.9375ZM156.354 26.5347L155.096 26.6934C155.096 25.8307 155.202 25.0291 155.414 24.2886C155.633 23.548 155.955 22.897 156.378 22.3354C156.809 21.7739 157.342 21.3385 157.977 21.0293C158.612 20.7119 159.344 20.5532 160.174 20.5532C160.809 20.5532 161.387 20.6468 161.908 20.834C162.429 21.013 162.872 21.3019 163.238 21.7007C163.613 22.0913 163.897 22.604 164.093 23.2388C164.296 23.8735 164.398 24.6507 164.398 25.5703V34.0054H160.87V25.5703C160.87 24.96 160.789 24.4961 160.626 24.1787C160.471 23.8532 160.243 23.6294 159.942 23.5073C159.649 23.3771 159.299 23.312 158.893 23.312C158.469 23.312 158.099 23.3975 157.782 23.5684C157.464 23.7311 157.2 23.959 156.988 24.252C156.777 24.5449 156.618 24.8867 156.512 25.2773C156.406 25.6598 156.354 26.0789 156.354 26.5347ZM175.238 16.2319H178.338L182.904 29.2812L187.469 16.2319H190.57L184.149 34.0054H181.659L175.238 16.2319ZM173.565 16.2319H176.654L177.215 28.9517V34.0054H173.565V16.2319ZM189.154 16.2319H192.254V34.0054H188.592V28.9517L189.154 16.2319ZM201.324 34.2495C200.299 34.2495 199.379 34.0868 198.565 33.7612C197.752 33.4276 197.06 32.9678 196.49 32.3818C195.929 31.7959 195.497 31.1164 195.196 30.3433C194.895 29.562 194.745 28.7319 194.745 27.853V27.3647C194.745 26.3638 194.887 25.4482 195.172 24.6182C195.457 23.7881 195.864 23.0679 196.393 22.4575C196.93 21.8472 197.581 21.3792 198.346 21.0537C199.111 20.7201 199.973 20.5532 200.934 20.5532C201.869 20.5532 202.7 20.7078 203.424 21.0171C204.148 21.3263 204.754 21.7658 205.243 22.3354C205.739 22.9051 206.113 23.5887 206.366 24.3862C206.618 25.1756 206.744 26.0545 206.744 27.0229V28.4878H196.246V26.144H203.29V25.8755C203.29 25.3872 203.2 24.9518 203.021 24.5693C202.85 24.1787 202.59 23.8695 202.24 23.6416C201.89 23.4137 201.442 23.2998 200.897 23.2998C200.433 23.2998 200.034 23.4015 199.701 23.605C199.367 23.8084 199.094 24.0933 198.883 24.4595C198.679 24.8257 198.525 25.257 198.419 25.7534C198.321 26.2417 198.272 26.7788 198.272 27.3647V27.853C198.272 28.382 198.346 28.8703 198.492 29.3179C198.647 29.7655 198.862 30.152 199.139 30.4775C199.424 30.8031 199.766 31.0553 200.165 31.2344C200.571 31.4134 201.031 31.5029 201.544 31.5029C202.179 31.5029 202.769 31.3809 203.314 31.1367C203.867 30.8844 204.343 30.506 204.742 30.0015L206.451 31.8569C206.174 32.2557 205.796 32.6382 205.316 33.0044C204.844 33.3706 204.274 33.6717 203.607 33.9077C202.94 34.1356 202.179 34.2495 201.324 34.2495ZM212.188 23.6172V34.0054H208.673V20.7974H211.969L212.188 23.6172ZM211.676 26.9375H210.724C210.724 25.9609 210.85 25.082 211.102 24.3008C211.354 23.5114 211.708 22.84 212.164 22.2866C212.62 21.7251 213.161 21.2979 213.788 21.0049C214.422 20.7038 215.13 20.5532 215.912 20.5532C216.53 20.5532 217.096 20.6427 217.608 20.8218C218.121 21.0008 218.561 21.2856 218.927 21.6763C219.301 22.0669 219.586 22.5837 219.781 23.2266C219.985 23.8695 220.086 24.6548 220.086 25.5825V34.0054H216.546V25.5703C216.546 24.9844 216.465 24.5286 216.302 24.2031C216.139 23.8776 215.899 23.6497 215.582 23.5195C215.273 23.3812 214.89 23.312 214.435 23.312C213.963 23.312 213.552 23.4056 213.202 23.5928C212.86 23.7799 212.575 24.0404 212.347 24.374C212.127 24.6995 211.961 25.082 211.847 25.5215C211.733 25.9609 211.676 26.4329 211.676 26.9375ZM231.122 20.7974H234.308V33.5659C234.308 34.7703 234.039 35.7917 233.502 36.6299C232.973 37.4762 232.232 38.1151 231.28 38.5464C230.328 38.9858 229.221 39.2056 227.96 39.2056C227.407 39.2056 226.821 39.1323 226.202 38.9858C225.592 38.8394 225.006 38.6115 224.444 38.3022C223.891 37.993 223.427 37.6024 223.053 37.1304L224.603 35.0552C225.01 35.5272 225.482 35.8934 226.019 36.1538C226.556 36.4224 227.15 36.5566 227.801 36.5566C228.436 36.5566 228.973 36.4386 229.413 36.2026C229.852 35.9748 230.19 35.637 230.426 35.1895C230.662 34.75 230.78 34.217 230.78 33.5903V23.8491L231.122 20.7974ZM222.235 27.5601V27.3037C222.235 26.2946 222.357 25.3791 222.601 24.5571C222.853 23.7271 223.207 23.015 223.663 22.4209C224.127 21.8268 224.688 21.367 225.348 21.0415C226.007 20.716 226.751 20.5532 227.582 20.5532C228.46 20.5532 229.197 20.716 229.791 21.0415C230.385 21.367 230.873 21.8309 231.256 22.4331C231.638 23.0272 231.935 23.7311 232.147 24.5449C232.367 25.3506 232.538 26.2336 232.66 27.1938V27.7554C232.538 28.675 232.354 29.5295 232.11 30.3188C231.866 31.1082 231.545 31.8 231.146 32.394C230.747 32.98 230.251 33.4357 229.657 33.7612C229.071 34.0868 228.371 34.2495 227.557 34.2495C226.743 34.2495 226.007 34.0827 225.348 33.749C224.697 33.4154 224.139 32.9474 223.675 32.3452C223.211 31.743 222.853 31.035 222.601 30.2212C222.357 29.4074 222.235 28.5203 222.235 27.5601ZM225.75 27.3037V27.5601C225.75 28.1053 225.803 28.6139 225.909 29.0859C226.015 29.5579 226.178 29.9771 226.397 30.3433C226.625 30.7013 226.906 30.9821 227.24 31.1855C227.582 31.3809 227.984 31.4785 228.448 31.4785C229.091 31.4785 229.616 31.3442 230.023 31.0757C230.43 30.799 230.735 30.4206 230.938 29.9404C231.142 29.4603 231.26 28.9069 231.292 28.2803V26.6812C231.276 26.1685 231.207 25.7087 231.085 25.3018C230.963 24.8867 230.792 24.5327 230.572 24.2397C230.353 23.9468 230.068 23.7189 229.718 23.5562C229.368 23.3934 228.953 23.312 228.473 23.312C228.009 23.312 227.606 23.4178 227.264 23.6294C226.931 23.8328 226.65 24.1136 226.422 24.4717C226.202 24.8298 226.035 25.2529 225.921 25.7412C225.807 26.2214 225.75 26.7422 225.75 27.3037ZM244.854 30.8438V20.7974H248.37V34.0054H245.062L244.854 30.8438ZM245.245 28.1338L246.283 28.1094C246.283 28.9883 246.181 29.8062 245.978 30.563C245.774 31.3117 245.469 31.9627 245.062 32.5161C244.655 33.0614 244.142 33.4886 243.524 33.7979C242.905 34.099 242.177 34.2495 241.339 34.2495C240.696 34.2495 240.102 34.16 239.557 33.981C239.02 33.7938 238.556 33.5049 238.165 33.1143C237.783 32.7155 237.481 32.2069 237.262 31.5884C237.05 30.9618 236.944 30.209 236.944 29.3301V20.7974H240.46V29.3545C240.46 29.7451 240.505 30.0747 240.594 30.3433C240.692 30.6118 240.826 30.8315 240.997 31.0024C241.168 31.1733 241.367 31.2954 241.595 31.3687C241.831 31.4419 242.092 31.4785 242.376 31.4785C243.101 31.4785 243.67 31.332 244.085 31.0391C244.509 30.7461 244.806 30.3473 244.977 29.8428C245.156 29.3301 245.245 28.7604 245.245 28.1338ZM258.185 31.0269V25.1431C258.185 24.7199 258.115 24.3577 257.977 24.0566C257.839 23.7474 257.623 23.5073 257.33 23.3364C257.045 23.1655 256.675 23.0801 256.219 23.0801C255.829 23.0801 255.491 23.1493 255.206 23.2876C254.921 23.4178 254.701 23.609 254.547 23.8613C254.392 24.1055 254.315 24.3944 254.315 24.728H250.799C250.799 24.1665 250.93 23.6335 251.19 23.1289C251.45 22.6243 251.829 22.1808 252.325 21.7983C252.822 21.4077 253.412 21.1025 254.095 20.8828C254.787 20.6631 255.56 20.5532 256.415 20.5532C257.44 20.5532 258.351 20.7241 259.149 21.0659C259.946 21.4077 260.573 21.9204 261.029 22.604C261.493 23.2876 261.725 24.1421 261.725 25.1675V30.8193C261.725 31.5436 261.769 32.1377 261.859 32.6016C261.948 33.0573 262.079 33.4561 262.25 33.7979V34.0054H258.697C258.526 33.6473 258.396 33.1997 258.307 32.6626C258.225 32.1174 258.185 31.5721 258.185 31.0269ZM258.648 25.9609L258.673 27.9507H256.708C256.244 27.9507 255.841 28.0036 255.499 28.1094C255.157 28.2152 254.876 28.3657 254.657 28.561C254.437 28.7482 254.274 28.9679 254.168 29.2202C254.071 29.4725 254.022 29.7492 254.022 30.0503C254.022 30.3514 254.091 30.624 254.229 30.8682C254.368 31.1042 254.567 31.2913 254.828 31.4297C255.088 31.5599 255.393 31.625 255.743 31.625C256.272 31.625 256.732 31.5192 257.123 31.3076C257.513 31.096 257.814 30.8356 258.026 30.5264C258.246 30.2171 258.36 29.9242 258.368 29.6475L259.295 31.1367C259.165 31.4704 258.986 31.8162 258.758 32.1743C258.539 32.5324 258.258 32.8701 257.916 33.1875C257.574 33.4967 257.163 33.7531 256.683 33.9565C256.203 34.1519 255.633 34.2495 254.974 34.2495C254.136 34.2495 253.375 34.0827 252.691 33.749C252.016 33.4072 251.479 32.9393 251.08 32.3452C250.689 31.743 250.494 31.0594 250.494 30.2944C250.494 29.6027 250.624 28.9883 250.885 28.4512C251.145 27.9141 251.528 27.4624 252.032 27.0962C252.545 26.7218 253.184 26.4411 253.949 26.2539C254.714 26.0586 255.601 25.9609 256.61 25.9609H258.648ZM271.576 30.3555C271.576 30.1032 271.502 29.8753 271.356 29.6719C271.209 29.4684 270.937 29.2812 270.538 29.1104C270.147 28.9313 269.582 28.7686 268.841 28.6221C268.174 28.4756 267.551 28.2925 266.974 28.0728C266.404 27.8449 265.908 27.5723 265.484 27.2549C265.069 26.9375 264.744 26.5632 264.508 26.1318C264.272 25.6924 264.154 25.1919 264.154 24.6304C264.154 24.077 264.272 23.5562 264.508 23.0679C264.752 22.5796 265.098 22.1483 265.545 21.7739C266.001 21.3914 266.555 21.0944 267.206 20.8828C267.865 20.6631 268.605 20.5532 269.427 20.5532C270.575 20.5532 271.559 20.7363 272.381 21.1025C273.211 21.4688 273.846 21.9733 274.286 22.6162C274.733 23.251 274.957 23.9753 274.957 24.7891H271.441C271.441 24.4473 271.368 24.1421 271.222 23.8735C271.083 23.5968 270.864 23.3812 270.562 23.2266C270.27 23.0638 269.887 22.9824 269.415 22.9824C269.024 22.9824 268.687 23.0516 268.402 23.1899C268.117 23.3201 267.897 23.4992 267.743 23.7271C267.596 23.9468 267.523 24.1909 267.523 24.4595C267.523 24.6629 267.564 24.846 267.645 25.0088C267.735 25.1634 267.877 25.3058 268.072 25.436C268.268 25.5662 268.52 25.6883 268.829 25.8022C269.146 25.908 269.537 26.0057 270.001 26.0952C270.953 26.2905 271.804 26.5469 272.552 26.8643C273.301 27.1735 273.895 27.5967 274.334 28.1338C274.774 28.6628 274.994 29.3586 274.994 30.2212C274.994 30.8071 274.863 31.3442 274.603 31.8325C274.343 32.3208 273.968 32.748 273.48 33.1143C272.992 33.4723 272.406 33.7531 271.722 33.9565C271.047 34.1519 270.286 34.2495 269.439 34.2495C268.211 34.2495 267.169 34.0298 266.314 33.5903C265.468 33.1509 264.825 32.5934 264.386 31.918C263.954 31.2344 263.739 30.5345 263.739 29.8184H267.071C267.088 30.2985 267.21 30.6851 267.438 30.978C267.674 31.271 267.971 31.4826 268.329 31.6128C268.695 31.743 269.09 31.8081 269.513 31.8081C269.968 31.8081 270.347 31.7471 270.648 31.625C270.949 31.4948 271.177 31.3239 271.332 31.1123C271.494 30.8926 271.576 30.6403 271.576 30.3555ZM284.405 31.0269V25.1431C284.405 24.7199 284.336 24.3577 284.198 24.0566C284.059 23.7474 283.844 23.5073 283.551 23.3364C283.266 23.1655 282.896 23.0801 282.44 23.0801C282.049 23.0801 281.712 23.1493 281.427 23.2876C281.142 23.4178 280.922 23.609 280.768 23.8613C280.613 24.1055 280.536 24.3944 280.536 24.728H277.02C277.02 24.1665 277.15 23.6335 277.411 23.1289C277.671 22.6243 278.049 22.1808 278.546 21.7983C279.042 21.4077 279.632 21.1025 280.316 20.8828C281.008 20.6631 281.781 20.5532 282.635 20.5532C283.661 20.5532 284.572 20.7241 285.37 21.0659C286.167 21.4077 286.794 21.9204 287.25 22.604C287.713 23.2876 287.945 24.1421 287.945 25.1675V30.8193C287.945 31.5436 287.99 32.1377 288.08 32.6016C288.169 33.0573 288.299 33.4561 288.47 33.7979V34.0054H284.918C284.747 33.6473 284.617 33.1997 284.527 32.6626C284.446 32.1174 284.405 31.5721 284.405 31.0269ZM284.869 25.9609L284.894 27.9507H282.928C282.464 27.9507 282.062 28.0036 281.72 28.1094C281.378 28.2152 281.097 28.3657 280.877 28.561C280.658 28.7482 280.495 28.9679 280.389 29.2202C280.292 29.4725 280.243 29.7492 280.243 30.0503C280.243 30.3514 280.312 30.624 280.45 30.8682C280.589 31.1042 280.788 31.2913 281.048 31.4297C281.309 31.5599 281.614 31.625 281.964 31.625C282.493 31.625 282.953 31.5192 283.343 31.3076C283.734 31.096 284.035 30.8356 284.247 30.5264C284.466 30.2171 284.58 29.9242 284.588 29.6475L285.516 31.1367C285.386 31.4704 285.207 31.8162 284.979 32.1743C284.759 32.5324 284.479 32.8701 284.137 33.1875C283.795 33.4967 283.384 33.7531 282.904 33.9565C282.424 34.1519 281.854 34.2495 281.195 34.2495C280.357 34.2495 279.596 34.0827 278.912 33.749C278.237 33.4072 277.7 32.9393 277.301 32.3452C276.91 31.743 276.715 31.0594 276.715 30.2944C276.715 29.6027 276.845 28.9883 277.105 28.4512C277.366 27.9141 277.748 27.4624 278.253 27.0962C278.766 26.7218 279.404 26.4411 280.169 26.2539C280.934 26.0586 281.821 25.9609 282.831 25.9609H284.869ZM294.366 20.7974V34.0054H290.838V20.7974H294.366ZM290.619 17.355C290.619 16.8423 290.798 16.4191 291.156 16.0854C291.514 15.7518 291.994 15.585 292.596 15.585C293.19 15.585 293.666 15.7518 294.024 16.0854C294.391 16.4191 294.574 16.8423 294.574 17.355C294.574 17.8677 294.391 18.2909 294.024 18.6245C293.666 18.9582 293.19 19.125 292.596 19.125C291.994 19.125 291.514 18.9582 291.156 18.6245C290.798 18.2909 290.619 17.8677 290.619 17.355Z" fill="#94B73D"/>
<path d="M320.194 31.7386L320.352 31.5744C320.716 31.194 320.723 30.5959 320.368 30.2072L315.607 25.0054L320.375 19.8813C320.729 19.5015 320.733 18.9144 320.385 18.5295L320.193 18.3169C319.799 17.881 319.116 17.8771 318.717 18.3086L313.153 24.3265C312.799 24.7098 312.799 25.301 313.153 25.6842L318.738 31.7254C319.129 32.1483 319.796 32.1544 320.194 31.7386Z" fill="#94B73D"/>
<path d="M313.669 31.7386L313.826 31.5744C314.191 31.194 314.198 30.5959 313.842 30.2072L309.082 25.0054L313.85 19.8813C314.203 19.5015 314.207 18.9144 313.859 18.5295L313.667 18.3169C313.273 17.881 312.59 17.8771 312.191 18.3086L306.628 24.3265C306.273 24.7098 306.273 25.301 306.628 25.6842L312.213 31.7254C312.604 32.1483 313.27 32.1544 313.669 31.7386Z" fill="#94B73D"/>
<rect x="0.5" y="0.505371" width="389" height="49" rx="24.5" stroke="#A3A3A3"/>
</svg>
