<svg width="80" height="80" viewBox="0 0 80 80" fill="none" xmlns="http://www.w3.org/2000/svg">
<path d="M43.4188 23.3989H32.9158V72.5747H43.4188V23.3989Z" fill="#BF6240"/>
<path d="M18.3916 35.6084H6.15405V72.575H18.3916V35.6084Z" fill="#CB8C3D"/>
<path d="M55.825 33.7855L43.9614 36.7754L53.0662 72.6125L64.9298 69.6227L55.825 33.7855Z" fill="#A38552"/>
<path d="M31.7569 7.38574H28.4045V72.5754H31.7569V7.38574Z" fill="#020200"/>
<path d="M27.1704 31.8247H23.8181V72.5748H27.1704V31.8247Z" fill="#A04161"/>
<path d="M22.8079 31.8247H19.4556V72.5748H22.8079V31.8247Z" fill="#F4C245"/>
<path d="M38.173 30.2656C40.0007 30.2656 41.4824 29.5728 41.4824 28.7182C41.4824 27.8637 40.0007 27.1709 38.173 27.1709C36.3452 27.1709 34.8635 27.8637 34.8635 28.7182C34.8635 29.5728 36.3452 30.2656 38.173 30.2656Z" fill="#F7ECDE"/>
<path d="M51.6265 42.1305C53.3984 41.684 54.6642 40.6504 54.4538 39.8219C54.2433 38.9934 52.6362 38.6838 50.8643 39.1304C49.0924 39.577 47.8266 40.6106 48.0371 41.439C48.2476 42.2675 49.8546 42.5771 51.6265 42.1305Z" fill="#F7ECDE"/>
<path d="M22.8079 41.3105H19.4556V42.7413H22.8079V41.3105Z" fill="#F7ECDE"/>
<path d="M22.8079 43.377H19.4556V44.0976H22.8079V43.377Z" fill="#F7ECDE"/>
<path d="M27.1704 37.814H23.8181V39.2447H27.1704V37.814Z" fill="#F7ECDE"/>
<path d="M27.1704 39.8804H23.8181V40.6011H27.1704V39.8804Z" fill="#F7ECDE"/>
<path d="M15.6995 37.814H8.85718V63.769H15.6995V37.814Z" fill="#F7ECDE"/>
<path d="M49.5672 50.2557L46.0249 56.0298L68.5706 69.8613L72.1129 64.0873L49.5672 50.2557Z" fill="#A63019"/>
<path d="M68.5741 69.8551L72.2646 72.1192C72.9409 72.5342 73.8253 72.3221 74.2404 71.6456L76.2763 68.327C76.6914 67.6504 76.4797 66.766 75.8034 66.351L72.1128 64.0869L68.5705 69.8609L68.5741 69.8551Z" fill="#020200"/>
<path d="M72.1165 64.0805L68.5742 69.8545L69.6528 70.5162L73.1951 64.7422L72.1165 64.0805Z" fill="#6593C7"/>
<path d="M48.6285 51.7981L46.979 54.4868L69.5247 68.3184L71.1742 65.6297L48.6285 51.7981Z" fill="#F4C245"/>
<path d="M39.6082 48.1106L46.0286 56.0231L47.7998 53.1361L49.5709 50.2491L39.6082 48.1106Z" fill="#FAE1A2"/>
<path d="M39.6083 48.1112L41.3004 50.1929L42.2307 48.6765L39.6083 48.1112Z" fill="#020200"/>
</svg>
