<svg width="368" height="250" viewBox="0 0 368 250" fill="none" xmlns="http://www.w3.org/2000/svg">
<g clip-path="url(#clip0_399_8750)">
<path d="M283.5 176.506C282.22 178.389 282.521 180.663 282.054 182.741C279.569 193.539 274.374 202.756 266.287 210.286C257.734 218.268 247.569 222.967 235.958 224.533C227.796 225.633 219.815 224.864 212.059 222.184C205.464 219.895 199.545 216.371 194.124 211.913C188.823 207.56 185.043 202.108 181.535 196.371C179.622 192.636 178.071 188.75 176.896 184.729C176.475 182.5 176.008 180.286 175.647 178.042C175.421 176.657 176.384 175.151 175.993 174.383C174.833 172.108 175.601 169.834 175.285 167.621C175.601 166.446 174.999 165.151 175.767 164.036C176.174 163.901 176.159 163.584 176.083 163.253C176.249 162.545 175.345 161.868 175.812 161.265C176.987 159.729 176.671 157.861 177.137 156.175C177.469 154.955 178.177 153.84 178.116 152.53H178.101C178.523 152.515 178.493 152.214 178.448 151.913C181.459 144.669 185.45 138.057 191.022 132.47C191.293 132.199 191.579 131.943 191.85 131.672C195.449 127.937 199.801 125.241 204.289 122.726C206.548 121.837 208.671 120.663 210.99 119.849C214.047 118.78 217.255 118.223 220.312 117.169C220.99 117.696 221.712 117.56 222.495 117.44C225.899 116.928 229.302 116.175 232.751 117.093C235.672 116.958 238.548 117.395 241.349 118.042C250.144 120.105 258.11 123.976 264.872 130C274.118 138.238 280.217 148.343 282.37 160.663C282.476 161.25 282.506 162.063 283.515 161.672V162.455C283.154 161.973 282.867 162.139 282.792 162.621C282.626 163.569 282.928 164.428 283.515 165.196V176.521L283.5 176.506ZM205.825 166.687C203.416 166.792 201.729 168.208 200.584 170.527C199.274 173.178 200.344 175.286 202.03 177.184C203.235 178.524 204.696 179.624 206.066 180.798C209.771 184.006 213.43 187.274 217.21 190.377C219.514 192.274 222.029 192.093 224.559 190.422C225.748 189.639 226.441 188.494 227.375 187.515C231.215 183.479 235.04 179.428 238.82 175.346C243.292 170.512 247.629 165.557 252.207 160.813C254.647 158.283 254.722 154.051 252.312 151.717C250.174 149.639 245.641 149.714 243.367 152.018C241.093 154.337 238.774 156.611 236.726 159.111C234.964 161.28 232.916 163.163 231.064 165.241C227.796 168.931 224.318 172.425 220.929 176.009C220.508 176.446 220.206 176.611 219.664 176.114C216.878 173.66 214.032 171.295 211.261 168.825C209.755 167.485 208.069 166.792 205.81 166.672L205.825 166.687Z" fill="#3475B9"/>
<path d="M232.735 25C236.515 26.4157 237.901 29.2319 237.75 33.1325C237.614 36.8373 237.75 40.5422 237.69 44.247C237.675 45.4518 238.036 45.8133 239.241 45.7982C243.337 45.738 247.433 45.738 251.529 45.7982C255.429 45.8434 257.658 47.5753 258.291 51.2952C258.577 52.9669 258.261 54.7289 256.905 56.0843C251.153 61.8223 245.415 67.5904 239.647 73.3283C238.518 74.4578 237.163 75.0301 235.491 75.0151C229.377 74.9699 223.263 75.0301 217.149 75.0452C216.758 75.0301 216.381 75 215.99 74.9849C210.854 74.9247 208.791 72.9819 208.52 67.9066C208.49 67.4548 208.55 66.988 208.099 66.7018C208.671 66.0392 208.52 65.241 208.52 64.4729C208.52 59.1416 208.611 53.8102 208.49 48.4789C208.445 46.1295 209.364 44.3223 210.9 42.7711C216.005 37.5904 221.2 32.4699 226.32 27.3042C227.299 26.3253 228.639 25.9488 229.618 25L232.735 25Z" fill="#3475B9"/>
<path d="M283.5 165.181C282.898 164.428 282.612 163.569 282.777 162.605C282.868 162.124 283.139 161.958 283.5 162.44V165.166V165.181Z" fill="white"/>
<path d="M176.882 184.714C178.071 188.735 179.622 192.62 181.52 196.355C176.43 197.801 171.295 198.961 166.009 199.593C161.597 200.12 157.169 200.12 152.802 199.834C145.679 199.352 138.707 197.771 132.005 195.196C123.572 191.958 115.862 187.44 109.131 181.461C102.399 175.482 96.7068 168.599 92.4451 160.602C89.2074 154.533 86.8582 148.178 85.2167 141.461C83.3645 133.72 83.2892 125.919 83.7108 118.132C84.1325 110.512 86.1956 103.132 89.1923 96.0241C92.3246 88.5692 96.6616 81.8976 101.827 75.768C104.191 72.9518 107.052 70.5421 109.688 67.9518C109.838 67.8313 109.989 67.7259 110.14 67.6054C116.54 62.1235 123.753 57.9668 131.569 54.9548C137.186 52.7861 143.104 51.6114 149.067 50.6024C151.974 50.1054 154.85 51.0241 157.666 50.015C158.916 49.5632 160.196 50.3614 161.476 50.3614C163.901 50.3765 166.295 49.9096 168.735 50.6777C171.129 51.4307 173.659 51.762 176.129 52.2741C176.294 52.6205 176.49 52.9066 176.897 52.9819C179.487 52.5 181.715 53.7801 184.004 54.5783C191.654 57.2439 198.582 61.265 204.967 66.2198C205.569 66.6867 206.051 67.3192 206.578 67.8765C203.611 70.753 200.63 73.6445 197.663 76.5211C197.121 76.1445 196.564 75.753 196.022 75.3765C196.022 74.8343 195.751 74.5783 195.208 74.5783C193.793 73.6295 192.362 72.6807 190.947 71.7168L190.525 71.4458C190.239 71.3253 189.953 71.2048 189.667 71.0692C184.712 68.7801 180.179 65.7229 174.593 64.6385C168.358 63.4337 162.214 62.4247 155.829 62.7861C151.417 63.0271 147.019 63.2379 142.743 64.4277C138.451 65.6024 134.234 67.018 130.289 69.0813C121.871 73.4939 114.687 79.3674 108.86 86.9427C100.547 97.7409 96.496 110.03 95.728 123.494C95.472 128.057 96.1647 132.636 97.008 137.078C97.9718 142.184 99.6735 147.154 102.008 151.852C104.884 157.636 108.423 162.967 112.88 167.666C118.106 173.178 124.129 177.62 130.921 181.039C137.954 184.578 145.438 186.687 153.239 187.319C161.235 187.967 169.171 187.063 176.882 184.669V184.714Z" fill="#A63019"/>
<path d="M197.678 76.5512C200.645 73.6747 203.626 70.7831 206.593 67.9066C207.105 67.5 207.602 67.1084 208.114 66.7018C208.566 67.003 208.505 67.4699 208.536 67.9066C208.822 72.9819 210.87 74.9247 216.005 74.9849C216.396 74.9849 216.773 75.015 217.164 75.0452C216.713 75.6174 216.261 76.1897 215.809 76.762C212.647 79.503 209.77 82.515 206.924 85.5723C202.903 89.5783 198.883 93.5692 194.862 97.5753C191.88 100.452 188.838 103.268 186.143 106.416C181.821 110.136 178.026 114.413 173.945 118.389C173.779 118.539 173.779 118.87 173.704 119.111C173.418 119.232 173.056 119.277 172.846 119.473C169.517 122.651 166.174 125.798 162.937 129.066C160.904 131.129 158.81 131.792 156.341 130.828C153.871 129.864 152.38 127.62 152.275 124.955C152.184 122.41 153.735 120.723 155.272 119.111C158.298 115.934 161.476 112.892 164.593 109.789C168.96 105.904 173.207 101.883 176.881 97.3193C177.439 97.2741 177.785 96.8825 178.161 96.5211C180.887 93.9458 183.357 91.1295 185.857 88.3433C189.892 84.5331 193.823 80.6024 197.633 76.5662L197.678 76.5512Z" fill="#285A8F"/>
<path d="M176.912 53.012C176.505 52.9367 176.294 52.6506 176.144 52.3042C177.122 51.762 176.821 52.6054 176.912 53.012Z" fill="white"/>
<path d="M110.139 67.6205C109.989 67.7259 109.838 67.8464 109.688 67.9669C109.763 67.756 109.868 67.5753 110.139 67.6205Z" fill="white"/>
<path d="M197.678 76.5512C193.868 80.5874 189.938 84.5181 185.902 88.3283C185.661 88.253 185.375 88.2229 185.179 88.0723C177.454 82.1084 168.614 79.4428 158.946 79.2771C155.844 79.2319 152.772 79.4578 149.745 80.0603C133.933 83.2078 122.97 92.3946 116.314 106.928C113.92 112.154 112.745 117.696 112.519 123.419C112.369 127.214 112.866 130.949 113.634 134.699C115.35 143.102 119.431 150.211 125.094 156.446C128.301 159.97 132.156 162.726 136.328 165.105C143.089 168.961 150.363 170.723 158.028 171.009C164.006 171.235 169.653 169.458 175.27 167.605C175.587 169.834 174.834 172.108 175.978 174.367C176.37 175.136 175.406 176.642 175.632 178.027C175.993 180.271 176.46 182.485 176.882 184.714C169.172 187.108 161.235 188.012 153.239 187.364C145.453 186.732 137.954 184.624 130.921 181.084C124.13 177.666 118.106 173.238 112.881 167.711C108.423 163.012 104.899 157.666 102.008 151.898C99.6738 147.214 97.9721 142.244 97.0083 137.123C96.165 132.666 95.4723 128.102 95.7283 123.539C96.4963 110.075 100.547 97.7862 108.86 86.988C114.688 79.4127 121.886 73.5542 130.289 69.1265C134.234 67.0482 138.451 65.6476 142.743 64.4729C147.02 63.2982 151.417 63.0723 155.829 62.8313C162.199 62.4849 168.358 63.4789 174.593 64.6837C180.18 65.7681 184.713 68.8253 189.667 71.1145C189.953 71.25 190.239 71.3554 190.525 71.491C190.601 71.6868 190.691 71.8675 190.947 71.7621C192.363 72.7108 193.793 73.6596 195.209 74.6235C195.209 75.1657 195.51 75.3916 196.022 75.4217C196.564 75.7982 197.121 76.1898 197.663 76.5663L197.678 76.5512Z" fill="white"/>
<path d="M173.719 119.096C173.794 118.855 173.794 118.539 173.96 118.373C178.041 114.398 181.836 110.136 186.158 106.416C187.122 108.208 188.206 109.955 189.004 111.822C191.383 117.379 191.925 123.223 191.308 129.187C191.218 130 190.781 130.768 191.127 131.611C191.082 131.898 191.052 132.169 191.007 132.455C185.435 138.042 181.444 144.654 178.433 151.898C178.177 152.018 177.665 152.018 178.086 152.53H178.101C177.213 152.063 176.64 152.831 176.053 153.178C169.518 157.048 162.62 159.111 154.895 158.223C149.79 157.635 145.182 156.039 140.875 153.313C136.403 150.497 132.457 147.123 129.882 142.485C125.59 134.759 123.693 126.536 125.816 117.741C127.789 109.608 132.141 102.997 138.917 98.0271C143.059 94.9849 147.667 92.9668 152.757 92.2439C157.35 91.5963 161.928 91.5512 166.521 92.7861C170.27 93.7801 173.538 95.6777 176.942 97.3343C173.267 101.913 169.021 105.919 164.653 109.804C163.735 109.142 162.651 109.142 161.596 108.901C153.856 107.184 147.215 111.16 143.676 117.319C141.508 121.084 141.176 125.12 142.261 129.187C144.173 136.34 150.603 141.581 157.952 141.702C162.967 141.792 167.259 139.834 170.782 136.069C174.788 131.792 176.219 124.443 173.734 119.111L173.719 119.096Z" fill="white"/>
<path d="M176.927 97.3042C173.523 95.6325 170.256 93.75 166.506 92.756C161.913 91.5211 157.335 91.5663 152.742 92.2139C147.667 92.9368 143.059 94.9548 138.903 97.997C132.126 102.967 127.774 109.578 125.801 117.711C123.678 126.491 125.575 134.729 129.867 142.455C132.442 147.093 136.388 150.467 140.86 153.283C145.182 156.009 149.79 157.605 154.88 158.193C162.606 159.081 169.503 157.018 176.038 153.148C176.611 152.801 177.198 152.033 178.086 152.5C178.147 153.825 177.439 154.94 177.108 156.145C176.641 157.831 176.957 159.699 175.782 161.235C175.331 161.837 176.219 162.515 176.053 163.223C175.541 163.313 175.135 163.464 175.737 164.006C174.969 165.12 175.571 166.416 175.255 167.59C169.653 169.443 163.991 171.22 158.013 170.994C150.347 170.708 143.059 168.931 136.312 165.09C132.141 162.711 128.286 159.955 125.078 156.431C119.416 150.196 115.32 143.087 113.618 134.684C112.85 130.934 112.353 127.199 112.504 123.404C112.73 117.681 113.904 112.139 116.299 106.913C122.955 92.3946 133.933 83.1928 149.73 80.0452C152.757 79.4428 155.844 79.2018 158.931 79.2621C168.599 79.4277 177.439 82.0934 185.164 88.0572C185.36 88.2078 185.646 88.2229 185.887 88.3133C183.387 91.0994 180.917 93.9157 178.192 96.491C177.815 96.8524 177.469 97.244 176.912 97.2892L176.927 97.3042Z" fill="#A63019"/>
<path d="M205.825 166.687C208.069 166.792 209.771 167.5 211.277 168.84C214.032 171.31 216.894 173.69 219.68 176.129C220.237 176.611 220.538 176.461 220.945 176.024C224.333 172.44 227.812 168.946 231.079 165.256C232.932 163.178 234.98 161.295 236.742 159.126C238.79 156.626 241.109 154.337 243.383 152.033C245.657 149.714 250.189 149.654 252.328 151.732C254.737 154.066 254.662 158.313 252.222 160.828C247.644 165.557 243.307 170.527 238.835 175.361C235.055 179.443 231.215 183.494 227.39 187.53C226.456 188.509 225.763 189.654 224.574 190.437C222.044 192.108 219.544 192.289 217.225 190.392C213.445 187.289 209.786 184.021 206.081 180.813C204.711 179.623 203.25 178.524 202.045 177.199C200.344 175.316 199.29 173.193 200.6 170.542C201.744 168.223 203.431 166.807 205.84 166.702L205.825 166.687Z" fill="white"/>
<path d="M194.877 97.5753C198.898 93.5693 202.919 89.5784 206.94 85.5723C210.012 89.6838 212.918 93.9006 215.057 98.5844C217.767 104.503 219.529 110.678 220.297 117.139C217.24 118.193 214.033 118.735 210.976 119.819C208.672 120.633 206.548 121.822 204.274 122.696C203.551 119.217 203.461 115.648 202.362 112.229C200.66 106.913 198.522 101.883 194.877 97.5753Z" fill="white"/>
<path d="M220.297 117.139C219.529 110.678 217.752 104.488 215.056 98.5843C212.918 93.9006 210.012 89.6837 206.939 85.5723C209.771 82.5151 212.662 79.503 215.824 76.7621C220.267 82.244 224.077 88.1325 226.908 94.6235C229.257 100.015 231.109 105.557 231.998 111.401C232.284 113.283 232.871 115.136 232.751 117.078C229.302 116.16 225.899 116.913 222.496 117.425C221.712 117.545 220.99 117.666 220.312 117.154L220.297 117.139Z" fill="#A63019"/>
<path d="M194.877 97.5752C198.521 101.882 200.66 106.913 202.361 112.229C203.461 115.663 203.551 119.232 204.274 122.696C199.786 125.196 195.449 127.907 191.835 131.641C191.594 131.641 191.353 131.611 191.127 131.596C190.781 130.753 191.233 129.985 191.308 129.172C191.925 123.208 191.383 117.364 189.004 111.807C188.206 109.94 187.121 108.208 186.158 106.401C188.853 103.253 191.895 100.437 194.877 97.5602V97.5752Z" fill="#A63019"/>
<path d="M175.752 164.006C175.15 163.464 175.556 163.313 176.068 163.223C176.129 163.554 176.159 163.871 175.752 164.006Z" fill="white"/>
<path d="M191.128 131.596C191.369 131.596 191.61 131.627 191.836 131.642C191.565 131.913 191.278 132.169 191.007 132.44C191.053 132.154 191.083 131.883 191.128 131.596Z" fill="white"/>
<path d="M178.086 152.5C177.679 151.988 178.176 152.003 178.432 151.867C178.462 152.154 178.508 152.455 178.086 152.5Z" fill="white"/>
<path d="M196.037 75.3916C195.525 75.3765 195.224 75.1356 195.224 74.5934C195.766 74.5934 196.037 74.8494 196.037 75.3916Z" fill="white"/>
<path d="M190.962 71.747C190.706 71.8524 190.615 71.6717 190.54 71.4759C190.676 71.5663 190.826 71.6566 190.962 71.747Z" fill="white"/>
<path d="M173.719 119.096C176.189 124.428 174.773 131.777 170.767 136.054C167.244 139.819 162.952 141.777 157.937 141.687C150.588 141.551 144.158 136.325 142.246 129.172C141.161 125.105 141.493 121.069 143.661 117.304C147.2 111.145 153.841 107.169 161.581 108.886C162.636 109.127 163.72 109.127 164.638 109.789C161.521 112.892 158.344 115.934 155.317 119.111C153.781 120.723 152.215 122.41 152.32 124.955C152.425 127.605 153.916 129.864 156.386 130.828C158.856 131.792 160.934 131.114 162.982 129.066C166.22 125.798 169.578 122.651 172.891 119.473C173.102 119.277 173.463 119.232 173.749 119.111L173.719 119.096Z" fill="#A63019"/>
</g>
<defs>
<clipPath id="clip0_399_8750">
<rect width="200" height="200" fill="white" transform="translate(83.5 25)"/>
</clipPath>
</defs>
</svg>
