<svg width="80" height="80" viewBox="0 0 80 80" fill="none" xmlns="http://www.w3.org/2000/svg">
<path d="M76.513 12.7237V57.0167C75.8664 58.5401 74.6376 58.8906 73.1071 58.8119C71.7563 58.7404 70.3982 58.7976 69.0402 58.7976C63.9601 58.7976 58.8728 58.8119 53.7927 58.8191C53.7424 58.8048 53.7065 58.8262 53.6921 58.8834C46.0684 58.8834 38.4446 58.8834 30.8137 58.8834C28.7802 58.8834 26.7468 58.8978 24.7133 58.9049C24.4762 58.7189 24.1959 58.8048 23.9444 58.8048C21.9828 58.7976 20.014 58.8048 18.0524 58.8048C13.5687 58.8048 9.07778 58.8119 4.59407 58.8048C3.02046 58.8048 2.00012 57.8607 2.00012 56.4303C2.00012 42.0044 2.00012 27.5858 2.00012 13.1599C2.00012 12.8381 2.07917 12.5663 2.23725 12.2802C2.78335 11.3004 3.66713 11 4.70902 11C27.6952 11 50.6814 11 73.6676 11C74.4005 11 75.0903 11.1645 75.7011 11.5936C76.1107 11.8797 76.0604 12.4733 76.5059 12.7308L76.513 12.7237ZM39.3356 13.4103C28.5647 13.4103 17.8009 13.4103 7.02992 13.4103C6.51976 13.4103 6.0096 13.4246 5.50662 13.446C4.91022 13.4746 4.57252 13.8179 4.4791 14.3758C4.42881 14.6833 4.43599 14.998 4.43599 15.3127C4.43599 27.4928 4.43599 39.68 4.43599 51.8601C4.43599 52.0532 4.45036 52.2463 4.43599 52.4394C4.34977 53.2333 4.65155 53.6767 5.37728 53.9985C5.94493 54.2489 6.47665 53.9914 7.01556 53.9914C28.4784 54.0129 49.9413 54.0057 71.4042 54.0129C71.7132 54.0129 72.0293 54.0486 72.3383 54.0844C73.3586 54.2203 74.0197 53.6695 74.0556 52.6539C74.07 52.2677 74.0987 51.8815 74.0987 51.4953C74.0987 39.4368 74.0987 27.3712 74.0987 15.3127C74.0987 15.0266 74.1059 14.7334 74.07 14.4473C73.9838 13.8179 73.6245 13.4532 72.9562 13.4389C72.3239 13.4246 71.6988 13.4031 71.0665 13.4031C60.4895 13.4031 49.9198 13.4031 39.3428 13.4031L39.3356 13.4103Z" fill="#A63019"/>
<path d="M55.9847 63.5399C57.1991 63.5542 58.4062 63.5685 59.6206 63.5828C60.1523 63.5828 60.6697 63.6257 61.1798 63.8045C62.0996 64.1192 62.272 64.7057 61.6469 65.4209C61.496 65.5997 61.3738 65.8071 61.2373 66.0002H17.14C16.9604 65.7499 16.8598 65.4709 16.5436 65.285C16.17 65.0633 16.4215 64.2265 16.8814 63.9547C17.4418 63.6185 18.0742 63.6114 18.6921 63.5971C19.928 63.5685 21.1567 63.5613 22.3926 63.547C26.1722 63.547 29.9517 63.5327 33.7313 63.5327C41.1467 63.5327 48.5621 63.5399 55.9775 63.547L55.9847 63.5399Z" fill="#A63019"/>
<path d="M39.3358 13.4102C49.9127 13.4102 60.4825 13.4102 71.0595 13.4102C71.6918 13.4102 72.3169 13.4388 72.9492 13.4459C73.6175 13.4602 73.9696 13.825 74.063 14.4544C74.1061 14.7405 74.0917 15.0337 74.0917 15.3198C74.0917 27.3782 74.0917 39.4439 74.0917 51.5023C74.0917 51.8886 74.063 52.2748 74.0486 52.661C74.0127 53.6766 73.3516 54.2202 72.3313 54.0914C72.0223 54.0485 71.7062 54.0199 71.3972 54.0199C49.9343 54.0199 28.4714 54.0199 7.00856 53.9984C6.46247 53.9984 5.93075 54.2631 5.37028 54.0056C4.64456 53.6837 4.34277 53.2403 4.42899 52.4464C4.45055 52.2533 4.42899 52.0602 4.42899 51.8671C4.42899 39.6871 4.42899 27.4998 4.42899 15.3198C4.42899 15.0051 4.42181 14.6904 4.47211 14.3828C4.56552 13.8178 4.91041 13.4817 5.49962 13.4531C6.00978 13.4316 6.51994 13.4173 7.02292 13.4173C17.7939 13.4173 28.5577 13.4173 39.3286 13.4173L39.3358 13.4102ZM39.228 51.6669C49.7259 51.6669 60.231 51.6669 70.7289 51.6669C71.699 51.6669 71.7133 51.6597 71.7133 50.7085C71.7133 39.3938 71.7133 28.0792 71.7133 16.7645C71.7133 15.7775 71.7133 15.7704 70.693 15.7704C49.7403 15.7704 28.7876 15.7704 7.82771 15.7704C6.81456 15.7704 6.80737 15.7704 6.80737 16.7645C6.80737 28.0577 6.80737 39.3438 6.80737 50.6369C6.80737 51.6669 6.80737 51.6669 7.86363 51.6669C18.3184 51.6669 28.766 51.6669 39.2208 51.6669H39.228Z" fill="#D3988C"/>
<path d="M53.793 58.8919C54.0014 59.7216 54.6265 60.3724 54.8062 61.2164C44.3944 61.2164 33.9827 61.2164 23.5637 61.2164C23.9517 60.4439 24.3326 59.6787 24.7206 58.9062C26.7541 58.8991 28.7876 58.8848 30.8211 58.8848C38.4448 58.8848 46.0686 58.8848 53.6996 58.8848L53.7499 58.8991H53.8002L53.793 58.8919Z" fill="#A63019"/>
<path d="M53.7808 58.8895H53.7311H53.6814C53.6956 58.8327 53.7311 58.8113 53.7808 58.8256C53.8021 58.8469 53.795 58.8682 53.7737 58.8895H53.7808Z" fill="#C4DEFF"/>
<path d="M23.5641 61.2153C33.9758 61.2153 44.3876 61.2153 54.8065 61.2153C55.2017 61.9878 55.5897 62.7602 55.9849 63.5398C48.5695 63.5398 41.1541 63.5255 33.7387 63.5255C29.9591 63.5255 26.1796 63.5326 22.4 63.5398C22.788 62.7673 23.1832 61.9878 23.5712 61.2153H23.5641Z" fill="#D3988C"/>
<path d="M39.2288 51.668C28.774 51.668 18.3264 51.668 7.87157 51.668C6.81531 51.668 6.81531 51.668 6.81531 50.6381C6.81531 39.3449 6.81531 28.0588 6.81531 16.7656C6.81531 15.7715 6.8153 15.7715 7.83563 15.7715C28.7883 15.7715 49.7411 15.7715 70.701 15.7715C71.7213 15.7715 71.7213 15.7715 71.7213 16.7656C71.7213 28.0803 71.7213 39.3949 71.7213 50.7096C71.7213 51.6608 71.7141 51.668 70.7369 51.668C60.239 51.668 49.7339 51.668 39.236 51.668H39.2288ZM55.4247 19.9984C55.4104 19.0472 54.5266 18.525 53.7218 18.9542C53.4703 19.0901 53.2619 19.3046 53.0535 19.5049C44.0789 28.4236 35.1115 37.3423 26.1441 46.2681C25.9573 46.4541 25.7633 46.6472 25.6268 46.8689C25.289 47.4339 25.4256 47.9632 25.907 48.3565C26.3597 48.7356 26.8842 48.7499 27.3728 48.3637C27.5812 48.1992 27.7608 47.9989 27.9477 47.813C31.6697 44.1082 35.3846 40.4034 39.1066 36.7057C44.3879 31.4489 49.6692 26.1993 54.9577 20.9496C55.2451 20.6635 55.475 20.3703 55.4247 19.9912V19.9984ZM44.0358 23.1096C44.0358 22.3729 43.5616 21.9009 42.9508 21.8651C42.5197 21.8365 42.2179 22.0296 41.9305 22.3157C37.0157 27.2149 32.0936 32.0998 27.1788 36.999C27.0926 37.0848 27.0064 37.1706 26.9345 37.2636C26.5896 37.7356 26.6112 38.2005 26.9992 38.644C27.4734 39.1947 28.1991 39.1303 28.8818 38.4509C31.8134 35.5399 34.7379 32.6147 37.6767 29.711C39.5521 27.8586 41.4563 26.0419 43.3388 24.2038C43.6837 23.8677 44.0215 23.5101 44.043 23.1096H44.0358Z" fill="#F6EAE8"/>
<path d="M55.4241 19.9892C55.4673 20.3682 55.2445 20.6615 54.9571 20.9476C49.6686 26.1972 44.3873 31.454 39.1059 36.7037C35.3839 40.4085 31.669 44.1061 27.9469 47.8109C27.7601 47.9969 27.5732 48.1971 27.372 48.3616C26.8906 48.7478 26.3589 48.7335 25.9062 48.3545C25.4319 47.9611 25.2882 47.4319 25.626 46.8668C25.7625 46.6451 25.9565 46.452 26.1433 46.2661C35.1108 37.3402 44.0783 28.4215 53.0529 19.5028C53.2541 19.3026 53.4697 19.088 53.7212 18.9521C54.526 18.523 55.4098 19.0451 55.4241 19.9963V19.9892Z" fill="white"/>
<path d="M44.0356 23.1008C44.014 23.5013 43.6763 23.8589 43.3314 24.1951C41.4488 26.0332 39.5447 27.8498 37.6693 29.7022C34.7304 32.606 31.8059 35.5312 28.8742 38.4421C28.1916 39.1144 27.4659 39.1859 26.9916 38.6352C26.6108 38.1918 26.5821 37.7269 26.927 37.2548C26.9988 37.1547 27.0851 37.0689 27.1713 36.9902C32.0861 32.0982 37.0082 27.2061 41.9231 22.3069C42.2105 22.0208 42.5123 21.8277 42.9434 21.8563C43.5542 21.8921 44.0284 22.3641 44.0284 23.1008H44.0356Z" fill="white"/>
<path d="M62.0866 29.1992H54.2455V65.9117H62.0866V29.1992Z" fill="#BF6240"/>
<path d="M43.4024 38.3135H34.2664V65.9111H43.4024V38.3135Z" fill="#CB8C3D"/>
<path d="M71.3485 36.9534L62.4917 39.1855L69.2889 65.94L78.1458 63.7079L71.3485 36.9534Z" fill="#A38552"/>
<path d="M53.3798 17.2446H50.8771V65.9124H53.3798V17.2446Z" fill="#020200"/>
<path d="M49.9562 35.4897H47.4535V65.912H49.9562V35.4897Z" fill="#A04161"/>
<path d="M46.6992 35.4897H44.1965V65.912H46.6992V35.4897Z" fill="#F4C245"/>
<path d="M58.1699 34.3265C59.5344 34.3265 60.6406 33.8093 60.6406 33.1713C60.6406 32.5333 59.5344 32.0161 58.1699 32.0161C56.8054 32.0161 55.6992 32.5333 55.6992 33.1713C55.6992 33.8093 56.8054 34.3265 58.1699 34.3265Z" fill="#F7ECDE"/>
<path d="M68.2141 43.184C69.5369 42.8506 70.4819 42.0789 70.3248 41.4604C70.1677 40.842 68.9679 40.6108 67.6451 40.9442C66.3222 41.2776 65.3773 42.0492 65.5344 42.6677C65.6915 43.2862 66.8913 43.5174 68.2141 43.184Z" fill="#F7ECDE"/>
<path d="M46.6992 42.5718H44.1965V43.6399H46.6992V42.5718Z" fill="#F7ECDE"/>
<path d="M46.6992 44.1143H44.1965V44.6523H46.6992V44.1143Z" fill="#F7ECDE"/>
<path d="M49.9562 39.9604H47.4535V41.0286H49.9562V39.9604Z" fill="#F7ECDE"/>
<path d="M49.9562 41.5034H47.4535V42.0414H49.9562V41.5034Z" fill="#F7ECDE"/>
<path d="M41.3928 39.9604H36.2845V59.3374H41.3928V39.9604Z" fill="#F7ECDE"/>
</svg>
