<svg width="470" height="250" viewBox="0 0 470 250" fill="none" xmlns="http://www.w3.org/2000/svg">
<mask id="mask0_402_10067" style="mask-type:alpha" maskUnits="userSpaceOnUse" x="0" y="0" width="470" height="250">
<path d="M0 20C0 8.9543 8.9543 0 20 0H450C461.046 0 470 8.9543 470 20V250H0V20Z" fill="#F7ECDE"/>
</mask>
<g mask="url(#mask0_402_10067)">
<path d="M272.393 101.056C286.566 101.056 298.056 89.5656 298.056 75.3909C298.056 61.2162 286.566 49.7254 272.393 49.7254C258.219 49.7254 246.729 61.2162 246.729 75.3909C246.729 89.5656 258.219 101.056 272.393 101.056Z" fill="white"/>
<path d="M261.046 66.0839C261.065 66.0083 261.102 65.9365 261.155 65.8723C261.352 65.6418 261.696 65.6115 261.926 65.808L272.468 74.7411L290.715 65.6266C290.987 65.4906 291.315 65.6002 291.451 65.8723C291.587 66.1443 291.478 66.4731 291.206 66.6091L272.634 75.8861C272.438 75.9843 272.204 75.9541 272.034 75.8143L261.216 66.6469C261.05 66.5033 260.989 66.2842 261.042 66.0839H261.046Z" fill="#A63019"/>
<path d="M272.393 57.2112C272.193 57.2112 272.026 57.0487 272.026 56.8447V49.7254C272.026 49.5252 272.189 49.3589 272.393 49.3589C272.597 49.3589 272.759 49.5214 272.759 49.7254V56.8447C272.759 57.0449 272.597 57.2112 272.393 57.2112Z" fill="#285A8F"/>
<path d="M272.393 101.446C272.193 101.446 272.026 101.283 272.026 101.079V93.9602C272.026 93.7599 272.189 93.5936 272.393 93.5936C272.597 93.5936 272.759 93.7561 272.759 93.9602V101.079C272.759 101.28 272.597 101.446 272.393 101.446Z" fill="#285A8F"/>
<path d="M292.959 65.2826C292.827 65.2826 292.698 65.2109 292.634 65.0824C292.543 64.901 292.615 64.6819 292.793 64.5912L295.098 63.4161C295.279 63.3254 295.498 63.3972 295.589 63.5748C295.679 63.7523 295.608 63.9753 295.43 64.066L293.125 65.2411C293.072 65.2675 293.016 65.2826 292.959 65.2826Z" fill="#D7E5FF"/>
<path d="M249.518 87.4299C249.385 87.4299 249.257 87.3581 249.193 87.2297C249.102 87.0483 249.174 86.8291 249.351 86.7385L251.656 85.5633C251.838 85.4727 252.057 85.5444 252.147 85.722C252.238 85.9034 252.166 86.1226 251.989 86.2132L249.684 87.3884C249.631 87.4148 249.574 87.4299 249.518 87.4299Z" fill="#D7E5FF"/>
<path d="M258.201 97.1642C258.133 97.1642 258.061 97.1453 258 97.1037C257.834 96.9904 257.785 96.7637 257.898 96.5974L259.327 94.4399C259.436 94.2737 259.663 94.2245 259.833 94.3379C259.999 94.4512 260.048 94.6779 259.935 94.8442L258.507 97.0017C258.435 97.1075 258.321 97.1642 258.201 97.1642Z" fill="#D7E5FF"/>
<path d="M285.153 56.5271C285.085 56.5271 285.013 56.5082 284.952 56.4667C284.786 56.3533 284.737 56.1266 284.85 55.9603L286.279 53.8028C286.388 53.6328 286.615 53.5874 286.785 53.7008C286.951 53.8142 287 54.0409 286.887 54.2071L285.459 56.3646C285.387 56.4704 285.274 56.5271 285.153 56.5271Z" fill="#D7E5FF"/>
<path d="M284.053 98.6416C283.921 98.6416 283.793 98.5698 283.728 98.4413L282.553 96.1365C282.463 95.9551 282.534 95.7359 282.712 95.6452C282.893 95.5546 283.112 95.6264 283.203 95.804L284.378 98.1088C284.469 98.2902 284.397 98.5094 284.22 98.6C284.167 98.6265 284.11 98.6416 284.053 98.6416Z" fill="#D7E5FF"/>
<path d="M261.904 55.197C261.771 55.197 261.643 55.1252 261.579 54.9968L260.404 52.6919C260.313 52.5105 260.385 52.2914 260.562 52.2007C260.744 52.11 260.963 52.1818 261.053 52.3594L262.229 54.6643C262.319 54.8456 262.247 55.0648 262.07 55.1555C262.017 55.1819 261.96 55.197 261.904 55.197Z" fill="#D7E5FF"/>
<path d="M253.153 63.004C253.085 63.004 253.013 62.9851 252.952 62.9436L250.795 61.5153C250.629 61.4019 250.579 61.1752 250.693 61.009C250.802 60.8427 251.029 60.7936 251.199 60.9069L253.357 62.3352C253.523 62.4486 253.572 62.6753 253.459 62.8415C253.387 62.9473 253.273 63.004 253.153 63.004Z" fill="#D7E5FF"/>
<path d="M293.787 89.9617C293.719 89.9617 293.647 89.9428 293.586 89.9012L291.433 88.473C291.266 88.3596 291.217 88.1329 291.331 87.9666C291.44 87.8004 291.667 87.7513 291.837 87.8646L293.991 89.2929C294.157 89.4062 294.206 89.633 294.093 89.7992C294.021 89.905 293.908 89.9617 293.787 89.9617Z" fill="#D7E5FF"/>
<path d="M272.393 101.79C257.838 101.79 246 89.9469 246 75.3948C246 60.8427 257.842 49 272.393 49C286.944 49 298.786 60.8427 298.786 75.3948C298.786 89.9469 286.944 101.79 272.393 101.79ZM272.393 50.4586C258.647 50.4586 247.458 61.6438 247.458 75.3948C247.458 89.1458 258.643 100.331 272.393 100.331C286.143 100.331 297.327 89.1458 297.327 75.3948C297.327 61.6438 286.143 50.4586 272.393 50.4586Z" fill="#285A8F"/>
<path d="M297.792 75.8142H290.715C290.515 75.8142 290.348 75.6518 290.348 75.4477C290.348 75.2437 290.511 75.0812 290.715 75.0812H297.792C297.992 75.0812 298.159 75.2437 298.159 75.4477C298.159 75.6518 297.996 75.8142 297.792 75.8142Z" fill="#285A8F"/>
<path d="M253.806 75.8142H246.729C246.529 75.8142 246.363 75.6517 246.363 75.4477C246.363 75.2436 246.525 75.0811 246.729 75.0811H253.806C254.007 75.0811 254.173 75.2436 254.173 75.4477C254.173 75.6517 254.01 75.8142 253.806 75.8142Z" fill="#285A8F"/>
<path d="M273.934 75.3909C273.934 76.2411 273.243 76.9326 272.393 76.9326C271.543 76.9326 270.851 76.2411 270.851 75.3909C270.851 74.5408 271.543 73.8493 272.393 73.8493C273.243 73.8493 273.934 74.5408 273.934 75.3909Z" fill="#C35053"/>
<path d="M119.334 27.5H205.544C213.184 27.5 219.378 33.6937 219.378 41.3341V174.666C219.378 182.306 213.184 188.5 205.544 188.5H119.334C111.694 188.5 105.5 182.306 105.5 174.666V41.3341C105.5 33.6937 111.694 27.5 119.334 27.5Z" fill="#FEF9EC" stroke="#B79D70"/>
<path d="M207.215 156.33H118.816C118.601 156.33 118.439 156.158 118.439 155.953C118.439 155.748 118.611 155.575 118.816 155.575H207.215C207.431 155.575 207.593 155.748 207.593 155.953C207.593 156.158 207.42 156.33 207.215 156.33Z" fill="#B79D70"/>
<path d="M183.929 168.346H118.816C118.601 168.346 118.439 168.173 118.439 167.968C118.439 167.763 118.611 167.591 118.816 167.591H183.929C184.145 167.591 184.307 167.763 184.307 167.968C184.307 168.173 184.134 168.346 183.929 168.346Z" fill="#B79D70"/>
<path d="M162.185 125.386L165.54 132.192L173.057 133.281L167.621 138.588L168.905 146.062L162.185 142.536L155.466 146.062L156.749 138.588L151.313 133.281L158.82 132.192L162.185 125.386Z" fill="#F4C245"/>
<path d="M140.28 130.445L144.012 134.91L149.803 134.36L146.708 139.289L149.016 144.628L143.375 143.215L139.007 147.055L138.619 141.252L133.614 138.286L139.007 136.118L140.28 130.445Z" fill="#F4C245"/>
<path d="M183.821 130.445L180.089 134.91L174.298 134.36L177.393 139.289L175.085 144.628L180.726 143.215L185.094 147.055L185.493 141.252L190.498 138.286L185.094 136.118L183.821 130.445Z" fill="#F4C245"/>
<path d="M179.556 118.288C200.268 109.471 209.91 85.5328 201.093 64.821C192.276 44.1092 168.338 34.4667 147.626 43.284C126.914 52.1012 117.272 76.0393 126.089 96.7511C134.906 117.463 158.844 127.105 179.556 118.288Z" fill="white"/>
<path d="M143.828 116.434C138.985 113.77 134.747 110.125 131.36 105.778C135.264 100.116 145.381 91.9186 150.893 90.0958C157.893 87.7769 147.582 103.869 143.828 116.434Z" fill="#D8E7EF"/>
<path d="M172.982 64.1996C175.053 63.9407 177.177 64.3721 178.882 65.5801C180.37 66.6371 181.794 68.3952 182.301 71.3289C183.53 78.3611 181.006 80.3025 185.029 82.9558C189.052 85.5982 191.317 83.9804 193.863 90.5273C196.397 97.0741 192.504 105.843 184.371 104.074C176.25 102.305 156.534 96.9231 156.534 96.9231L155.617 67.802L165.475 65.1487L172.982 64.1996Z" fill="black"/>
<path d="M185.827 114.935C181.664 117.653 176.983 119.627 171.957 120.684C169.25 121.256 166.446 121.547 163.577 121.547C162.347 121.547 161.118 121.493 159.91 121.385C157.947 121.212 156.038 120.9 154.161 120.447C150.494 119.584 147.032 118.225 143.828 116.445C140.345 114.525 137.184 112.109 134.423 109.284C135.62 105.951 136.882 103.017 138.155 100.871C144.227 90.6783 153.104 89.7184 153.104 89.7184C162.606 86.9249 170.717 86.4288 179.335 90.6244C183.207 92.5011 185.083 103.405 185.817 114.935H185.827Z" fill="#D8E7EF"/>
<path d="M181.556 113.058L181.308 117.481C178.375 118.904 175.236 119.994 171.957 120.673C169.25 121.245 166.446 121.536 163.577 121.536C162.347 121.536 161.118 121.482 159.91 121.374C157.947 121.202 156.038 120.889 154.161 120.436C150.494 119.573 147.032 118.214 143.828 116.434C143.656 116.337 143.483 116.24 143.311 116.132C141.391 115.054 139.59 113.813 137.885 112.422C143.343 101.065 150.882 90.0851 150.882 90.0851L162.38 87.6907L177.016 90.1929L181.556 113.058Z" fill="#C35053"/>
<path d="M150.893 90.0959C150.893 90.0959 146.32 104.969 143.311 116.143C141.294 115.011 139.395 113.684 137.616 112.217L147.334 92.8786L150.904 90.0959H150.893Z" fill="#D8E7EF"/>
<path d="M147.323 70.0994C147.323 70.0994 143.407 63.7466 143.709 61.0179C144.464 54.2769 153.913 49.6067 163.361 52.7885C172.798 55.9594 174.729 67.6834 173.251 72.7958C169.455 85.9434 157.979 81.3811 157.979 81.3811C157.979 81.3811 140.139 78.0592 147.323 70.1102V70.0994Z" fill="black"/>
<path d="M150.483 84.1314L150.504 84.3795L151.033 88.9742L151.432 92.5766C151.432 92.5766 151.184 93.4394 155.369 92.8678C160.977 92.0804 162.628 89.535 162.628 89.535L162.272 81.0468L160.589 81.489L150.483 84.1314Z" fill="#F48462"/>
<path d="M150.505 84.3687L151.033 88.9634C153.751 88.4349 158.648 86.9034 160.363 82.4489C160.492 82.093 160.578 81.7694 160.589 81.4998L150.515 84.2932V84.3687H150.505Z" fill="black"/>
<path d="M147.161 62.4415C147.161 62.4415 142.76 74.8126 145.122 81.4242C147.485 88.0358 153.557 86.5366 157.138 84.9727C160.718 83.4088 162.272 81.0359 162.272 81.0359C162.272 81.0359 165.788 81.9635 167.859 78.6092C169.929 75.2548 168.258 71.6848 166.241 70.9837C164.224 70.2827 161.991 71.8574 161.991 71.8574L163.577 68.2442C163.577 68.2442 154.646 51.0627 147.172 62.4415H147.161Z" fill="#F48462"/>
<path d="M148.757 77.7032C148.585 77.7032 148.423 77.5953 148.347 77.4228C147.344 74.8989 148.962 72.127 149.038 72.0084C149.167 71.8034 149.426 71.7387 149.642 71.8574C149.847 71.976 149.922 72.2457 149.793 72.4614C149.782 72.4829 148.326 74.9852 149.167 77.11C149.253 77.3365 149.145 77.5845 148.919 77.6816C148.865 77.7032 148.811 77.714 148.757 77.714V77.7032Z" fill="black"/>
<path d="M162.897 77.4983C162.8 77.4983 162.703 77.4659 162.628 77.4012C162.444 77.2502 162.412 76.9698 162.563 76.7864L165.55 73.0869C165.701 72.9036 165.982 72.8712 166.165 73.0222C166.349 73.1732 166.381 73.4537 166.23 73.637L163.242 77.3365C163.156 77.4443 163.027 77.4983 162.897 77.4983Z" fill="black"/>
<path d="M166.284 76.3119L163.976 76.1393C163.738 76.1177 163.555 75.9128 163.577 75.6755C163.598 75.4382 163.803 75.2549 164.04 75.2764L166.316 75.449C166.554 75.4706 166.737 75.6755 166.715 75.9128C166.694 76.1393 166.51 76.3227 166.284 76.3227V76.3119Z" fill="black"/>
<path d="M152.683 81.1007C151.518 81.1007 150.526 80.2595 150.483 80.2055C150.364 80.1085 150.31 79.9575 150.343 79.8065C150.364 79.6555 150.461 79.5368 150.602 79.4721L155.175 77.5523C155.326 77.4876 155.498 77.5091 155.628 77.617C155.757 77.7248 155.811 77.8866 155.779 78.0484C155.768 78.1239 155.38 79.8712 153.88 80.7772C153.481 81.0145 153.082 81.1007 152.705 81.1007H152.683ZM151.691 79.9575C152.166 80.1947 152.823 80.3673 153.406 80.0222C153.956 79.6878 154.323 79.1917 154.549 78.7603L151.68 79.9683L151.691 79.9575Z" fill="black"/>
<path d="M155.595 68.3629C155.444 68.3629 155.304 68.2874 155.229 68.1579C154.625 67.1764 153.233 67.5755 153.168 67.5863C152.942 67.651 152.694 67.5216 152.629 67.2951C152.564 67.0686 152.694 66.8205 152.92 66.7558C153.007 66.7342 155.013 66.1518 155.973 67.7049C156.102 67.9099 156.037 68.1795 155.833 68.3089C155.757 68.3521 155.682 68.3737 155.606 68.3737L155.595 68.3629Z" fill="black"/>
<path d="M146.255 67.6942C146.147 67.6942 146.039 67.6511 145.953 67.5756C145.78 67.403 145.78 67.1334 145.953 66.9608C145.996 66.9176 146.913 65.9793 147.991 66.0224C148.52 66.044 148.994 66.3029 149.372 66.7774C149.523 66.9608 149.491 67.2412 149.307 67.3922C149.124 67.5432 148.843 67.5109 148.692 67.3275C148.477 67.0579 148.229 66.9176 147.959 66.9069C147.431 66.8529 146.773 67.3814 146.589 67.5756C146.503 67.6619 146.395 67.705 146.276 67.705L146.255 67.6942Z" fill="black"/>
<path d="M147.172 72.785C146.902 72.7634 146.719 72.5585 146.74 72.3212L146.881 70.2611L146.082 69.4091C145.921 69.2365 145.921 68.9561 146.104 68.7943C146.277 68.6325 146.557 68.6325 146.719 68.8158L147.646 69.8081C147.733 69.8944 147.776 70.013 147.765 70.1425L147.614 72.3967C147.603 72.6232 147.409 72.8065 147.183 72.8065L147.172 72.785Z" fill="black"/>
<path d="M154.7 72.7958C154.441 72.785 154.247 72.5801 154.269 72.332L154.366 70.2935L153.19 69.3013C153.007 69.1503 152.985 68.8698 153.136 68.6865C153.287 68.5031 153.568 68.4815 153.751 68.6325L155.088 69.765C155.196 69.8513 155.25 69.9807 155.239 70.121L155.132 72.3752C155.121 72.6124 154.927 72.7958 154.7 72.7958Z" fill="black"/>
<path d="M168.031 60.209C168.031 60.209 166.403 45.8317 176.271 47.1584C186.733 48.5713 177.296 65.44 170.62 64.685C167.643 64.3506 168.031 60.209 168.031 60.209Z" fill="black"/>
<path d="M151.098 93.6013C150.774 93.6013 150.58 93.6013 150.537 93.5905C150.321 93.5905 150.17 93.3964 150.17 93.1915C150.181 92.9865 150.375 92.814 150.569 92.8247C150.634 92.8247 156.695 93.0836 161.635 90.1607C161.819 90.0528 162.045 90.1176 162.153 90.2901C162.261 90.4735 162.196 90.7108 162.024 90.8078C157.72 93.364 152.748 93.5905 151.098 93.5905V93.6013Z" fill="#BF6240"/>
<path d="M192.364 109.639C184.986 116.995 174.805 121.547 163.566 121.547C162.336 121.547 161.107 121.493 159.899 121.385C160.654 117.189 161.463 114.31 161.463 114.31L171.795 88.1652C171.795 88.1652 182.074 88.3917 188.966 98.9401C190.454 101.227 191.641 105.045 192.353 109.639H192.364Z" fill="#D8E7EF"/>
<path d="M171.957 120.673C169.25 121.245 166.446 121.536 163.577 121.536C162.347 121.536 161.118 121.482 159.91 121.374C157.947 121.202 156.038 120.889 154.161 120.436C157.828 104.958 162.628 87.7123 162.628 87.7123L171.806 88.1653L171.957 120.673Z" fill="#D8E7EF"/>
<path d="M172.982 64.5771C172.788 64.5771 172.626 64.4261 172.604 64.2319C171.979 57.9547 167.783 55.7221 167.74 55.7005C167.557 55.6034 167.481 55.3769 167.578 55.1828C167.675 54.9994 167.902 54.9239 168.096 55.021C168.279 55.1181 172.712 57.4693 173.37 64.1564C173.392 64.3614 173.241 64.5555 173.025 64.5771C173.014 64.5771 173.003 64.5771 172.982 64.5771Z" fill="white"/>
<path d="M153.298 57.34C153.298 57.34 151.81 59.2598 151.605 62.3553L151.4 65.4508L164.224 69.1934L164.483 62.9916L153.298 57.34Z" fill="black"/>
<path d="M152.23 59.3893C152.23 59.3893 151.109 60.3708 150.591 61.6866C150.084 63.0025 149.545 65.6126 149.545 65.6126L145.834 65.1919L146.255 58.7098L151.26 55.6467L154.29 55.981L153.826 60.1551L152.23 59.3785V59.3893Z" fill="black"/>
<path d="M182.305 177.251C182.305 177.251 152.32 139.372 150.454 141.908C148.588 144.428 177.536 179.676 177.536 179.676L182.321 177.251H182.305Z" fill="#D87907"/>
<path d="M205.399 198.831C205.399 198.831 194.474 199.006 189.657 194.732C184.841 190.457 194.937 180.569 194.937 180.569L205.399 187.666V198.815V198.831Z" fill="#F48462"/>
<path d="M190.487 175.433C189.179 174.508 187.616 174.014 186.037 173.806C180.662 173.104 165.255 173.806 163.373 179.213C161.555 184.397 170.136 184.285 170.136 184.285C170.136 184.285 163.245 185.768 165.861 190.106C168.046 193.743 172.528 192.993 172.528 192.993C172.528 192.993 165.51 195.21 170.63 199.389C175.75 203.568 191.539 201.478 196.372 198.799C201.205 196.119 194.41 191.478 194.41 191.478C194.41 191.478 199.243 187.905 197.728 184.987C196.133 181.892 191.38 182.849 191.38 182.849C191.38 182.849 195.208 178.735 190.487 175.433Z" fill="#F48462"/>
<path d="M209.419 173.408C209.419 173.408 189.785 163.822 186.133 164.364C182.464 164.907 168.812 176.486 172.161 179.676C175.51 182.866 186.133 174.652 186.133 174.652C186.133 174.652 197.042 192.977 204.203 190.904C211.364 188.831 209.419 173.408 209.419 173.408Z" fill="#F48462"/>
<path d="M170.12 184.843C169.817 184.843 169.577 184.604 169.561 184.317C169.545 184.014 169.785 183.743 170.088 183.727L189.61 182.722C189.961 182.706 190.184 182.945 190.2 183.248C190.216 183.551 189.976 183.822 189.673 183.838L170.152 184.843C170.152 184.843 170.136 184.843 170.12 184.843Z" fill="black"/>
<path d="M172.528 193.551C172.241 193.551 171.986 193.328 171.97 193.025C171.954 192.722 172.177 192.451 172.496 192.435L192.066 191.191C192.401 191.175 192.64 191.398 192.656 191.717C192.672 192.02 192.449 192.291 192.13 192.307L172.56 193.551H172.528Z" fill="black"/>
<path d="M200.646 191.622C200.646 191.622 200.535 191.622 200.487 191.606C200.359 191.574 188.413 187.921 185.59 174.779C185.527 174.476 185.718 174.173 186.021 174.109C186.34 174.046 186.627 174.237 186.691 174.54C189.37 187.028 200.694 190.505 200.822 190.537C201.125 190.633 201.284 190.936 201.205 191.239C201.141 191.478 200.918 191.638 200.662 191.638L200.646 191.622Z" fill="black"/>
<path d="M270.249 224.764C270.249 224.764 248.749 263.919 233.646 330.874C219.865 391.944 216.899 442.455 216.899 442.455H276.501C276.501 442.455 283.136 392.662 284.89 372.964C286.645 353.267 292.53 326.887 292.53 326.887C292.53 326.887 300.712 440.525 302.658 442.455C304.604 444.385 361.67 442.886 361.048 440.27C360.426 437.655 339.389 247.795 337.842 235.37C333.089 197.172 270.233 224.78 270.233 224.78L270.249 224.764Z" fill="#BF6240"/>
<path d="M337.858 267.636C337.746 267.636 337.635 267.604 337.523 267.524C327.236 260.092 323.041 247.141 323.009 247.013C322.913 246.71 323.073 246.407 323.376 246.312C323.663 246.216 323.982 246.375 324.078 246.678C324.126 246.806 328.209 259.422 338.193 266.615C338.448 266.79 338.496 267.141 338.32 267.396C338.209 267.54 338.033 267.636 337.858 267.636Z" fill="#D87907"/>
<path d="M306.358 132.817C306.358 132.817 323.998 133.758 338.161 145.943C352.308 158.128 366.758 198.528 358.799 211.207C350.841 223.887 340.713 224.764 340.713 224.764L341.303 239.501L263.949 240.219C263.949 240.219 270.329 146.389 273.439 139.42C276.549 132.466 306.374 132.801 306.374 132.801L306.358 132.817Z" fill="#FDC00F"/>
<path d="M285.369 90.0089C285.369 90.0089 279.037 96.9627 282.355 104.794C285.672 112.609 289.659 90.7744 289.659 90.7744L285.369 90.0089Z" fill="black"/>
<path d="M305.88 121.971L305.928 135.959C305.928 135.959 303.424 139.994 295.242 140.68C289.149 141.19 286.996 139.818 286.996 139.818L287.825 132.737L288.639 125.831L303.408 122.545L305.88 121.987V121.971Z" fill="#F48462"/>
<path d="M303.407 122.529C303.376 122.912 305.64 124.14 305.417 124.667C302.307 131.668 291.047 135.05 287.522 135.369L288.654 125.831L303.423 122.545L303.407 122.529Z" fill="black"/>
<path d="M288.016 90.7422C286.071 92.2733 284.699 94.4105 283.87 96.7391C281.972 102.114 278.096 114.65 280.409 122.417C283.407 132.497 292.482 130.743 297.889 128.701C303.296 126.644 305.768 123.215 305.768 123.215C305.768 123.215 310.888 124.874 314.205 120.025C317.523 115.176 315.306 109.69 312.387 108.478C309.452 107.266 306.039 109.451 306.039 109.451L308.639 104.156C308.639 104.156 298.75 82.2253 288 90.7262L288.016 90.7422Z" fill="#F48462"/>
<path d="M306.693 116.245C306.518 116.245 306.342 116.166 306.231 116.006C306.055 115.751 306.103 115.4 306.358 115.225L312.642 110.679C312.897 110.504 313.248 110.551 313.424 110.807C313.599 111.062 313.551 111.413 313.296 111.588L307.012 116.134C306.916 116.213 306.805 116.245 306.677 116.245H306.693Z" fill="black"/>
<path d="M312.435 116.15C312.435 116.15 312.339 116.15 312.291 116.134L308.145 115.081C307.841 115.001 307.666 114.698 307.746 114.395C307.826 114.092 308.129 113.917 308.432 113.997L312.578 115.049C312.881 115.129 313.057 115.432 312.977 115.735C312.913 115.99 312.69 116.166 312.435 116.166V116.15Z" fill="black"/>
<path d="M285.991 113.981C285.783 113.981 285.576 113.869 285.48 113.662C283.487 109.515 286.501 105.24 286.629 105.049C286.804 104.794 287.155 104.746 287.41 104.921C287.665 105.097 287.713 105.448 287.538 105.703C287.506 105.735 284.779 109.642 286.485 113.167C286.613 113.438 286.501 113.773 286.23 113.917C286.15 113.949 286.071 113.981 285.991 113.981Z" fill="black"/>
<path d="M283.678 106.963C283.678 106.963 283.582 106.963 283.535 106.947C283.232 106.867 283.056 106.564 283.136 106.261L283.997 103.055C284.077 102.752 284.38 102.577 284.683 102.657C284.986 102.736 285.161 103.039 285.082 103.342L284.22 106.548C284.157 106.803 283.933 106.963 283.678 106.963Z" fill="black"/>
<path d="M283.646 148.431L281.493 242.484H260.584L263.072 201.366C263.072 201.366 248.191 204.285 229.403 204.413C210.615 204.556 202.927 202.626 202.927 202.626L206.165 169.659C206.165 169.659 229.1 168.511 248.175 156.932C267.267 145.353 274.364 133.439 286.438 133.726C298.511 134.013 283.646 148.415 283.646 148.415V148.431Z" fill="#FDC00F"/>
<path d="M292.53 107.553C292.53 107.553 292.435 107.553 292.387 107.537C292.084 107.457 291.908 107.154 291.988 106.851L292.849 103.646C292.929 103.343 293.232 103.167 293.535 103.247C293.838 103.327 294.014 103.63 293.934 103.933L293.073 107.138C293.009 107.394 292.785 107.553 292.53 107.553Z" fill="black"/>
<path d="M283.678 100.647C283.391 100.647 283.152 100.424 283.12 100.137C283.088 99.8335 283.311 99.5624 283.63 99.5305L286.294 99.2753C286.629 99.2434 286.884 99.4667 286.9 99.7857C286.932 100.089 286.709 100.36 286.39 100.392L283.726 100.647C283.726 100.647 283.694 100.647 283.678 100.647Z" fill="black"/>
<path d="M295.273 102.21C295.273 102.21 295.13 102.21 295.05 102.162L291.462 100.599C291.174 100.471 291.047 100.153 291.174 99.8654C291.302 99.5783 291.621 99.4507 291.908 99.5783L295.497 101.141C295.784 101.269 295.911 101.588 295.784 101.875C295.688 102.082 295.481 102.21 295.273 102.21Z" fill="black"/>
<path d="M306.039 109.451C306.039 109.451 304.508 115.256 303.408 114.523C302.307 113.805 301.382 105.4 302.259 101.652C303.136 97.9036 303.774 96.0216 303.774 96.0216C303.774 96.0216 288.527 94.4426 284.54 90.7584C280.568 87.0741 289.101 84.8571 297.777 86.6116C306.454 88.3819 309.835 91.6994 309.835 91.6994C309.835 91.6994 315.29 90.9657 317.283 94.3151C319.277 97.6644 314.46 110.232 314.46 110.232C314.46 110.232 313.137 107.043 306.023 109.435L306.039 109.451Z" fill="black"/>
<path d="M289.659 119.85C289.484 119.85 289.308 119.77 289.197 119.61C289.021 119.355 289.085 119.004 289.34 118.829L293.088 116.293C293.343 116.118 293.694 116.181 293.87 116.437C294.045 116.692 293.981 117.043 293.726 117.218L289.978 119.754C289.882 119.818 289.771 119.85 289.659 119.85Z" fill="black"/>
<path d="M280.552 210.761C280.329 210.761 280.122 210.617 280.026 210.394C276.182 200.362 269.771 183.36 270.042 182.275C270.297 181.239 274.906 175.72 276.836 173.44C274.523 171.526 268.973 166.821 268.702 165.497C268.431 164.109 276.549 149.149 280.058 142.785C280.201 142.514 280.552 142.418 280.823 142.562C281.095 142.705 281.19 143.056 281.047 143.327C276.74 151.142 269.882 164.029 269.818 165.337C270.042 166.055 274.141 169.771 277.984 172.929C278.096 173.025 278.176 173.168 278.192 173.312C278.192 173.456 278.16 173.615 278.064 173.727C274.826 177.539 271.35 181.877 271.142 182.547C271.206 183.743 277.123 199.628 281.095 209.979C281.206 210.266 281.063 210.585 280.776 210.697C280.712 210.729 280.648 210.729 280.568 210.729L280.552 210.761Z" fill="#D87907"/>
<path d="M281.429 240.235H308.336L301.573 150.823H282.977L281.429 240.235Z" fill="#A63019"/>
<path d="M301.573 162.61C301.573 162.61 307.889 242.835 308.288 242.484C308.687 242.133 342.005 241.559 342.005 241.559L340.904 218.161L301.589 162.61H301.573Z" fill="#FDC00F"/>
<path d="M308.288 210.761C308.288 210.761 308.16 210.761 308.081 210.729C307.794 210.617 307.65 210.298 307.762 210.011C311.733 199.644 317.65 183.759 317.698 182.483C317.507 181.909 314.03 177.57 310.776 173.759C310.68 173.647 310.633 173.503 310.649 173.344C310.649 173.2 310.728 173.057 310.856 172.961C314.7 169.803 318.815 166.087 319.038 165.305C318.958 164.061 312.1 151.174 307.794 143.359C307.65 143.088 307.746 142.753 308.017 142.594C308.288 142.45 308.623 142.546 308.783 142.817C312.291 149.181 320.41 164.141 320.138 165.529C319.867 166.853 314.317 171.558 312.004 173.471C313.934 175.736 318.543 181.271 318.799 182.307C319.07 183.392 312.658 200.394 308.814 210.426C308.735 210.649 308.511 210.793 308.288 210.793V210.761Z" fill="#D87907"/>
<path d="M297.395 135.273C297.395 135.273 276.134 121.971 273.758 123.502C271.382 125.049 282.993 134.762 282.993 134.762C282.993 134.762 277.713 139.228 277.426 140.073C277.139 140.919 275.879 143.008 274.906 145.289C273.933 147.57 274.364 149.085 276.565 151.461C278.766 153.838 293.104 160.744 296.278 160.967L299.452 161.19L308.894 144.986C308.894 144.986 309.42 130.807 306.374 129.084C303.328 127.362 301.876 138.415 301.876 138.415L297.411 135.273H297.395Z" fill="#F48462"/>
<path d="M301.844 138.973C301.733 138.973 301.637 138.941 301.541 138.893L292.658 133.311C292.402 133.152 292.323 132.801 292.482 132.546C292.658 132.274 292.993 132.211 293.264 132.37L301.446 137.522C301.605 136.692 301.924 135.161 302.498 132.721C303.551 128.207 306.31 128.526 306.422 128.542C306.725 128.59 306.948 128.861 306.9 129.18C306.852 129.483 306.581 129.691 306.278 129.659C306.167 129.659 304.396 129.531 303.583 132.976C302.642 136.963 302.403 138.511 302.387 138.527C302.355 138.718 302.243 138.877 302.068 138.941C301.988 138.973 301.908 138.989 301.828 138.989L301.844 138.973Z" fill="black"/>
<path d="M285.369 137.394C285.241 137.394 285.114 137.346 285.002 137.251L282.61 135.177C282.371 134.97 282.355 134.619 282.546 134.38C282.753 134.141 283.104 134.125 283.343 134.316L285.736 136.389C285.975 136.597 285.991 136.948 285.8 137.187C285.688 137.315 285.529 137.378 285.369 137.378V137.394Z" fill="black"/>
<path d="M244.938 171.956C244.443 171.956 243.981 171.765 243.566 171.398C241.333 169.372 241.19 162.02 241.174 161.19C241.174 160.935 241.333 160.712 241.572 160.648C241.812 160.568 242.067 160.664 242.21 160.871C243.087 162.211 247.394 168.973 246.325 171.159C246.102 171.621 245.671 171.892 245.113 171.94C245.049 171.94 245.001 171.94 244.938 171.94V171.956ZM242.402 163.312C242.609 165.911 243.135 169.484 244.332 170.568C244.555 170.776 244.778 170.856 245.017 170.84C245.241 170.824 245.289 170.744 245.32 170.68C245.799 169.707 244.14 166.246 242.418 163.312H242.402Z" fill="#D87907"/>
<path d="M263.072 201.924C263.072 201.924 263.024 201.924 262.992 201.924C262.689 201.877 262.482 201.59 262.514 201.287L263.375 195.465C263.423 195.162 263.694 194.955 264.013 194.987C264.316 195.034 264.523 195.321 264.491 195.625L263.63 201.446C263.582 201.717 263.343 201.924 263.072 201.924Z" fill="#D87907"/>
<path d="M310.361 143.072L296.454 164.875C296.454 164.875 308.607 218.002 337.842 224.11C367.077 230.219 360.841 196.614 360.841 196.614L310.361 143.072Z" fill="#FDC00F"/>
<path d="M345.944 178.463C345.769 178.463 345.593 178.383 345.482 178.224C338.608 168.08 319.165 149.388 318.974 149.212C318.751 149.005 318.751 148.638 318.958 148.415C319.181 148.191 319.532 148.191 319.755 148.399C319.947 148.59 339.469 167.347 346.407 177.602C346.582 177.857 346.518 178.208 346.263 178.383C346.167 178.447 346.056 178.479 345.944 178.479V178.463Z" fill="#D87907"/>
<path d="M345.769 172.323C342.547 172.323 336.04 166.485 334.7 165.241C334.509 165.066 334.461 164.779 334.588 164.556C334.716 164.332 334.971 164.221 335.226 164.284C336.311 164.572 345.817 167.123 347.348 169.755C347.587 170.154 347.651 170.568 347.539 170.967C347.316 171.813 346.774 172.131 346.343 172.259C346.167 172.307 345.976 172.339 345.753 172.339L345.769 172.323ZM337.316 166.055C340.458 168.702 344.541 171.605 346.024 171.175C346.183 171.127 346.343 171.031 346.439 170.68C346.439 170.648 346.47 170.537 346.359 170.329C345.498 168.862 340.697 167.107 337.3 166.071L337.316 166.055Z" fill="#D87907"/>
</g>
</svg>
