<svg width="368" height="250" viewBox="0 0 368 250" fill="none" xmlns="http://www.w3.org/2000/svg">
<g clip-path="url(#clip0_399_7976)">
<path d="M157.586 91.7042H213.013C222.768 91.7042 230.694 99.657 230.694 109.444V166.345H139.904V109.444C139.904 99.657 147.831 91.7042 157.586 91.7042Z" stroke="#A63019" stroke-width="4.50905" stroke-miterlimit="10"/>
<path d="M113.153 203.056V177.701C113.153 171.426 118.229 166.333 124.484 166.333H243.516C249.771 166.333 254.847 171.426 254.847 177.701V204.746" stroke="#A63019" stroke-width="5.62168" stroke-miterlimit="10"/>
<path d="M185.299 91.7042V68.6179" stroke="#A63019" stroke-width="4.50905" stroke-miterlimit="10"/>
<path d="M166.535 63.6096V39.8958C166.535 34.429 170.949 30 176.398 30H163.769C158.32 30 153.905 34.429 153.905 39.8958V63.6096C153.905 69.0765 158.32 73.5055 163.769 73.5055H176.398C170.949 73.5055 166.535 69.0765 166.535 63.6096Z" fill="#CB8C3D"/>
<path d="M176.41 30H206.096C211.545 30 215.959 34.4411 215.959 39.8958V63.6096C215.959 69.0765 211.533 73.5055 206.096 73.5055H176.41C170.961 73.5055 166.547 69.0644 166.547 63.6096V39.8958C166.547 34.429 170.973 30 176.41 30Z" fill="#E5B069"/>
<path d="M184.589 166.345V194.307" stroke="#A63019" stroke-width="5.62168" stroke-miterlimit="10"/>
<path d="M212.327 137.297V116.89C212.327 112.184 216.128 108.37 220.819 108.37H209.957C205.266 108.37 201.465 112.184 201.465 116.89V137.297C201.465 142.004 205.266 145.817 209.957 145.817H220.819C216.128 145.817 212.327 142.004 212.327 137.297Z" fill="#17C5D5"/>
<path d="M246.355 108.382H220.819C216.129 108.382 212.327 112.197 212.327 116.902V137.297C212.327 142.003 216.129 145.817 220.819 145.817H246.355C251.045 145.817 254.847 142.003 254.847 137.297V116.902C254.847 112.197 251.045 108.382 246.355 108.382Z" fill="#6BE3EF"/>
<path d="M124.027 137.297V116.89C124.027 112.184 127.828 108.37 132.519 108.37H121.657C116.966 108.37 113.165 112.184 113.165 116.89V137.297C113.165 142.004 116.966 145.817 121.657 145.817H132.519C127.828 145.817 124.027 142.004 124.027 137.297Z" fill="#C35052"/>
<path d="M158.055 108.382H132.519C127.829 108.382 124.027 112.197 124.027 116.902V137.297C124.027 142.003 127.829 145.817 132.519 145.817H158.055C162.745 145.817 166.547 142.003 166.547 137.297V116.902C166.547 112.197 162.745 108.382 158.055 108.382Z" fill="#D07679"/>
<path d="M240.522 212.288V193.824C240.522 189.564 243.962 186.113 248.208 186.113H238.38C234.134 186.113 230.694 189.564 230.694 193.824V212.288C230.694 216.549 234.134 220 238.38 220H248.208C243.962 220 240.522 216.549 240.522 212.288Z" fill="#CC8166"/>
<path d="M271.314 186.125H248.208C243.963 186.125 240.521 189.577 240.521 193.836V212.301C240.521 216.559 243.963 220.012 248.208 220.012H271.314C275.559 220.012 279 216.559 279 212.301V193.836C279 189.577 275.559 186.125 271.314 186.125Z" fill="#D69A86"/>
<path d="M170.264 212.288V193.824C170.264 189.564 173.704 186.113 177.95 186.113H168.123C163.877 186.113 160.437 189.564 160.437 193.824V212.288C160.437 216.549 163.877 220 168.123 220H177.95C173.704 220 170.264 216.549 170.264 212.288Z" fill="#3575B9"/>
<path d="M201.056 186.125H177.95C173.705 186.125 170.264 189.577 170.264 193.836V212.301C170.264 216.559 173.705 220.012 177.95 220.012H201.056C205.301 220.012 208.742 216.559 208.742 212.301V193.836C208.742 189.577 205.301 186.125 201.056 186.125Z" fill="#7FACDB"/>
<path d="M98.8272 212.288V193.824C98.8272 189.564 102.267 186.113 106.513 186.113H96.6861C92.4401 186.113 89 189.564 89 193.824V212.288C89 216.549 92.4401 220 96.6861 220H106.513C102.267 220 98.8272 216.549 98.8272 212.288Z" fill="#B85173"/>
<path d="M129.62 186.125H106.513C102.268 186.125 98.8271 189.577 98.8271 193.836V212.301C98.8271 216.559 102.268 220.012 106.513 220.012H129.62C133.865 220.012 137.306 216.559 137.306 212.301V193.836C137.306 189.577 133.865 186.125 129.62 186.125Z" fill="#C46E8B"/>
</g>
<defs>
<clipPath id="clip0_399_7976">
<rect width="190" height="190" fill="white" transform="translate(89 30)"/>
</clipPath>
</defs>
</svg>
