<svg width="470" height="250" viewBox="0 0 470 250" fill="none" xmlns="http://www.w3.org/2000/svg">
<mask id="mask0_402_10923" style="mask-type:alpha" maskUnits="userSpaceOnUse" x="0" y="0" width="470" height="250">
<path d="M0 20C0 8.9543 8.9543 0 20 0H450C461.046 0 470 8.9543 470 20V250H0V20Z" fill="#E5B06A"/>
</mask>
<g mask="url(#mask0_402_10923)">
<path d="M358.339 145.187H346.688V201.035H358.339V145.187Z" fill="#BF6240"/>
<path d="M330.576 159.053H317V201.035H330.576V159.053Z" fill="#CB8C3D"/>
<path d="M372.101 156.983L358.94 160.378L369.04 201.078L382.201 197.683L372.101 156.983Z" fill="#A38552"/>
<path d="M345.401 127H341.682V201.035H345.401V127Z" fill="#020200"/>
<path d="M340.314 154.756H336.595V201.035H340.314V154.756Z" fill="#A04161"/>
<path d="M335.474 154.756H331.755V201.035H335.474V154.756Z" fill="#F4C245"/>
<path d="M352.519 152.986C354.547 152.986 356.191 152.2 356.191 151.229C356.191 150.259 354.547 149.472 352.519 149.472C350.492 149.472 348.848 150.259 348.848 151.229C348.848 152.2 350.492 152.986 352.519 152.986Z" fill="#F7ECDE"/>
<path d="M367.443 166.46C369.409 165.953 370.813 164.779 370.58 163.838C370.346 162.897 368.564 162.546 366.598 163.053C364.632 163.56 363.228 164.734 363.462 165.675C363.695 166.616 365.478 166.967 367.443 166.46Z" fill="#F7ECDE"/>
<path d="M335.474 165.528H331.755V167.153H335.474V165.528Z" fill="#F7ECDE"/>
<path d="M335.474 167.875H331.755V168.694H335.474V167.875Z" fill="#F7ECDE"/>
<path d="M340.314 161.556H336.595V163.181H340.314V161.556Z" fill="#F7ECDE"/>
<path d="M340.314 163.903H336.595V164.722H340.314V163.903Z" fill="#F7ECDE"/>
<path d="M327.589 161.556H319.998V191.033H327.589V161.556Z" fill="#F7ECDE"/>
<path d="M412 203.293H276.436C265.703 203.293 257 210.939 257 220.368V257.512" stroke="#A63019" stroke-width="6.59643" stroke-miterlimit="10"/>
<path d="M276 203.293H411.564C422.297 203.293 431 210.939 431 220.368V257.512" stroke="#A63019" stroke-width="6.59643" stroke-miterlimit="10"/>
<path d="M279.5 79.2125C294.805 79.2125 307.212 66.8043 307.212 51.4979C307.212 36.1916 294.805 23.7833 279.5 23.7833C264.195 23.7833 251.787 36.1916 251.787 51.4979C251.787 66.8043 264.195 79.2125 279.5 79.2125Z" fill="white"/>
<path d="M267.247 41.4478C267.267 41.3662 267.308 41.2887 267.365 41.2193C267.578 40.9704 267.949 40.9377 268.198 41.1499L279.581 50.7962L299.285 40.9541C299.578 40.8072 299.933 40.9255 300.08 41.2193C300.227 41.5131 300.109 41.8681 299.815 42.015L279.761 52.0326C279.549 52.1387 279.296 52.106 279.112 51.955L267.431 42.0558C267.251 41.9007 267.186 41.6641 267.243 41.4478H267.247Z" fill="#A63019"/>
<path d="M279.5 31.8668C279.284 31.8668 279.104 31.6913 279.104 31.471V23.7833C279.104 23.5671 279.28 23.3875 279.5 23.3875C279.72 23.3875 279.896 23.563 279.896 23.7833V31.471C279.896 31.6872 279.72 31.8668 279.5 31.8668Z" fill="#285A8F"/>
<path d="M279.5 79.6331C279.284 79.6331 279.104 79.4576 279.104 79.2373V71.5497C279.104 71.3334 279.28 71.1539 279.5 71.1539C279.72 71.1539 279.896 71.3293 279.896 71.5497V79.2373C279.896 79.4536 279.72 79.6331 279.5 79.6331Z" fill="#285A8F"/>
<path d="M301.708 40.5826C301.565 40.5826 301.426 40.5051 301.357 40.3664C301.259 40.1705 301.337 39.9339 301.529 39.836L304.017 38.567C304.213 38.4691 304.45 38.5466 304.548 38.7384C304.646 38.9302 304.568 39.1709 304.376 39.2688L301.888 40.5378C301.83 40.5663 301.769 40.5826 301.708 40.5826Z" fill="#D7E5FF"/>
<path d="M254.798 64.4981C254.656 64.4981 254.517 64.4205 254.447 64.2818C254.35 64.086 254.427 63.8493 254.619 63.7514L257.108 62.4825C257.304 62.3845 257.54 62.4621 257.638 62.6538C257.736 62.8497 257.659 63.0863 257.467 63.1843L254.978 64.4532C254.921 64.4817 254.86 64.4981 254.798 64.4981Z" fill="#D7E5FF"/>
<path d="M264.175 75.0094C264.101 75.0094 264.024 74.989 263.958 74.9442C263.779 74.8217 263.726 74.5769 263.848 74.3974L265.391 72.0676C265.509 71.8881 265.754 71.8351 265.937 71.9575C266.117 72.0799 266.17 72.3247 266.047 72.5042L264.505 74.834C264.428 74.9482 264.305 75.0094 264.175 75.0094Z" fill="#D7E5FF"/>
<path d="M293.279 31.128C293.205 31.128 293.128 31.1076 293.062 31.0627C292.883 30.9403 292.83 30.6955 292.952 30.516L294.495 28.1862C294.613 28.0026 294.858 27.9536 295.041 28.076C295.221 28.1984 295.274 28.4432 295.151 28.6228L293.609 30.9525C293.532 31.0668 293.409 31.128 293.279 31.128Z" fill="#D7E5FF"/>
<path d="M292.091 76.6048C291.948 76.6048 291.81 76.5273 291.74 76.3886L290.471 73.8997C290.373 73.7038 290.451 73.4672 290.643 73.3692C290.839 73.2713 291.075 73.3488 291.173 73.5406L292.442 76.0295C292.54 76.2254 292.463 76.462 292.271 76.5599C292.214 76.5885 292.152 76.6048 292.091 76.6048Z" fill="#D7E5FF"/>
<path d="M268.173 29.6917C268.03 29.6917 267.892 29.6142 267.822 29.4755L266.553 26.9866C266.455 26.7907 266.533 26.5541 266.725 26.4562C266.921 26.3582 267.157 26.4358 267.255 26.6275L268.524 29.1164C268.622 29.3123 268.545 29.5489 268.353 29.6468C268.296 29.6754 268.234 29.6917 268.173 29.6917Z" fill="#D7E5FF"/>
<path d="M258.724 38.1221C258.65 38.1221 258.573 38.1017 258.507 38.0568L256.178 36.5145C255.998 36.3921 255.945 36.1472 256.068 35.9677C256.186 35.7882 256.431 35.7352 256.614 35.8576L258.944 37.3999C259.124 37.5223 259.177 37.7671 259.054 37.9466C258.977 38.0608 258.854 38.1221 258.724 38.1221Z" fill="#D7E5FF"/>
<path d="M302.602 67.232C302.529 67.232 302.451 67.2116 302.386 67.1667L300.06 65.6244C299.88 65.502 299.827 65.2572 299.95 65.0777C300.068 64.8981 300.313 64.8451 300.497 64.9675L302.822 66.5098C303.002 66.6322 303.055 66.877 302.932 67.0566C302.855 67.1708 302.733 67.232 302.602 67.232Z" fill="#D7E5FF"/>
<path d="M279.5 80.0043C263.783 80.0043 251 67.2161 251 51.5021C251 35.7882 263.787 23 279.5 23C295.213 23 308 35.7882 308 51.5021C308 67.2161 295.213 80.0043 279.5 80.0043ZM279.5 24.5751C264.656 24.5751 252.575 36.6533 252.575 51.5021C252.575 66.351 264.652 78.4292 279.5 78.4292C294.348 78.4292 306.425 66.351 306.425 51.5021C306.425 36.6533 294.348 24.5751 279.5 24.5751Z" fill="#285A8F"/>
<path d="M306.927 51.9551H299.285C299.069 51.9551 298.889 51.7796 298.889 51.5593C298.889 51.339 299.065 51.1635 299.285 51.1635H306.927C307.143 51.1635 307.323 51.339 307.323 51.5593C307.323 51.7796 307.147 51.9551 306.927 51.9551Z" fill="#285A8F"/>
<path d="M259.43 51.955H251.788C251.571 51.955 251.392 51.7796 251.392 51.5592C251.392 51.3389 251.567 51.1635 251.788 51.1635H259.43C259.646 51.1635 259.826 51.3389 259.826 51.5592C259.826 51.7796 259.65 51.955 259.43 51.955Z" fill="#285A8F"/>
<path d="M281.165 51.4979C281.165 52.416 280.418 53.1626 279.5 53.1626C278.582 53.1626 277.835 52.416 277.835 51.4979C277.835 50.5799 278.582 49.8332 279.5 49.8332C280.418 49.8332 281.165 50.5799 281.165 51.4979Z" fill="#C35053"/>
<path d="M149.092 339.55C148.413 339.55 147.748 339.222 147.34 338.619L69.2474 222.811C68.5953 221.844 68.8481 220.531 69.8152 219.879C70.7823 219.227 72.0953 219.484 72.7474 220.447L150.835 336.254C151.487 337.221 151.234 338.534 150.267 339.186C149.908 339.43 149.495 339.546 149.087 339.546L149.092 339.55Z" fill="#285A8F"/>
<path d="M70.9999 339.55C70.6007 339.55 70.2014 339.435 69.8421 339.204C68.8662 338.565 68.5956 337.257 69.2344 336.281L137.421 232.415C138.06 231.444 139.373 231.173 140.344 231.807C141.32 232.446 141.591 233.755 140.952 234.731L72.7655 338.596C72.3618 339.213 71.6875 339.55 70.9999 339.55Z" fill="#285A8F"/>
<path d="M71.1017 135.732C71.1017 135.732 42.5735 152.793 48.9215 190.215C56.2188 233.276 99.1508 247.232 136.387 237.06C173.623 226.888 167.417 197.548 167.417 197.548L71.1017 135.732Z" fill="#3475B9"/>
<path d="M150.431 206.943L122.773 272.428L169.582 288.992L186.266 249.379L172.439 206.943H150.431Z" fill="#D08625"/>
<path d="M89.9416 179.458C89.9416 179.458 86.9206 213.961 95.3979 218.379C103.875 222.793 165.816 229.536 168.956 232.3C172.102 235.059 193.195 301.981 193.195 301.981L244.804 296.822C244.804 296.822 226.15 204.619 212.576 195.232C202.373 188.179 145.853 179.462 145.853 179.462H89.9416V179.458Z" fill="#D08625"/>
<path d="M175.389 135.856C175.389 135.856 178.112 132.121 184.296 129.317C193.94 124.943 200.971 124.162 200.971 124.162V129.637L175.389 135.856Z" fill="white"/>
<path d="M125.807 61.8094C125.807 61.8094 115.005 56.9874 105.379 63.087C95.7529 69.1865 99.3239 83.342 99.3239 83.342C99.3239 83.342 86.3751 95.9314 84.96 108.756C83.5449 121.581 90.1679 124.943 90.1679 124.943L111.856 115.166L120.395 74.9711L125.803 61.805L125.807 61.8094Z" fill="black"/>
<path d="M149.979 111.795C149.979 111.795 153.133 101.17 148.644 95.2572C143.915 89.029 136.218 88.6386 136.258 83.4928C136.351 71.5377 127.683 66.0148 127.683 66.0148L127.32 113.09L149.979 111.79V111.795Z" fill="black"/>
<path d="M133.22 103.269C133.22 103.269 146.426 104.098 152.122 110.921C156.105 115.694 174.262 132.569 176.986 135.94C179.452 138.997 196.11 136.916 200.971 134.507C201.375 134.308 201.832 134.534 201.916 134.982C202.954 140.301 207.71 153.733 206.33 166.043C206.086 168.212 185.388 184.306 166.024 177.998C146.665 171.69 140.162 153.387 140.162 153.387L133.22 103.269Z" fill="#F5B400"/>
<path d="M160.59 184.621C160.59 184.621 121.021 191.231 120.324 185.908C118.732 173.757 109.633 109.94 109.633 109.94L115.05 101.379L132.368 103.415C132.368 103.415 140.668 104.302 148.786 126.553C156.908 148.805 160.59 184.617 160.59 184.617V184.621Z" fill="#F5B400"/>
<path d="M113.346 93.4784L113.657 105.926C113.657 105.926 115.99 109.448 123.287 109.856C128.722 110.162 130.372 107.332 130.372 107.332L128.784 96.4727L115.564 93.9087L113.346 93.4784Z" fill="#F48462"/>
<path d="M115.564 93.9086C115.604 94.2458 115.742 94.645 115.955 95.1019C118.896 101.25 126.543 102.399 129.684 102.603L128.784 96.4727L115.564 93.9086Z" fill="black"/>
<path d="M130.851 68.0332C130.851 68.0332 137.776 83.4751 135.416 92.2096C133.056 100.944 125.106 99.6489 120.342 98.012C115.578 96.3751 113.346 93.4828 113.346 93.4828C113.346 93.4828 108.924 95.0309 105.916 90.932C102.908 86.8331 104.692 82.0821 107.211 80.9687C109.735 79.8597 112.765 81.6607 112.765 81.6607L110.361 77.1759C110.361 77.1759 120.076 54.1794 130.846 68.0332H130.851Z" fill="#F48462"/>
<path d="M112.765 81.6607C112.765 81.6607 119.432 83.0048 124.068 75.5833C128.699 68.1618 128.273 65.1143 128.273 65.1143L132.887 72.7753C132.887 72.7753 133.921 67.4654 131.796 64.0762C129.671 60.6915 127.466 61.3924 127.466 61.3924L112.761 65.0655L108.888 76.852L112.761 81.6563L112.765 81.6607Z" fill="black"/>
<path d="M130.323 87.7958C130.27 87.7958 130.216 87.787 130.163 87.7692C129.875 87.6805 129.711 87.3744 129.799 87.0861C130.664 84.2603 128.535 81.195 128.513 81.1639C128.34 80.9155 128.398 80.5784 128.642 80.4054C128.89 80.2279 129.227 80.29 129.405 80.534C129.507 80.676 131.867 84.0651 130.842 87.4055C130.771 87.6406 130.553 87.7914 130.318 87.7914L130.323 87.7958Z" fill="black"/>
<path d="M123.421 77.1138C123.358 77.1138 123.296 77.1049 123.234 77.0827C122.95 76.9807 122.804 76.6658 122.906 76.3819C124.121 73.0016 126.304 73.5561 126.397 73.5827C126.69 73.6626 126.859 73.9642 126.779 74.257C126.699 74.5409 126.402 74.7228 126.118 74.6385C126.042 74.6296 124.787 74.3856 123.935 76.7545C123.855 76.9763 123.647 77.1138 123.421 77.1138Z" fill="black"/>
<path d="M133.202 74.7316C132.958 74.7316 132.732 74.563 132.67 74.3146C132.621 74.1238 132.417 73.6048 132.04 73.454C131.685 73.3209 131.241 73.5338 130.922 73.7379C130.665 73.8976 130.332 73.8266 130.168 73.5737C130.004 73.3209 130.079 72.9838 130.332 72.8196C131.113 72.3228 131.822 72.1941 132.448 72.4426C133.406 72.8285 133.699 73.9286 133.73 74.0528C133.801 74.3456 133.619 74.6428 133.326 74.7138C133.282 74.7227 133.242 74.7316 133.198 74.7316H133.202Z" fill="black"/>
<path d="M112.126 88.9891C111.98 88.9891 111.838 88.9314 111.731 88.8161L107.504 84.3623C107.295 84.1449 107.304 83.7989 107.526 83.5904C107.743 83.3819 108.089 83.3908 108.298 83.6082L112.525 88.062C112.734 88.2793 112.725 88.6253 112.503 88.8338C112.397 88.9359 112.264 88.9847 112.126 88.9847V88.9891Z" fill="black"/>
<path d="M107.663 87.8046C107.397 87.8046 107.167 87.6094 107.127 87.3388C107.078 87.0416 107.286 86.7622 107.584 86.7178L110.498 86.2698C110.795 86.2077 111.075 86.4295 111.119 86.7267C111.168 87.0239 110.959 87.3034 110.662 87.3477L107.748 87.7958C107.721 87.8002 107.69 87.8046 107.663 87.8046Z" fill="black"/>
<path d="M132.066 187.86C132.066 187.86 113.696 102.732 113.665 102.009L113.639 101.281C113.639 101.281 97.638 105.966 92.1151 112.709C88.1005 117.61 94.7368 185.624 96.6621 186.893C98.5918 188.161 132.062 187.86 132.062 187.86H132.066Z" fill="#F5B400"/>
<path d="M160.59 184.621C160.59 184.621 156.296 165.755 146.377 139.729C136.374 113.472 129.684 102.599 129.684 102.599C129.684 102.599 141.83 104.218 146.071 106.547C149.065 108.193 160.71 134.077 162.684 152.677C164.663 171.282 165.794 183.299 165.794 183.299C164.849 184.12 160.581 184.617 160.581 184.617L160.59 184.621Z" fill="#F5B400"/>
<path d="M174.794 147.434C174.417 147.434 174.036 147.341 173.654 147.159C172.683 146.689 172.403 145.961 172.341 145.433C171.968 142.293 178.299 137.005 179.022 136.415C179.195 136.277 179.434 136.251 179.629 136.357C179.825 136.464 179.936 136.681 179.909 136.898C179.807 137.781 178.827 145.544 175.925 147.137C175.566 147.336 175.185 147.434 174.794 147.434ZM178.614 138.207C176.467 140.137 173.206 143.495 173.423 145.305C173.45 145.549 173.556 145.899 174.124 146.174C174.595 146.405 174.998 146.405 175.397 146.183C177.092 145.251 178.152 140.931 178.614 138.211V138.207Z" fill="#431949"/>
<path d="M133.038 81.7317C132.767 81.7317 132.528 81.5321 132.488 81.2571L132.071 78.4136C132.048 78.2627 132.088 78.103 132.19 77.9833L133.273 76.6436C133.464 76.404 133.814 76.3685 134.054 76.5593C134.293 76.7545 134.329 77.1049 134.138 77.34L133.206 78.4934L133.588 81.0929C133.632 81.399 133.424 81.6785 133.118 81.7228C133.091 81.7228 133.064 81.7273 133.038 81.7273V81.7317Z" fill="black"/>
<path d="M124.578 82.4059C124.303 82.4059 124.064 82.2019 124.028 81.9224L123.664 79.0745C123.642 78.9015 123.704 78.7285 123.824 78.6087L125.412 77.0428C125.63 76.8298 125.984 76.8298 126.197 77.0516C126.415 77.269 126.41 77.6239 126.193 77.8413L124.8 79.212L125.128 81.7849C125.168 82.091 124.951 82.366 124.645 82.4059C124.623 82.4059 124.596 82.4059 124.574 82.4059H124.578Z" fill="black"/>
<path d="M156.811 136.401C156.567 136.401 156.345 136.237 156.283 135.993L153.266 124.3C153.191 124.007 153.364 123.71 153.657 123.635C153.95 123.55 154.247 123.737 154.322 124.025L157.339 135.718C157.414 136.011 157.241 136.308 156.948 136.384C156.904 136.397 156.855 136.401 156.811 136.401Z" fill="#F5D5AB"/>
<path d="M141.417 129.011V137.302L183.303 138.242C183.303 138.242 181.732 133.629 169.901 131.047C159.383 128.754 141.417 129.016 141.417 129.016V129.011Z" fill="white"/>
<path d="M203.318 127.387V174.76L178.76 180.54L141.138 181.055L140.206 132.427L177.744 133.234L203.318 127.387Z" fill="#A63019"/>
<path d="M128.327 156.364C128.327 156.364 133.282 152.753 135.792 151.706C138.17 150.712 140.543 150.131 140.543 150.131L141.417 154.301C141.417 154.301 150.249 154.971 156.713 157.144C163.176 159.318 162.466 162.219 162.466 162.219C162.466 162.219 166.658 164.153 165.239 166.03C163.824 167.906 157.276 167.148 157.276 167.148C157.276 167.148 165.665 169.051 162.617 171.3C159.574 173.549 152.237 174.015 152.237 174.015C152.237 174.015 136.817 178.979 130.828 174.219C124.84 169.459 128.327 156.368 128.327 156.368V156.364Z" fill="#F48462"/>
<path d="M141.422 154.767C141.351 154.762 136.334 154.013 136.334 154.013C136.076 153.973 135.903 153.738 135.939 153.48C135.979 153.223 136.214 153.046 136.471 153.086L141.488 153.835C141.746 153.875 141.919 154.11 141.883 154.368C141.848 154.603 141.648 154.767 141.422 154.767Z" fill="black"/>
<path d="M162.04 162.295C161.974 162.295 149.211 160.467 149.211 160.467C148.954 160.427 148.777 160.192 148.817 159.935C148.852 159.677 149.101 159.522 149.345 159.535L162.107 161.359C162.364 161.394 162.542 161.634 162.502 161.891C162.466 162.126 162.267 162.29 162.04 162.29V162.295Z" fill="black"/>
<path d="M158.128 167.689C158.062 167.689 150.054 166.513 150.054 166.513C149.797 166.473 149.62 166.238 149.66 165.981C149.7 165.724 149.939 165.568 150.192 165.586L158.195 166.757C158.452 166.797 158.629 167.032 158.589 167.29C158.554 167.52 158.354 167.689 158.128 167.689Z" fill="black"/>
<path d="M189.779 149.683C190.294 148.707 191.088 147.913 191.997 147.283C195.067 145.154 204.729 140.718 207.594 143.437C210.34 146.041 205.052 148.676 205.052 148.676C205.052 148.676 209.737 147.407 209.511 150.898C209.32 153.813 206.334 154.771 206.334 154.771C206.334 154.771 211.334 153.919 209.519 158.094C207.705 162.268 197.365 165.981 193.559 165.866C189.752 165.75 192.45 160.76 192.45 160.76C192.45 160.76 188.364 160.094 188.364 157.828C188.364 155.428 191.58 154.518 191.58 154.518C191.58 154.518 187.938 153.205 189.788 149.687L189.779 149.683Z" fill="#F48462"/>
<path d="M192.769 154.767C192.561 154.767 192.361 154.647 192.272 154.443C192.148 154.168 192.272 153.844 192.543 153.72L204.822 148.17C205.093 148.046 205.421 148.17 205.545 148.445C205.669 148.72 205.545 149.044 205.274 149.168L192.995 154.718C192.925 154.749 192.845 154.767 192.769 154.767Z" fill="black"/>
<path d="M193.94 160.729C193.732 160.729 193.528 160.605 193.439 160.4C193.319 160.125 193.444 159.802 193.719 159.682L206.108 154.265C206.379 154.146 206.707 154.265 206.827 154.545C206.947 154.82 206.827 155.144 206.548 155.264L194.158 160.68C194.087 160.711 194.011 160.729 193.94 160.729Z" fill="black"/>
<path d="M128.225 93.3275C128.016 93.3275 127.817 93.3053 127.626 93.2521C126.069 92.8218 124.552 90.6215 124.383 90.3731C124.259 90.1912 124.259 89.9472 124.383 89.7653C124.507 89.579 124.729 89.4903 124.942 89.5302L131.698 90.861C131.911 90.901 132.08 91.0695 132.129 91.2825C132.173 91.4954 132.089 91.7172 131.911 91.8414C131.676 92.01 129.777 93.3275 128.229 93.3275H128.225ZM126.184 90.8877C126.708 91.4643 127.355 92.041 127.919 92.1963C128.451 92.3471 129.316 92.0455 130.092 91.6551L126.184 90.8877Z" fill="black"/>
<path d="M101.183 106.649C101.183 106.649 63.951 124.384 65.4903 161.829C66.8167 194.15 122.028 187.03 123.948 187.052C127.644 187.097 132.058 186.276 132.058 186.276C132.058 186.276 130.851 150.526 129.711 149.47C128.571 148.414 105.73 146.014 105.73 146.014L101.187 106.649H101.183Z" fill="#F5B400"/>
<path d="M176.573 133.119V181.055L180.326 180.624V132.609L176.573 133.119Z" fill="#E7765F"/>
<path d="M129.706 150.016C129.626 150.011 105.725 146.569 105.725 146.569C102.331 147.052 91.6095 148.396 90.4029 146.147C90.2032 145.775 90.119 145.163 90.842 144.346C93.9694 140.824 104.656 144.994 105.92 145.504C105.929 145.504 129.786 148.929 129.786 148.929C130.083 148.973 130.292 149.248 130.247 149.545C130.207 149.82 129.977 150.016 129.706 150.016ZM94.9986 144.045C93.5303 144.045 92.3192 144.329 91.6583 145.074C91.4054 145.358 91.3256 145.562 91.361 145.628C91.8668 146.569 97.6558 146.449 103.454 145.761C100.961 144.932 97.5848 144.045 94.9986 144.045Z" fill="#F5D5AB"/>
<path d="M181.608 264.466C181.39 264.466 181.182 264.333 181.098 264.115C177.043 253.713 168.934 233.506 167.266 231.515C165.798 229.758 151.98 228.214 143.618 227.651C143.316 227.633 143.09 227.371 143.112 227.07C143.13 226.768 143.391 226.52 143.693 226.56C145.955 226.71 165.851 228.126 168.105 230.814C170.305 233.44 181.634 262.487 182.114 263.72C182.224 264 182.083 264.319 181.803 264.426C181.736 264.452 181.67 264.466 181.603 264.466H181.608Z" fill="#E5B06A"/>
<path d="M167.688 231.714C167.564 231.714 167.444 231.674 167.342 231.59C167.164 231.444 167.093 231.2 167.173 230.982C167.612 229.758 171.552 218.987 175.021 218.415C175.54 218.326 176.303 218.415 176.999 219.298C177.585 220.039 177.798 220.912 177.62 221.888C176.839 226.218 168.331 231.417 167.967 231.634C167.879 231.688 167.781 231.714 167.683 231.714H167.688ZM175.336 219.48C175.287 219.48 175.238 219.484 175.198 219.493C173.295 219.808 170.487 225.464 168.783 229.802C171.21 228.161 176.028 224.572 176.547 221.693C176.666 221.032 176.533 220.469 176.143 219.976C175.819 219.568 175.544 219.484 175.336 219.484V219.48Z" fill="#E5B06A"/>
<path d="M65.4412 214.019C65.3081 214.019 65.175 213.97 65.0686 213.873C55.5577 205.076 53.7921 188.463 53.7212 187.758C53.6901 187.456 53.9119 187.19 54.2091 187.159C54.4975 187.137 54.7769 187.345 54.808 187.647C54.8257 187.815 56.6046 204.553 65.8094 213.065C66.0312 213.269 66.0445 213.615 65.8404 213.837C65.734 213.952 65.5876 214.015 65.4412 214.015V214.019Z" fill="#285A8F"/>
</g>
</svg>
