<svg width="368" height="250" viewBox="0 0 368 250" fill="none" xmlns="http://www.w3.org/2000/svg">
<g clip-path="url(#clip0_399_8001)">
<path d="M174.669 137.263C176.2 140.237 177.179 143.413 178.021 146.651C178.598 148.885 178.108 150.642 175.61 151.696H125.927C124.333 150.78 123.128 149.425 123.605 147.567C124.521 144.09 125.274 140.526 127.283 137.438C130.183 132.845 134.174 129.719 139.471 128.351C141.003 127.887 142.597 127.724 144.179 127.699C148.836 127.611 153.505 127.623 158.162 127.699C159.556 127.711 160.936 128.025 162.33 128.201C162.43 128.251 162.518 128.339 162.618 128.364C165.983 129.242 168.845 130.974 171.393 133.321C172.673 134.501 173.552 135.995 174.682 137.288L174.669 137.263Z" fill="#176CAD"/>
<path d="M114.291 119.139C109.659 119.127 105.04 119.014 100.421 119.139C97.9478 119.215 96.3285 118.349 95.5 116.014V115.06C96.3159 112.7 97.9603 111.922 100.421 111.934C114.793 112.01 129.166 111.959 143.539 111.984C145.233 111.984 146.802 112.348 147.581 114.169C148.736 116.842 146.715 119.014 144.468 119.064C139.635 119.165 134.815 119.114 129.982 119.139C124.748 119.139 119.526 119.139 114.291 119.139Z" fill="#1A82C7"/>
<path d="M174.669 137.263C173.539 135.97 172.661 134.476 171.38 133.296C168.832 130.949 165.97 129.217 162.606 128.339C162.506 128.314 162.418 128.226 162.317 128.175C163.949 127.498 165.355 126.443 166.648 125.301C170.941 121.498 173.665 116.804 174.682 111.093C175.887 104.353 174.443 98.2534 170.514 92.7686C167.439 88.4886 163.322 85.5014 158.288 83.8321C158.614 83.4932 158.928 83.1418 159.267 82.8029C162.066 79.9538 163.121 76.5775 162.594 72.6113C162.481 71.7704 161.803 70.9671 162.267 70.0509C166.887 71.4817 171.129 73.6656 174.883 76.6905C179.916 80.7571 183.757 85.7524 186.331 91.7394C188.753 97.3874 189.72 103.274 189.356 109.349C189.092 113.754 188.113 118.009 186.343 122.101C184.874 125.502 183.017 128.652 180.644 131.439C178.849 133.547 176.941 135.606 174.669 137.263Z" fill="#D69A86"/>
<path d="M120.028 82.7151C120.028 82.3511 119.739 82.1754 119.538 81.9369C118.371 80.619 118.208 79.1254 119.199 77.682C123.405 71.6324 127.635 65.5952 131.865 59.5581C134.928 55.1777 138.003 50.8099 141.079 46.4421C141.907 45.2623 142.71 44.0448 143.551 42.8776C144.505 41.5597 145.861 41.1204 147.468 41.5471C147.882 41.6601 148.309 41.7354 148.723 41.8233C148.899 42.1998 149.25 42.3881 149.577 42.614C151.937 44.2456 154.271 45.915 156.631 47.5466C157.184 47.9357 157.334 48.2369 156.882 48.8645C155.426 50.8601 154.02 52.906 152.614 54.9518C150.757 57.6378 148.911 60.3237 147.066 63.0222C146.451 63.587 145.598 63.6498 144.907 64.0765C140.978 66.5115 139.146 70.1137 138.945 74.6446C138.832 74.745 138.681 74.8329 138.593 74.9584C136.66 77.6946 134.714 80.4056 132.832 83.1794C131.551 85.0747 130.045 86.8193 129.016 88.8777C127.974 88.2501 127.108 87.3339 125.915 86.9448C125.664 85.9658 124.723 85.7399 124.032 85.2755C122.714 84.3969 121.61 83.1418 120.003 82.7151H120.028Z" fill="#37A8E5"/>
<path d="M147.079 62.9971C148.924 60.3112 150.769 57.6127 152.627 54.9267C154.033 52.8934 155.439 50.8476 156.895 48.8394C157.347 48.2118 157.196 47.9106 156.644 47.5215C154.284 45.8898 151.936 44.2205 149.589 42.5889C149.263 42.363 148.924 42.1747 148.736 41.7982C150.794 38.8361 152.853 35.8614 154.911 32.8994C155.313 32.322 155.727 31.7572 156.129 31.1924C157.221 29.6737 159.631 29.6863 161.062 30.6903C163.058 32.0961 165.066 33.4893 167.062 34.8824C166.774 34.9075 166.548 35.0205 166.372 35.2715C163.573 39.3005 160.773 43.342 157.924 47.3458C157.485 47.9608 157.711 48.1993 158.175 48.5256C160.397 50.0694 162.606 51.6508 164.853 53.1695C165.292 53.4708 165.606 54.023 166.272 53.9226C166.811 55.002 167.715 55.9057 167.552 57.3114C167.451 58.1273 167.251 58.8301 166.799 59.4702C164.866 62.2315 162.933 64.9802 160.999 67.7415C159.845 66.8252 158.991 65.6078 157.799 64.7166C155.614 63.0975 153.142 62.5453 150.531 62.5202C149.376 62.5076 148.233 62.8214 147.079 62.972V62.9971Z" fill="#1A82C7"/>
<path d="M147.079 62.9971C148.233 62.834 149.388 62.5202 150.531 62.5453C153.141 62.5829 155.614 63.1226 157.798 64.7417C159.004 65.6329 159.845 66.8503 160.999 67.7666C161.25 68.6201 161.564 69.4359 162.267 70.0509C161.803 70.9671 162.481 71.7704 162.594 72.6113C163.121 76.5775 162.066 79.9663 159.267 82.8029C158.941 83.1418 158.614 83.4807 158.288 83.8321C156.844 84.6228 155.476 85.5642 153.857 85.9784C151.924 86.4804 149.978 86.3423 148.033 86.0788C145.045 84.9743 142.56 83.3677 140.79 80.506C139.622 78.6108 139.447 76.6152 138.957 74.6195C139.158 70.0885 140.991 66.4863 144.92 64.0514C145.61 63.6247 146.463 63.5619 147.079 62.9971ZM150.807 79.138C153.317 79.138 155.652 77.1298 155.614 74.4438C155.577 71.4817 153.606 69.7873 150.895 69.6869C148.095 69.5865 146.175 71.7202 146.137 74.2304C146.087 77.0419 148.108 79.138 150.807 79.1505V79.138Z" fill="#FFE645"/>
<path d="M114.291 119.139C119.525 119.139 124.747 119.139 129.982 119.139C132.003 122.929 135.015 125.728 138.681 127.887C138.944 128.037 139.208 128.201 139.472 128.351C134.174 129.732 130.183 132.845 127.283 137.438C126.065 136.397 124.76 135.443 123.655 134.275C119.613 129.995 116.287 125.238 114.504 119.553C114.454 119.402 114.366 119.277 114.291 119.139Z" fill="#D69A86"/>
<path d="M138.957 74.6321C139.447 76.6278 139.61 78.6234 140.79 80.5186C142.56 83.3803 145.033 84.9869 148.033 86.0914C147.116 87.7481 145.911 89.2166 144.844 90.7855C144.229 91.6766 143.551 92.5301 142.936 93.4213C141.442 95.6052 139.949 96.0194 137.601 94.8898C135.668 93.4589 133.798 91.9402 131.664 90.8106C130.785 90.1705 129.907 89.5178 129.041 88.8777C130.07 86.8193 131.564 85.0622 132.857 83.1795C134.739 80.4182 136.698 77.6946 138.618 74.9585C138.706 74.8329 138.844 74.7451 138.97 74.6447L138.957 74.6321Z" fill="#1A82C7"/>
<path d="M166.284 53.9477C165.632 54.0607 165.305 53.4959 164.866 53.1947C162.631 51.6634 160.422 50.0945 158.188 48.5507C157.723 48.2244 157.497 47.9859 157.937 47.3709C160.786 43.3671 163.573 39.3256 166.385 35.2966C166.56 35.0456 166.786 34.9327 167.075 34.9076C168.933 36.1878 170.816 37.4304 172.636 38.7608C174.205 39.9155 174.569 42.1371 173.402 43.8566C171.079 47.2579 168.669 50.5966 166.297 53.9477H166.284Z" fill="#176CAD"/>
<path d="M120.028 82.715C121.634 83.1418 122.739 84.3843 124.057 85.2755C124.735 85.7273 125.689 85.9658 125.94 86.9448C125.275 88.0367 124.383 88.953 123.681 90.0449C122.978 91.1494 122.099 92.3543 120.793 92.9945C119.488 93.6346 117.731 93.3333 116.777 92.2414C115.622 90.9486 115.647 89.0283 116.4 87.8736C117.555 86.1164 118.81 84.4345 120.028 82.715Z" fill="#176CAD"/>
<path d="M131.664 90.798C133.798 91.9276 135.669 93.4463 137.602 94.8771C136.246 96.6343 135.229 98.6299 133.71 100.249C132.242 101.818 130.396 101.981 128.915 100.814C127.459 99.6591 127.045 97.3874 128.288 95.6804C129.442 94.0739 130.547 92.4296 131.664 90.798Z" fill="#176CAD"/>
<path d="M150.819 79.138C148.121 79.138 146.1 77.0293 146.15 74.2179C146.187 71.7076 148.108 69.5739 150.907 69.6744C153.619 69.7748 155.589 71.4692 155.627 74.4313C155.665 77.1172 153.33 79.1379 150.819 79.1254V79.138Z" fill="#1A82C7"/>
<path d="M225.043 205.779C224.365 205.503 223.637 205.528 222.922 205.453C220.097 205.139 217.348 204.474 214.624 203.621C212.39 202.918 210.281 201.939 208.16 201.01C207.13 200.558 206.239 199.818 205.26 199.253C203.302 198.136 201.67 196.592 199.9 195.211C198.507 194.132 197.314 192.814 196.034 191.622C195.394 191.032 194.904 190.203 194.364 189.463C194.139 189.162 193.887 188.936 193.611 188.722C193.825 188.547 193.988 188.308 194.289 188.245C196.122 187.831 197.904 187.254 199.699 186.689C200.164 186.538 200.39 186.639 200.528 187.128C202.235 193.341 208.599 197.546 214.926 196.68C218.516 196.19 221.428 194.621 223.738 191.822C227.34 187.442 227.742 181.279 224.792 176.447C224.378 175.782 224.516 175.544 225.093 175.18C228.144 173.284 231.081 171.239 233.905 169.017C236.529 166.959 239.064 164.8 241.437 162.453C241.864 162.026 242.127 161.988 242.466 162.541C243.056 163.507 243.897 164.273 244.713 165.038C246.897 167.109 249.546 168.226 252.496 168.427C256.713 168.716 260.391 167.373 263.328 164.235C266.542 160.808 267.647 156.729 266.655 152.198C265.663 147.655 262.914 144.442 258.584 142.647C257.68 142.27 257.692 142.245 258.194 141.404C259.111 139.861 259.977 138.292 260.881 136.748C261.169 136.258 261.307 135.643 261.885 135.367C266.329 140.802 269.216 146.99 270.647 153.843C271.011 155.612 271.375 157.395 271.387 159.227C271.387 159.315 271.488 159.415 271.538 159.503V165.754C271.4 165.829 271.375 165.967 271.375 166.118C271.249 168.402 270.835 170.661 270.283 172.87C268.939 178.38 266.58 183.438 263.241 188.032C262.563 188.961 261.747 189.777 261.195 190.781C260.969 190.982 260.73 191.182 260.504 191.396C258.634 193.291 256.776 195.211 254.642 196.83C249.32 200.859 243.407 203.595 236.855 204.926C235.637 205.177 234.395 205.378 233.177 205.604C232.399 205.692 231.583 205.415 230.817 205.767H225.068L225.043 205.779ZM256.462 183.388C256.676 176.133 250.512 170.247 243.772 169.958C235.763 169.619 229.989 176.171 229.75 182.597C229.436 191.044 235.964 196.83 243.144 196.768C250.801 196.705 256.525 190.668 256.462 183.388Z" fill="#78C3CF"/>
<path d="M230.78 205.779C231.545 205.428 232.349 205.692 233.14 205.616C242.491 205.616 251.831 205.616 261.182 205.616C264.559 205.616 267.935 205.604 271.312 205.591H271.5C271.312 205.955 270.986 205.767 270.735 205.767C257.416 205.767 244.098 205.767 230.78 205.767V205.779Z" fill="#87CED9"/>
<path d="M271.5 205.616C271.5 205.616 271.375 205.616 271.312 205.604C271.312 200.684 271.312 195.751 271.312 190.831C271.375 190.806 271.438 190.781 271.513 190.756V205.616H271.5Z" fill="#78C3CF"/>
<path d="M261.847 135.367C261.27 135.643 261.132 136.258 260.843 136.748C259.939 138.292 259.073 139.861 258.157 141.404C257.667 142.233 257.642 142.27 258.546 142.647C262.877 144.442 265.626 147.655 266.617 152.198C267.609 156.729 266.504 160.809 263.291 164.235C260.353 167.373 256.676 168.716 252.458 168.427C249.508 168.226 246.859 167.109 244.675 165.038C243.859 164.26 243.018 163.507 242.428 162.541C242.102 162.001 241.838 162.026 241.399 162.453C239.027 164.8 236.491 166.959 233.868 169.017C231.043 171.239 228.106 173.284 225.056 175.18C224.466 175.544 224.34 175.782 224.754 176.447C227.704 181.28 227.302 187.455 223.7 191.823C221.39 194.621 218.478 196.19 214.888 196.68C208.561 197.546 202.197 193.341 200.49 187.128C200.352 186.626 200.139 186.538 199.662 186.689C197.879 187.254 196.084 187.831 194.252 188.245C193.963 188.308 193.8 188.559 193.574 188.722C192.569 187.028 191.302 185.484 190.398 183.765C189.569 182.183 188.804 180.526 188.126 178.845C186.82 175.556 185.841 172.18 185.339 168.691C184.875 165.415 184.875 162.126 185.101 158.813C185.339 155.361 186.067 152.035 187.147 148.772C188.502 144.655 190.498 140.852 193.034 137.325C197.816 130.686 203.992 125.791 211.524 122.603C214.762 121.235 218.114 120.293 221.604 119.791C224.051 119.44 226.499 119.289 228.972 119.302C234.006 119.339 238.876 120.306 243.571 122.088C249.018 124.159 253.851 127.222 258.056 131.276C259.387 132.568 260.667 133.899 261.822 135.355L261.847 135.367ZM201.369 164.925C201.369 164.925 201.494 165.026 201.557 165.063C203.076 165.842 204.67 165.641 206.239 165.327C208.461 164.9 210.394 163.871 211.963 162.202C213.997 160.043 214.8 157.445 214.75 154.508C214.687 150.429 211.599 146.337 207.645 145.258C206.051 144.567 204.407 144.542 202.712 144.793C197.754 145.534 194.126 149.839 193.963 154.734C193.862 157.595 194.867 160.093 196.775 162.177C198.005 163.532 199.473 164.624 201.381 164.925H201.369ZM254.956 165.277C256.173 165.277 257.303 164.775 258.307 164.26C263.504 161.649 265.274 155.6 262.952 150.604C261.32 147.09 258.408 145.17 254.617 144.68C252.747 144.442 250.876 144.668 249.182 145.659C247.374 146.287 246.056 147.554 245.027 149.073C242.88 152.211 242.453 155.587 243.947 159.127C245.177 162.039 247.412 163.934 250.324 165.013C251.818 165.565 253.374 165.904 254.956 165.264V165.277ZM222.319 188.547C223.16 187.078 223.662 185.447 223.7 183.802C223.788 180.037 222.332 176.937 219.181 174.74C217.8 173.774 216.231 172.983 214.587 172.92C213.118 172.858 211.574 172.92 210.118 173.435C208.223 174.088 206.553 175.029 205.386 176.723C205.097 176.912 204.896 177.175 204.708 177.464C203.227 179.773 202.612 182.233 203.026 184.995C203.791 190.015 208.034 193.68 213.106 193.768C217.147 193.843 220.185 191.948 222.307 188.559L222.319 188.547ZM238.525 137.727C238.801 134.577 237.709 131.878 235.487 129.744C233.039 127.397 230.064 126.368 226.612 126.895C221.302 127.711 217.474 132.518 217.813 137.739C217.888 139.472 218.352 141.091 219.281 142.572C221.365 145.86 224.39 147.554 228.231 147.655C230.19 147.705 232.06 147.128 233.717 146.023C236.679 144.053 238.412 141.354 238.525 137.727ZM235.499 162.239C235.65 158.574 232.449 154.834 227.679 155.135C223.838 155.386 220.712 157.834 220.65 164.059C221.353 165.277 221.817 166.657 222.834 167.674C224.265 169.105 226.035 169.996 228.018 169.933C232.148 169.808 235.625 167.072 235.487 162.239H235.499Z" fill="#87CED9"/>
<path d="M271.299 190.831C271.299 195.751 271.299 200.684 271.299 205.604C267.923 205.604 264.546 205.629 261.169 205.629C251.818 205.629 242.479 205.629 233.127 205.629C234.357 205.403 235.587 205.202 236.805 204.951C243.357 203.621 249.27 200.884 254.592 196.856C256.726 195.236 258.584 193.329 260.454 191.421C260.667 191.208 260.906 191.007 261.144 190.806C264.534 190.818 267.91 190.831 271.299 190.844V190.831Z" fill="#3570AB"/>
<path d="M256.462 183.401C256.525 190.693 250.801 196.717 243.144 196.78C235.964 196.843 229.436 191.057 229.75 182.61C229.989 176.184 235.763 169.645 243.771 169.971C250.525 170.26 256.688 176.146 256.462 183.401ZM234.144 188.584C235.964 192.312 241.06 194.521 245.34 193.555C250.65 192.35 254.341 187.254 253.399 181.694C253.073 179.761 252.37 177.966 250.901 176.56C250.751 176.359 250.625 176.133 250.449 175.97C248.24 173.899 245.642 172.908 242.591 173.021C239.955 173.109 237.721 174.113 235.876 175.87C234.169 177.489 233.139 179.547 232.775 181.945C232.411 184.355 232.926 186.538 234.144 188.597V188.584Z" fill="#87CED9"/>
<path d="M207.645 145.27C211.6 146.362 214.687 150.441 214.75 154.52C214.788 157.457 213.997 160.055 211.964 162.214C210.394 163.884 208.474 164.913 206.24 165.339C204.67 165.641 203.076 165.854 201.557 165.076C201.495 165.026 201.432 164.975 201.369 164.938C201.482 163.181 201.294 161.423 201.545 159.654C201.997 156.478 202.813 153.428 204.244 150.542C205.185 148.646 206.415 146.965 207.645 145.27Z" fill="#3570AB"/>
<path d="M238.537 137.739C238.411 141.367 236.679 144.065 233.729 146.036C232.085 147.128 230.202 147.705 228.244 147.667C224.403 147.567 221.365 145.873 219.294 142.584C218.365 141.116 217.901 139.484 217.825 137.752C220.072 136.974 222.332 136.258 224.704 135.945C227.001 135.631 229.286 135.643 231.57 135.945C233.968 136.246 236.278 136.911 238.537 137.752V137.739Z" fill="#3570AB"/>
<path d="M205.411 176.736C206.565 175.042 208.248 174.1 210.143 173.448C211.599 172.946 213.143 172.87 214.612 172.933C216.256 173.008 217.813 173.786 219.206 174.753C222.357 176.949 223.813 180.05 223.725 183.815C223.687 185.459 223.185 187.091 222.344 188.559C222.118 188.534 221.892 188.522 221.679 188.471C216.946 187.317 212.879 184.944 209.39 181.581C207.871 180.125 206.678 178.393 205.423 176.723L205.411 176.736Z" fill="#3570AB"/>
<path d="M249.194 145.684C250.889 144.693 252.772 144.467 254.63 144.705C258.408 145.195 261.333 147.115 262.965 150.629C265.287 155.625 263.504 161.675 258.32 164.285C257.316 164.787 256.186 165.289 254.969 165.302C254.918 162.817 255.094 160.332 254.617 157.859C254.065 154.972 253.111 152.236 251.73 149.65C250.989 148.27 249.998 147.04 249.194 145.709V145.684Z" fill="#4398D1"/>
<path d="M249.194 145.684C249.998 147.027 250.989 148.245 251.73 149.625C253.111 152.211 254.065 154.947 254.617 157.834C255.094 160.306 254.918 162.792 254.968 165.277C253.387 165.917 251.818 165.578 250.336 165.026C247.424 163.946 245.19 162.051 243.96 159.139C242.466 155.6 242.893 152.223 245.039 149.086C246.081 147.567 247.399 146.299 249.194 145.672V145.684Z" fill="#3570AB"/>
<path d="M205.411 176.736C206.666 178.418 207.859 180.137 209.378 181.593C212.88 184.957 216.934 187.329 221.667 188.484C221.88 188.534 222.106 188.547 222.332 188.572C220.211 191.973 217.173 193.856 213.131 193.78C208.06 193.693 203.817 190.015 203.051 185.007C202.637 182.258 203.252 179.786 204.733 177.476C204.922 177.188 205.122 176.924 205.411 176.736Z" fill="#4398D1"/>
<path d="M238.537 137.739C236.277 136.911 233.968 136.246 231.57 135.932C229.286 135.643 227.001 135.631 224.704 135.932C222.331 136.258 220.072 136.961 217.825 137.739C217.486 132.518 221.315 127.711 226.624 126.895C230.076 126.368 233.051 127.385 235.499 129.744C237.721 131.878 238.813 134.577 238.537 137.727V137.739Z" fill="#4398D1"/>
<path d="M207.645 145.27C206.427 146.977 205.185 148.659 204.243 150.542C202.8 153.428 201.984 156.478 201.545 159.654C201.293 161.411 201.482 163.181 201.369 164.938C199.461 164.637 197.992 163.532 196.762 162.189C194.854 160.106 193.862 157.608 193.95 154.746C194.113 149.851 197.741 145.546 202.699 144.806C204.394 144.555 206.038 144.58 207.633 145.27H207.645Z" fill="#4398D1"/>
<path d="M235.512 162.252C235.65 167.072 232.186 169.82 228.043 169.946C226.047 170.009 224.277 169.117 222.859 167.687C221.842 166.67 221.378 165.302 220.675 164.072C220.738 157.859 223.863 155.399 227.704 155.148C232.474 154.847 235.663 158.574 235.525 162.252H235.512ZM228.219 166.946C230.654 166.946 232.587 165.001 232.663 162.591C232.725 160.407 230.792 158.01 227.968 158.135C226.06 158.223 223.65 160.219 223.65 161.813C223.637 164.888 225.759 167.059 228.219 166.946Z" fill="#3E8CC7"/>
<path d="M201.369 164.938C201.369 164.938 201.495 165.038 201.557 165.076C201.495 165.026 201.432 164.976 201.369 164.938Z" fill="#4398D1"/>
<path d="M234.144 188.572C232.926 186.513 232.399 184.329 232.775 181.92C233.139 179.535 234.169 177.476 235.876 175.845C237.721 174.088 239.968 173.096 242.592 172.996C245.642 172.895 248.24 173.887 250.45 175.945C250.625 176.108 250.751 176.334 250.901 176.535C250.839 176.698 250.814 176.861 250.726 177C249.131 179.51 247.123 181.656 244.813 183.501C243.144 184.831 241.336 185.923 239.378 186.815C237.684 187.58 235.976 188.245 234.144 188.547V188.572Z" fill="#3570AB"/>
<path d="M234.144 188.572C235.976 188.27 237.683 187.605 239.378 186.84C241.336 185.949 243.144 184.857 244.813 183.526C247.135 181.681 249.131 179.535 250.726 177.025C250.813 176.887 250.839 176.711 250.901 176.56C252.37 177.966 253.073 179.761 253.399 181.694C254.341 187.254 250.65 192.35 245.34 193.555C241.06 194.521 235.964 192.312 234.144 188.584V188.572Z" fill="#4398D1"/>
<path d="M228.219 166.947C225.758 167.06 223.625 164.888 223.65 161.813C223.65 160.231 226.06 158.223 227.968 158.135C230.78 158.01 232.725 160.407 232.662 162.591C232.6 165.001 230.654 166.947 228.219 166.947Z" fill="#87CED9"/>
<path d="M100.797 208.403V165.176C100.897 165.139 100.923 165.051 100.948 164.938C101.362 163.03 102.416 161.587 104.036 160.507C105.479 159.553 107.124 159.466 108.73 159.478C129.618 159.541 150.505 159.265 171.393 159.591C173.125 159.616 174.544 160.269 175.799 161.411C177.393 162.867 177.958 164.775 177.958 166.821C177.983 179.573 177.97 192.312 177.958 205.064C177.958 205.315 177.933 205.566 177.92 205.817C175.121 201.876 172.322 197.935 169.51 193.994C167.702 191.459 165.895 188.936 164.087 186.413C164.037 186.313 163.987 186.212 163.937 186.112C163.836 186.062 163.736 186.011 163.635 185.961C163.334 185.735 163.146 185.409 162.819 185.196C159.769 183.074 155.476 183.715 153.267 186.689C150.279 190.718 147.355 194.785 144.38 198.826C143.388 200.169 142.472 201.587 141.355 202.843C141.292 202.93 141.242 203.018 141.179 203.106L141.141 203.156C141.141 203.156 141.066 203.232 141.028 203.269C140.727 203.759 140.262 204.047 139.798 204.361L139.672 204.474L139.635 204.499C139.547 204.55 139.459 204.587 139.371 204.637C136.735 206.131 134.174 205.993 131.676 204.298C128.877 202.403 126.065 200.508 123.216 198.688C120.655 197.044 118.019 196.969 115.446 198.663C110.538 201.889 105.667 205.165 100.772 208.428L100.797 208.403ZM140.438 183.1C140.601 183.062 140.752 182.999 140.589 182.798C141.041 181.945 141.442 180.991 141.417 180.075C141.392 179.259 141.367 178.418 141.229 177.577C140.714 174.627 139.233 172.343 136.748 170.737C134.564 169.331 132.166 168.992 129.593 169.356C127.434 169.67 125.639 170.661 124.208 172.18C122.287 174.201 121.321 176.636 121.446 179.497C121.547 182.045 122.538 184.166 124.195 186.011C125.061 186.978 126.166 187.63 127.308 188.22C129.04 189.099 130.886 189.312 132.769 189.011C134.802 188.697 136.61 187.844 138.141 186.413C139.158 185.459 140.049 184.43 140.463 183.074L140.438 183.1Z" fill="#97DBDB"/>
<path d="M141.367 202.843C142.497 201.587 143.401 200.169 144.393 198.826C147.368 194.797 150.292 190.718 153.28 186.689C155.489 183.715 159.782 183.074 162.832 185.196C163.146 185.421 163.347 185.735 163.648 185.961C163.749 186.011 163.849 186.062 163.949 186.112C164 186.212 164.05 186.313 164.1 186.413C165.908 188.936 167.728 191.471 169.523 193.994C172.335 197.935 175.134 201.876 177.933 205.817C177.933 208.415 178.071 211.013 177.833 213.611C177.657 215.62 176.791 217.201 175.247 218.481C174.305 219.259 173.176 219.548 172.096 219.975H170.74C170.477 219.762 170.163 219.824 169.874 219.824C149.501 219.824 129.129 219.824 108.756 219.824C108.454 219.824 108.153 219.762 107.89 219.975H106.534C106.496 219.862 106.408 219.849 106.308 219.824C104.362 219.41 102.894 218.306 101.802 216.661C101.312 215.921 101.149 215.055 100.797 214.252C100.797 212.294 100.797 210.336 100.797 208.378C105.68 205.127 110.563 201.838 115.471 198.613C118.032 196.931 120.681 197.006 123.241 198.638C126.091 200.458 128.89 202.366 131.702 204.248C134.212 205.943 136.761 206.081 139.397 204.587C139.484 204.537 139.572 204.499 139.66 204.449L139.698 204.424C139.736 204.386 139.786 204.349 139.823 204.311C140.275 203.997 140.752 203.696 141.054 203.219C141.091 203.181 141.129 203.144 141.167 203.106L141.204 203.056C141.267 202.968 141.317 202.88 141.38 202.792L141.367 202.843Z" fill="#00ACEA"/>
<path d="M107.889 220C108.153 219.787 108.467 219.849 108.755 219.849C129.128 219.849 149.501 219.849 169.874 219.849C170.175 219.849 170.476 219.787 170.74 220H107.889Z" fill="#17B3EC"/>
<path d="M140.438 183.099C140.024 184.468 139.133 185.484 138.116 186.438C136.585 187.869 134.777 188.722 132.743 189.036C130.861 189.325 129.015 189.124 127.283 188.245C126.128 187.668 125.036 187.015 124.17 186.036C122.513 184.179 121.534 182.07 121.421 179.522C121.308 176.661 122.275 174.213 124.183 172.205C125.626 170.686 127.409 169.695 129.568 169.381C132.141 169.017 134.538 169.343 136.723 170.762C139.208 172.368 140.702 174.64 141.204 177.602C141.342 178.43 141.367 179.284 141.392 180.1C141.417 181.016 141.016 181.97 140.564 182.823C140.476 182.899 140.237 182.911 140.413 183.125L140.438 183.099Z" fill="#FFE645"/>
<path d="M140.438 183.099C140.262 182.886 140.501 182.874 140.589 182.798C140.752 182.999 140.601 183.062 140.438 183.099Z" fill="#08EED3"/>
<path d="M141.166 203.144C141.166 203.144 141.091 203.219 141.053 203.257C141.091 203.219 141.129 203.181 141.166 203.144Z" fill="#08EED3"/>
<path d="M139.836 204.349C139.836 204.349 139.748 204.424 139.71 204.462C139.748 204.424 139.798 204.386 139.836 204.349Z" fill="#08EED3"/>
</g>
<defs>
<clipPath id="clip0_399_8001">
<rect width="176" height="190" fill="white" transform="translate(95.5 30)"/>
</clipPath>
</defs>
</svg>
