<svg width="80" height="80" viewBox="0 0 80 80" fill="none" xmlns="http://www.w3.org/2000/svg">
<path d="M16.278 6.03931H54.9558C58.2314 6.03931 60.8867 8.69469 60.8867 11.9703V71.7894C60.8867 75.065 58.2314 77.7204 54.9558 77.7204H16.278C13.0024 77.7204 10.347 75.065 10.347 71.7894V11.9703C10.347 8.69469 13.0024 6.03931 16.278 6.03931Z" fill="white" stroke="#A38552"/>
<path d="M55.7053 63.84H16.0453C15.9485 63.84 15.8759 63.6993 15.8759 63.5323C15.8759 63.3653 15.9533 63.2246 16.0453 63.2246H55.7053C55.8021 63.2246 55.8747 63.3653 55.8747 63.5323C55.8747 63.6993 55.7973 63.84 55.7053 63.84Z" fill="#A38552"/>
<path d="M55.5481 68.924H16.0066C15.8756 68.924 15.7773 68.7833 15.7773 68.6163C15.7773 68.4492 15.8821 68.3086 16.0066 68.3086H55.5481C55.6791 68.3086 55.7773 68.4492 55.7773 68.6163C55.7773 68.7833 55.6725 68.924 55.5481 68.924Z" fill="#A38552"/>
<path d="M35.5036 49.6812L37.0085 52.7345L40.3812 53.2233L37.9424 55.604L38.5182 58.9574L35.5036 57.3751L32.4889 58.9574L33.0647 55.604L30.6259 53.2233L33.9938 52.7345L35.5036 49.6812Z" fill="#A63019"/>
<path d="M25.6753 51.9502L27.3496 53.9535L29.9481 53.7067L28.5593 55.9181L29.5948 58.3134L27.0641 57.6795L25.1043 59.4022L24.9301 56.7988L22.6848 55.4681L25.1043 54.4955L25.6753 51.9502Z" fill="#A63019"/>
<path d="M45.21 51.9502L43.5357 53.9535L40.9372 53.7067L42.326 55.9181L41.2904 58.3134L43.8212 57.6795L45.781 59.4022L45.96 56.7988L48.2053 55.4681L45.781 54.4955L45.21 51.9502Z" fill="#A63019"/>
<path d="M43.2958 46.4956C52.5881 42.5397 56.9141 31.8 52.9583 22.5077C49.0025 13.2153 38.2627 8.88928 28.9704 12.8451C19.6781 16.801 15.352 27.5407 19.3078 36.833C23.2637 46.1254 34.0034 50.4514 43.2958 46.4956Z" fill="#FEF9EC"/>
<path d="M27.2678 45.6637C25.0951 44.4685 23.1934 42.8329 21.674 40.8828C23.4257 38.3424 27.9646 34.6648 30.4373 33.847C33.5778 32.8066 28.9517 40.0263 27.2678 45.6637Z" fill="#D8E7EF"/>
<path d="M40.3469 22.2277C41.2759 22.1116 42.2292 22.3051 42.9938 22.8471C43.6616 23.3213 44.3003 24.1101 44.5277 25.4263C45.0794 28.5813 43.947 29.4523 45.752 30.6427C47.5569 31.8282 48.5731 31.1024 49.7151 34.0396C50.8522 36.9769 49.1054 40.9109 45.4568 40.1173C41.8131 39.3237 32.9675 36.9091 32.9675 36.9091L32.5562 23.8439L36.979 22.6536L40.3469 22.2277Z" fill="black"/>
<path d="M46.1102 44.9922C44.2424 46.2116 42.1423 47.0971 39.8874 47.5714C38.6728 47.8278 37.4146 47.9585 36.1275 47.9585C35.5758 47.9585 35.0242 47.9343 34.4822 47.8859C33.6015 47.8085 32.7451 47.6681 31.9031 47.4649C30.2578 47.0778 28.7045 46.4681 27.2674 45.6696C25.7044 44.8083 24.2866 43.7244 23.0478 42.4566C23.5849 40.9613 24.1511 39.6452 24.7221 38.6822C27.4464 34.1094 31.4289 33.6787 31.4289 33.6787C35.692 32.4254 39.3309 32.2028 43.1972 34.0852C44.9344 34.9272 45.7764 39.8194 46.1054 44.9922H46.1102Z" fill="#D8E7EF"/>
<path d="M44.1948 44.1488L44.0835 46.1328C42.7673 46.7715 41.3592 47.2602 39.8881 47.5651C38.6735 47.8216 37.4154 47.9522 36.1283 47.9522C35.5766 47.9522 35.025 47.928 34.483 47.8796C33.6023 47.8022 32.7458 47.6619 31.9038 47.4586C30.2586 47.0715 28.7053 46.4618 27.2681 45.6634C27.1907 45.6198 27.1133 45.5763 27.0359 45.5279C26.1745 45.044 25.3664 44.4875 24.6019 43.8633C27.0504 38.7679 30.4328 33.8418 30.4328 33.8418L35.5911 32.7676L42.1576 33.8902L44.1948 44.1488Z" fill="#C35053"/>
<path d="M30.436 33.8472C30.436 33.8472 28.3843 40.5201 27.0342 45.5332C26.1293 45.0252 25.2777 44.43 24.4792 43.7719L28.8391 35.0956L30.4408 33.8472H30.436Z" fill="#D8E7EF"/>
<path d="M28.8349 24.8757C28.8349 24.8757 27.0784 22.0255 27.2139 20.8013C27.5526 17.7769 31.7915 15.6816 36.0304 17.1091C40.2645 18.5318 41.1307 23.7917 40.4678 26.0854C38.7645 31.9841 33.6158 29.9372 33.6158 29.9372C33.6158 29.9372 25.6122 28.4468 28.8349 24.8805V24.8757Z" fill="black"/>
<path d="M30.2533 31.1711L30.263 31.2823L30.5001 33.3437L30.6791 34.9599C30.6791 34.9599 30.5678 35.3471 32.4453 35.0906C34.9616 34.7374 35.702 33.5954 35.702 33.5954L35.5423 29.7871L34.7874 29.9855L30.2533 31.1711Z" fill="#F48462"/>
<path d="M30.2629 31.2784L30.5 33.3398C31.7195 33.1027 33.9164 32.4155 34.6857 30.417C34.7438 30.2574 34.7825 30.1122 34.7874 29.9912L30.2678 31.2445V31.2784H30.2629Z" fill="black"/>
<path d="M28.763 21.4403C28.763 21.4403 26.7887 26.9906 27.8484 29.9569C28.9081 32.9232 31.6325 32.2506 33.239 31.5489C34.8455 30.8473 35.5423 29.7827 35.5423 29.7827C35.5423 29.7827 37.1198 30.1988 38.0489 28.6939C38.978 27.189 38.2279 25.5873 37.3231 25.2728C36.4182 24.9583 35.4165 25.6647 35.4165 25.6647L36.1278 24.0437C36.1278 24.0437 32.1212 16.3352 28.7678 21.4403H28.763Z" fill="#F48462"/>
<path d="M29.4781 28.2869C29.4007 28.2869 29.3281 28.2385 29.2942 28.1611C28.8442 27.0288 29.57 25.7852 29.6039 25.732C29.662 25.64 29.7781 25.611 29.8749 25.6642C29.9668 25.7175 30.0007 25.8384 29.9426 25.9352C29.9378 25.9449 29.2845 27.0675 29.662 28.0208C29.7007 28.1224 29.6523 28.2337 29.5507 28.2773C29.5265 28.2869 29.5023 28.2918 29.4781 28.2918V28.2869Z" fill="black"/>
<path d="M35.8224 28.1961C35.7789 28.1961 35.7353 28.1816 35.7015 28.1526C35.6192 28.0848 35.6047 27.959 35.6724 27.8767L37.0128 26.217C37.0806 26.1347 37.2064 26.1202 37.2886 26.1879C37.3709 26.2557 37.3854 26.3815 37.3177 26.4638L35.9773 28.1235C35.9386 28.1719 35.8805 28.1961 35.8224 28.1961Z" fill="black"/>
<path d="M37.3424 27.6631L36.3069 27.5856C36.2004 27.576 36.1182 27.484 36.1278 27.3776C36.1375 27.2711 36.2295 27.1889 36.3359 27.1985L37.3569 27.276C37.4634 27.2856 37.5457 27.3776 37.536 27.484C37.5263 27.5856 37.444 27.6679 37.3424 27.6679V27.6631Z" fill="black"/>
<path d="M31.2402 29.811C30.7176 29.811 30.2724 29.4335 30.253 29.4094C30.1998 29.3658 30.1756 29.2981 30.1901 29.2303C30.1998 29.1626 30.2434 29.1093 30.3063 29.0803L32.358 28.219C32.4257 28.1899 32.5031 28.1996 32.5612 28.248C32.6193 28.2964 32.6435 28.369 32.629 28.4416C32.6241 28.4754 32.4499 29.2593 31.7773 29.6658C31.5983 29.7723 31.4192 29.811 31.2499 29.811H31.2402ZM30.795 29.2981C31.0079 29.4045 31.3031 29.4819 31.5644 29.3271C31.8112 29.1771 31.9757 28.9545 32.0773 28.7609L30.7902 29.3029L30.795 29.2981Z" fill="black"/>
<path d="M32.5458 24.0972C32.4781 24.0972 32.4152 24.0633 32.3813 24.0053C32.1103 23.5649 31.4861 23.744 31.4571 23.7488C31.3554 23.7778 31.2441 23.7198 31.2151 23.6182C31.1861 23.5165 31.2441 23.4052 31.3458 23.3762C31.3845 23.3665 32.2845 23.1052 32.7152 23.802C32.7733 23.894 32.7442 24.0149 32.6523 24.073C32.6184 24.0924 32.5845 24.102 32.5507 24.102L32.5458 24.0972Z" fill="black"/>
<path d="M28.3555 23.7971C28.3071 23.7971 28.2587 23.7777 28.22 23.7438C28.1426 23.6664 28.1426 23.5454 28.22 23.468C28.2393 23.4487 28.6507 23.0277 29.1346 23.047C29.3717 23.0567 29.5846 23.1728 29.7539 23.3858C29.8217 23.468 29.8072 23.5938 29.7249 23.6616C29.6426 23.7293 29.5168 23.7148 29.4491 23.6325C29.3523 23.5116 29.241 23.4487 29.12 23.4438C28.8829 23.4196 28.5878 23.6567 28.5055 23.7438C28.4668 23.7826 28.4184 23.8019 28.3652 23.8019L28.3555 23.7971Z" fill="black"/>
<path d="M28.7677 26.08C28.6467 26.0703 28.5644 25.9784 28.5741 25.872L28.637 24.9477L28.2789 24.5654C28.2063 24.488 28.2063 24.3622 28.2886 24.2896C28.366 24.217 28.4918 24.217 28.5644 24.2993L28.9806 24.7445C29.0193 24.7832 29.0386 24.8364 29.0338 24.8945L28.9661 25.9058C28.9612 26.0074 28.8741 26.0897 28.7725 26.0897L28.7677 26.08Z" fill="black"/>
<path d="M32.1453 26.0841C32.0291 26.0793 31.942 25.9873 31.9517 25.876L31.9953 24.9615L31.4678 24.5163C31.3855 24.4485 31.3759 24.3227 31.4436 24.2405C31.5114 24.1582 31.6372 24.1485 31.7194 24.2163L32.3195 24.7243C32.3679 24.7631 32.392 24.8211 32.3872 24.884L32.3388 25.8954C32.334 26.0018 32.2469 26.0841 32.1453 26.0841Z" fill="black"/>
<path d="M38.1252 20.4379C38.1252 20.4379 37.3945 13.9875 41.8222 14.5827C46.5159 15.2166 42.2819 22.7848 39.2865 22.446C37.951 22.296 38.1252 20.4379 38.1252 20.4379Z" fill="black"/>
<path d="M30.5288 35.4188C30.3837 35.4188 30.2966 35.4188 30.2772 35.414C30.1804 35.414 30.1127 35.3269 30.1127 35.235C30.1175 35.143 30.2046 35.0656 30.2917 35.0704C30.3207 35.0704 33.0402 35.1866 35.2565 33.8752C35.3387 33.8268 35.4404 33.8559 35.4887 33.9333C35.5371 34.0155 35.5081 34.122 35.4307 34.1656C33.4999 35.3124 31.2692 35.414 30.5288 35.414V35.4188Z" fill="#BF6240"/>
<path d="M49.0421 42.6158C45.7323 45.916 41.1643 47.958 36.1221 47.958C35.5705 47.958 35.0188 47.9338 34.4769 47.8854C34.8156 46.0031 35.1785 44.7111 35.1785 44.7111L39.8142 32.9814C39.8142 32.9814 44.4258 33.0831 47.5178 37.8156C48.1856 38.8414 48.7179 40.5544 49.0373 42.6158H49.0421Z" fill="#D8E7EF"/>
<path d="M39.8866 47.5652C38.672 47.8217 37.4139 47.9523 36.1268 47.9523C35.5751 47.9523 35.0235 47.9281 34.4815 47.8797C33.6008 47.8023 32.7443 47.662 31.9023 47.4587C33.5476 40.5148 35.7009 32.7773 35.7009 32.7773L39.8189 32.9806L39.8866 47.5652Z" fill="#D8E7EF"/>
<path d="M40.347 22.3987C40.2599 22.3987 40.1873 22.3309 40.1776 22.2438C39.8969 19.4276 38.0146 18.4259 37.9952 18.4162C37.913 18.3727 37.8791 18.271 37.9226 18.1839C37.9662 18.1017 38.0678 18.0678 38.1549 18.1114C38.2372 18.1549 40.226 19.2098 40.5212 22.21C40.5308 22.3019 40.4631 22.389 40.3663 22.3987C40.3615 22.3987 40.3566 22.3987 40.347 22.3987Z" fill="white"/>
<path d="M31.516 19.1523C31.516 19.1523 30.8482 20.0137 30.7563 21.4025L30.6644 22.7912L36.4179 24.4704L36.534 21.688L31.516 19.1523Z" fill="black"/>
<path d="M31.0362 20.0707C31.0362 20.0707 30.533 20.5111 30.3007 21.1014C30.0733 21.6918 29.8313 22.8628 29.8313 22.8628L28.1667 22.6741L28.3555 19.7659L30.6007 18.3916L31.9605 18.5416L31.7524 20.4143L31.0362 20.0659V20.0707Z" fill="black"/>
<path d="M35.6277 51.1754C35.6277 51.1754 35.6223 51.2133 35.6238 51.2271C35.6053 51.229 35.5869 51.2309 35.568 51.2282C35.5896 51.212 35.6061 51.1916 35.6277 51.1754Z" fill="white"/>
<path d="M53.3884 50.6671L51.2393 52.334L54.7176 56.8214L56.8667 55.1545L53.3884 50.6671Z" fill="#DCE8F5"/>
<g style="mix-blend-mode:multiply" opacity="0.15">
<path d="M56.1432 40.3019C55.5285 33.9052 49.8465 29.2177 43.452 29.8322C37.0576 30.4466 32.3722 36.1303 32.9869 42.5271C33.6016 48.9238 39.2836 53.6113 45.6781 52.9968C52.0725 52.3823 56.758 46.6986 56.1432 40.3019Z" fill="#285A8F"/>
</g>
<path fill-rule="evenodd" clip-rule="evenodd" d="M43.2213 27.5174C50.9446 26.7752 57.8074 32.4367 58.5498 40.1627C59.2923 47.8887 53.6332 54.7535 45.91 55.4956C38.1868 56.2378 31.324 50.5763 30.5815 42.8503C29.8391 35.1243 35.4981 28.2595 43.2213 27.5174ZM43.4522 29.8327C49.8467 29.2182 55.5287 33.9057 56.1434 40.3024C56.7581 46.6991 52.0727 52.3828 45.6783 52.9973C39.2838 53.6117 33.6018 48.9243 32.9871 42.5275C32.3724 36.1308 37.0578 30.4471 43.4522 29.8327Z" fill="#285A8F"/>
<path d="M38.6026 33.6552C43.4164 29.9236 50.2535 30.6021 54.3053 35.001C54.127 34.725 53.9587 34.6401 53.7532 34.3716C49.8175 29.292 42.3337 28.3679 37.2566 32.3092C32.179 36.2459 31.4237 43.5582 35.364 48.6373C35.569 48.9012 35.787 49.1544 36.0133 49.3974C32.7615 44.3775 33.7934 37.3862 38.6026 33.6552Z" fill="#DCE8F5"/>
<path d="M54.3406 35.0583C54.2517 34.9226 54.1628 34.7869 54.0693 34.6517C53.9707 34.5123 53.8721 34.373 53.7647 34.2392C49.829 29.1596 42.5161 28.2325 37.439 32.1737L38.6033 33.6541C43.4171 29.9226 50.2888 30.6593 54.3406 35.0583Z" fill="#3475B9"/>
<path d="M55.9826 54.1372L53.9411 55.7195C53.3615 56.1679 53.2566 57.0017 53.7044 57.577L64.6632 71.7166C65.5485 72.8588 67.192 73.0665 68.3337 72.181C69.4755 71.2954 69.6831 69.6514 68.7977 68.5092L57.8389 54.3696C57.3906 53.7897 56.5571 53.6847 55.9821 54.1326L55.9826 54.1372Z" fill="#285A8F"/>
<path d="M54.7064 56.4206C54.4251 56.6369 54.374 57.0443 54.5902 57.3257L65.2738 71.1106C65.49 71.392 65.8973 71.4431 66.1786 71.2268C66.4599 71.0106 66.511 70.6032 66.2947 70.3217L55.6112 56.5369C55.395 56.2555 54.9877 56.2044 54.7064 56.4206Z" fill="#3475B9"/>
<path d="M40.7005 50.5167C40.7005 50.5167 40.696 50.5639 40.6938 50.5874C40.6707 50.5898 40.6476 50.5923 40.624 50.59C40.6498 50.5687 40.6751 50.5427 40.7009 50.5214L40.7005 50.5167Z" fill="white"/>
</svg>
