<svg width="368" height="250" viewBox="0 0 368 250" fill="none" xmlns="http://www.w3.org/2000/svg">
<g clip-path="url(#clip0_399_8440)">
<path d="M248.905 128.592C248.905 128.592 231.208 131.118 219.739 151.868C208.27 172.619 198.656 229.869 200.408 231.666C202.161 233.48 240.397 238.888 272.081 238.888C303.766 238.888 313.704 237.685 316.767 235.871C319.829 234.057 319.03 136.339 301.486 128.575C283.942 120.793 267.725 122.353 248.888 128.575L248.905 128.592Z" fill="#6876AA"/>
<path d="M244.498 129.524C244.498 129.524 216.693 172.958 211.197 201.066C205.7 229.174 204.628 249.06 204.628 249.06L305.672 249.688L307.475 173.212L296.806 127.914L267.334 123.93L244.464 129.507L244.498 129.524Z" fill="#D87907"/>
<path d="M244.498 129.524C244.498 129.524 230.306 181.824 227.312 200.083C224.317 218.341 223.704 235.803 223.704 235.803L205.156 233.04L212.235 190.165L237.538 135.305L244.481 129.524H244.498Z" fill="#FDC00F"/>
<path d="M237.691 87.3958C237.691 87.3958 230.153 74.5454 230.901 69.1034C232.739 55.6936 251.9 46.8441 270.652 53.6253C289.404 60.4235 292.705 83.9035 289.489 94.0244C281.253 120.081 258.485 110.401 258.485 110.401C258.485 110.401 222.921 102.908 237.674 87.3958H237.691Z" fill="black"/>
<path d="M243.341 115.538L243.375 116.03L244.209 125.218L244.838 132.423C244.838 132.423 244.294 134.135 252.717 133.203C263.999 131.915 267.419 126.896 267.419 126.896L267.113 109.943L263.709 110.757L243.341 115.538Z" fill="#F48462"/>
<path d="M243.358 116.03L244.192 125.218C249.654 124.303 259.557 121.471 263.199 112.673C263.471 111.961 263.658 111.317 263.692 110.791L243.375 115.877L243.341 116.013L243.358 116.03Z" fill="black"/>
<path d="M237.743 72.1042C237.743 72.1042 228.333 96.5675 232.74 109.876C237.147 123.184 249.382 120.488 256.631 117.555C263.88 114.606 267.096 109.943 267.096 109.943C267.096 109.943 274.09 111.961 278.412 105.366C282.717 98.7714 279.552 91.5832 275.536 90.0744C271.52 88.5826 266.977 91.6172 266.977 91.6172L270.312 84.4799C270.312 84.4799 253.245 49.76 237.726 72.1042H237.743Z" fill="#F48462"/>
<path d="M244.498 129.524C244.498 129.524 219.45 130.508 198.486 149.58C177.505 168.652 147.113 215.307 159.365 231.887C177.368 256.265 216.098 248.806 216.098 248.806L217.884 209.153L228.315 151.597L244.498 129.524Z" fill="#FDC00F"/>
<path d="M240.21 102.501C239.903 102.501 239.631 102.315 239.529 102.026C237.674 96.9913 241.009 91.6002 241.163 91.3798C241.384 91.0407 241.826 90.939 242.166 91.1425C242.507 91.3629 242.609 91.8036 242.405 92.1427C242.371 92.1936 239.308 97.1608 240.907 101.501C241.043 101.874 240.856 102.298 240.465 102.433C240.38 102.467 240.295 102.484 240.21 102.484V102.501Z" fill="black"/>
<path d="M268.56 102.772C268.389 102.772 268.219 102.721 268.083 102.603C267.777 102.348 267.743 101.874 267.998 101.569L274.175 94.3296C274.43 94.0245 274.906 93.9905 275.213 94.2448C275.519 94.4991 275.553 94.9738 275.298 95.279L269.121 102.518C268.968 102.687 268.764 102.772 268.56 102.772Z" fill="black"/>
<path d="M275.382 100.568C275.382 100.568 275.331 100.568 275.314 100.568L270.754 100.128C270.346 100.094 270.057 99.7376 270.091 99.3307C270.125 98.9239 270.499 98.6357 270.89 98.6696L275.45 99.1104C275.859 99.1443 276.148 99.5003 276.114 99.9072C276.08 100.28 275.757 100.568 275.382 100.568Z" fill="black"/>
<path d="M248.02 109.486C245.689 109.486 243.732 107.739 243.63 107.638C243.443 107.468 243.358 107.214 243.409 106.96C243.46 106.705 243.63 106.502 243.869 106.417L253.108 102.806C253.363 102.704 253.652 102.755 253.857 102.942C254.061 103.128 254.146 103.4 254.095 103.654C254.061 103.806 253.227 107.214 250.232 108.909C249.501 109.333 248.752 109.486 248.037 109.486H248.02ZM245.655 107.282C246.625 107.841 248.122 108.401 249.501 107.638C250.811 106.892 251.61 105.722 252.087 104.773L245.655 107.282Z" fill="black"/>
<path d="M254.367 84.1917C254.112 84.1917 253.874 84.0561 253.738 83.8357C252.512 81.7504 249.603 82.4964 249.484 82.5303C249.092 82.632 248.684 82.4116 248.582 82.0217C248.48 81.6318 248.701 81.2249 249.092 81.1232C249.263 81.0723 253.21 80.0551 254.997 83.0897C255.201 83.4458 255.082 83.8865 254.724 84.09C254.605 84.1578 254.486 84.1917 254.35 84.1917H254.367Z" fill="black"/>
<path d="M235.683 82.4116C235.496 82.4116 235.309 82.3438 235.156 82.1912C234.867 81.903 234.884 81.4453 235.156 81.1571C235.241 81.0723 237.079 79.2922 239.172 79.4278C240.192 79.4957 241.077 80.0042 241.792 80.9367C242.03 81.2588 241.979 81.7165 241.656 81.9538C241.332 82.2081 240.873 82.1403 240.635 81.8182C240.175 81.2249 239.682 80.9197 239.086 80.8858C237.64 80.7671 236.211 82.1742 236.194 82.1912C236.058 82.3268 235.871 82.3946 235.683 82.3946V82.4116Z" fill="black"/>
<path d="M237.283 92.6174C237.283 92.6174 237.232 92.6174 237.215 92.6174C236.806 92.5835 236.517 92.2275 236.551 91.8206L236.942 87.6501L235.343 85.8701C235.071 85.5649 235.105 85.1072 235.394 84.8359C235.7 84.5647 236.16 84.5986 236.432 84.8868L238.253 86.9042C238.389 87.0568 238.457 87.2602 238.44 87.4637L238.014 91.9562C237.98 92.3292 237.657 92.6174 237.283 92.6174Z" fill="black"/>
<path d="M250.641 92.9903C250.181 92.9564 249.875 92.6004 249.909 92.2105L250.215 88.0739L247.85 85.9887C247.544 85.7174 247.527 85.2597 247.782 84.9546C248.054 84.6494 248.514 84.6325 248.82 84.8867L251.458 87.2093C251.628 87.3619 251.713 87.5823 251.696 87.8027L251.355 92.2952C251.321 92.6852 250.998 92.9734 250.624 92.9734L250.641 92.9903Z" fill="black"/>
<path d="M246.999 177.451C246.999 177.451 240.312 142.527 236.857 138.747C233.403 134.966 210.703 124.981 207.81 127.727C204.918 130.474 207.861 133.932 207.861 133.932C207.861 133.932 203.539 131.474 201.923 134.051C200.306 136.628 203.454 140.628 203.454 140.628C203.454 140.628 200.017 138.475 200.476 143.256C200.936 148.037 210.363 156.802 210.363 156.802C210.363 156.802 210.907 166.584 216.948 177.095C222.989 187.605 241.367 188.08 241.367 188.08L247.033 177.467L246.999 177.451Z" fill="#F48462"/>
<path d="M225.916 143.46C225.796 143.46 225.677 143.426 225.575 143.375L207.572 134.017C207.215 133.83 207.078 133.389 207.266 133.033C207.453 132.677 207.895 132.542 208.253 132.728L226.256 142.086C226.613 142.273 226.749 142.714 226.562 143.07C226.426 143.324 226.171 143.46 225.916 143.46Z" fill="black"/>
<path d="M221.049 152.326C220.913 152.326 220.777 152.292 220.658 152.207L203.046 141.222C202.706 141.001 202.604 140.561 202.808 140.222C203.029 139.882 203.472 139.781 203.812 139.984L221.424 150.97C221.764 151.19 221.866 151.631 221.662 151.97C221.526 152.19 221.288 152.309 221.032 152.309L221.049 152.326Z" fill="black"/>
<path d="M216.915 190.182C216.915 190.182 246.914 253.197 293.148 249.704C339.382 246.212 335.876 165.092 321.361 144.545C306.846 123.981 286.239 124.252 286.239 124.252L267.368 177.111L251.934 164.007L216.932 190.216L216.915 190.182Z" fill="#FDC00F"/>
<path d="M267.368 123.947C267.368 123.947 241.435 237.346 246.421 237.939C251.407 238.532 290.817 240.431 290.817 240.431L286.239 124.235L267.368 123.947Z" fill="#FDC00F"/>
<path d="M296.551 204.575C296.364 204.575 296.194 204.508 296.057 204.372L258.689 169.669C258.4 169.398 258.383 168.923 258.655 168.635C258.928 168.347 259.387 168.33 259.693 168.601L297.061 203.304C297.351 203.575 297.368 204.05 297.095 204.338C296.942 204.491 296.755 204.575 296.551 204.575Z" fill="#D87907"/>
<path d="M298.559 193.2C291.378 193.2 281.39 190.301 280.828 190.131C280.505 190.047 280.301 189.741 280.301 189.419C280.301 189.08 280.539 188.809 280.862 188.724C282.938 188.233 301.248 183.977 305.128 187.385C305.757 187.944 306.047 188.673 305.944 189.521C305.825 190.555 305.298 191.403 304.362 192.013C303.052 192.878 300.959 193.2 298.559 193.2ZM284.095 189.504C290.136 191.013 300.312 192.946 303.562 190.793C304.124 190.42 304.43 189.962 304.498 189.352C304.532 188.996 304.43 188.724 304.175 188.487C301.963 186.537 291.838 187.877 284.095 189.504Z" fill="#D87907"/>
<path d="M196.359 220.189C196.035 220.189 195.746 219.969 195.644 219.647C190.556 200.608 205.462 171.517 206.091 170.279C206.278 169.923 206.721 169.788 207.078 169.974C207.435 170.161 207.572 170.602 207.401 170.958C207.248 171.246 192.122 200.795 197.073 219.274C197.175 219.664 196.937 220.071 196.546 220.172C196.478 220.172 196.427 220.189 196.359 220.189Z" fill="#D87907"/>
<path d="M258.06 169.194C258.673 168.533 259.32 167.838 259.983 167.126C271.622 154.801 280.539 140.171 286.222 124.235C286.222 124.235 299.393 124.082 312.087 134.508C312.087 134.508 312.087 134.508 312.104 134.508C312.104 134.508 306.744 124.048 280.301 119.946C280.301 119.946 293.727 105.637 286.188 92.9734C278.65 80.3094 264.322 71.4091 264.322 71.4091C264.322 71.4091 271.895 110.537 259.915 115.945L254.079 120.844L243.92 122.336L239.802 146.087L245.264 168.923L251.9 163.956L258.043 169.16L258.06 169.194Z" fill="black"/>
<path d="M116.739 138.895C116.739 138.895 95.8942 137.572 83.9657 148.202C72.0372 158.832 65.9453 248.7 65.9453 248.7C65.9453 248.7 99.4846 249.259 121.317 249.87C137.193 250.327 165.61 248.7 165.61 248.7C165.61 248.7 156.609 156.679 151.419 145.439C146.229 134.199 116.722 138.895 116.722 138.895H116.739Z" fill="#D8E7EF"/>
<path d="M149.904 143.184C149.904 143.184 161.492 149.084 176.705 177.395C190.607 203.283 196.92 231.747 183.46 240.24C149.104 261.906 105.576 229.95 105.576 229.95L149.904 143.184Z" fill="#D8E7EF"/>
<path d="M122.269 94.1556C122.269 94.1556 139.149 96.6816 141.753 80.5593C144.527 63.4028 128.667 60.1308 121.163 66.4204C113.659 72.71 114.186 79.932 114.186 79.932C114.186 79.932 109.881 75.2021 104.164 79.8981C99.9777 83.3565 101.305 89.8326 101.305 89.8326C101.305 89.8326 92.5925 88.612 92.6266 96.3087C92.6606 104.005 97.7485 108.413 97.7485 108.413L122.269 94.1387V94.1556Z" fill="black"/>
<path d="M103.721 122.45L103.653 140.59C103.653 140.59 106.92 145.812 117.573 146.71C125.502 147.371 128.293 145.608 128.293 145.608L127.221 136.42L126.166 127.451L106.955 123.179L103.738 122.45H103.721Z" fill="#F48462"/>
<path d="M106.955 123.162C107.006 123.654 107.193 124.247 107.482 124.908C111.532 133.978 122.661 135.979 127.238 136.403L126.183 127.434L106.972 123.162H106.955Z" fill="black"/>
<path d="M130.369 86.1199C130.369 86.1199 139.848 108.888 136.036 121.518C132.224 134.131 120.653 131.927 113.761 129.333C106.87 126.756 103.722 122.45 103.722 122.45C103.722 122.45 97.1874 124.519 92.9673 118.432C88.7473 112.346 91.538 105.497 95.2816 103.988C99.0082 102.48 103.364 105.226 103.364 105.226L100.029 98.5973C100.029 98.5973 115.174 65.5219 130.352 86.1368L130.369 86.1199Z" fill="#F48462"/>
<path d="M102.666 114.923C102.53 114.923 102.394 114.889 102.275 114.804L94.0902 108.905C93.8009 108.701 93.7329 108.278 93.937 107.989C94.1412 107.701 94.5666 107.633 94.8559 107.837L103.04 113.736C103.329 113.94 103.398 114.364 103.193 114.652C103.057 114.821 102.87 114.923 102.666 114.923Z" fill="black"/>
<path d="M95.1962 114.804C94.9069 114.804 94.6346 114.601 94.5666 114.313C94.4815 113.957 94.6857 113.601 95.043 113.516L100.454 112.143C100.811 112.058 101.169 112.261 101.254 112.617C101.339 112.974 101.134 113.33 100.777 113.414L95.3663 114.787C95.3663 114.787 95.2642 114.804 95.1962 114.804Z" fill="black"/>
<path d="M115.088 95.5627C114.952 95.5627 114.799 95.5118 114.68 95.4271C114.391 95.2067 114.34 94.7998 114.561 94.5116C117.624 90.5785 121.588 92.6807 121.639 92.6976C121.963 92.8672 122.082 93.274 121.895 93.5792C121.724 93.9013 121.333 94.02 121.01 93.8335C120.874 93.7657 117.964 92.2738 115.599 95.2915C115.463 95.461 115.276 95.5458 115.088 95.5458V95.5627Z" fill="black"/>
<path d="M133.926 96.5799C133.772 96.5799 133.636 96.5291 133.5 96.4274C131.526 94.7999 129.433 95.9866 129.416 96.0035C129.11 96.19 128.702 96.0883 128.515 95.7662C128.327 95.461 128.43 95.0542 128.753 94.8677C128.872 94.7999 131.68 93.2063 134.351 95.4102C134.623 95.6475 134.674 96.0544 134.436 96.3256C134.3 96.4782 134.113 96.563 133.926 96.563V96.5799Z" fill="black"/>
<path d="M128.242 114.974C128.242 114.974 128.123 114.974 128.055 114.94C127.715 114.838 127.51 114.465 127.613 114.126C129.603 107.515 126.115 102.683 126.081 102.632C125.86 102.344 125.928 101.937 126.217 101.717C126.507 101.496 126.915 101.564 127.136 101.852C127.306 102.073 131.067 107.243 128.872 114.499C128.787 114.787 128.531 114.957 128.242 114.957V114.974Z" fill="black"/>
<path d="M132.632 103.48C132.343 103.48 132.071 103.293 132.003 102.988L130.88 98.8177C130.777 98.4617 130.999 98.1057 131.339 98.0209C131.696 97.9362 132.054 98.1396 132.139 98.4787L133.262 102.649C133.364 103.005 133.143 103.361 132.802 103.446C132.751 103.446 132.683 103.463 132.632 103.463V103.48Z" fill="black"/>
<path d="M121.112 104.429C120.823 104.429 120.551 104.243 120.483 103.938L119.36 99.7671C119.257 99.411 119.479 99.055 119.819 98.9703C120.176 98.8855 120.534 99.0889 120.619 99.428L121.742 103.598C121.844 103.954 121.623 104.31 121.282 104.395C121.231 104.395 121.163 104.412 121.112 104.412V104.429Z" fill="black"/>
<path d="M132.258 91.2397C132.258 91.2397 130.301 87.5948 125.758 87.544C121.214 87.4931 118.56 90.6803 118.56 90.6803C118.56 90.6803 120.534 98.3092 114.34 102.327C108.146 106.362 103.381 105.209 103.381 105.209L98.9058 103.599L95.6387 97.0716L108.639 83.204L125.434 74.4392L133.96 82.2037L132.258 91.2567V91.2397Z" fill="black"/>
<path d="M103.891 139.709C103.891 139.709 73.1258 134.368 54.1525 163.68C38.038 188.567 37.3403 212.013 37.3403 212.013L86.0072 207.945L103.891 139.709Z" fill="#D8E7EF"/>
<path d="M37.3403 212.013C37.3403 212.013 36.0301 249.242 66.3193 246.699C100.726 243.8 118.389 176.751 118.389 176.751L128.957 170.902C128.957 170.902 126.506 179.074 134.929 175.107C143.352 171.14 142.229 162.68 142.229 162.68L133.704 145.252C133.704 145.252 148.594 132.605 144.476 131.673C138.111 130.232 117.266 142.828 117.266 142.828C117.266 142.828 118.866 134.589 114.135 135.674C109.013 136.86 106.325 152.084 106.325 152.084L49.1497 209.843L37.3403 211.996V212.013Z" fill="#F48462"/>
<path d="M128.957 171.546C128.753 171.546 128.566 171.462 128.429 171.292C128.242 171.055 128.242 170.733 128.429 170.495L132.496 165.291C132.717 165.003 133.126 164.952 133.415 165.172C133.704 165.392 133.755 165.799 133.534 166.088L130.999 169.342L134.47 167.918C134.81 167.783 135.185 167.935 135.321 168.274C135.457 168.613 135.304 168.986 134.963 169.122L129.195 171.496C129.195 171.496 129.025 171.546 128.94 171.546H128.957Z" fill="black"/>
<path d="M129.926 148.202C129.705 148.202 129.484 148.083 129.365 147.897C129.178 147.592 129.28 147.185 129.586 146.998L133.364 144.693C133.67 144.506 134.078 144.608 134.265 144.913C134.453 145.218 134.35 145.625 134.044 145.812L130.267 148.117C130.165 148.185 130.046 148.219 129.926 148.219V148.202Z" fill="black"/>
<path d="M103.279 152.271L123.58 181.023C123.58 181.023 109.967 229.187 82.6042 244.021C55.2419 258.855 34.0054 238.138 37.3406 212.013C40.6759 185.889 103.279 152.288 103.279 152.288V152.271Z" fill="#D8E7EF"/>
<path d="M124.413 120.585C124.293 120.585 124.174 120.552 124.072 120.484L119.904 117.992C119.597 117.805 119.495 117.398 119.682 117.093C119.869 116.788 120.278 116.686 120.584 116.873L124.753 119.365C125.059 119.551 125.161 119.958 124.974 120.263C124.855 120.467 124.634 120.585 124.413 120.585Z" fill="black"/>
<path d="M117.266 143.472C117.096 143.472 116.943 143.404 116.807 143.286C116.603 143.082 116.552 142.777 116.688 142.523C116.705 142.472 118.968 138.03 116.211 134.758C115.786 134.25 115.429 134.233 115.207 134.267C113.421 134.555 110.954 139.268 109.814 142.167C109.677 142.506 109.303 142.675 108.963 142.54C108.623 142.404 108.452 142.031 108.588 141.692C108.912 140.861 111.889 133.487 114.986 132.978C115.565 132.893 116.416 132.978 117.215 133.928C119.376 136.504 119.053 139.522 118.525 141.387L124.923 137.81C125.246 137.64 125.638 137.742 125.808 138.064C125.978 138.386 125.876 138.776 125.553 138.946L117.59 143.404C117.487 143.455 117.385 143.489 117.266 143.489V143.472Z" fill="black"/>
<path d="M82.6042 176.039C82.6042 176.039 70.5566 175.124 64.8391 177.124C59.1216 179.124 47.8907 192.907 49.4562 195.145C51.0217 197.383 54.8845 195.467 54.8845 195.467C54.8845 195.467 52.5362 200.604 57.2838 200.757C62.0314 200.909 82.6042 176.039 82.6042 176.039Z" fill="#F48462"/>
<path d="M175.037 202.757C174.918 202.757 174.782 202.723 174.68 202.655C159.808 192.958 123.461 189.568 123.086 189.534C122.729 189.5 122.457 189.178 122.491 188.822C122.525 188.466 122.848 188.194 123.205 188.228C124.703 188.364 160.233 191.687 175.395 201.57C175.701 201.774 175.786 202.181 175.582 202.469C175.463 202.655 175.241 202.757 175.037 202.757Z" fill="#92B4EA"/>
<path d="M123.597 181.684C123.392 181.684 123.171 181.583 123.052 181.396L103.296 151.983L88.1855 168.851C87.9473 169.122 87.5219 169.139 87.2666 168.902C86.9944 168.664 86.9774 168.241 87.2156 167.986L102.888 150.491C103.024 150.338 103.211 150.253 103.415 150.27C103.619 150.27 103.807 150.389 103.909 150.559L124.141 180.667C124.345 180.972 124.26 181.379 123.954 181.566C123.835 181.634 123.716 181.684 123.597 181.684Z" fill="#92B4EA"/>
<path d="M159.382 194.297C154.941 194.297 149.223 193.484 146.824 193.111C146.535 193.06 146.314 192.839 146.28 192.551C146.246 192.263 146.399 191.992 146.671 191.873C147.233 191.636 160.403 186.16 164.623 190.907C165.457 191.839 165.355 192.534 165.117 192.958C164.555 193.975 162.224 194.314 159.365 194.314L159.382 194.297ZM149.53 192.178C157.085 193.195 163.449 193.28 163.977 192.314C163.977 192.297 163.977 192.11 163.653 191.754C161.186 188.974 153.971 190.653 149.53 192.178Z" fill="#92B4EA"/>
<path d="M108.316 144.93C108.316 144.93 108.231 144.93 108.197 144.93C104.743 144.252 103.449 141.285 103.245 139.81C103.194 139.454 103.449 139.115 103.807 139.081C104.164 139.03 104.487 139.285 104.538 139.641C104.555 139.793 105.066 142.997 108.452 143.659C108.809 143.726 109.047 144.065 108.962 144.421C108.894 144.727 108.622 144.947 108.316 144.947V144.93Z" fill="#92B4EA"/>
<path d="M54.5439 196.417C54.3737 196.417 54.2036 196.349 54.0845 196.23C53.8293 195.976 53.8293 195.569 54.0845 195.315L65.2295 184.075C65.4847 183.82 65.8931 183.82 66.1653 184.075C66.4206 184.329 66.4206 184.736 66.1653 184.99L55.0203 196.23C54.8842 196.366 54.7311 196.434 54.5609 196.434L54.5439 196.417Z" fill="black"/>
<path d="M156.302 99.1177C155.502 98.6091 154.583 98.287 154.005 97.4563C153.358 96.5069 152.916 95.5406 153.103 94.3708C156.046 94.5743 158.973 94.9303 161.917 95.2524C161.542 97.5919 160.045 98.7956 157.833 99.2703L156.319 99.1177H156.302Z" fill="#CCCCCD"/>
<path d="M152.337 82.6902C151.265 80.0963 150.261 77.4856 149.121 74.9257C147.726 71.7893 146.535 68.5682 145.122 65.4489C144.255 63.5332 143.897 61.4649 143.846 59.3458C143.795 56.9554 144.187 54.6667 145.139 52.4628C146.092 50.2759 147.386 48.3602 149.087 46.6649C150.449 45.3086 152.065 44.3762 153.716 43.4608C154.856 42.8335 156.149 42.3418 157.34 42.1893C159.11 41.9689 160.931 41.5451 162.751 42.0197C161.935 50.0724 161.135 58.1252 160.318 66.1948C159.757 66.1948 159.297 66.4491 158.821 66.6865C157.732 67.229 156.643 67.7715 155.553 68.297C155.281 68.4326 154.992 68.67 154.686 68.2631C153.733 66.9747 152.218 66.3643 151.027 65.3641C150.755 65.1437 150.363 65.1437 150.023 65.3641C149.206 65.8558 149.206 66.6695 150.023 67.3307C151.146 68.2292 152.303 69.0938 153.443 69.9754C153.716 70.1788 153.954 70.3992 153.988 70.7552C154.056 71.4164 154.141 72.0945 154.175 72.7557C154.26 74.3323 154.43 75.892 154.567 77.4517C154.703 79.0452 154.856 80.6388 155.009 82.2324C155.06 82.7071 154.924 83.0123 154.328 82.9105C153.648 82.7919 152.967 82.758 152.286 82.6902H152.337Z" fill="#FCCA36"/>
<path d="M160.352 66.1779C161.168 58.1252 161.968 50.0725 162.785 42.0028C166.477 42.3589 169.728 43.766 172.501 46.2411C175.292 48.7332 177.011 51.8017 177.878 55.4297C178.44 57.7861 178.27 60.1257 177.878 62.4313C177.453 64.9573 176.313 67.246 174.781 69.3312C173.42 71.196 172.195 73.1456 170.902 75.0444C169.506 77.0787 168.06 79.0792 166.733 81.1644C166.171 82.046 165.491 82.8428 165.048 83.7922C164.98 83.86 164.929 83.9108 164.861 83.9786C164.81 83.9786 164.759 83.9786 164.725 83.9786C164.299 83.9278 163.874 83.843 163.449 83.8091C162.036 83.6565 162.053 83.6735 162.462 82.3003C163.466 78.9775 164.453 75.6377 165.439 72.298C165.593 71.8063 165.814 71.4334 166.341 71.196C167.669 70.6027 168.962 69.9245 170.272 69.2803C170.732 69.0599 170.919 68.67 170.902 68.1784C170.885 67.7037 170.578 67.5172 170.204 67.2968C169.677 66.9917 169.268 67.246 168.843 67.4324C167.992 67.8224 167.073 68.1445 166.341 68.687C165.167 69.5685 164.384 69.1447 163.415 68.331C162.462 67.5342 161.577 66.6187 160.352 66.1779Z" fill="#F9BC15"/>
<path d="M164.708 83.9617C164.708 83.9617 164.81 83.9617 164.844 83.9617L164.912 83.9786H164.98C165.729 84.0634 166.495 84.1481 167.244 84.2499C168.35 84.4024 169.252 84.8771 169.694 85.9621C170.136 87.0471 169.949 88.0473 169.252 88.9798C168.792 89.607 168.026 89.7087 167.38 90.0478C169.132 90.8785 169.813 92.4212 169.115 93.964C168.622 95.032 167.397 95.744 166.155 95.6254C164.742 95.5067 163.313 95.3711 161.9 95.2354C158.974 94.9133 156.047 94.5404 153.086 94.3539C151.606 94.2013 150.108 94.0148 148.628 93.8961C146.994 93.7605 146.313 92.4382 146.075 91.2006C145.871 90.2173 146.824 88.8272 147.862 88.4203C148.083 88.3355 148.338 88.2677 148.645 88.183C148.1 87.8609 147.624 87.5557 147.266 87.0641C146.347 85.8095 146.569 84.3685 147.59 83.1988C148.219 82.4698 148.985 82.5545 149.751 82.5715C150.619 82.5715 151.469 82.7071 152.32 82.7919C154.022 82.9614 155.706 83.1479 157.408 83.3174C157.816 83.3513 158.208 83.4022 158.616 83.4361C158.974 83.47 159.331 83.5039 159.688 83.5378C161.356 83.7243 163.024 83.9447 164.691 83.9786L164.708 83.9617Z" fill="#5B6A70"/>
<path d="M164.708 83.9616C163.024 83.9277 161.373 83.7073 159.705 83.5208C159.773 83.3852 159.841 83.2496 159.893 83.114C160.301 81.8086 160.488 80.4354 161.016 79.147C161.305 78.4688 161.305 77.7059 161.594 77.0109C161.866 76.3836 162.071 75.7224 162.309 75.0782C162.632 74.1797 162.649 73.1964 163.194 72.3488C163.398 72.0267 163.517 71.2977 163.194 71.0434C162.19 70.2635 161.288 69.2972 160.08 68.7886C159.382 68.8734 158.803 69.2464 158.208 69.5515C157.612 69.8567 156.779 69.9923 156.421 70.467C156.064 70.9417 156.421 71.7385 156.489 72.3996C156.506 72.6031 156.455 72.8065 156.489 73.0099C156.796 76.4345 157.119 79.8759 157.425 83.3005C155.724 83.1309 154.039 82.9444 152.337 82.7749C152.303 82.741 152.303 82.724 152.337 82.6901C153.018 82.758 153.716 82.7919 154.379 82.9105C154.975 83.0123 155.094 82.724 155.06 82.2324C154.924 80.6388 154.771 79.0452 154.617 77.4516C154.481 75.892 154.311 74.3323 154.226 72.7556C154.192 72.0945 154.09 71.4164 154.039 70.7552C154.005 70.3992 153.767 70.1788 153.494 69.9753C152.354 69.1107 151.197 68.2292 150.074 67.3307C149.24 66.6695 149.257 65.8557 150.074 65.3641C150.414 65.1607 150.806 65.1437 151.078 65.3641C152.269 66.3643 153.784 66.9746 154.737 68.2631C155.026 68.67 155.332 68.4157 155.604 68.297C156.693 67.7714 157.783 67.212 158.872 66.6864C159.348 66.4491 159.807 66.1779 160.369 66.1948C161.577 66.6356 162.479 67.5511 163.432 68.3478C164.402 69.1616 165.185 69.5854 166.359 68.7039C167.09 68.1614 168.009 67.8393 168.86 67.4493C169.286 67.2459 169.694 67.0086 170.221 67.3137C170.596 67.5341 170.902 67.7206 170.919 68.1953C170.936 68.7039 170.749 69.0768 170.29 69.2972C168.979 69.9414 167.686 70.6196 166.359 71.2129C165.831 71.4503 165.61 71.8063 165.457 72.3149C164.47 75.6546 163.483 78.9774 162.479 82.3172C162.071 83.6904 162.054 83.6734 163.466 83.826C163.891 83.8769 164.317 83.9447 164.742 83.9955L164.708 83.9616Z" fill="#EF6D63"/>
<path d="M143.25 36.2388C143.727 36.2388 144.05 36.4422 144.322 36.7643C145.633 38.3749 146.96 39.9685 148.27 41.579C148.763 42.2063 148.746 42.7488 148.27 43.1895C147.742 43.6812 147.181 43.6812 146.585 43.1387C146.16 42.7488 145.786 42.291 145.428 41.8333C144.39 40.494 143.199 39.2903 142.28 37.8663C142.008 37.4424 142.025 37.0695 142.263 36.6626C142.502 36.2557 142.842 36.1032 143.25 36.2388Z" fill="#CCCCCD"/>
<path d="M177.538 46.5123C177.096 46.5123 176.755 46.3597 176.619 45.902C176.432 45.3256 176.568 44.8509 177.028 44.4779C178.049 43.6303 179.07 42.7996 180.09 41.9689C180.737 41.4433 181.384 40.9178 182.03 40.3753C182.541 39.9515 183.119 40.0701 183.596 40.3244C184.191 40.6296 184.191 41.6298 183.596 42.0876C181.826 43.4268 180.278 45.0543 178.406 46.2919C178.134 46.4784 177.878 46.5971 177.555 46.5293L177.538 46.5123Z" fill="#CCCCCD"/>
<path d="M136.478 55.4127C137.532 55.5144 138.604 55.6161 139.659 55.7348C140.425 55.8195 140.919 56.3112 140.867 56.9215C140.816 57.5996 140.272 58.0574 139.472 57.9895C137.294 57.8031 135.116 57.5827 132.955 57.3453C132.241 57.2606 131.832 56.6672 131.934 55.9891C132.02 55.4127 132.547 55.0228 133.211 55.0906C134.3 55.1923 135.389 55.311 136.478 55.4127Z" fill="#CCCCCD"/>
<path d="M185.638 62.6008C184.634 62.4991 183.613 62.3974 182.609 62.2956C181.69 62.1939 181.18 61.7023 181.265 60.9903C181.35 60.3121 181.929 59.9222 182.796 60.007C184.838 60.2104 186.88 60.4138 188.922 60.6173C189.807 60.702 190.283 61.1767 190.232 61.8718C190.181 62.5838 189.586 62.9738 188.667 62.889C187.663 62.7873 186.642 62.6856 185.638 62.5838V62.6008Z" fill="#CCCCCD"/>
<path d="M164.742 34.5265C164.64 35.4759 164.538 36.4422 164.453 37.3916C164.419 37.7306 164.316 38.0358 164.146 38.307C163.84 38.7817 163.398 38.8834 162.887 38.7478C162.36 38.5952 162.07 38.2223 162.122 37.6798C162.343 35.3911 162.564 33.0855 162.819 30.7968C162.904 30.1017 163.398 29.9153 164.044 30C164.691 30.0848 165.116 30.5425 165.065 31.2546C164.98 32.3396 164.861 33.4246 164.759 34.5095L164.742 34.5265Z" fill="#CCCCCD"/>
<path d="M164.98 83.9786H164.912H164.844C164.912 83.9108 164.963 83.8599 165.031 83.7921C165.014 83.8599 164.997 83.9108 164.963 83.9786H164.98Z" fill="#CCCCCD"/>
<path d="M157.425 83.3004C157.102 79.8759 156.796 76.4344 156.489 73.0099C156.472 72.8065 156.523 72.603 156.489 72.3996C156.404 71.7384 156.064 70.9416 156.421 70.467C156.779 69.9923 157.612 69.8566 158.208 69.5515C158.82 69.2463 159.382 68.8734 160.08 68.7886C159.586 73.6711 159.11 78.5536 158.616 83.4191C158.208 83.3852 157.817 83.3343 157.408 83.3004H157.425Z" fill="#FCCA36"/>
<path d="M158.634 83.4191C159.127 78.5366 159.604 73.6541 160.097 68.7886C161.305 69.3141 162.19 70.2635 163.211 71.0434C163.534 71.2977 163.415 72.0097 163.211 72.3488C162.666 73.1964 162.649 74.1797 162.326 75.0782C162.088 75.7224 161.867 76.3836 161.611 77.0108C161.322 77.7059 161.322 78.4688 161.033 79.1469C160.488 80.4184 160.318 81.8086 159.91 83.114C159.859 83.2496 159.791 83.3852 159.723 83.5208C159.365 83.4869 159.008 83.453 158.651 83.4191H158.634Z" fill="#F9BC15"/>
</g>
<defs>
<clipPath id="clip0_399_8440">
<rect width="294.009" height="220" fill="white" transform="translate(37 30)"/>
</clipPath>
</defs>
</svg>
