<svg width="500" height="250" viewBox="0 0 500 250" fill="none" xmlns="http://www.w3.org/2000/svg">
<rect y="217" width="499.99" height="33" fill="#FEF9EC"/>
<path d="M315.997 79.7854H300.118V155.897H315.997V79.7854Z" fill="#BF6240"/>
<path d="M278.16 98.682H259.659V155.897H278.16V98.682Z" fill="#CB8C3D"/>
<path d="M334.752 95.861L316.816 100.489L330.581 155.955L348.517 151.328L334.752 95.861Z" fill="#A38552"/>
<path d="M298.366 55H293.297V155.897H298.366V55Z" fill="#020200"/>
<path d="M291.432 92.826H286.364V155.897H291.432V92.826Z" fill="#A04161"/>
<path d="M284.836 92.826H279.768V155.897H284.836V92.826Z" fill="#F4C245"/>
<path d="M308.066 90.4147C310.829 90.4147 313.069 89.3425 313.069 88.0198C313.069 86.6972 310.829 85.6249 308.066 85.6249C305.302 85.6249 303.062 86.6972 303.062 88.0198C303.062 89.3425 305.302 90.4147 308.066 90.4147Z" fill="#F7ECDE"/>
<path d="M328.405 108.777C331.083 108.086 332.997 106.486 332.679 105.204C332.361 103.921 329.931 103.442 327.252 104.133C324.573 104.825 322.66 106.424 322.978 107.707C323.296 108.989 325.726 109.468 328.405 108.777Z" fill="#F7ECDE"/>
<path d="M284.836 107.507H279.768V109.721H284.836V107.507Z" fill="#F7ECDE"/>
<path d="M284.836 110.706H279.768V111.821H284.836V110.706Z" fill="#F7ECDE"/>
<path d="M291.432 102.094H286.364V104.308H291.432V102.094Z" fill="#F7ECDE"/>
<path d="M291.432 105.292H286.364V106.408H291.432V105.292Z" fill="#F7ECDE"/>
<path d="M274.09 102.094H263.746V142.265H274.09V102.094Z" fill="#F7ECDE"/>
<path d="M405.425 159.083H220.676C206.049 159.083 194.188 169.503 194.188 182.353V232.974" stroke="#A63019" stroke-width="8.98973" stroke-miterlimit="10"/>
<path d="M259.655 112.243V212.468C258.227 215.915 255.513 216.708 252.132 216.53C249.148 216.369 246.148 216.498 243.148 216.498C231.927 216.498 220.69 216.53 209.469 216.547C209.358 216.514 209.278 216.563 209.247 216.692C192.407 216.692 175.567 216.692 158.711 216.692C154.22 216.692 149.728 216.725 145.236 216.741C144.712 216.32 144.093 216.514 143.538 216.514C139.205 216.498 134.856 216.514 130.523 216.514C120.619 216.514 110.699 216.53 100.796 216.514C97.3196 216.514 95.0658 214.378 95.0658 211.141C95.0658 178.499 95.0658 145.873 95.0658 113.23C95.0658 112.502 95.2404 111.887 95.5896 111.24C96.7959 109.023 98.748 108.343 101.049 108.343C151.823 108.343 202.596 108.343 253.37 108.343C254.989 108.343 256.512 108.715 257.862 109.686C258.766 110.333 258.655 111.677 259.639 112.259L259.655 112.243ZM177.535 113.797C153.743 113.797 129.968 113.797 106.176 113.797C105.049 113.797 103.922 113.829 102.811 113.878C101.494 113.942 100.748 114.719 100.542 115.982C100.43 116.677 100.446 117.39 100.446 118.102C100.446 145.662 100.446 173.239 100.446 200.8C100.446 201.237 100.478 201.674 100.446 202.111C100.256 203.907 100.922 204.911 102.526 205.639C103.779 206.205 104.954 205.623 106.144 205.623C153.553 205.671 200.962 205.655 248.37 205.671C249.053 205.671 249.751 205.752 250.434 205.833C252.687 206.14 254.148 204.894 254.227 202.596C254.259 201.722 254.322 200.848 254.322 199.975C254.322 172.689 254.322 145.387 254.322 118.102C254.322 117.454 254.338 116.791 254.259 116.143C254.068 114.719 253.275 113.894 251.799 113.861C250.402 113.829 249.021 113.781 247.624 113.781C224.261 113.781 200.914 113.781 177.551 113.781L177.535 113.797Z" fill="#285A8F"/>
<path d="M214.31 227.228C216.993 227.26 219.659 227.292 222.341 227.325C223.516 227.325 224.659 227.422 225.786 227.827C227.817 228.539 228.198 229.866 226.817 231.484C226.484 231.889 226.214 232.358 225.912 232.795H128.507C128.111 232.228 127.888 231.597 127.19 231.177C126.365 230.675 126.92 228.781 127.936 228.166C129.174 227.406 130.571 227.39 131.936 227.357C134.666 227.292 137.38 227.276 140.11 227.244C148.458 227.244 156.807 227.212 165.155 227.212C181.535 227.212 197.915 227.228 214.294 227.244L214.31 227.228Z" fill="#285A8F"/>
<path d="M177.535 113.797C200.898 113.797 224.246 113.797 247.609 113.797C249.005 113.797 250.386 113.861 251.783 113.878C253.259 113.91 254.037 114.735 254.243 116.16C254.338 116.807 254.307 117.47 254.307 118.118C254.307 145.403 254.307 172.705 254.307 199.991C254.307 200.865 254.243 201.739 254.211 202.612C254.132 204.911 252.672 206.14 250.418 205.849C249.736 205.752 249.037 205.687 248.355 205.687C200.946 205.687 153.537 205.687 106.129 205.639C104.922 205.639 103.748 206.238 102.51 205.655C100.907 204.927 100.24 203.923 100.431 202.127C100.478 201.69 100.431 201.253 100.431 200.816C100.431 173.255 100.431 145.678 100.431 118.118C100.431 117.406 100.415 116.694 100.526 115.998C100.732 114.719 101.494 113.959 102.796 113.894C103.922 113.845 105.049 113.813 106.16 113.813C129.952 113.813 153.728 113.813 177.519 113.813L177.535 113.797ZM177.297 200.363C200.486 200.363 223.69 200.363 246.879 200.363C249.021 200.363 249.053 200.347 249.053 198.194C249.053 172.592 249.053 146.989 249.053 121.387C249.053 119.154 249.053 119.137 246.799 119.137C200.517 119.137 154.236 119.137 107.938 119.137C105.7 119.137 105.684 119.137 105.684 121.387C105.684 146.941 105.684 172.479 105.684 198.032C105.684 200.363 105.684 200.363 108.017 200.363C131.111 200.363 154.188 200.363 177.281 200.363H177.297Z" fill="#A5CDFF"/>
<path d="M209.469 216.708C209.929 218.586 211.31 220.058 211.707 221.968C188.709 221.968 165.71 221.968 142.696 221.968C143.553 220.22 144.395 218.489 145.252 216.741C149.743 216.725 154.235 216.692 158.727 216.692C175.567 216.692 192.407 216.692 209.263 216.692L209.374 216.725H209.485L209.469 216.708Z" fill="#285A8F"/>
<path d="M209.445 216.708H209.333H209.222C209.254 216.579 209.333 216.53 209.445 216.563C209.492 216.611 209.476 216.659 209.429 216.708H209.445Z" fill="#C4DEFF"/>
<path d="M142.697 221.968C165.695 221.968 188.693 221.968 211.707 221.968C212.58 223.716 213.437 225.464 214.31 227.228C197.93 227.228 181.551 227.195 165.171 227.195C156.823 227.195 148.474 227.212 140.125 227.228C140.983 225.48 141.855 223.716 142.712 221.968H142.697Z" fill="#3475B9"/>
<path d="M177.297 200.363C154.204 200.363 131.127 200.363 108.033 200.363C105.7 200.363 105.7 200.363 105.7 198.032C105.7 172.479 105.7 146.941 105.7 121.387C105.7 119.137 105.7 119.137 107.954 119.137C154.236 119.137 200.518 119.137 246.815 119.137C249.069 119.137 249.069 119.137 249.069 121.387C249.069 146.989 249.069 172.592 249.069 198.194C249.069 200.347 249.053 200.363 246.895 200.363C223.706 200.363 200.502 200.363 177.313 200.363H177.297ZM213.072 128.702C213.04 126.549 211.088 125.368 209.31 126.339C208.755 126.647 208.295 127.132 207.834 127.585C188.011 147.766 168.203 167.947 148.395 188.144C147.982 188.565 147.554 189.002 147.252 189.504C146.506 190.782 146.808 191.98 147.871 192.87C148.871 193.728 150.03 193.76 151.109 192.886C151.569 192.514 151.966 192.061 152.379 191.64C160.6 183.257 168.806 174.874 177.027 166.507C188.693 154.612 200.359 142.733 212.04 130.854C212.675 130.207 213.183 129.543 213.072 128.686V128.702ZM187.915 135.742C187.915 134.075 186.868 133.007 185.519 132.926C184.566 132.861 183.9 133.298 183.265 133.945C172.409 145.031 161.537 156.085 150.68 167.17C150.49 167.364 150.3 167.559 150.141 167.769C149.379 168.837 149.427 169.889 150.284 170.893C151.331 172.139 152.934 171.993 154.442 170.456C160.918 163.869 167.377 157.25 173.869 150.679C178.011 146.488 182.217 142.377 186.376 138.218C187.138 137.457 187.884 136.648 187.931 135.742H187.915Z" fill="#C4DEFF"/>
<path d="M213.072 128.686C213.167 129.543 212.675 130.207 212.04 130.854C200.359 142.733 188.693 154.628 177.027 166.507C168.805 174.89 160.6 183.257 152.378 191.64C151.965 192.061 151.553 192.514 151.108 192.886C150.045 193.76 148.87 193.728 147.87 192.87C146.823 191.98 146.506 190.782 147.252 189.504C147.553 189.002 147.982 188.565 148.394 188.144C168.202 167.947 188.01 147.766 207.834 127.585C208.278 127.132 208.755 126.647 209.31 126.339C211.088 125.368 213.04 126.549 213.072 128.702V128.686Z" fill="white"/>
<path d="M187.916 135.726C187.868 136.632 187.122 137.441 186.36 138.202C182.202 142.361 177.996 146.471 173.853 150.663C167.361 157.234 160.901 163.853 154.426 170.439C152.918 171.961 151.315 172.123 150.267 170.876C149.426 169.873 149.362 168.821 150.124 167.753C150.283 167.526 150.473 167.332 150.664 167.154C161.52 156.085 172.393 145.015 183.249 133.929C183.884 133.282 184.551 132.845 185.503 132.91C186.852 132.991 187.9 134.059 187.9 135.726H187.916Z" fill="white"/>
</svg>
