<svg width="368" height="250" viewBox="0 0 368 250" fill="none" xmlns="http://www.w3.org/2000/svg">
<g clip-path="url(#clip0_399_8072)">
<path d="M107.939 214.99L107.998 137.653C107.998 134.891 110.253 132.644 113.026 132.644H106.588C103.815 132.644 101.559 134.891 101.559 137.653L101.5 214.99C101.5 217.753 103.756 220 106.529 220H112.968C110.195 220 107.939 217.753 107.939 214.99Z" fill="#C46E8B"/>
<path d="M133.107 214.99L133.165 137.653C133.165 134.891 130.91 132.644 128.137 132.644H113.015C110.242 132.644 107.986 134.891 107.986 137.653L107.927 214.99C107.927 217.753 110.183 220 112.956 220H128.078C130.851 220 133.107 217.753 133.107 214.99Z" fill="#F3E2E8"/>
<path d="M151.682 214.99V176.328C151.682 173.565 153.938 171.318 156.711 171.318H150.272C147.5 171.318 145.244 173.565 145.244 176.328V214.99C145.244 217.753 147.5 220 150.272 220H156.711C153.938 220 151.682 217.753 151.682 214.99Z" fill="#3575B9"/>
<path d="M171.833 171.318H156.711C153.934 171.318 151.683 173.561 151.683 176.328V214.99C151.683 217.757 153.934 220 156.711 220H171.833C174.611 220 176.862 217.757 176.862 214.99V176.328C176.862 173.561 174.611 171.318 171.833 171.318Z" fill="#7FACDB"/>
<path d="M196.496 214.99V131.169C196.496 128.406 198.752 126.159 201.525 126.159H195.086C192.313 126.159 190.057 128.406 190.057 131.169V214.99C190.057 217.753 192.313 220 195.086 220H201.525C198.752 220 196.496 217.753 196.496 214.99Z" fill="#CB8C3D"/>
<path d="M216.647 126.171H201.525C198.748 126.171 196.496 128.414 196.496 131.18V214.99C196.496 217.757 198.748 220 201.525 220H216.647C219.424 220 221.676 217.757 221.676 214.99V131.18C221.676 128.414 219.424 126.171 216.647 126.171Z" fill="#E5B069"/>
<path d="M241.321 214.99V72.2677C241.321 69.5053 243.577 67.2579 246.349 67.2579H239.911C237.138 67.2579 234.882 69.5053 234.882 72.2677V214.99C234.882 217.753 237.138 220 239.911 220H246.349C243.577 220 241.321 217.753 241.321 214.99Z" fill="#17C5D5"/>
<path d="M261.471 67.2579H246.35C243.572 67.2579 241.321 69.5009 241.321 72.2677V214.99C241.321 217.757 243.572 220 246.35 220H261.471C264.249 220 266.5 217.757 266.5 214.99V72.2677C266.5 69.5009 264.249 67.2579 261.471 67.2579Z" fill="#6BE3EF"/>
<path d="M120.558 94.2151L161.623 126.171L253.905 39.6334" stroke="#F4D7E3" stroke-width="3.85" stroke-miterlimit="10"/>
<path d="M120.558 105.277C126.69 105.277 131.661 100.324 131.661 94.2151C131.661 88.106 126.69 83.1536 120.558 83.1536C114.426 83.1536 109.455 88.106 109.455 94.2151C109.455 100.324 114.426 105.277 120.558 105.277Z" fill="#C46E8B"/>
<path d="M161.623 137.232C167.755 137.232 172.726 132.28 172.726 126.171C172.726 120.061 167.755 115.109 161.623 115.109C155.491 115.109 150.52 120.061 150.52 126.171C150.52 132.28 155.491 137.232 161.623 137.232Z" fill="#C46E8B"/>
<path d="M204.168 94.8472C210.301 94.8472 215.272 89.8948 215.272 83.7857C215.272 77.6766 210.301 72.7242 204.168 72.7242C198.036 72.7242 193.065 77.6766 193.065 83.7857C193.065 89.8948 198.036 94.8472 204.168 94.8472Z" fill="#C46E8B"/>
<path d="M253.646 52.123C259.778 52.123 264.749 47.1706 264.749 41.0615C264.749 34.9524 259.778 30 253.646 30C247.514 30 242.542 34.9524 242.542 41.0615C242.542 47.1706 247.514 52.123 253.646 52.123Z" fill="#C46E8B"/>
</g>
<defs>
<clipPath id="clip0_399_8072">
<rect width="165" height="190" fill="white" transform="translate(101.5 30)"/>
</clipPath>
</defs>
</svg>
