<svg width="80" height="80" viewBox="0 0 80 80" fill="none" xmlns="http://www.w3.org/2000/svg">
<path d="M30.873 9.24327C37.635 9.26597 44.3971 9.28866 51.1618 9.31795C52.3619 9.32647 53.5649 9.30346 54.7649 9.3501C57.2266 9.44238 59.5311 11.3833 60.0605 13.6442C60.452 15.3116 60.2113 16.9719 60.2363 18.6361C60.2792 21.7924 60.2375 24.9508 60.228 28.1121C60.2257 28.3184 60.2071 28.5234 60.198 28.7324C59.6934 28.9652 59.6109 29.3394 59.8247 29.8124C59.7843 29.8279 59.7439 29.8435 59.7103 29.8565C59.5556 29.9162 59.5067 30.0264 59.5677 30.1778C59.3282 30.2779 59.3972 30.4491 59.4728 30.6177L59.3995 30.783C58.9959 30.9387 58.8751 31.1984 59.0409 31.5909C58.992 31.7011 58.9405 31.8047 58.8983 31.9123C58.7436 31.972 58.7014 32.0796 58.7557 32.2336C58.6131 32.555 58.4705 32.8763 58.3238 33.2068C57.9769 33.3103 57.8791 33.5306 58.0386 33.8495C57.9982 33.8651 57.9579 33.8807 57.9242 33.8936C57.6513 33.9685 57.578 34.1338 57.7083 34.3803C57.1524 34.9296 56.646 35.5055 56.7275 36.3642C56.6871 36.3798 56.6468 36.3954 56.6132 36.4084C56.3871 36.5032 56.3205 36.6659 56.3972 36.895C56.2223 36.9625 56.0542 37.0274 56.1335 37.263C55.8606 37.3379 55.7873 37.5032 55.9176 37.7497C55.4168 38.0114 55.1075 38.3819 55.181 38.9698C55.1711 39.0802 55.0916 39.1337 54.9933 39.1792C54.8386 39.2389 54.7897 39.3491 54.844 39.5031C54.5831 39.5886 54.4052 39.7258 54.5137 40.0339C54.4734 40.0495 54.433 40.065 54.3994 40.078C54.2447 40.1377 54.1958 40.2479 54.25 40.402C53.8852 40.596 53.606 40.8483 53.6561 41.3008C53.6157 41.3163 53.5754 41.3319 53.5417 41.3449C53.0763 41.7908 52.493 42.1757 52.5415 42.9331C52.5097 43.1052 52.3646 43.1307 52.2327 43.1892C51.9719 43.2747 51.794 43.4119 51.8957 43.7226C51.8273 43.9772 51.6131 44.1208 51.4444 44.3C51.0502 44.2087 51.1656 44.4761 51.1807 44.6681C51.1159 44.7388 51.0578 44.8068 50.993 44.8775C50.5964 44.9925 50.3148 45.2002 50.3513 45.6578C50.2054 45.8358 50.1223 46.0733 49.8616 46.1207C49.6008 46.2062 49.4228 46.3433 49.522 46.6474C49.4816 46.663 49.4413 46.6786 49.4076 46.6916C49.172 46.8205 48.7358 46.7987 48.9563 47.269C48.7806 47.489 48.6678 47.7684 48.3839 47.8932C47.9629 47.7742 47.9603 48.0187 48.0059 48.3054C47.6774 48.7442 47.2606 49.1181 46.8987 49.5317C46.3369 50.1822 45.7549 50.8405 44.9474 51.2282C44.7726 51.2957 44.6044 51.3606 44.6838 51.5963C44.6031 51.6275 44.5291 51.656 44.4484 51.6872C43.8984 51.5951 44.0189 51.9138 44.1154 52.2113C43.9607 52.271 43.7993 52.3333 43.6446 52.393C43.221 52.2674 43.2184 52.5119 43.2666 52.8052C43.1505 52.9414 43.017 53.0538 42.8435 53.1055C42.4426 53.0168 42.2673 53.1605 42.3445 53.5644C41.9086 54.0066 41.4327 54.3881 40.8781 54.6706C40.5567 54.5283 40.4925 54.7357 40.4551 54.9708C40.4147 54.9864 40.3743 55.002 40.3407 55.015C39.8187 54.973 39.6478 55.3205 39.5302 55.7234C39.4899 55.739 39.4495 55.7546 39.4092 55.7701C39.0052 55.7511 38.7439 55.9128 38.6747 56.3199C38.4322 56.4896 38.1976 56.6791 37.8952 56.7578C37.6232 56.6421 37.5327 56.7455 37.5838 57.0073C37.4175 57.2313 37.1674 57.305 36.9186 57.401C36.7373 57.3949 36.5121 57.3372 36.6098 57.6571L36.3744 57.748C36.1023 57.6704 35.8995 57.6878 35.9513 58.0482C35.7594 58.3049 35.449 58.3639 35.1718 58.4861C34.6952 58.4798 34.256 58.5276 34.2019 59.1267C34.0741 59.176 33.9249 59.2108 33.8931 59.3828C33.8528 59.3984 33.8192 59.4114 33.7788 59.427C33.5031 59.5334 33.2273 59.6398 32.9515 59.7463C32.3028 59.814 31.7578 60.0624 31.3831 60.6179C31.1476 60.7088 30.9123 60.7996 30.6769 60.8905C30.6365 60.9061 30.5961 60.9216 30.5558 60.9372C30.5154 60.9528 30.4751 60.9684 30.4414 60.9814C30.0521 60.9794 29.6349 60.9274 29.5382 61.4593C29.4286 61.631 29.2645 61.6867 29.0674 61.641C28.9389 61.5537 28.8582 61.5848 28.832 61.7319C28.7916 61.7475 28.758 61.7605 28.7176 61.776C28.6773 61.7916 28.6369 61.8072 28.5966 61.8228C28.5562 61.8383 28.5159 61.8539 28.4822 61.8669C28.4447 61.8509 28.3993 61.8152 28.3724 61.8256C27.0663 62.3069 25.7656 62.8013 24.4555 63.2917C24.2806 63.3592 24.0843 63.4121 24.1515 63.6754C23.5781 63.6988 23.0894 63.9712 22.5662 64.1579C22.3462 63.8623 22.1858 63.9851 22.0503 64.2276C21.9696 64.2588 21.8956 64.2873 21.8149 64.3185C21.367 63.9588 21.1139 64.3532 20.8188 64.566C20.5027 64.688 20.1866 64.81 19.8705 64.932C19.7826 64.7909 19.7 64.663 19.59 64.9109C19.4421 64.968 19.3879 65.065 19.4421 65.2191C17.9146 64.3782 16.8373 63.1886 16.2995 61.5244C15.9599 60.4686 16.0727 59.3978 16.0782 58.3305C16.0792 51.8475 16.0869 45.362 16.1107 38.8778C16.1218 35.4116 16.2081 31.9392 16.1547 28.4674C16.1315 26.9622 16.0399 25.4606 16.065 23.9596C16.0685 23.8138 16.0236 23.6637 16.2078 23.6002C19.3197 23.6089 22.4358 23.5703 25.5487 23.6395C27.1233 23.6709 28.4387 23.1936 29.5569 22.1686C30.1234 21.6456 30.6084 21.0551 30.7067 20.2183C30.763 19.702 30.7603 19.1933 30.7709 18.6794C30.8314 15.5289 30.6905 12.38 30.9227 9.23168L30.873 9.24327Z" fill="#FFFAEC"/>
<path d="M54.1437 27.6168L19.4934 27.6168C19.3786 27.6168 19.2925 27.7737 19.2925 27.96C19.2925 28.1463 19.3843 28.3032 19.4934 28.3032L54.1437 28.3032C54.2585 28.3032 54.3446 28.1463 54.3446 27.96C54.3446 27.7737 54.2528 27.6168 54.1437 27.6168Z" fill="#A38552"/>
<path d="M50.6586 35.1666L19.4733 35.1666C19.37 35.1666 19.2925 35.3235 19.2925 35.5098C19.2925 35.6961 19.3751 35.853 19.4733 35.853L50.6586 35.853C50.7619 35.853 50.8394 35.6961 50.8394 35.5098C50.8394 35.3235 50.7568 35.1666 50.6586 35.1666Z" fill="#A38552"/>
<path d="M43.6884 42.7174L19.4331 42.7174C19.3527 42.7174 19.2925 42.8743 19.2925 43.0606C19.2925 43.2469 19.3568 43.4038 19.4331 43.4038L43.6884 43.4038C43.7687 43.4038 43.829 43.2469 43.829 43.0606C43.829 42.8743 43.7647 42.7174 43.6884 42.7174Z" fill="#A38552"/>
<path d="M33.233 50.2687L19.3728 50.2687C19.3269 50.2687 19.2925 50.4256 19.2925 50.6119C19.2925 50.7982 19.3292 50.9551 19.3728 50.9551L33.233 50.9551C33.2789 50.9551 33.3133 50.7982 33.3133 50.6119C33.3133 50.4256 33.2766 50.2687 33.233 50.2687Z" fill="#A38552"/>
<path d="M40.3067 55.0295C40.3471 55.0139 40.3874 54.9984 40.4211 54.9854C40.5745 54.9033 40.792 54.9031 40.8442 54.6851C41.4014 54.4092 41.8813 54.0185 42.3105 53.579C42.5418 53.4973 42.7291 53.3641 42.8095 53.12C42.9897 53.0657 43.1165 52.9559 43.2326 52.8198C43.4156 52.7339 43.5505 52.6058 43.6106 52.4076C43.7653 52.3479 43.9267 52.2856 44.0814 52.2259C44.2192 52.0662 44.4159 51.937 44.4144 51.7017C44.4951 51.6706 44.5691 51.642 44.6498 51.6109C44.8247 51.5434 44.9072 51.4202 44.9135 51.2428C45.7209 50.8551 46.3029 50.1967 46.8647 49.5462C47.2267 49.1326 47.6434 48.7587 47.9719 48.32C48.1789 48.2553 48.3473 48.1523 48.3499 47.9078C48.6338 47.783 48.7467 47.5036 48.9223 47.2836C49.2248 47.2049 49.3413 46.9925 49.3737 46.7061C49.414 46.6905 49.4544 46.675 49.488 46.662C49.7301 46.5685 49.7916 46.3546 49.8277 46.1352C50.0951 46.0853 50.1782 45.8478 50.3174 45.6723C50.6565 45.511 50.8138 45.2068 50.959 44.8921C51.0238 44.8214 51.0819 44.7533 51.1467 44.6827C51.3149 44.6178 51.4041 44.492 51.4104 44.3146C51.5791 44.1353 51.7933 43.9918 51.8618 43.7371C52.1628 43.6742 52.1894 43.4509 52.1988 43.2038C52.3266 43.1545 52.4758 43.1197 52.5075 42.9477C52.8164 42.4024 53.4331 42.0426 53.5078 41.3594C53.5481 41.3439 53.5885 41.3283 53.6221 41.3153C53.9253 41.0841 54.1456 40.8013 54.2161 40.4165C54.3707 40.3568 54.4196 40.2466 54.3654 40.0926C54.4057 40.077 54.4461 40.0614 54.4797 40.0484C54.7192 39.9484 54.7834 39.741 54.81 39.5177C54.9647 39.458 55.0136 39.3478 54.9593 39.1938C55.0535 39.1574 55.1303 39.0973 55.147 38.9844C55.447 38.6099 55.7349 38.2249 55.8836 37.7642C56.1096 37.6694 56.1762 37.5067 56.0996 37.2776C56.2677 37.2127 56.3569 37.0869 56.3632 36.9095C56.5866 36.8081 56.6559 36.652 56.5792 36.4229C56.6195 36.4073 56.6599 36.3918 56.6935 36.3788C57.066 35.7405 57.4947 35.1261 57.6743 34.3948C57.8977 34.2934 57.9669 34.1373 57.8903 33.9082C57.9306 33.8926 57.971 33.877 58.0046 33.8641C58.1238 33.6583 58.3649 33.5044 58.2898 33.2214C58.4324 32.9 58.575 32.5787 58.7217 32.2482C58.8764 32.1885 58.9253 32.0783 58.8643 31.9268C58.9132 31.8166 58.9648 31.7131 59.0069 31.6055C59.1881 31.3606 59.313 31.0917 59.3655 30.7975C59.3899 30.7424 59.4144 30.6873 59.4388 30.6323C59.567 30.5067 59.6026 30.3636 59.5337 30.1924C59.6884 30.1327 59.7347 30.0159 59.6763 29.871C59.7167 29.8555 59.757 29.8399 59.7907 29.8269C59.907 29.6526 59.848 29.3711 60.1303 29.3002C60.2621 30.5732 60.1723 31.8557 60.1711 33.1268C60.1624 38.5095 60.1334 43.9 60.1179 49.2853C60.1067 53.0407 60.2123 56.7967 60.0749 60.5475C59.9844 63.0248 58.2719 65.0249 55.6304 65.702C54.3211 66.04 52.9582 65.8204 51.6211 65.819C46.1034 65.8182 40.5886 65.7859 35.0724 65.7693C30.5267 65.7509 25.9744 65.7351 21.4315 65.7233C20.7079 65.7211 20.0474 65.451 19.3704 65.2558C19.3095 65.1043 19.3704 65.0047 19.5183 64.9476C19.6093 65.019 19.7047 65.005 19.7988 64.9687C20.1149 64.8467 20.431 64.7247 20.7472 64.6027C21.1292 64.7215 21.4059 64.4245 21.7432 64.3552C21.8239 64.324 21.8979 64.2955 21.9786 64.2643C22.1753 64.3862 22.3278 64.2437 22.4945 64.1946C23.0136 64.017 23.5064 63.7355 24.0798 63.7121C25.3375 63.2266 26.5952 62.7412 27.8529 62.2558C28.0547 62.1779 28.3152 62.1687 28.4132 61.9102C28.4536 61.8946 28.4939 61.879 28.5275 61.8661C28.5997 61.9295 28.6401 61.9139 28.6486 61.8193C28.689 61.8038 28.7226 61.7908 28.7629 61.7752C28.8914 61.8626 28.9721 61.8314 28.9983 61.6843C29.1955 61.73 29.3595 61.6743 29.4691 61.5026C29.764 61.3279 30.176 61.3668 30.3724 61.0246C30.4128 61.0091 30.4531 60.9935 30.4867 60.9805C30.5589 61.044 30.5993 61.0284 30.6078 60.9338C30.8432 60.8429 31.0786 60.7521 31.314 60.6612C31.8643 60.426 32.4546 60.2515 32.8825 59.7895C33.1583 59.6831 33.434 59.5767 33.7098 59.4702C33.7766 59.5205 33.8103 59.5075 33.8241 59.4261C33.8559 59.2541 34.0077 59.2259 34.1329 59.17C34.5122 59.0312 34.8248 58.804 35.1027 58.5294C35.3799 58.4072 35.693 58.3548 35.8823 58.0915C36.0357 58.0095 36.2532 58.0092 36.3054 57.7913L36.5408 57.7004C36.6686 57.6511 36.8178 57.6163 36.8495 57.4443C37.0916 57.3508 37.3485 57.2746 37.5147 57.0506C37.6425 57.0013 37.7917 56.9665 37.8261 56.8011C38.1286 56.7224 38.3631 56.5329 38.6057 56.3632C38.9083 56.2464 39.1135 56.0226 39.3402 55.8134C39.3805 55.7979 39.4209 55.7823 39.4612 55.7667C39.7977 55.5988 40.1008 55.4057 40.2717 55.0583L40.3067 55.0295Z" fill="#A38552"/>
<path d="M30.8732 9.24373C30.6409 12.3921 30.7886 15.5383 30.7214 18.6914C30.7107 19.2053 30.7202 19.7114 30.6571 20.2303C30.5589 21.0672 30.0806 21.655 29.5073 22.1806C28.3892 23.2057 27.067 23.6855 25.4992 23.6515C22.3863 23.5824 19.2701 23.6209 16.1583 23.6122C16.0432 23.2686 16.2698 23.0594 16.4789 22.8646C18.0992 21.3109 19.7409 19.7719 21.3492 18.2076C23.0141 16.5911 24.643 14.9429 26.2985 13.3224C27.6019 12.0433 28.9227 10.7879 30.2193 9.5113C30.419 9.31248 30.6141 9.2372 30.8717 9.2595L30.8732 9.24373Z" fill="#A38552"/>
<path d="M60.1618 29.2793C59.8795 29.3502 59.9384 29.6318 59.8221 29.8061C59.6084 29.3331 59.6908 28.9589 60.1955 28.7261C60.2393 28.8157 60.2697 28.9105 60.1874 28.9955C60.1051 29.0805 60.122 29.1805 60.1618 29.2793Z" fill="#DB9597"/>
<path d="M60.1618 29.2795C60.1221 29.1808 60.1051 29.0808 60.1875 28.9958C60.2179 29.0905 60.2415 29.1879 60.1618 29.2795Z" fill="#FEF9EC"/>
<path d="M28.4419 61.8838C28.3439 62.1423 28.0834 62.1515 27.8816 62.2294C26.6239 62.7148 25.3662 63.2003 24.1085 63.6857C24.044 63.4291 24.2376 63.3695 24.4125 63.302C25.7159 62.8142 27.0193 62.3264 28.3294 61.8359C28.3563 61.8256 28.4017 61.8613 28.4392 61.8772L28.4419 61.8838Z" fill="#DB9597"/>
<path d="M57.6989 34.3762C57.5193 35.1075 57.0906 35.7219 56.7181 36.3602C56.6366 35.5015 57.1362 34.9282 57.6989 34.3762Z" fill="#DB9597"/>
<path d="M53.5349 41.3473C53.4602 42.0304 52.8368 42.3928 52.5346 42.9355C52.4861 42.1781 53.0694 41.7932 53.5349 41.3473Z" fill="#DB9597"/>
<path d="M32.9182 59.7595C32.4943 60.2122 31.9067 60.3934 31.3497 60.6312C31.7203 60.0848 32.2627 59.8299 32.9182 59.7595Z" fill="#DB9597"/>
<path d="M55.9084 37.7456C55.753 38.2089 55.4718 38.5913 55.1718 38.9658C55.105 38.3752 55.4144 38.0048 55.9084 37.7456Z" fill="#DB9597"/>
<path d="M35.1448 58.497C34.8575 58.7677 34.5475 59.0015 34.175 59.1377C34.2358 58.536 34.6777 58.4948 35.1448 58.497Z" fill="#DB9597"/>
<path d="M40.3067 55.029C40.1358 55.3765 39.8354 55.5761 39.4963 55.7374C39.6111 55.3279 39.7847 54.987 40.3067 55.029Z" fill="#DB9597"/>
<path d="M30.4076 60.9958C30.2112 61.3379 29.8019 61.3057 29.5044 61.4738C29.6011 60.9419 30.0183 60.9939 30.4076 60.9958Z" fill="#DB9597"/>
<path d="M50.9866 44.88C50.8413 45.1947 50.684 45.4989 50.3449 45.6602C50.3083 45.2026 50.59 44.995 50.9866 44.88Z" fill="#DB9597"/>
<path d="M21.7651 64.3303C21.4277 64.3996 21.151 64.6966 20.769 64.5778C21.0641 64.365 21.3145 63.964 21.7651 64.3303Z" fill="#DB9597"/>
<path d="M54.2433 40.4053C54.1729 40.7901 53.9526 41.0729 53.6493 41.3041C53.5993 40.8517 53.8785 40.5994 54.2433 40.4053Z" fill="#DB9597"/>
<path d="M49.3942 46.697C49.3592 46.9768 49.236 47.1918 48.9429 47.2745C48.7292 46.8015 49.1586 46.826 49.3942 46.697Z" fill="#DB9597"/>
<path d="M39.3851 55.7876C39.1611 56.0034 38.9492 56.2297 38.6506 56.3374C38.7172 55.9237 38.9784 55.7619 39.3851 55.7876Z" fill="#DB9597"/>
<path d="M59.3898 30.78C59.3373 31.0742 59.215 31.3497 59.0312 31.588C58.8722 31.1929 58.9836 30.9292 59.3898 30.78Z" fill="#DB9597"/>
<path d="M42.8193 53.1226C42.7389 53.3667 42.5516 53.4999 42.3203 53.5816C42.2498 53.1751 42.4184 53.0339 42.8193 53.1226Z" fill="#DB9597"/>
<path d="M44.4347 51.6933C44.4322 51.9378 44.2396 52.0578 44.1018 52.2175C44.0027 51.9133 43.8915 51.5986 44.4347 51.6933Z" fill="#DB9597"/>
<path d="M58.3142 33.2034C58.3919 33.493 58.1415 33.6429 58.029 33.8461C57.8669 33.5206 57.9673 33.3069 58.3142 33.2034Z" fill="#DB9597"/>
<path d="M48.3706 47.8985C48.368 48.143 48.1996 48.246 47.9925 48.3107C47.947 48.0239 47.9564 47.7769 48.3706 47.8985Z" fill="#DB9597"/>
<path d="M52.2258 43.1937C52.2205 43.4315 52.1898 43.6641 51.8888 43.727C51.787 43.4163 51.9676 43.2857 52.2258 43.1937Z" fill="#DB9597"/>
<path d="M43.6271 52.4078C43.567 52.606 43.4295 52.7275 43.2491 52.82C43.2036 52.5332 43.2102 52.2795 43.6271 52.4078Z" fill="#DB9597"/>
<path d="M54.8372 39.5073C54.8038 39.7332 54.7397 39.9406 54.5069 40.038C54.3984 39.7299 54.5857 39.5967 54.8372 39.5073Z" fill="#DB9597"/>
<path d="M57.9148 33.8905C57.9915 34.1196 57.9222 34.2757 57.6989 34.3771C57.5686 34.1306 57.6419 33.9654 57.9148 33.8905Z" fill="#DB9597"/>
<path d="M56.1267 37.2674C56.2034 37.4965 56.1341 37.6526 55.9108 37.754C55.7805 37.5076 55.8538 37.3423 56.1267 37.2674Z" fill="#DB9597"/>
<path d="M36.3504 57.7659C36.2916 57.9864 36.0808 57.984 35.9274 58.0661C35.8755 57.7057 36.0783 57.6883 36.3504 57.7659Z" fill="#DB9597"/>
<path d="M22.5232 64.1674C22.3565 64.2165 22.1947 64.3551 22.0073 64.2372C22.1522 63.9987 22.3099 63.8693 22.5232 64.1674Z" fill="#DB9597"/>
<path d="M49.8456 46.1194C49.8122 46.3453 49.7481 46.5527 49.5059 46.6462C49.4042 46.3355 49.5821 46.1983 49.8456 46.1194Z" fill="#DB9597"/>
<path d="M56.5996 36.4137C56.6763 36.6428 56.6071 36.7989 56.3837 36.9003C56.3003 36.6738 56.3763 36.5151 56.5996 36.4137Z" fill="#DB9597"/>
<path d="M51.4378 44.3033C51.4315 44.4807 51.349 44.6038 51.1741 44.6713C51.159 44.4793 51.0436 44.2119 51.4378 44.3033Z" fill="#DB9597"/>
<path d="M40.8512 54.6818C40.7923 54.9023 40.5816 54.9 40.4281 54.9821C40.4723 54.7444 40.5391 54.5436 40.8512 54.6818Z" fill="#DB9597"/>
<path d="M37.8639 56.7778C37.8295 56.9433 37.6803 56.978 37.5526 57.0273C37.4989 56.7589 37.5894 56.6555 37.8639 56.7778Z" fill="#DB9597"/>
<path d="M44.9341 51.233C44.9278 51.4105 44.8453 51.5336 44.6704 51.6011C44.5884 51.3588 44.7592 51.3005 44.9341 51.233Z" fill="#DB9597"/>
<path d="M56.3879 36.8925C56.3817 37.0699 56.2991 37.1931 56.1243 37.2606C56.0355 37.0209 56.2104 36.9534 56.3879 36.8925Z" fill="#DB9597"/>
<path d="M36.8941 57.419C36.8624 57.591 36.7172 57.6166 36.5854 57.6751C36.4903 57.3618 36.7156 57.4194 36.8941 57.419Z" fill="#DB9597"/>
<path d="M59.5582 30.1743C59.6244 30.3389 59.5915 30.4886 59.4633 30.6142C59.3943 30.4429 59.3281 30.2783 59.5582 30.1743Z" fill="#DB9597"/>
<path d="M54.9868 39.1829C55.0477 39.3344 54.9921 39.4471 54.8374 39.5069C54.7764 39.3554 54.8253 39.2452 54.9868 39.1829Z" fill="#DB9597"/>
<path d="M58.8892 31.9087C58.9502 32.0601 58.9013 32.1703 58.7466 32.23C58.6856 32.0785 58.7345 31.9684 58.8892 31.9087Z" fill="#DB9597"/>
<path d="M19.8277 64.9417C19.7268 64.9806 19.6315 64.9946 19.5473 64.9206C19.664 64.6701 19.7492 64.8046 19.8277 64.9417Z" fill="#DB9597"/>
<path d="M54.3925 40.0814C54.4535 40.2328 54.3979 40.3456 54.2432 40.4053C54.1822 40.2538 54.2311 40.1437 54.3925 40.0814Z" fill="#DB9597"/>
<path d="M59.7007 29.853C59.7617 30.0045 59.7128 30.1146 59.5581 30.1743C59.4971 30.0229 59.546 29.9127 59.7007 29.853Z" fill="#DB9597"/>
<path d="M29.0271 61.6578C28.9941 61.8074 28.9201 61.836 28.7917 61.7486C28.8247 61.5989 28.896 61.5638 29.0271 61.6578Z" fill="#DB9597"/>
<path d="M33.8573 59.3898C33.8439 59.4725 33.8101 59.4855 33.7427 59.4341C33.7831 59.4185 33.8169 59.4054 33.8573 59.3898Z" fill="#DB9597"/>
<path d="M30.6435 60.904C30.635 60.9986 30.5946 61.0141 30.5225 60.9507C30.5628 60.9351 30.6032 60.9195 30.6435 60.904Z" fill="#DB9597"/>
<path d="M28.6772 61.7931C28.6687 61.8877 28.6283 61.9033 28.5562 61.8398C28.5965 61.8243 28.6369 61.8087 28.6772 61.7931Z" fill="#DB9597"/>
<path d="M43.7901 37.6174L39.3745 44.6646L67.478 61.5458L71.8935 54.4987L43.7901 37.6174Z" fill="#A63019"/>
<path d="M67.482 61.5376L72.0823 64.3009C72.9254 64.8073 74.0278 64.5486 74.5452 63.7229L77.083 59.6725C77.6004 58.8468 77.3364 57.7673 76.4934 57.2609L71.8931 54.4976L67.4775 61.5447L67.482 61.5376Z" fill="#020200"/>
<path d="M71.898 54.491L67.4824 61.5381L68.8269 62.3457L73.2424 55.2986L71.898 54.491Z" fill="#6593C7"/>
<path d="M42.6196 39.5002L40.5635 42.7817L68.667 59.663L70.7231 56.3815L42.6196 39.5002Z" fill="#F4C245"/>
<path d="M31.3757 34.9996L39.3788 44.6567L41.5866 41.1331L43.7943 37.6096L31.3757 34.9996Z" fill="#FAE1A2"/>
<path d="M31.3757 35.0001L33.4849 37.5407L34.6446 35.6899L31.3757 35.0001Z" fill="#020200"/>
</svg>
