<svg width="470" height="250" viewBox="0 0 470 250" fill="none" xmlns="http://www.w3.org/2000/svg">
<mask id="mask0_402_10849" style="mask-type:alpha" maskUnits="userSpaceOnUse" x="0" y="0" width="470" height="250">
<path d="M0 20C0 8.9543 8.9543 0 20 0H450C461.046 0 470 8.9543 470 20V250H0V20Z" fill="#F7ECDE"/>
</mask>
<g mask="url(#mask0_402_10849)">
<path d="M198.242 110.702C197.798 109.994 197.189 109.39 197.044 108.509C196.89 107.509 196.904 106.572 197.497 105.713C199.762 106.991 201.955 108.384 204.175 109.756C202.99 111.476 201.342 111.866 199.402 111.404L198.255 110.709L198.242 110.702Z" fill="#CCCCCD"/>
<path d="M201.317 96.1294C201.448 93.6593 201.639 91.2014 201.703 88.7325C201.782 85.7081 202.056 82.6938 202.116 79.6764C202.152 77.8232 202.652 76.0422 203.415 74.3369C204.28 72.4158 205.46 70.7434 207.054 69.3514C208.641 67.9729 210.397 66.9392 212.393 66.2357C213.991 65.673 215.63 65.5442 217.291 65.4418C218.436 65.3751 219.651 65.4744 220.656 65.8047C222.148 66.3005 223.757 66.6538 225.026 67.7219C221.322 73.8188 217.632 79.9221 213.922 86.0324C213.475 85.8195 213.013 85.8476 212.544 85.8557C211.472 85.8743 210.4 85.8929 209.334 85.8981C209.066 85.9027 208.746 85.9818 208.657 85.542C208.387 84.1556 207.414 83.0957 206.845 81.8482C206.712 81.5696 206.401 81.4212 206.047 81.4675C205.21 81.5489 204.902 82.1963 205.301 83.032C205.854 84.1728 206.446 85.2994 207.019 86.4332C207.158 86.6983 207.264 86.9639 207.157 87.2601C206.96 87.8119 206.77 88.3837 206.547 88.9226C206.017 90.2092 205.561 91.5146 205.077 92.8071C204.581 94.1265 204.099 95.4525 203.616 96.7784C203.477 97.1754 203.253 97.3665 202.818 97.0597C202.321 96.7072 201.792 96.4221 201.277 96.11L201.317 96.1294Z" fill="#FCCA36"/>
<path d="M213.955 86.0317C217.659 79.9348 221.349 73.8315 225.059 67.7212C227.862 69.4047 229.914 71.7567 231.182 74.7777C232.457 77.8187 232.661 80.9117 231.975 84.1272C231.529 86.2149 230.506 88.0117 229.32 89.6975C228.024 91.5459 226.249 92.9343 224.24 94.0125C222.449 94.9799 220.735 96.0664 218.986 97.0866C217.105 98.1759 215.195 99.219 213.349 100.375C212.568 100.863 211.724 101.239 211.012 101.826C210.932 101.854 210.872 101.876 210.792 101.904C210.752 101.884 210.711 101.865 210.684 101.852C210.365 101.65 210.059 101.422 209.733 101.233C208.667 100.576 208.674 100.596 209.52 99.6586C211.579 97.3957 213.631 95.1129 215.682 92.8302C215.991 92.4971 216.308 92.2843 216.818 92.2955C218.099 92.3268 219.385 92.2777 220.671 92.262C221.121 92.2609 221.417 92.0217 221.59 91.6241C221.757 91.24 221.584 90.9755 221.369 90.6582C221.065 90.2153 220.644 90.2628 220.235 90.2498C219.41 90.2374 218.557 90.1452 217.769 90.2993C216.501 90.5554 216.039 89.9214 215.576 88.9062C215.12 87.9109 214.763 86.847 213.955 86.0317Z" fill="#F9BC15"/>
<path d="M210.677 101.832C210.677 101.832 210.758 101.871 210.785 101.884L210.833 101.923L210.887 101.949C211.451 102.3 212.028 102.658 212.585 103.023C213.407 103.564 213.945 104.283 213.885 105.314C213.826 106.345 213.297 107.07 212.389 107.547C211.785 107.872 211.138 107.663 210.495 107.687C211.574 109.013 211.53 110.498 210.39 111.461C209.593 112.124 208.348 112.226 207.405 111.66C206.326 111.03 205.24 110.38 204.168 109.737C201.962 108.371 199.775 106.964 197.49 105.693C196.37 105.01 195.249 104.294 194.116 103.638C192.868 102.91 192.828 101.6 193.108 100.525C193.318 99.6656 194.604 98.921 195.584 98.9909C195.792 99.0074 196.021 99.0502 196.296 99.099C195.985 98.6362 195.722 98.2127 195.624 97.6861C195.369 96.3395 196.091 95.277 197.347 94.7335C198.125 94.3923 198.702 94.7501 199.304 95.054C199.995 95.3831 200.62 95.8137 201.265 96.2037C202.555 96.9839 203.824 97.7711 205.114 98.5513C205.426 98.7332 205.718 98.9221 206.03 99.1039C206.301 99.2664 206.573 99.4289 206.844 99.5914C208.1 100.372 209.343 101.18 210.657 101.839L210.677 101.832Z" fill="#5B6A70"/>
<path d="M210.677 101.832C209.35 101.166 208.12 100.365 206.864 99.5842C206.97 99.5021 207.075 99.4201 207.167 99.3315C207.987 98.4478 208.657 97.4263 209.565 96.6013C210.052 96.1715 210.342 95.5646 210.835 95.1213C211.29 94.7255 211.703 94.2769 212.137 93.8547C212.735 93.2625 213.121 92.4867 213.876 92.0188C214.161 91.8399 214.532 91.3052 214.371 90.9802C213.868 89.9791 213.517 88.8683 212.749 88.0055C212.161 87.8083 211.56 87.8857 210.97 87.9026C210.381 87.9195 209.666 87.7112 209.201 87.9533C208.737 88.1955 208.719 88.9649 208.523 89.5167C208.459 89.685 208.341 89.8275 208.291 90.0023C207.236 92.8429 206.188 95.7035 205.133 98.5442C203.844 97.764 202.574 96.9768 201.285 96.1966C201.271 96.1567 201.277 96.1432 201.317 96.1292C201.833 96.4412 202.375 96.7328 202.858 97.0789C203.293 97.3857 203.497 97.2015 203.657 96.7975C204.153 95.478 204.635 94.1521 205.118 92.8262C205.601 91.5337 206.057 90.2283 206.587 88.9417C206.811 88.4028 206.987 87.8246 207.197 87.2792C207.305 86.9831 207.199 86.7174 207.059 86.4523C206.48 85.3321 205.894 84.1919 205.341 83.0512C204.929 82.2089 205.251 81.568 206.087 81.4866C206.435 81.4538 206.753 81.5887 206.886 81.8673C207.454 83.1148 208.427 84.1747 208.697 85.5611C208.773 85.9945 209.113 85.9084 209.375 85.9172C210.44 85.9121 211.519 85.88 212.585 85.8748C213.054 85.8667 213.522 85.8251 213.962 86.0516C214.756 86.8604 215.127 87.9308 215.583 88.926C216.046 89.9413 216.508 90.5753 217.776 90.3192C218.564 90.1651 219.417 90.2573 220.242 90.2697C220.658 90.2692 221.073 90.2352 221.377 90.6781C221.591 90.9954 221.764 91.2599 221.597 91.644C221.418 92.0551 221.128 92.2808 220.679 92.2819C219.392 92.2976 218.106 92.3466 216.825 92.3154C216.315 92.3041 216.004 92.5035 215.689 92.85C213.638 95.1328 211.592 97.4021 209.527 99.6785C208.681 100.616 208.674 100.596 209.74 101.253C210.059 101.455 210.372 101.67 210.691 101.872L210.677 101.832Z" fill="#EF6D63"/>
<path d="M211.703 55.7274C212.082 55.9081 212.262 56.1925 212.357 56.552C212.788 58.3302 213.24 60.1013 213.671 61.8795C213.826 62.5657 213.607 62.9908 213.061 63.1608C212.455 63.3519 212.008 63.139 211.74 62.4816C211.549 62.01 211.425 61.5039 211.314 61.0042C210.996 59.5451 210.505 58.1358 210.314 56.6544C210.258 56.214 210.413 55.9237 210.757 55.6903C211.101 55.457 211.43 55.4646 211.703 55.7274Z" fill="#CCCCCD"/>
<path d="M235.086 76.9036C234.734 76.7358 234.521 76.4854 234.587 76.0696C234.656 75.54 234.945 75.214 235.452 75.0915C236.585 74.8043 237.712 74.5305 238.84 74.2568C239.553 74.0839 240.267 73.911 240.987 73.7246C241.554 73.5809 241.969 73.8947 242.252 74.2777C242.61 74.7464 242.231 75.5421 241.583 75.6804C239.668 76.0749 237.819 76.7825 235.86 77.0573C235.573 77.1024 235.325 77.1001 235.093 76.9235L235.086 76.9036Z" fill="#CCCCCD"/>
<path d="M199.044 68.4135C199.845 68.8945 200.659 69.3819 201.453 69.8764C202.03 70.2342 202.236 70.8125 201.964 71.2787C201.667 71.7988 201.06 71.9565 200.449 71.5993C198.787 70.625 197.138 69.6237 195.509 68.6154C194.972 68.277 194.873 67.65 195.211 67.1492C195.497 66.7229 196.065 66.6127 196.567 66.9183C197.395 67.4122 198.216 67.9196 199.044 68.4135Z" fill="#CCCCCD"/>
<path d="M235.429 92.7749C234.669 92.3133 233.895 91.8452 233.135 91.3835C232.443 90.9542 232.223 90.3695 232.561 89.8352C232.886 89.328 233.494 89.2372 234.152 89.6337C235.699 90.5699 237.247 91.506 238.794 92.4422C239.466 92.8452 239.665 93.4035 239.36 93.9371C239.05 94.4842 238.428 94.5686 237.729 94.1527C236.969 93.6911 236.196 93.223 235.435 92.7614L235.429 92.7749Z" fill="#CCCCCD"/>
<path d="M229.451 62.5152C229.01 63.2317 228.562 63.9618 228.134 64.6849C227.979 64.9417 227.782 65.1458 227.544 65.2971C227.12 65.5586 226.729 65.4717 226.375 65.1702C226.013 64.8488 225.924 64.4424 226.17 64.0302C227.214 62.2932 228.265 60.5428 229.336 58.8187C229.667 58.298 230.13 58.3368 230.613 58.6494C231.095 58.9621 231.26 59.4875 230.949 60.0347C230.47 60.8656 229.964 61.6836 229.471 62.5081L229.451 62.5152Z" fill="#CCCCCD"/>
<path d="M210.887 101.949L210.833 101.923L210.779 101.897C210.858 101.869 210.918 101.848 210.998 101.82C210.959 101.867 210.926 101.901 210.873 101.942L210.887 101.949Z" fill="#CCCCCD"/>
<path d="M205.133 98.5443C206.175 95.6972 207.236 92.8431 208.291 90.0024C208.355 89.8341 208.473 89.6916 208.523 89.5169C208.706 88.9586 208.737 88.1956 209.202 87.9535C209.666 87.7113 210.381 87.9196 210.97 87.9027C211.573 87.8922 212.161 87.8084 212.749 88.0055C210.504 91.7028 208.274 95.4066 206.036 99.0904C205.724 98.9085 205.432 98.7197 205.12 98.5378L205.133 98.5443Z" fill="#FCCA36"/>
<path d="M206.05 99.097C208.294 95.3997 210.525 91.6959 212.762 88.0121C213.524 88.8884 213.868 89.9792 214.385 90.9868C214.545 91.3117 214.181 91.833 213.89 92.0254C213.135 92.4933 212.748 93.2691 212.151 93.8613C211.717 94.2835 211.29 94.7257 210.849 95.1279C210.355 95.5712 210.066 96.1781 209.579 96.608C208.663 97.413 208.001 98.4545 207.181 99.3382C207.089 99.4267 206.983 99.5088 206.878 99.5909C206.606 99.4284 206.335 99.2659 206.063 99.1035L206.05 99.097Z" fill="#F9BC15"/>
<path d="M356.464 93.7702C356.464 93.7702 387.478 136.792 354.692 156.572C321.907 176.355 323.256 147.72 323.256 147.72L343.86 93.7702H356.46H356.464Z" fill="black"/>
<path d="M322.915 137.779C322.915 137.779 305.965 140.204 294.994 160.154C284.019 180.105 274.805 235.109 276.488 236.846C278.168 238.582 314.774 243.794 345.12 243.794C375.466 243.794 384.975 242.637 387.904 240.9C390.829 239.164 378.317 158.61 361.513 151.14C344.708 143.669 340.952 131.807 322.919 137.783L322.915 137.779Z" fill="#6876AA"/>
<path d="M318.697 138.667C318.697 138.667 292.068 180.41 286.809 207.422C281.551 234.435 280.529 253.554 280.529 253.554L377.284 254.154L379.016 180.666L352.558 139.37L340.589 133.305L318.7 138.663L318.697 138.667Z" fill="#C3391D"/>
<path d="M318.697 138.667C318.697 138.667 305.116 188.924 302.247 206.482C299.378 224.039 298.786 240.819 298.786 240.819L281.033 238.166L287.811 196.955L312.04 144.227L318.693 138.663L318.697 138.667Z" fill="#DEEBF7"/>
<path d="M318.697 138.667C318.697 138.667 301.31 135.223 281.228 153.547C261.143 171.871 238.881 215.94 248.176 233.419C258.146 252.173 291.493 253.309 291.493 253.309L293.211 215.194L303.202 159.874L318.7 138.663L318.697 138.667Z" fill="#DEEBF7"/>
<path d="M322.826 143.463C320.387 143.463 318.757 143.204 318.58 143.172C318.196 143.108 317.941 142.746 318.004 142.363C318.068 141.979 318.427 141.724 318.814 141.787C318.931 141.805 330.481 143.634 339.194 137.048C339.503 136.813 339.943 136.874 340.177 137.186C340.412 137.495 340.351 137.935 340.039 138.169C334.138 142.632 327.186 143.463 322.826 143.463Z" fill="#465884"/>
<path d="M289.618 217.698C289.444 217.698 289.27 217.641 289.128 217.524C289.018 217.431 277.834 208.385 267.882 203.293C267.499 203.098 267.346 202.626 267.541 202.242C267.74 201.859 268.209 201.71 268.592 201.901C278.693 207.067 290.002 216.221 290.115 216.313C290.449 216.583 290.499 217.076 290.229 217.41C290.073 217.602 289.849 217.698 289.622 217.698H289.618Z" fill="#70A1D7"/>
<path d="M341.527 123.378L341.317 141.734C341.317 141.734 337.948 146.975 327.2 147.724C319.194 148.281 316.708 144.145 316.708 144.145L318.828 128.104L338.267 124.06L341.527 123.378Z" fill="#F48462"/>
<path d="M338.264 124.06C338.21 124.56 338.015 125.15 337.71 125.824C333.499 134.946 322.247 136.795 317.621 137.158L318.824 128.104L338.264 124.06Z" fill="black"/>
<path d="M315.21 86.2183C315.21 86.2183 305.315 109.123 308.965 121.954C312.615 134.786 324.31 132.716 331.305 130.202C338.296 127.688 341.53 123.382 341.53 123.382C341.53 123.382 348.081 125.572 352.43 119.472C356.78 113.373 354.056 106.399 350.318 104.812C346.575 103.229 342.148 105.941 342.148 105.941L345.603 99.2842C345.603 99.2842 330.818 65.5756 315.217 86.2183H315.21Z" fill="#F48462"/>
<path d="M342.961 115.769C342.738 115.769 342.518 115.673 342.361 115.489C342.084 115.159 342.127 114.665 342.457 114.388L349.768 108.267C350.098 107.99 350.592 108.036 350.868 108.363C351.145 108.693 351.103 109.187 350.773 109.464L343.462 115.585C343.316 115.705 343.139 115.766 342.961 115.766V115.769Z" fill="black"/>
<path d="M350.353 115.67C350.24 115.67 350.126 115.645 350.019 115.595L345.382 113.387C344.992 113.202 344.829 112.737 345.013 112.347C345.198 111.956 345.663 111.793 346.053 111.977L350.69 114.186C351.081 114.37 351.244 114.835 351.06 115.226C350.925 115.506 350.648 115.67 350.353 115.67Z" fill="black"/>
<path d="M342.145 105.945C342.145 105.945 334.11 105.182 329.008 98.6025C323.906 92.0234 321.495 85.2845 321.495 85.2845C321.495 85.2845 318.104 85.8668 315.945 88.5829C314.358 90.5783 312.494 93.4755 312.494 93.4755C312.494 93.4755 312.264 84.2193 316.897 79.6498C321.534 75.0838 325.539 76.639 325.539 76.639C325.539 76.639 335.736 70.7735 346.178 79.9339C356.62 89.0978 351.827 105.81 351.827 105.81C351.827 105.81 346.551 103.74 342.141 105.941L342.145 105.945Z" fill="black"/>
<path d="M315.594 114.338C315.246 114.338 314.93 114.108 314.841 113.756C313.456 108.462 317.522 105.178 317.699 105.043C318.036 104.777 318.526 104.834 318.796 105.174C319.063 105.512 319.006 106.002 318.668 106.268C318.526 106.382 315.232 109.073 316.354 113.362C316.464 113.777 316.212 114.207 315.796 114.314C315.729 114.331 315.665 114.338 315.597 114.338H315.594Z" fill="black"/>
<path d="M312.019 106.165C311.969 106.165 311.919 106.162 311.87 106.151C311.447 106.069 311.17 105.661 311.252 105.238L312.335 99.618L311.426 98.5564C311.145 98.2297 311.184 97.7362 311.511 97.4557C311.838 97.1752 312.331 97.2143 312.612 97.5409L313.766 98.8866C313.922 99.0676 313.986 99.3091 313.94 99.5434L312.786 105.533C312.715 105.906 312.388 106.165 312.019 106.165Z" fill="black"/>
<path d="M325.166 107.905C325.123 107.905 325.077 107.901 325.031 107.894C324.605 107.82 324.321 107.418 324.395 106.992L325.393 101.209L324.257 99.6534C324.001 99.3055 324.079 98.8191 324.427 98.5634C324.775 98.3113 325.262 98.3859 325.517 98.7339L326.849 100.555C326.973 100.726 327.023 100.939 326.987 101.148L325.933 107.255C325.869 107.635 325.539 107.901 325.166 107.901V107.905Z" fill="black"/>
<path d="M312.175 95.2188C311.802 95.2188 311.472 94.949 311.408 94.5691C311.337 94.143 311.621 93.7418 312.047 93.6672L315.988 92.9962C316.411 92.9252 316.815 93.2092 316.89 93.6353C316.961 94.0613 316.677 94.4625 316.251 94.5371L312.31 95.2081C312.267 95.2152 312.221 95.2188 312.178 95.2188H312.175Z" fill="black"/>
<path d="M329.466 96.8165C329.398 96.8165 329.331 96.8094 329.26 96.7881L321.857 94.7821C321.442 94.6684 321.197 94.2424 321.307 93.8234C321.42 93.408 321.846 93.163 322.265 93.2731L329.668 95.2791C330.083 95.3928 330.328 95.8188 330.218 96.2378C330.123 96.5857 329.81 96.813 329.466 96.813V96.8165Z" fill="black"/>
<path d="M319.084 122.821C316.222 122.821 314.688 119.33 314.621 119.174C314.525 118.954 314.539 118.698 314.656 118.485C314.773 118.276 314.983 118.13 315.221 118.095L323.138 116.895C323.408 116.852 323.682 116.955 323.855 117.168C324.029 117.378 324.083 117.665 323.994 117.921C323.831 118.397 322.297 122.583 319.357 122.81C319.265 122.817 319.172 122.821 319.084 122.821ZM316.566 119.469C317.106 120.285 318.033 121.344 319.24 121.251C320.394 121.162 321.37 119.803 321.974 118.649L316.566 119.469Z" fill="black"/>
<path d="M343.718 83.4879C343.718 83.4879 342.944 60.3847 360.65 65.8312C378.357 71.2777 366.48 91.228 356.02 95.6413C345.557 100.051 341.2 90.5463 341.2 90.5463L343.721 83.4879H343.718Z" fill="black"/>
<path d="M320.696 187.057C320.696 187.057 314.631 155.294 311.503 151.853C308.375 148.413 287.804 139.33 285.183 141.83C282.563 144.33 285.23 147.468 285.23 147.468C285.23 147.468 281.317 145.235 279.847 147.575C278.374 149.915 281.228 153.55 281.228 153.55C281.228 153.55 278.107 151.587 278.523 155.94C278.938 160.293 287.477 168.26 287.477 168.26C287.477 168.26 287.971 177.158 293.438 186.719C298.906 196.281 315.558 196.71 315.558 196.71L320.699 187.057H320.696Z" fill="#F48462"/>
<path d="M301.59 156.256C301.47 156.256 301.345 156.227 301.228 156.167L284.921 147.664C284.537 147.465 284.392 146.992 284.591 146.609C284.789 146.226 285.262 146.08 285.645 146.279L301.953 154.782C302.336 154.981 302.482 155.453 302.283 155.837C302.144 156.103 301.871 156.256 301.59 156.256Z" fill="black"/>
<path d="M297.181 164.319C297.039 164.319 296.897 164.28 296.769 164.198L280.813 154.211C280.448 153.983 280.337 153.501 280.565 153.135C280.792 152.769 281.275 152.663 281.64 152.886L297.597 162.878C297.962 163.105 298.072 163.588 297.845 163.953C297.696 164.191 297.444 164.319 297.185 164.319H297.181Z" fill="black"/>
<path d="M292.285 196.959C292.285 196.959 325.549 259.196 369.807 255.841C414.064 252.486 396.414 179.27 382.514 159.512C368.614 139.753 341.523 133.579 341.523 133.579L340.586 184.372L325.802 171.775L292.285 196.959Z" fill="#DEEBF7"/>
<path d="M368.532 210.87C368.344 210.87 368.152 210.802 368.003 210.664L340.057 184.948C339.741 184.656 339.719 184.163 340.01 183.843C340.302 183.527 340.799 183.51 341.111 183.797L369.057 209.514C369.373 209.805 369.395 210.298 369.103 210.618C368.951 210.785 368.741 210.87 368.528 210.87H368.532Z" fill="#70A1D7"/>
<path d="M370.46 199.938C363.568 199.938 354.003 197.154 353.467 196.998C353.126 196.899 352.899 196.583 352.906 196.231C352.913 195.88 353.162 195.574 353.503 195.493C355.494 195.013 373.066 190.912 376.801 194.222C377.426 194.772 377.703 195.507 377.607 196.338C377.49 197.357 376.968 198.18 376.063 198.784C374.799 199.622 372.778 199.938 370.456 199.938H370.46ZM356.957 196.32C362.755 197.758 372.161 199.501 375.203 197.481C375.725 197.136 375.999 196.718 376.063 196.157C376.102 195.83 376.013 195.599 375.772 195.386C373.726 193.575 364.168 194.825 356.957 196.316V196.32Z" fill="#70A1D7"/>
<path d="M212.083 185.537L237.654 252.67L203.413 251.268L193.166 199.239L212.083 185.537Z" fill="#F48462"/>
<path d="M71.0036 207.025C71.0036 207.025 78.1614 160.584 105.831 142.473C133.5 124.362 180.686 135.78 194.388 144.298C212.343 155.464 225.543 200.535 225.543 200.535L204.084 220.776L207.567 251.644L110.255 251.801L112.033 206.783L71 207.021L71.0036 207.025Z" fill="#F5B400"/>
<path d="M173.656 85.2101C173.656 85.2101 180.306 67.216 170.557 61.5849C165.525 58.677 155.485 67.5569 155.485 67.5569C155.485 67.5569 138.694 70.1594 134.405 78.2759C130.116 86.3924 134.551 98.0594 134.551 98.0594C134.551 98.0594 140.672 95.5243 144.506 96.3942C148.341 97.2641 173.656 85.2101 173.656 85.2101Z" fill="black"/>
<path d="M143.928 117.321L144.506 134.424C144.506 134.424 148.121 139.299 159.341 139.98C167.698 140.488 170.567 138.77 170.567 138.77L169.112 130.121L167.681 121.688L147.34 117.953L143.928 117.321Z" fill="#F48462"/>
<path d="M147.336 117.996C147.397 118.518 147.61 119.128 147.933 119.831C152.428 129.3 164.187 131.101 169.012 131.424L167.656 121.993L147.336 117.996Z" fill="black"/>
<path d="M170.958 78.2652C170.958 78.2652 181.538 102.043 177.874 115.468C174.21 128.892 161.989 126.865 154.668 124.323C147.347 121.78 143.928 117.325 143.928 117.325C143.928 117.325 137.121 119.682 132.516 113.369C127.911 107.056 130.67 99.7494 134.554 98.0558C138.439 96.3587 143.09 99.1423 143.09 99.1423L139.411 92.2365C139.411 92.2365 154.451 56.9124 170.958 78.2652Z" fill="#F48462"/>
<path d="M142.071 110.351C141.865 110.351 141.655 110.27 141.503 110.106L135.023 103.24C134.728 102.927 134.743 102.434 135.055 102.135C135.367 101.841 135.861 101.855 136.159 102.167L142.639 109.031C142.934 109.343 142.919 109.837 142.607 110.135C142.458 110.277 142.263 110.348 142.071 110.348V110.351Z" fill="black"/>
<path d="M135.215 108.512C134.835 108.512 134.504 108.235 134.444 107.848C134.38 107.422 134.671 107.024 135.097 106.961L139.578 106.282C140.008 106.215 140.402 106.51 140.466 106.936C140.53 107.362 140.239 107.759 139.812 107.823L135.332 108.501C135.293 108.509 135.254 108.512 135.215 108.512Z" fill="black"/>
<path d="M159.468 101.408C159.081 101.408 158.744 101.12 158.694 100.726L157.909 94.5763C157.856 94.1503 158.158 93.7597 158.584 93.7029C159.021 93.6461 159.401 93.9514 159.457 94.3775L160.242 100.527C160.295 100.953 159.994 101.344 159.567 101.4C159.532 101.404 159.5 101.408 159.468 101.408Z" fill="black"/>
<path d="M172.68 100.247C172.3 100.247 171.966 99.9661 171.91 99.5791L171.022 93.5432C170.958 93.1171 171.253 92.7195 171.679 92.6591C172.112 92.5952 172.502 92.8899 172.563 93.3159L173.45 99.3518C173.514 99.7779 173.22 100.176 172.794 100.236C172.755 100.243 172.715 100.243 172.68 100.243V100.247Z" fill="black"/>
<path d="M155.112 91.182C154.991 91.182 154.87 91.1536 154.757 91.0968C154.373 90.898 154.224 90.4293 154.419 90.0459C156.042 86.8895 160.04 87.7132 160.21 87.7522C160.633 87.8445 160.899 88.26 160.807 88.6789C160.715 89.0979 160.306 89.3642 159.88 89.2754C159.759 89.2506 156.88 88.6718 155.804 90.7595C155.666 91.0294 155.392 91.182 155.108 91.182H155.112Z" fill="black"/>
<path d="M174.537 89.8613C174.331 89.8613 174.128 89.7832 173.976 89.6234C173.894 89.5417 171.973 87.5961 169.552 88.473C169.143 88.6186 168.7 88.4091 168.554 88.0044C168.408 87.5996 168.618 87.1522 169.023 87.0067C172.413 85.7817 174.995 88.434 175.105 88.5476C175.403 88.86 175.392 89.3536 175.08 89.6518C174.931 89.7974 174.736 89.8684 174.54 89.8684L174.537 89.8613Z" fill="black"/>
<path d="M166.676 113.65C166.097 113.65 162.408 113.511 159.454 110.081C159.174 109.755 159.209 109.261 159.536 108.981C159.862 108.697 160.356 108.736 160.636 109.062C163.282 112.13 166.555 112.084 166.704 112.091C167.137 112.091 167.492 112.421 167.503 112.851C167.514 113.28 167.176 113.639 166.75 113.653C166.74 113.653 166.715 113.653 166.679 113.653L166.676 113.65Z" fill="black"/>
<path d="M172.417 81.8442C172.417 81.8442 172.335 79.373 167.145 79.2665C161.954 79.16 158.875 82.7744 158.875 82.7744C158.875 82.7744 159.802 90.1098 153.038 95.1764C146.992 99.7069 141.346 99.2666 141.346 99.2666L134.547 98.0523L133.656 89.2435L145.227 72.1122L170.003 64.2194L172.41 81.8407L172.417 81.8442Z" fill="black"/>
<path d="M174.756 104.202C170.993 104.202 167.723 100.925 167.325 96.6143C166.906 92.0732 169.825 88.0789 173.833 87.7096C177.842 87.3368 181.446 90.7311 181.865 95.2687C182.284 99.8098 179.365 103.804 175.356 104.173C175.154 104.191 174.955 104.202 174.756 104.202ZM174.433 89.2435C174.281 89.2435 174.128 89.2506 173.975 89.2648C170.822 89.5559 168.536 92.7904 168.877 96.4723C169.218 100.154 172.051 102.906 175.211 102.622C178.364 102.331 180.65 99.0962 180.309 95.4143C179.986 91.9099 177.398 89.2435 174.433 89.2435Z" fill="#70A1D7"/>
<path d="M156.173 107.17C154.249 107.17 152.402 106.506 150.904 105.26C149.207 103.85 148.16 101.862 147.954 99.6607C147.751 97.4629 148.415 95.3149 149.825 93.6177C151.234 91.9206 153.223 90.8732 155.424 90.6672C159.961 90.2341 163.998 93.6 164.417 98.1375C164.836 102.679 161.485 106.712 156.947 107.131C156.688 107.156 156.429 107.167 156.17 107.167L156.173 107.17ZM156.194 92.194C155.988 92.194 155.783 92.2046 155.573 92.2224C153.787 92.3857 152.175 93.2378 151.032 94.6154C149.889 95.993 149.349 97.7363 149.512 99.5187C149.676 101.301 150.528 102.917 151.905 104.06C153.283 105.203 155.033 105.743 156.809 105.579C160.491 105.239 163.21 101.965 162.869 98.2831C162.55 94.8107 159.617 92.194 156.194 92.194Z" fill="#70A1D7"/>
<path d="M163.26 97.2322C162.965 97.2322 162.681 97.0618 162.55 96.7778C162.372 96.3872 162.543 95.9221 162.933 95.7446C163.249 95.599 166.079 94.3563 167.918 95.3753C168.295 95.5848 168.43 96.0606 168.22 96.4369C168.011 96.8133 167.535 96.9482 167.159 96.7387C166.189 96.199 164.201 96.8807 163.583 97.1612C163.477 97.2109 163.37 97.2322 163.26 97.2322Z" fill="#70A1D7"/>
<path d="M148.735 100.371C148.593 100.371 148.447 100.332 148.316 100.25C143.693 97.3067 134.245 98.8157 134.149 98.8299C133.72 98.9009 133.322 98.6098 133.254 98.1872C133.183 97.7612 133.471 97.36 133.897 97.2925C134.309 97.2251 144.027 95.677 149.154 98.9364C149.516 99.1672 149.626 99.6501 149.392 100.012C149.242 100.247 148.99 100.374 148.731 100.374L148.735 100.371Z" fill="#70A1D7"/>
<path d="M168.48 106.339C168.405 106.339 168.327 106.329 168.249 106.304C167.837 106.176 167.606 105.739 167.734 105.327C169.055 101.063 165.77 98.1695 165.735 98.1411C165.408 97.8606 165.373 97.367 165.653 97.0404C165.934 96.7137 166.427 96.6783 166.754 96.9587C166.921 97.1043 170.841 100.559 169.225 105.789C169.122 106.123 168.813 106.339 168.48 106.339Z" fill="black"/>
<path d="M145.586 231.254L180.753 252.717C182.032 253.498 184.02 253.167 185.199 251.985L232.715 204.089C233.891 202.903 233.805 201.312 232.527 200.531L197.359 179.068C196.081 178.287 194.093 178.617 192.914 179.8L145.397 227.696C144.222 228.882 144.307 230.476 145.586 231.254Z" fill="#285A8F"/>
<path d="M149.697 233.75L184.865 255.213C186.144 255.994 188.132 255.664 189.311 254.481L236.827 206.585C238.002 205.399 237.921 203.808 236.639 203.027L201.471 181.564C200.193 180.783 198.205 181.113 197.026 182.296L149.509 230.192C148.334 231.378 148.416 232.969 149.697 233.75Z" fill="#508DCE"/>
<path d="M139.695 193.856C141.677 191.459 150.493 187.646 153.596 187.838C158.662 188.15 166.314 188.743 168.082 189.563C170.78 190.813 176.905 195.745 176.905 195.745L174.381 199.32C174.381 199.32 197.683 211.484 195.797 216.281C194.512 219.548 184.176 214.868 184.176 214.868C184.176 214.868 194.516 220.599 192.719 224.181C190.922 227.763 177.601 222.125 177.601 222.125C177.601 222.125 187.876 228.715 182.426 230.338C176.976 231.957 139.848 221.752 137.899 210.82C136.617 203.631 135.985 198.344 139.695 193.86V193.856Z" fill="#F48462"/>
<path d="M74.76 207.291C74.76 207.291 66.8281 237.439 94.4441 241.529C122.064 245.619 146.924 218.042 146.924 218.042L150.365 190.249L98.7153 206.865L74.76 207.291Z" fill="#F48462"/>
<path d="M184.176 215.649C184.056 215.649 183.935 215.621 183.821 215.564L168.472 207.746C168.089 207.55 167.936 207.082 168.132 206.698C168.327 206.315 168.799 206.162 169.183 206.357L184.531 214.176C184.915 214.371 185.068 214.84 184.872 215.223C184.734 215.493 184.46 215.649 184.176 215.649Z" fill="black"/>
<path d="M177.601 222.903C177.484 222.903 177.363 222.878 177.249 222.818L162.905 215.564C162.522 215.369 162.366 214.9 162.561 214.517C162.756 214.133 163.225 213.973 163.608 214.172L177.952 221.426C178.336 221.621 178.492 222.09 178.297 222.473C178.158 222.747 177.885 222.903 177.601 222.903Z" fill="black"/>
</g>
</svg>
