<svg width="80" height="80" viewBox="0 0 80 80" fill="none" xmlns="http://www.w3.org/2000/svg">
<mask id="mask0_143_586" style="mask-type:alpha" maskUnits="userSpaceOnUse" x="0" y="0" width="80" height="80">
<rect width="80" height="80" fill="#D9D9D9"/>
</mask>
<g mask="url(#mask0_143_586)">
<path d="M40.125 46.9535C40.125 46.9535 31.7275 46.4208 26.9221 50.703C22.1167 54.9851 19.6625 91.1888 19.6625 91.1888C19.6625 91.1888 33.1739 91.4142 41.969 91.6601C48.3649 91.8445 59.8129 91.1888 59.8129 91.1888C59.8129 91.1888 56.1865 54.1178 54.0957 49.5898C52.0049 45.0618 40.1182 46.9535 40.1182 46.9535H40.125Z" fill="#D8E7EF"/>
<path d="M53.4855 48.6807C53.4855 48.6807 58.1539 51.0574 64.2823 62.4628C69.883 72.8916 72.4262 84.3585 67.0038 87.7801C53.1634 96.5083 35.628 83.6345 35.628 83.6345L53.4855 48.6807Z" fill="#D8E7EF"/>
<path d="M42.353 28.9298C42.353 28.9298 49.1533 29.9474 50.2021 23.4525C51.3195 16.5409 44.9305 15.2228 41.9074 17.7566C38.8843 20.2904 39.0968 23.1998 39.0968 23.1998C39.0968 23.1998 37.3625 21.2943 35.0592 23.1861C33.3728 24.5794 33.9075 27.1883 33.9075 27.1883C33.9075 27.1883 30.3977 26.6966 30.4114 29.7972C30.4251 32.8978 32.4748 34.6735 32.4748 34.6735L42.353 28.923V28.9298Z" fill="black"/>
<path d="M34.8811 40.3286L34.8536 47.6363C34.8536 47.6363 36.1698 49.7398 40.4611 50.1018C43.6556 50.3681 44.7798 49.6578 44.7798 49.6578L44.348 45.9562L43.9229 42.3433L36.1835 40.6223L34.8879 40.3286H34.8811Z" fill="#F48462"/>
<path d="M36.1836 40.6147C36.2042 40.8128 36.2796 41.0518 36.3961 41.3182C38.0276 44.972 42.5109 45.7779 44.3549 45.9487L43.9299 42.3358L36.1904 40.6147H36.1836Z" fill="black"/>
<path d="M45.616 25.6921C45.616 25.6921 49.4343 34.8643 47.8988 39.9523C46.3632 45.0336 41.7017 44.1457 38.9254 43.1008C36.1491 42.0627 34.8809 40.328 34.8809 40.328C34.8809 40.328 32.2486 41.1612 30.5485 38.7093C28.8484 36.2575 29.9727 33.4984 31.4808 32.8905C32.9821 32.2827 34.737 33.3891 34.737 33.3891L33.3934 30.7187C33.3934 30.7187 39.4944 17.3942 45.6092 25.699L45.616 25.6921Z" fill="#F48462"/>
<path d="M34.4557 37.2961C34.4009 37.2961 34.346 37.2824 34.298 37.2482L31.001 34.8715C30.8844 34.7896 30.857 34.6189 30.9393 34.5028C31.0215 34.3866 31.1929 34.3593 31.3094 34.4413L34.6065 36.818C34.723 36.8999 34.7505 37.0707 34.6682 37.1868C34.6134 37.2551 34.538 37.2961 34.4557 37.2961Z" fill="black"/>
<path d="M31.4465 37.2484C31.33 37.2484 31.2203 37.1665 31.1929 37.0504C31.1586 36.9069 31.2408 36.7635 31.3848 36.7294L33.5646 36.1762C33.7085 36.142 33.8525 36.224 33.8867 36.3674C33.921 36.5108 33.8388 36.6542 33.6948 36.6884L31.515 37.2416C31.515 37.2416 31.4739 37.2484 31.4465 37.2484Z" fill="black"/>
<path d="M39.4604 29.4962C39.4055 29.4962 39.3438 29.4757 39.2959 29.4416C39.1793 29.3528 39.1588 29.1889 39.2479 29.0728C40.4817 27.4883 42.0789 28.3352 42.0994 28.342C42.2297 28.4103 42.2776 28.5742 42.2022 28.6971C42.1337 28.8269 41.976 28.8747 41.8458 28.7996C41.791 28.7723 40.6188 28.1713 39.666 29.3869C39.6112 29.4552 39.5358 29.4894 39.4604 29.4894V29.4962Z" fill="black"/>
<path d="M47.0485 29.906C46.9868 29.906 46.9319 29.8855 46.8771 29.8445C46.082 29.1888 45.2388 29.6669 45.232 29.6737C45.1086 29.7489 44.9441 29.7079 44.8687 29.5781C44.7933 29.4552 44.8344 29.2913 44.9647 29.2162C45.0126 29.1888 46.1437 28.5469 47.2198 29.4347C47.3295 29.5303 47.3501 29.6942 47.2541 29.8035C47.1993 29.865 47.1239 29.8991 47.0485 29.8991V29.906Z" fill="black"/>
<path d="M44.7589 37.3162C44.7589 37.3162 44.7109 37.3162 44.6835 37.3025C44.5464 37.2615 44.4642 37.1113 44.5053 36.9747C45.3073 34.3111 43.9021 32.3647 43.8884 32.3442C43.7993 32.2281 43.8267 32.0642 43.9432 31.9754C44.0598 31.8866 44.2243 31.9139 44.3134 32.03C44.3819 32.1188 45.8968 34.2019 45.0126 37.1249C44.9783 37.241 44.8755 37.3093 44.7589 37.3093V37.3162Z" fill="black"/>
<path d="M46.5277 32.6864C46.4112 32.6864 46.3015 32.6112 46.2741 32.4883L45.8217 30.8082C45.7805 30.6648 45.8697 30.5214 46.0068 30.4872C46.1507 30.4531 46.2946 30.535 46.3289 30.6716L46.7813 32.3517C46.8225 32.4951 46.7333 32.6386 46.5963 32.6727C46.5757 32.6727 46.5483 32.6795 46.5277 32.6795V32.6864Z" fill="black"/>
<path d="M41.8868 33.0687C41.7702 33.0687 41.6606 32.9936 41.6332 32.8706L41.1807 31.1905C41.1396 31.0471 41.2287 30.9037 41.3658 30.8696C41.5098 30.8354 41.6537 30.9174 41.688 31.054L42.1404 32.734C42.1815 32.8775 42.0924 33.0209 41.9553 33.055C41.9348 33.055 41.9073 33.0619 41.8868 33.0619V33.0687Z" fill="black"/>
<path d="M46.3772 27.7549C46.3772 27.7549 45.5889 26.2866 43.7585 26.2661C41.9282 26.2456 40.8588 27.5296 40.8588 27.5296C40.8588 27.5296 41.654 30.6029 39.1588 32.2215C36.6635 33.8469 34.7441 33.3825 34.7441 33.3825L32.9412 32.7337L31.625 30.1043L36.8623 24.5177L43.6283 20.9868L47.0627 24.1148L46.3772 27.7618V27.7549Z" fill="black"/>
<path d="M34.9494 47.2809C34.9494 47.2809 22.5554 45.1296 14.9119 56.9379C8.42016 66.9638 8.1391 76.4091 8.1391 76.4091L27.7447 74.77L34.9494 47.2809Z" fill="#D8E7EF"/>
<path d="M8.13915 76.4093C8.13915 76.4093 7.61131 91.4071 19.8134 90.3826C33.6744 89.2148 40.79 62.2037 40.79 62.2037L45.047 59.8475C45.047 59.8475 44.0599 63.1394 47.4532 61.5412C50.8465 59.9431 50.394 56.5352 50.394 56.5352L46.9596 49.5143C46.9596 49.5143 52.9578 44.4195 51.2989 44.0438C48.7351 43.4633 40.3376 48.5377 40.3376 48.5377C40.3376 48.5377 40.982 45.2185 39.0762 45.6556C37.0129 46.1337 35.9298 52.2667 35.9298 52.2667L12.8966 75.5351L8.13915 76.4024V76.4093Z" fill="#F48462"/>
<path d="M45.0473 60.1069C44.965 60.1069 44.8896 60.0727 44.8348 60.0044C44.7594 59.9088 44.7594 59.779 44.8348 59.6834L46.4731 57.5867C46.5622 57.4706 46.7267 57.4502 46.8432 57.5389C46.9598 57.6277 46.9803 57.7916 46.8912 57.9077L45.8699 59.219L47.2682 58.6453C47.4053 58.5907 47.5561 58.6522 47.6109 58.7888C47.6658 58.9253 47.6041 59.0756 47.467 59.1302L45.1433 60.0864C45.1433 60.0864 45.0747 60.1069 45.0404 60.1069H45.0473Z" fill="black"/>
<path d="M45.4378 50.7019C45.3486 50.7019 45.2595 50.6541 45.2115 50.579C45.1361 50.4561 45.1773 50.2921 45.3007 50.217L46.8224 49.2882C46.9458 49.2131 47.1103 49.254 47.1857 49.377C47.2611 49.4999 47.22 49.6638 47.0966 49.7389L45.5748 50.6678C45.5337 50.6951 45.4857 50.7088 45.4378 50.7088V50.7019Z" fill="black"/>
<path d="M34.7027 52.3418L42.8809 63.9248C42.8809 63.9248 37.3968 83.3277 26.3738 89.3036C15.3508 95.2795 6.7956 86.9337 8.1392 76.4093C9.4828 65.8849 34.7027 52.3486 34.7027 52.3486V52.3418Z" fill="#D8E7EF"/>
<path d="M43.2166 39.5773C43.1686 39.5773 43.1206 39.5637 43.0795 39.5364L41.4001 38.5324C41.2767 38.4573 41.2356 38.2934 41.311 38.1704C41.3864 38.0475 41.5509 38.0065 41.6743 38.0817L43.3537 39.0856C43.477 39.1607 43.5182 39.3246 43.4428 39.4476C43.3948 39.5295 43.3057 39.5773 43.2166 39.5773Z" fill="black"/>
<path d="M40.3375 48.7973C40.269 48.7973 40.2073 48.7699 40.1524 48.7221C40.0702 48.6402 40.0496 48.5172 40.1044 48.4148C40.1113 48.3943 41.023 46.605 39.9125 45.2868C39.7411 45.082 39.5972 45.0751 39.5081 45.0888C38.7883 45.2049 37.7944 47.1035 37.3352 48.2714C37.2803 48.408 37.1295 48.4763 36.9924 48.4216C36.8553 48.367 36.7868 48.2167 36.8416 48.0802C36.9719 47.7455 38.1714 44.7746 39.419 44.5697C39.652 44.5356 39.9948 44.5697 40.3169 44.9522C41.1875 45.9903 41.0572 47.206 40.8447 47.9572L43.4221 46.5162C43.5523 46.4479 43.71 46.4889 43.7785 46.6186C43.8471 46.7484 43.806 46.9055 43.6757 46.9738L40.4677 48.7699C40.4266 48.7904 40.3855 48.8041 40.3375 48.8041V48.7973Z" fill="black"/>
<path d="M26.3737 61.9167C26.3737 61.9167 21.5203 61.5479 19.217 62.3538C16.9137 63.1597 12.3893 68.7122 13.02 69.6137C13.6507 70.5152 15.2068 69.7435 15.2068 69.7435C15.2068 69.7435 14.2608 71.8128 16.1734 71.8743C18.0859 71.9358 26.3737 61.9167 26.3737 61.9167Z" fill="#F48462"/>
<path d="M63.6108 72.6803C63.5628 72.6803 63.508 72.6666 63.4669 72.6393C57.4755 68.7328 42.833 67.3669 42.6822 67.3532C42.5382 67.3395 42.4285 67.2098 42.4423 67.0664C42.456 66.9229 42.5862 66.8137 42.7302 66.8273C43.3334 66.882 57.6469 68.2206 63.7548 72.2022C63.8782 72.2842 63.9125 72.4481 63.8302 72.5642C63.7822 72.6393 63.6931 72.6803 63.6108 72.6803Z" fill="#92B4EA"/>
<path d="M42.8878 64.1903C42.8055 64.1903 42.7164 64.1493 42.6684 64.0742L34.7096 52.2248L28.6223 59.0203C28.5263 59.1296 28.3549 59.1364 28.2521 59.0408C28.1424 58.9452 28.1356 58.7744 28.2315 58.672L34.5451 51.6238C34.5999 51.5624 34.6753 51.5282 34.7576 51.535C34.8399 51.535 34.9153 51.5828 34.9564 51.6511L43.1071 63.7805C43.1894 63.9034 43.1551 64.0674 43.0317 64.1425C42.9837 64.1698 42.9357 64.1903 42.8878 64.1903Z" fill="#92B4EA"/>
<path d="M57.3041 69.2726C55.5149 69.2726 53.2116 68.9448 52.245 68.7945C52.1285 68.7741 52.0393 68.6853 52.0256 68.5692C52.0119 68.4531 52.0736 68.3438 52.1833 68.296C52.4095 68.2004 57.7154 65.9944 59.4154 67.9067C59.7513 68.2823 59.7102 68.5623 59.6142 68.7331C59.388 69.1429 58.4489 69.2794 57.2972 69.2794L57.3041 69.2726ZM53.335 68.4189C56.3786 68.8287 58.9424 68.8628 59.1549 68.4736C59.1549 68.4667 59.1549 68.3916 59.0247 68.2482C58.0307 67.1281 55.1241 67.8043 53.335 68.4189Z" fill="#92B4EA"/>
<path d="M36.7319 49.3842C36.7319 49.3842 36.6976 49.3842 36.6839 49.3842C35.2924 49.111 34.7715 47.9158 34.6892 47.3217C34.6686 47.1783 34.7715 47.0417 34.9154 47.028C35.0594 47.0075 35.1896 47.11 35.2102 47.2534C35.217 47.3148 35.4227 48.6056 36.7867 48.872C36.9307 48.8993 37.0266 49.0359 36.9924 49.1793C36.965 49.3023 36.8553 49.391 36.7319 49.391V49.3842Z" fill="#92B4EA"/>
<path d="M15.0696 70.1259C15.001 70.1259 14.9325 70.0986 14.8845 70.0508C14.7817 69.9484 14.7817 69.7844 14.8845 69.682L19.3743 65.154C19.4771 65.0515 19.6416 65.0515 19.7513 65.154C19.8541 65.2564 19.8541 65.4203 19.7513 65.5228L15.2615 70.0508C15.2067 70.1054 15.145 70.1328 15.0764 70.1328L15.0696 70.1259Z" fill="black"/>
<path d="M56.0631 30.9279C55.7409 30.723 55.3708 30.5933 55.1377 30.2586C54.8773 29.8762 54.699 29.4869 54.7744 29.0156C55.9603 29.0976 57.1393 29.241 58.3252 29.3708C58.1744 30.3132 57.5711 30.7981 56.68 30.9894L56.07 30.9279H56.0631Z" fill="#F5B400"/>
<path d="M54.4662 24.3108C54.0343 23.2659 53.6298 22.2141 53.1706 21.1829C52.6084 19.9194 52.1286 18.6218 51.5596 17.3651C51.21 16.5934 51.066 15.7602 51.0455 14.9065C51.0249 13.9435 51.1826 13.0215 51.5665 12.1336C51.9503 11.2526 52.4713 10.4809 53.1568 9.79792C53.7053 9.25156 54.3565 8.87593 55.0214 8.50713C55.4807 8.25444 56.0017 8.05638 56.4816 7.99491C57.1945 7.90613 57.928 7.73539 58.6615 7.92662C58.3324 11.1707 58.0103 14.4147 57.6812 17.6656C57.455 17.6656 57.2699 17.7681 57.078 17.8637C56.6392 18.0822 56.2005 18.3008 55.7618 18.5125C55.6521 18.5671 55.5356 18.6627 55.4122 18.4988C55.0283 17.9798 54.4182 17.7339 53.9383 17.331C53.8286 17.2422 53.671 17.2422 53.5339 17.331C53.2048 17.529 53.2048 17.8568 53.5339 18.1232C53.9863 18.4852 54.4525 18.8335 54.9118 19.1886C55.0214 19.2706 55.1174 19.3594 55.1311 19.5028C55.1585 19.7691 55.1928 20.0423 55.2065 20.3087C55.2408 20.9438 55.3093 21.5721 55.3642 22.2005C55.419 22.8425 55.4807 23.4844 55.5424 24.1264C55.563 24.3176 55.5081 24.4406 55.2682 24.3996C54.994 24.3518 54.7198 24.3381 54.4456 24.3108H54.4662Z" fill="#FFEFC2"/>
<path d="M57.6948 17.6587C58.0239 14.4146 58.3461 11.1706 58.6751 7.91968C60.1627 8.0631 61.472 8.62996 62.5894 9.62708C63.7136 10.631 64.406 11.8672 64.7556 13.3287C64.9818 14.278 64.9133 15.2205 64.7556 16.1493C64.5842 17.1669 64.1249 18.0889 63.508 18.929C62.9595 19.6802 62.466 20.4656 61.945 21.2306C61.3829 22.0501 60.8002 22.856 60.2655 23.696C60.0393 24.0512 59.7651 24.3722 59.5868 24.7546C59.5594 24.7819 59.5388 24.8024 59.5114 24.8298C59.4909 24.8298 59.4703 24.8298 59.4566 24.8298C59.2852 24.8093 59.1138 24.7751 58.9425 24.7615C58.3735 24.7 58.3803 24.7068 58.5449 24.1536C58.9493 22.815 59.3469 21.4696 59.7445 20.1242C59.8062 19.9261 59.8953 19.7759 60.1078 19.6802C60.6425 19.4412 61.1635 19.168 61.6914 18.9085C61.8764 18.8197 61.9518 18.6626 61.945 18.4646C61.9381 18.2733 61.8147 18.1982 61.6639 18.1094C61.4514 17.9865 61.2869 18.0889 61.1155 18.1641C60.7728 18.3212 60.4026 18.4509 60.1078 18.6695C59.6348 19.0246 59.3195 18.8539 58.9287 18.526C58.5449 18.205 58.1884 17.8363 57.6948 17.6587Z" fill="#FFEFC2"/>
<path d="M59.4497 24.8226C59.4497 24.8226 59.4909 24.8226 59.5046 24.8226L59.532 24.8294H59.5594C59.861 24.8635 60.1695 24.8977 60.4711 24.9387C60.9167 25.0001 61.28 25.1914 61.4583 25.6285C61.6365 26.0656 61.5611 26.4685 61.28 26.8441C61.095 27.0968 60.7865 27.1378 60.526 27.2744C61.2321 27.609 61.5063 28.2305 61.2252 28.852C61.0264 29.2823 60.5328 29.5691 60.0324 29.5213C59.4634 29.4735 58.8876 29.4189 58.3186 29.3643C57.1396 29.2345 55.9605 29.0842 54.7677 29.0091C54.1713 28.9476 53.5681 28.8725 52.9717 28.8247C52.3136 28.7701 52.0394 28.2374 51.9434 27.7388C51.8611 27.3427 52.245 26.7827 52.6632 26.6188C52.7523 26.5846 52.8551 26.5573 52.9785 26.5231C52.7592 26.3934 52.5672 26.2704 52.4233 26.0724C52.0531 25.567 52.1422 24.9865 52.5535 24.5152C52.8071 24.2216 53.1156 24.2557 53.4241 24.2625C53.7737 24.2625 54.1165 24.3172 54.4592 24.3513C55.1447 24.4196 55.8234 24.4948 56.5089 24.563C56.6734 24.5767 56.8311 24.5972 56.9956 24.6109C57.1396 24.6245 57.2835 24.6382 57.4275 24.6518C58.0993 24.727 58.7711 24.8157 59.4429 24.8294L59.4497 24.8226Z" fill="#C35053"/>
<path d="M59.4499 24.8222C58.7712 24.8086 58.1063 24.7198 57.4345 24.6447C57.4619 24.59 57.4893 24.5354 57.5099 24.4808C57.6744 23.9549 57.7498 23.4017 57.9623 22.8826C58.0788 22.6094 58.0788 22.3021 58.1954 22.0221C58.3051 21.7694 58.3873 21.503 58.4833 21.2435C58.6135 20.8816 58.6204 20.4854 58.8398 20.144C58.922 20.0142 58.97 19.7205 58.8398 19.6181C58.4353 19.3039 58.072 18.9146 57.5853 18.7097C57.3042 18.7439 57.0711 18.8941 56.8312 19.0171C56.5913 19.14 56.2554 19.1946 56.1114 19.3859C55.9675 19.5771 56.1114 19.8981 56.1389 20.1644C56.1457 20.2464 56.1251 20.3284 56.1389 20.4103C56.2622 21.7899 56.3925 23.1763 56.5159 24.5559C55.8304 24.4876 55.1517 24.4125 54.4662 24.3442C54.4525 24.3305 54.4525 24.3237 54.4662 24.31C54.7404 24.3373 55.0215 24.351 55.2888 24.3988C55.5288 24.4398 55.5767 24.3237 55.563 24.1256C55.5082 23.4836 55.4465 22.8416 55.3848 22.1997C55.33 21.5713 55.2614 20.943 55.2271 20.3079C55.2134 20.0415 55.1723 19.7683 55.1517 19.502C55.138 19.3586 55.042 19.2698 54.9324 19.1878C54.4731 18.8395 54.0069 18.4844 53.5545 18.1224C53.2186 17.856 53.2254 17.5282 53.5545 17.3302C53.6916 17.2482 53.8492 17.2414 53.9589 17.3302C54.4388 17.7331 55.0489 17.979 55.4328 18.498C55.5493 18.6619 55.6727 18.5595 55.7824 18.5117C56.2211 18.3 56.6598 18.0746 57.0986 17.8629C57.2905 17.7673 57.4756 17.658 57.7018 17.6648C58.1885 17.8424 58.5519 18.2112 58.9357 18.5322C59.3265 18.86 59.6418 19.0307 60.1148 18.6756C60.4096 18.457 60.7798 18.3273 61.1225 18.1702C61.2939 18.0883 61.4584 17.9926 61.6709 18.1156C61.8217 18.2044 61.9451 18.2795 61.952 18.4707C61.9588 18.6756 61.8834 18.8258 61.6983 18.9146C61.1705 19.1742 60.6495 19.4473 60.1148 19.6864C59.9023 19.782 59.8132 19.9254 59.7515 20.1303C59.3539 21.4757 58.9563 22.8143 58.5518 24.1598C58.3873 24.713 58.3805 24.7061 58.9494 24.7676C59.1208 24.7881 59.2922 24.8154 59.4636 24.8359L59.4499 24.8222Z" fill="#F5B400"/>
<path d="M50.8055 5.5971C50.9974 5.5971 51.1277 5.67906 51.2373 5.80882C51.7651 6.45763 52.2998 7.09961 52.8276 7.74842C53.0264 8.00112 53.0195 8.21967 52.8276 8.39724C52.6151 8.59529 52.3889 8.59529 52.149 8.37675C51.9776 8.21967 51.8268 8.03527 51.6829 7.85087C51.2647 7.31133 50.7849 6.82643 50.4148 6.25274C50.3051 6.082 50.312 5.93175 50.4079 5.76784C50.5039 5.60393 50.641 5.54247 50.8055 5.5971Z" fill="#F5B400"/>
<path d="M64.6185 9.73687C64.4402 9.73687 64.3032 9.6754 64.2483 9.491C64.1729 9.2588 64.2278 9.06757 64.4128 8.91732C64.8241 8.57584 65.2354 8.24119 65.6467 7.90654C65.9071 7.69482 66.1676 7.4831 66.4281 7.26455C66.6337 7.09381 66.8668 7.14162 67.0587 7.24406C67.2986 7.367 67.2986 7.76994 67.0587 7.95434C66.3458 8.49388 65.7221 9.14952 64.9681 9.64808C64.8584 9.72321 64.7556 9.77101 64.6253 9.7437L64.6185 9.73687Z" fill="#F5B400"/>
<path d="M48.0769 13.3218C48.5019 13.3628 48.9338 13.4038 49.3587 13.4516C49.6672 13.4857 49.866 13.6838 49.8454 13.9296C49.8249 14.2028 49.6055 14.3872 49.2833 14.3599C48.4059 14.2848 47.5286 14.196 46.658 14.1004C46.3701 14.0662 46.2056 13.8272 46.2467 13.554C46.281 13.3218 46.4935 13.1647 46.7608 13.192C47.1995 13.233 47.6382 13.2808 48.0769 13.3218Z" fill="#F5B400"/>
<path d="M67.8814 16.2175C67.477 16.1765 67.0657 16.1356 66.6613 16.0946C66.2912 16.0536 66.0855 15.8556 66.1198 15.5687C66.1541 15.2955 66.3871 15.1384 66.7367 15.1726C67.5593 15.2546 68.3818 15.3365 69.2044 15.4185C69.5608 15.4526 69.7528 15.6438 69.7322 15.9239C69.7116 16.2107 69.4717 16.3678 69.1016 16.3336C68.6971 16.2927 68.2859 16.2517 67.8814 16.2107V16.2175Z" fill="#F5B400"/>
<path d="M59.4634 4.90759C59.4223 5.29005 59.3812 5.67933 59.3469 6.06179C59.3332 6.19838 59.292 6.32132 59.2235 6.43059C59.1001 6.62182 58.9219 6.6628 58.7163 6.60816C58.5038 6.54669 58.3872 6.39644 58.4078 6.1779C58.4969 5.2559 58.586 4.32707 58.6888 3.40508C58.7231 3.12507 58.9219 3.04994 59.1824 3.08409C59.4428 3.11824 59.6142 3.30263 59.5936 3.58948C59.5594 4.02657 59.5114 4.46367 59.4703 4.90076L59.4634 4.90759Z" fill="#F5B400"/>
<path d="M59.5597 24.8305H59.532H59.5043C59.532 24.8029 59.5528 24.7821 59.5805 24.7544C59.5736 24.7821 59.5666 24.8029 59.5528 24.8305H59.5597Z" fill="#F5B400"/>
<path d="M56.5159 24.5566C56.3857 23.177 56.2623 21.7906 56.1389 20.411C56.132 20.3291 56.1526 20.2471 56.1389 20.1652C56.1046 19.8988 55.9675 19.5778 56.1115 19.3866C56.2554 19.1954 56.5913 19.1407 56.8312 19.0178C57.078 18.8948 57.3042 18.7446 57.5852 18.7104C57.3865 20.6774 57.1945 22.6443 56.9957 24.6044C56.8312 24.5907 56.6736 24.5702 56.5091 24.5566H56.5159Z" fill="#FFEFC2"/>
<path d="M57.0025 24.6044C57.2013 22.6375 57.3932 20.6705 57.592 18.7104C58.0787 18.9222 58.4351 19.3046 58.8464 19.6188C58.9766 19.7212 58.9287 20.0081 58.8464 20.1447C58.6271 20.4861 58.6202 20.8823 58.49 21.2442C58.394 21.5038 58.3049 21.7701 58.2021 22.0228C58.0855 22.3028 58.0855 22.6101 57.969 22.8833C57.7497 23.3956 57.6811 23.9556 57.5166 24.4815C57.496 24.5361 57.4686 24.5907 57.4412 24.6454C57.2973 24.6317 57.1533 24.6181 57.0094 24.6044H57.0025Z" fill="#FFEFC2"/>
<path d="M73.8462 78.1538H6.15387V80H73.8462V78.1538Z" fill="white"/>
</g>
</svg>
