<svg width="368" height="250" viewBox="0 0 368 250" fill="none" xmlns="http://www.w3.org/2000/svg">
<g clip-path="url(#clip0_399_8577)">
<path d="M49.1665 238.275V235.542C49.1665 233.108 50.9093 231.025 53.3018 230.592L157.437 211.916C167.564 210.101 177.742 214.752 183.002 223.59V246.999L172.349 238.275H49.1665Z" fill="white"/>
<path d="M316.857 238.275V235.542C316.857 233.108 315.114 231.025 312.722 230.592L208.587 211.916C198.46 210.101 188.281 214.752 183.022 223.59V246.999L193.675 238.275H316.868H316.857Z" fill="white"/>
<path d="M192.21 236.058L192.19 236.13L191.478 235.944C191.478 240.471 187.807 244.132 183.29 244.132C180.331 244.132 177.752 242.544 176.319 240.183L175.288 235.779H45V236.171C45 238.708 47.0522 240.76 49.589 240.76H170.647C172.225 246.102 177.165 250 183.012 250C188.859 250 193.953 245.968 195.449 240.492H317.899C320.384 240.492 322.395 238.522 322.478 236.058H192.21Z" fill="#C35053"/>
<path d="M125.974 119.867C125.943 119.63 126.046 119.362 125.799 119.186C123.953 113.112 122.107 107.049 120.271 100.975C119.539 98.5511 118.178 96.6743 115.899 95.4471C114.084 94.4674 112.196 94.1993 110.278 94.7561C105.143 96.2618 100.038 97.8705 94.9128 99.438C91.6747 100.428 88.4262 101.387 85.1881 102.387C82.6616 103.171 80.1453 103.986 77.6188 104.79C77.2475 104.8 76.9794 105.007 76.8041 105.306C76.4535 105.904 76.1338 106.533 75.7935 107.141C74.2878 109.905 72.8854 112.72 71.4107 115.495C70.1422 117.866 68.7707 120.187 67.5435 122.589C66.2751 125.064 65.0169 127.529 63.6866 129.973C63.5113 130.293 63.4288 130.602 63.6969 130.901C63.9444 132.046 64.3466 133.139 64.6869 134.253C66.5122 140.213 68.3066 146.174 70.1319 152.135C71.3385 156.084 72.5863 160.013 73.7928 163.963C75.5975 169.841 77.3507 175.73 79.176 181.597C79.7328 183.371 80.8156 184.784 82.3522 185.908C83.3834 186.661 84.5488 186.929 85.7244 187.228C86.8278 187.506 87.9416 187.434 89.0141 187.125C91.4994 186.413 93.9743 185.64 96.4493 184.887C102.214 183.124 107.979 181.36 113.743 179.597C120.405 177.555 127.067 175.513 133.729 173.461C136.204 172.698 137.916 171.099 138.947 168.727C139.793 166.789 139.865 164.871 139.225 162.87C137.998 158.992 136.812 155.105 135.616 151.217C133.78 145.215 131.945 139.203 130.12 133.191C129.346 130.633 128.635 128.055 127.789 125.518C127.16 123.631 126.737 121.682 125.943 119.857L125.974 119.867Z" fill="white"/>
<path d="M77.6291 104.79C80.1556 103.986 82.6719 103.171 85.1984 102.387C88.4365 101.387 91.685 100.428 94.9231 99.438C100.038 97.8705 105.143 96.2618 110.289 94.7561C112.207 94.1993 114.094 94.4674 115.909 95.4471C118.198 96.6743 119.549 98.5511 120.281 100.975C122.117 107.049 123.963 113.112 125.809 119.186C125.685 119.475 125.469 119.764 125.809 120.053C125.809 120.393 125.809 120.744 125.809 121.084C125.324 121.527 125.262 122.094 125.644 122.455C125.644 122.569 125.644 122.682 125.644 122.796C125.005 123.177 125.283 123.683 125.469 124.167C125.427 124.456 125.84 124.745 125.469 125.023C124.891 125.353 124.664 125.724 125.293 126.23C125.293 126.343 125.293 126.457 125.293 126.57C124.675 127.024 124.427 128.364 124.788 129.324C124.788 129.55 124.788 129.777 124.788 130.014C124.19 130.066 124.149 130.602 124.138 130.963C124.097 132.438 123.705 133.84 123.303 135.243C123.241 135.47 123.2 135.686 123.416 135.862C123.416 136.037 123.416 136.202 123.416 136.377C122.849 136.79 122.365 138.326 122.56 139.131C122.53 139.368 122.643 139.636 122.385 139.822C121.725 139.987 121.746 140.368 122.045 140.853C122.045 140.966 122.045 141.08 122.045 141.193C121.075 141.575 121.24 142.616 120.921 143.348C120.787 143.668 120.209 144.122 120.673 144.638C120.673 144.751 120.673 144.864 120.673 144.978C120.127 145.215 120.024 145.648 120.158 146.184C120.158 146.298 120.158 146.411 120.158 146.525C119.704 146.648 119.219 146.741 119.642 147.381C119.642 147.494 119.642 147.608 119.642 147.721C119.26 147.68 119.023 147.855 118.889 148.206C118.786 148.474 118.889 148.556 119.137 148.577C119.137 148.69 119.137 148.804 119.137 148.917C118.343 149.093 118.167 149.577 118.456 150.289C118.394 150.464 118.343 150.629 118.281 150.804C117.497 150.969 117.157 151.588 117.425 152.351C116.92 154.29 115.754 155.878 114.671 157.507C114.094 157.714 113.692 158.013 113.981 158.714C113.867 158.941 113.743 159.168 113.63 159.395C112.98 159.343 112.908 159.766 112.949 160.261C112.887 160.436 112.836 160.601 112.774 160.777C111.959 160.735 112.093 161.323 112.083 161.808C111.464 161.901 111.361 162.323 111.392 162.839C110.443 163.2 110.062 163.994 109.845 164.902C109.402 164.922 109.309 165.221 109.33 165.592C108.886 165.613 108.793 165.912 108.814 166.283C107.814 166.892 107.246 167.851 106.751 168.862C106.308 168.882 106.215 169.181 106.236 169.552C105.792 169.573 105.7 169.872 105.72 170.243C105.493 170.243 105.38 170.367 105.38 170.594C105.318 170.646 105.266 170.707 105.205 170.759C104.875 170.769 104.699 170.945 104.689 171.275C104.689 171.326 104.689 171.388 104.689 171.44C104.307 171.398 104.132 171.574 104.173 171.955C104.122 172.017 104.06 172.069 104.008 172.131C103.627 172.089 103.451 172.265 103.493 172.646C103.513 173.017 103.049 173.028 102.977 173.337C102.73 173.337 102.482 173.337 102.461 173.677C102.018 173.698 101.925 173.997 101.946 174.368C101.884 174.533 101.76 174.647 101.606 174.709C101.234 174.688 100.935 174.781 100.915 175.224C100.739 175.73 100.399 176.08 99.8834 176.256C99.5637 176.317 99.244 176.359 99.1924 176.771C98.5427 177.019 98.0684 177.4 97.9859 178.143C97.924 178.205 97.8724 178.256 97.8106 178.318C97.5631 178.318 97.3052 178.318 97.2949 178.669C97.2331 178.72 97.1815 178.782 97.1196 178.834C96.8927 178.834 96.7793 178.957 96.7793 179.174C96.6556 179.483 96.3462 179.545 96.0987 179.69C95.8718 179.69 95.7584 179.803 95.7481 180.03C95.6346 180.092 95.5212 180.143 95.4078 180.205C95.1809 180.205 95.0674 180.319 95.0571 180.546C94.9953 180.607 94.9437 180.659 94.8818 180.721C94.6343 180.721 94.3765 180.721 94.3662 181.061C94.1084 181.453 93.799 181.773 93.3349 181.917C93.1081 181.917 92.9946 182.041 92.9946 182.257C92.9431 182.257 92.8812 182.257 92.8296 182.257C92.6028 182.257 92.4893 182.371 92.479 182.598C92.3656 182.66 92.2521 182.711 92.1387 182.773C91.9118 182.773 91.7984 182.886 91.7881 183.113C91.7262 183.113 91.6746 183.113 91.6128 183.113C91.3859 183.113 91.2725 183.237 91.2725 183.454C91.025 183.454 90.7671 183.454 90.7568 183.794C90.695 183.856 90.6434 183.907 90.5815 183.969C90.334 183.969 90.0762 183.969 90.0659 184.31C89.9731 184.536 89.7978 184.65 89.5503 184.65C89.3028 184.65 89.0553 184.65 89.0346 184.99C88.9831 184.99 88.9212 184.99 88.8696 184.99C88.3747 184.949 88.1478 185.176 88.1787 185.671C87.9518 185.784 87.725 185.908 87.4878 186.021C86.8587 186.042 86.2915 186.156 86.1162 186.877C86.0028 186.991 85.8893 187.094 85.7862 187.207C84.6106 186.908 83.4556 186.64 82.414 185.887C80.8775 184.774 79.7947 183.351 79.2378 181.577C77.4022 175.709 75.6491 169.821 73.8547 163.942C72.6481 159.993 71.4003 156.064 70.1938 152.114C68.3685 146.153 66.5741 140.193 64.7488 134.232C64.4085 133.119 64.0063 132.025 63.7588 130.881C68.4097 129.447 73.0813 128.065 77.7116 126.56C80.0009 125.817 81.2797 124.033 81.8675 121.744C81.9912 121.651 82.0015 121.527 81.9912 121.383C82.0634 119.898 81.9706 118.434 81.3622 117.052C80.8878 115.969 80.5165 114.845 80.1969 113.7C79.3719 110.72 78.1859 107.843 77.6806 104.77L77.6291 104.79Z" fill="#F5D5AB"/>
<path d="M124.767 130.025C124.767 129.798 124.767 129.571 124.767 129.334C125.18 128.457 125.097 127.498 125.273 126.58C125.273 126.467 125.273 126.354 125.273 126.24C125.376 125.848 125.5 125.456 125.448 125.034C125.819 124.745 125.407 124.456 125.448 124.178C125.788 123.755 125.541 123.26 125.623 122.806C125.623 122.693 125.623 122.579 125.623 122.466C125.964 122.043 125.716 121.548 125.788 121.094C125.788 120.754 125.788 120.403 125.788 120.063C125.85 120.001 125.902 119.939 125.964 119.877C126.758 121.703 127.181 123.652 127.81 125.539C128.645 128.076 129.357 130.654 130.14 133.211C131.966 139.224 133.801 145.236 135.637 151.238C136.823 155.125 138.009 159.013 139.246 162.891C139.886 164.891 139.813 166.82 138.968 168.748C137.926 171.12 136.214 172.718 133.75 173.482C127.088 175.534 120.426 177.576 113.764 179.617C107.999 181.381 102.235 183.155 96.4701 184.908C93.9951 185.661 91.5201 186.434 89.0348 187.146C87.9623 187.455 86.8486 187.527 85.7451 187.249C85.8586 187.135 85.972 187.032 86.0751 186.919C86.6217 186.774 87.0548 186.444 87.4467 186.063C87.6736 185.949 87.9004 185.836 88.1376 185.712C88.3851 185.506 88.7667 185.434 88.8285 185.031C88.8801 185.031 88.942 185.031 88.9935 185.031C89.241 185.031 89.4885 185.031 89.5092 184.691C89.7567 184.691 89.932 184.578 90.0248 184.351C90.2723 184.351 90.4476 184.237 90.5404 184.011C90.6023 183.949 90.6539 183.897 90.7157 183.835C90.9632 183.835 91.1385 183.722 91.2314 183.495C91.4582 183.495 91.5717 183.371 91.5717 183.155C91.6335 183.155 91.6851 183.155 91.747 183.155C91.9739 183.155 92.0873 183.031 92.0976 182.814C92.211 182.752 92.3245 182.701 92.4379 182.639C92.6648 182.639 92.7782 182.515 92.7885 182.299C92.8401 182.299 92.902 182.299 92.9535 182.299C93.1804 182.299 93.2938 182.175 93.2938 181.958C93.7579 181.814 94.0673 181.494 94.3251 181.102C94.5726 181.102 94.7479 180.989 94.8407 180.762C94.9026 180.7 94.9542 180.649 95.016 180.587C95.2429 180.587 95.3563 180.463 95.3667 180.247C95.4801 180.185 95.5935 180.133 95.707 180.071C95.9338 180.071 96.0473 179.947 96.0576 179.731C96.3051 179.587 96.6145 179.525 96.7382 179.215C96.9651 179.215 97.0785 179.092 97.0785 178.875C97.1404 178.823 97.192 178.762 97.2538 178.71C97.5013 178.71 97.6766 178.597 97.7695 178.359C97.8313 178.297 97.8829 178.246 97.9448 178.184C98.3676 177.741 99.0585 177.545 99.1513 176.812C99.5226 176.823 99.8113 176.74 99.8423 176.297C100.358 176.122 100.698 175.781 100.874 175.266C101.224 175.255 101.41 175.028 101.564 174.75C101.729 174.688 101.843 174.575 101.905 174.41C102.183 174.255 102.41 174.069 102.42 173.719C102.668 173.719 102.843 173.605 102.936 173.378C103.008 173.079 103.472 173.059 103.452 172.687C103.668 172.564 103.957 172.512 103.967 172.172C104.019 172.11 104.081 172.058 104.132 171.997C104.349 171.873 104.648 171.821 104.648 171.481C104.648 171.429 104.648 171.367 104.648 171.316C104.978 171.295 105.143 171.12 105.163 170.8C105.225 170.749 105.277 170.687 105.339 170.635C105.566 170.635 105.679 170.512 105.679 170.285C105.958 170.13 106.184 169.944 106.195 169.594C106.504 169.47 106.772 169.315 106.71 168.903C107.628 168.222 108.268 167.335 108.773 166.325C109.175 166.273 109.227 165.953 109.288 165.634C109.567 165.479 109.794 165.293 109.804 164.943C110.557 164.427 110.887 163.612 111.351 162.88C111.712 162.622 111.928 162.272 112.042 161.849C112.516 161.663 112.537 161.189 112.733 160.818C112.795 160.643 112.846 160.478 112.908 160.302C113.218 160.075 113.558 159.879 113.589 159.436C113.702 159.209 113.826 158.982 113.939 158.755C114.321 158.436 114.63 158.085 114.63 157.549C115.713 155.919 116.878 154.331 117.384 152.393C117.765 151.928 118.033 151.403 118.24 150.846C118.302 150.67 118.353 150.505 118.415 150.33C118.632 149.866 119.023 149.484 119.096 148.958C119.096 148.845 119.096 148.732 119.096 148.618C119.312 148.36 119.57 148.123 119.611 147.762C119.611 147.649 119.611 147.535 119.611 147.422C119.828 147.164 120.086 146.927 120.127 146.566C120.127 146.453 120.127 146.339 120.127 146.226C120.333 145.834 120.663 145.504 120.643 145.019C120.643 144.906 120.643 144.792 120.643 144.679C121.416 143.658 121.468 142.348 122.014 141.245C122.014 141.131 122.014 141.018 122.014 140.904C122.262 140.605 122.344 140.244 122.354 139.873C122.602 139.688 122.499 139.419 122.53 139.182C123.025 138.326 123.118 137.357 123.386 136.429C123.386 136.254 123.386 136.089 123.386 135.913C124.231 134.057 124.283 132.015 124.757 130.066L124.767 130.025Z" fill="#FEF9EC"/>
<path d="M77.6285 104.79C78.1442 107.863 79.3301 110.74 80.1448 113.721C80.4645 114.865 80.8357 115.99 81.3101 117.072C81.9185 118.464 82.0113 119.919 81.9392 121.404C81.8051 121.486 81.7948 121.62 81.8154 121.754C81.2276 124.044 79.9488 125.828 77.6595 126.57C73.0292 128.086 68.3679 129.458 63.7067 130.891C63.4386 130.582 63.5211 130.283 63.6964 129.963C65.0267 127.519 66.2848 125.054 67.5533 122.579C68.7804 120.187 70.152 117.866 71.4204 115.484C72.8951 112.71 74.3079 109.895 75.8032 107.131C76.1332 106.523 76.4529 105.894 76.8139 105.295C76.9892 104.996 77.2573 104.79 77.6285 104.78V104.79Z" fill="#CB8C3D"/>
<path d="M125.974 119.867C125.912 119.929 125.86 119.991 125.798 120.053C125.468 119.764 125.675 119.475 125.798 119.186C126.046 119.362 125.943 119.63 125.974 119.867Z" fill="#DB9597"/>
<path d="M124.767 130.025C124.293 131.964 124.241 134.016 123.396 135.872C123.169 135.697 123.22 135.48 123.282 135.253C123.685 133.851 124.076 132.448 124.118 130.974C124.128 130.613 124.169 130.076 124.767 130.025Z" fill="#DB9597"/>
<path d="M122.014 141.193C121.467 142.307 121.416 143.606 120.642 144.627C120.178 144.112 120.756 143.658 120.89 143.338C121.209 142.616 121.034 141.575 122.014 141.183V141.193Z" fill="#DB9597"/>
<path d="M108.773 166.283C108.268 167.294 107.618 168.181 106.71 168.862C107.205 167.851 107.773 166.892 108.773 166.283Z" fill="#DB9597"/>
<path d="M125.283 126.58C125.107 127.498 125.18 128.457 124.777 129.334C124.427 128.375 124.674 127.034 125.283 126.58Z" fill="#DB9597"/>
<path d="M123.386 136.377C123.117 137.295 123.025 138.275 122.53 139.131C122.334 138.337 122.818 136.79 123.386 136.377Z" fill="#DB9597"/>
<path d="M111.351 162.849C110.887 163.582 110.557 164.396 109.804 164.912C110.021 164.004 110.402 163.21 111.351 162.849Z" fill="#DB9597"/>
<path d="M118.229 150.815C118.023 151.372 117.755 151.898 117.373 152.362C117.105 151.588 117.445 150.98 118.229 150.815Z" fill="#DB9597"/>
<path d="M99.1514 176.771C99.0586 177.503 98.3676 177.699 97.9448 178.143C98.0273 177.4 98.5017 177.019 99.1514 176.771Z" fill="#DB9597"/>
<path d="M114.62 157.518C114.62 158.054 114.31 158.405 113.929 158.724C113.63 158.023 114.042 157.724 114.62 157.518Z" fill="#DB9597"/>
<path d="M119.095 148.928C119.023 149.464 118.631 149.835 118.415 150.299C118.126 149.588 118.301 149.103 119.095 148.928Z" fill="#DB9597"/>
<path d="M87.457 186.052C87.0548 186.434 86.632 186.764 86.0854 186.908C86.2711 186.186 86.8383 186.073 87.457 186.052Z" fill="#DB9597"/>
<path d="M125.799 121.084C125.727 121.538 125.974 122.033 125.634 122.455C125.252 122.094 125.324 121.527 125.799 121.084Z" fill="#DB9597"/>
<path d="M125.458 125.044C125.509 125.456 125.386 125.848 125.283 126.25C124.643 125.745 124.87 125.374 125.458 125.044Z" fill="#DB9597"/>
<path d="M119.611 147.721C119.58 148.092 119.322 148.319 119.095 148.577C118.858 148.556 118.745 148.463 118.848 148.206C118.992 147.855 119.219 147.68 119.601 147.721H119.611Z" fill="#DB9597"/>
<path d="M125.623 122.806C125.551 123.26 125.799 123.755 125.448 124.178C125.262 123.693 124.984 123.188 125.623 122.806Z" fill="#DB9597"/>
<path d="M112.733 160.787C112.547 161.158 112.516 161.633 112.042 161.818C112.052 161.333 111.918 160.746 112.733 160.787Z" fill="#DB9597"/>
<path d="M122.365 139.822C122.344 140.193 122.272 140.554 122.024 140.853C121.725 140.368 121.705 139.987 122.365 139.822Z" fill="#DB9597"/>
<path d="M120.642 144.978C120.663 145.463 120.333 145.793 120.127 146.184C119.993 145.648 120.096 145.225 120.642 144.978Z" fill="#DB9597"/>
<path d="M120.127 146.525C120.096 146.896 119.838 147.123 119.611 147.381C119.178 146.741 119.673 146.638 120.127 146.525Z" fill="#DB9597"/>
<path d="M113.589 159.405C113.548 159.848 113.218 160.044 112.908 160.271C112.877 159.776 112.939 159.364 113.589 159.405Z" fill="#DB9597"/>
<path d="M112.042 161.818C111.928 162.241 111.712 162.592 111.351 162.849C111.32 162.334 111.423 161.901 112.042 161.818Z" fill="#DB9597"/>
<path d="M88.8285 185.021C88.7666 185.423 88.385 185.496 88.1375 185.702C88.1066 185.207 88.3335 184.98 88.8285 185.021Z" fill="#DB9597"/>
<path d="M109.288 165.592C109.226 165.902 109.174 166.222 108.772 166.283C108.752 165.912 108.844 165.623 109.288 165.592Z" fill="#DB9597"/>
<path d="M106.71 168.862C106.772 169.264 106.503 169.418 106.194 169.552C106.173 169.181 106.266 168.892 106.71 168.862Z" fill="#DB9597"/>
<path d="M99.8316 176.256C99.8006 176.699 99.5119 176.792 99.1406 176.771C99.1922 176.359 99.5119 176.307 99.8316 176.256Z" fill="#DB9597"/>
<path d="M106.194 169.552C106.184 169.903 105.957 170.089 105.678 170.243C105.658 169.872 105.751 169.583 106.194 169.552Z" fill="#DB9597"/>
<path d="M109.803 164.912C109.793 165.262 109.556 165.448 109.288 165.603C109.267 165.232 109.36 164.943 109.803 164.912Z" fill="#DB9597"/>
<path d="M102.41 173.677C102.4 174.028 102.173 174.214 101.894 174.368C101.874 173.997 101.966 173.708 102.41 173.677Z" fill="#DB9597"/>
<path d="M101.554 174.709C101.4 174.987 101.214 175.214 100.863 175.224C100.884 174.781 101.183 174.688 101.554 174.709Z" fill="#DB9597"/>
<path d="M105.164 170.749C105.143 171.079 104.978 171.244 104.648 171.264C104.658 170.934 104.834 170.759 105.164 170.749Z" fill="#DB9597"/>
<path d="M104.648 171.44C104.648 171.78 104.348 171.832 104.132 171.955C104.091 171.574 104.266 171.398 104.648 171.44Z" fill="#DB9597"/>
<path d="M103.967 172.131C103.967 172.471 103.668 172.523 103.451 172.646C103.41 172.265 103.585 172.089 103.967 172.131Z" fill="#DB9597"/>
<path d="M89.5195 184.671C89.4989 185.021 89.2514 185.021 89.0039 185.011C89.0245 184.66 89.272 184.671 89.5195 184.671Z" fill="#DB9597"/>
<path d="M97.7695 178.308C97.6767 178.535 97.5014 178.648 97.2539 178.658C97.2642 178.308 97.5117 178.308 97.7695 178.308Z" fill="#DB9597"/>
<path d="M94.8511 180.721C94.7583 180.948 94.5829 181.061 94.3354 181.061C94.3458 180.711 94.6036 180.711 94.8511 180.721Z" fill="#DB9597"/>
<path d="M91.231 183.474C91.1381 183.701 90.9628 183.815 90.7153 183.815C90.7256 183.464 90.9835 183.464 91.231 183.474Z" fill="#DB9597"/>
<path d="M90.5508 183.99C90.458 184.217 90.2827 184.33 90.0352 184.33C90.0455 183.98 90.3033 183.98 90.5508 183.99Z" fill="#DB9597"/>
<path d="M102.926 173.327C102.833 173.554 102.658 173.667 102.41 173.667C102.42 173.317 102.668 173.317 102.926 173.327Z" fill="#DB9597"/>
<path d="M105.679 170.233C105.679 170.46 105.555 170.573 105.338 170.584C105.338 170.357 105.452 170.243 105.679 170.233Z" fill="#DB9597"/>
<path d="M97.0786 178.834C97.0786 179.061 96.9548 179.174 96.7383 179.174C96.7383 178.947 96.862 178.834 97.0786 178.834Z" fill="#DB9597"/>
<path d="M96.0577 179.69C96.0577 179.917 95.9339 180.03 95.707 180.03C95.707 179.803 95.8308 179.69 96.0577 179.69Z" fill="#DB9597"/>
<path d="M95.3662 180.205C95.3662 180.432 95.2425 180.546 95.0156 180.546C95.0156 180.319 95.1394 180.205 95.3662 180.205Z" fill="#DB9597"/>
<path d="M93.3042 181.927C93.3042 182.154 93.1804 182.268 92.9639 182.268C92.9639 182.041 93.0876 181.927 93.3042 181.927Z" fill="#DB9597"/>
<path d="M92.7881 182.268C92.7881 182.495 92.6644 182.608 92.4375 182.608C92.4375 182.381 92.5612 182.268 92.7881 182.268Z" fill="#DB9597"/>
<path d="M92.0972 182.783C92.0972 183.01 91.9735 183.124 91.7466 183.124C91.7466 182.897 91.8703 182.783 92.0972 182.783Z" fill="#DB9597"/>
<path d="M91.582 183.124C91.582 183.351 91.4583 183.464 91.2417 183.464C91.2417 183.237 91.3654 183.124 91.582 183.124Z" fill="#DB9597"/>
<path d="M81.8156 121.764C81.7949 121.62 81.8156 121.496 81.9393 121.414C81.9393 121.548 81.9393 121.682 81.8156 121.764Z" fill="#DB9597"/>
<path d="M180.413 50C179.846 49.9278 179.505 50.361 179.113 50.6394C176.618 52.3513 174.256 54.2488 171.802 56.0225C169.791 57.4766 167.801 58.9512 165.841 60.4672C163.449 62.3131 160.933 64.0147 158.602 65.9328C157.921 66.4897 156.849 66.7269 156.694 67.8303C156.612 68.5006 156.539 69.1709 156.447 69.8309C156.127 72.0584 155.797 74.2756 155.477 76.5031C155.147 78.7512 154.828 80.9993 154.498 83.2474C154.219 85.1243 153.93 87.0012 153.662 88.878C153.332 91.1261 153.023 93.3743 152.703 95.6224C152.425 97.6024 152.136 99.5721 151.847 101.552C151.569 103.429 151.29 105.306 151.022 107.183C150.744 109.08 150.465 110.988 150.187 112.885C149.898 114.835 149.671 116.794 149.321 118.733C148.95 120.785 148.898 122.775 149.744 124.724C149.785 124.776 149.826 124.827 149.867 124.889C150.455 126.323 151.486 127.385 152.765 128.22C153.178 128.643 153.673 128.911 154.209 129.117C155.807 129.746 157.529 129.757 159.19 130.025C161.056 130.334 162.944 130.582 164.82 130.85C166.769 131.128 168.719 131.417 170.668 131.695C172.565 131.974 174.473 132.252 176.37 132.531C178.268 132.809 180.176 133.088 182.073 133.356C183.971 133.624 185.878 133.882 187.776 134.16C190.024 134.49 192.262 134.83 194.51 135.171C196.799 135.511 199.109 135.82 201.388 136.192C203.513 136.542 205.493 136.295 207.37 135.181C209.339 134.016 210.659 132.304 211.226 130.159C211.701 128.364 211.783 126.467 212.051 124.611C212.392 122.29 212.742 119.97 213.072 117.65C213.392 115.474 213.701 113.298 214.011 111.132C214.279 109.235 214.547 107.327 214.815 105.43C215.094 103.45 215.382 101.48 215.671 99.4999C215.95 97.623 216.218 95.7461 216.496 93.8693C216.775 91.9718 217.053 90.064 217.331 88.1665C217.527 86.8877 217.723 85.609 217.919 84.3302C217.971 83.8868 218.022 83.433 218.084 82.9896C218.373 81.0096 218.682 79.0399 218.961 77.0599C219.229 75.1831 219.476 73.2959 219.745 71.419C220.013 69.5422 220.312 67.6653 220.601 65.7884C220.9 63.829 221.054 61.9006 220.24 59.9825C219.146 57.4044 217.208 55.7441 214.619 55.0325C212.536 54.4653 210.329 54.3622 208.184 54.0528C206.256 53.7744 204.327 53.5166 202.399 53.2381C200.471 52.9597 198.542 52.671 196.614 52.3925C194.757 52.1244 192.912 51.8563 191.055 51.5778C189.106 51.2891 187.147 51.0106 185.198 50.7219C183.589 50.4847 181.991 50.2372 180.382 49.9897L180.413 50Z" fill="white"/>
<path d="M149.723 124.714C148.877 122.765 148.929 120.764 149.3 118.722C149.651 116.784 149.878 114.824 150.166 112.875C150.445 110.978 150.723 109.07 151.002 107.172C151.28 105.295 151.559 103.419 151.827 101.542C152.116 99.5617 152.404 97.592 152.683 95.612C153.002 93.3639 153.322 91.1158 153.642 88.8677C153.91 86.9908 154.209 85.1139 154.477 83.2371C154.807 80.989 155.127 78.7408 155.457 76.4927C155.776 74.2652 156.106 72.0481 156.426 69.8206C156.519 69.1502 156.591 68.4799 156.674 67.8199C158.231 68.0262 159.788 68.2118 161.345 68.4387C163.222 68.7068 165.089 69.0368 166.965 69.2637C168.708 69.4699 170.43 69.9856 172.215 69.7999C174.184 69.5937 175.886 68.8821 177.092 67.2218C177.144 67.1703 177.185 67.129 177.237 67.0774C177.67 66.469 178 65.7987 178.206 65.0871C178.691 63.4062 178.763 61.6428 179.041 59.9206C179.351 58.0231 179.619 56.1256 179.866 54.2178C180.052 52.8153 180.382 51.4231 180.392 49.9897C182.001 50.2372 183.6 50.4847 185.208 50.7219C187.157 51.0106 189.117 51.2891 191.066 51.5778C192.922 51.8459 194.768 52.1141 196.624 52.3925C198.553 52.6709 200.481 52.9597 202.409 53.2381C204.338 53.5165 206.266 53.7847 208.195 54.0528C210.35 54.3622 212.557 54.455 214.63 55.0325C217.218 55.744 219.157 57.394 220.25 59.9825C221.065 61.9006 220.91 63.829 220.611 65.7884C220.333 67.6653 220.033 69.5421 219.755 71.419C219.477 73.2959 219.239 75.183 218.971 77.0599C218.683 79.0399 218.383 81.0096 218.095 82.9896C218.033 83.433 217.981 83.8868 217.93 84.3302C217.631 84.3302 217.6 84.5983 217.486 84.7839C217.177 84.7943 217.187 85.0211 217.187 85.2377C217.012 85.9493 216.496 86.4546 216.125 87.0527C215.898 87.1249 215.548 87.1042 215.826 87.5064C215.826 87.6714 215.847 87.8467 215.671 87.9602C215.475 87.9602 215.372 88.0633 215.372 88.2696C215.372 88.7336 215.176 89.0946 214.764 89.3317C214.403 89.373 214.362 89.6617 214.31 89.9402C214.31 90.0433 214.31 90.1361 214.31 90.2392C213.495 90.3321 213.444 91.023 213.258 91.6005C212.938 91.6727 212.608 91.7449 212.804 92.2089C212.784 92.6317 212.454 92.8483 212.196 93.1164C211.887 93.1267 211.887 93.3536 211.897 93.5702C211.845 93.6217 211.794 93.6733 211.742 93.7249C211.381 93.7661 211.34 94.0549 211.288 94.3333C211.288 94.3849 211.288 94.4364 211.288 94.488C210.897 94.5086 210.824 94.7664 210.835 95.0964C210.783 95.0964 210.732 95.0964 210.69 95.0964C209.876 95.2717 209.989 96.107 209.628 96.6123C209.628 96.7361 209.597 96.8495 209.473 96.9114C209.278 96.9114 209.174 97.0145 209.174 97.2105C209.071 97.3652 208.968 97.5095 208.875 97.6642C208.679 97.6642 208.576 97.7673 208.576 97.9633C208.525 98.0148 208.473 98.0664 208.432 98.118C208.071 98.1592 208.03 98.448 207.978 98.7264C207.927 98.778 207.875 98.8295 207.834 98.8811C206.854 99.4792 206.029 100.222 205.565 101.305C205.204 101.346 204.998 101.552 204.957 101.913C204.957 102.037 204.926 102.15 204.802 102.212C204.121 102.336 203.729 102.759 203.595 103.429C203.595 103.48 203.595 103.532 203.595 103.573C203.379 103.573 203.152 103.573 203.142 103.872C203.09 103.975 203.039 104.068 202.987 104.171C202.77 104.171 202.544 104.171 202.533 104.47C202.482 104.574 202.43 104.666 202.379 104.77C202.049 104.759 201.791 104.831 201.78 105.223C201.729 105.275 201.677 105.326 201.636 105.378C201.347 105.388 201.193 105.543 201.182 105.832C201.131 105.883 201.079 105.935 201.028 105.986C200.512 105.986 200.264 106.234 200.275 106.739C200.223 106.791 200.172 106.842 200.12 106.894C199.687 106.894 199.171 106.78 199.213 107.502C199.109 107.605 199.017 107.709 198.914 107.801C198.398 107.791 198.15 108.039 198.15 108.554C197.954 108.709 197.748 108.853 197.552 109.008C196.954 109.029 196.665 109.4 196.49 109.915C196.294 110.421 195.717 110.431 195.407 110.782C194.345 111.968 192.922 112.659 191.654 113.545C190.983 113.494 190.54 113.741 190.447 114.453C190.189 114.69 189.931 114.938 189.539 114.907C189.075 114.711 189.003 115.041 188.931 115.36C188.766 115.659 188.488 115.763 188.178 115.814C187.745 115.783 187.539 115.979 187.57 116.412C187.415 116.412 187.271 116.412 187.116 116.412C186.786 116.392 186.528 116.474 186.508 116.866C186.229 116.969 186.105 117.34 185.755 117.32C185.394 117.361 184.92 117.165 184.847 117.774C184.785 117.897 184.672 117.918 184.548 117.928C184.218 117.908 183.96 117.99 183.94 118.382C183.888 118.382 183.837 118.382 183.795 118.382C183.538 118.361 183.3 118.403 183.187 118.681C183.135 118.681 183.084 118.681 183.043 118.681C182.713 118.65 182.558 118.794 182.589 119.135H182.29C181.681 119.341 180.877 119.186 180.619 120.042C180.238 120.29 179.877 120.579 179.413 120.651C179.062 120.506 178.794 120.568 178.66 120.95C178.402 121.177 178.144 121.445 177.752 121.404C177.35 121.125 177.092 121.218 177 121.703C176.845 121.754 176.7 121.806 176.546 121.857C176.102 122.094 175.391 121.703 175.185 122.455C174.834 122.6 174.525 122.858 174.122 122.909C173.854 122.703 173.627 122.631 173.514 123.064C173.215 123.219 172.905 123.363 172.606 123.518C172.122 123.342 170.595 123.817 170.183 124.27C170.028 124.322 169.884 124.374 169.729 124.425C169.069 124.178 168.337 124.425 167.914 125.034C167.543 125.25 167.13 125.343 166.708 125.333C166.151 125.075 165.831 125.436 165.501 125.776C165.254 125.828 164.996 125.879 164.748 125.931C164.449 125.724 164.161 125.611 163.996 126.085C163.81 126.189 163.614 126.261 163.387 126.24C163.119 126.024 162.892 125.962 162.779 126.384C162.676 126.384 162.583 126.384 162.48 126.384C162.098 126.24 161.768 126.261 161.572 126.684C161.17 126.787 160.768 126.879 160.366 126.983C160.345 126.828 160.293 126.673 160.108 126.714C159.871 126.756 159.932 126.972 159.912 127.127C159.664 127.127 159.406 127.127 159.159 127.127C158.819 126.962 158.478 126.745 158.251 127.271C157.818 127.478 157.375 127.622 156.89 127.57C156.54 127.127 156.323 127.364 156.137 127.725C155.632 127.777 155.127 127.828 154.621 127.88C154.24 127.282 154.054 127.663 153.869 128.024C153.518 128.086 153.136 127.89 152.817 128.168C151.538 127.333 150.507 126.281 149.919 124.838C149.878 124.786 149.836 124.734 149.785 124.673L149.723 124.714Z" fill="#F5D5AB"/>
<path d="M179.381 120.651C179.845 120.578 180.206 120.29 180.588 120.042C181.279 119.98 181.784 119.599 182.258 119.135C182.362 119.135 182.454 119.135 182.557 119.135C182.764 119.042 182.908 118.887 183.011 118.681C183.063 118.681 183.114 118.681 183.156 118.681C183.558 118.98 183.589 118.526 183.764 118.382C183.816 118.382 183.867 118.382 183.908 118.382C184.218 118.382 184.383 118.165 184.517 117.928C184.641 117.928 184.754 117.897 184.816 117.774C185.27 117.928 185.476 117.588 185.723 117.32C186.074 117.34 186.198 116.969 186.476 116.866C186.786 116.866 186.951 116.649 187.085 116.412C187.239 116.412 187.384 116.412 187.538 116.412C187.796 116.268 188.002 116.062 188.147 115.814C188.456 115.763 188.745 115.659 188.9 115.36C189.209 115.35 189.374 115.144 189.508 114.907C189.9 114.938 190.158 114.69 190.416 114.453C190.921 114.298 191.251 113.896 191.622 113.545C192.901 112.648 194.314 111.957 195.376 110.782C195.685 110.441 196.263 110.421 196.459 109.915C196.912 109.73 197.346 109.524 197.521 109.008C197.717 108.853 197.923 108.709 198.119 108.554C198.377 108.307 198.841 108.265 198.882 107.801C198.985 107.698 199.078 107.595 199.181 107.502C199.645 107.544 199.872 107.224 200.089 106.894C200.14 106.842 200.192 106.791 200.243 106.739C200.501 106.492 200.965 106.45 200.996 105.986C201.048 105.935 201.099 105.883 201.151 105.832C201.44 105.821 201.594 105.667 201.605 105.378C201.656 105.326 201.708 105.275 201.749 105.223C202.058 105.213 202.223 105.007 202.347 104.769C202.399 104.666 202.45 104.574 202.502 104.47C202.718 104.47 202.873 104.367 202.956 104.171C203.007 104.068 203.059 103.975 203.11 103.872C203.327 103.872 203.481 103.769 203.564 103.573C203.564 103.522 203.564 103.47 203.564 103.429C204.121 103.181 204.441 102.686 204.771 102.212C204.894 102.15 204.915 102.037 204.925 101.913C205.358 101.944 205.554 101.738 205.534 101.304C206.586 100.779 207.122 99.7576 207.802 98.8811C207.854 98.8295 207.906 98.7779 207.947 98.7264C208.308 98.6851 208.349 98.3964 208.401 98.1179C208.452 98.0664 208.504 98.0148 208.545 97.9632C208.741 97.9632 208.844 97.8601 208.844 97.6642C208.947 97.5095 209.05 97.3651 209.143 97.2104C209.339 97.2104 209.442 97.1073 209.442 96.9114C209.566 96.8495 209.586 96.7361 209.597 96.6123C210.195 96.2823 210.546 95.7667 210.659 95.0964C210.711 95.0964 210.762 95.0964 210.803 95.0964C211.164 95.0551 211.206 94.7664 211.257 94.4879C211.257 94.4364 211.257 94.3848 211.257 94.3333C211.793 94.4158 211.566 93.9311 211.711 93.7248C211.762 93.6733 211.814 93.6217 211.866 93.5701C212.061 93.4876 212.165 93.333 212.165 93.1164C212.422 92.8483 212.752 92.6317 212.773 92.2089C213.134 92.1573 213.175 91.8789 213.227 91.6005C213.722 91.2601 213.928 90.693 214.279 90.2392C214.279 90.1361 214.279 90.0433 214.279 89.9402C214.64 89.8886 214.681 89.6102 214.732 89.3317C215.145 89.0945 215.33 88.7439 215.341 88.2695C215.537 88.2695 215.64 88.1664 215.64 87.9602C215.815 87.857 215.784 87.6714 215.795 87.5064C216.104 87.4961 216.094 87.2692 216.094 87.0527C216.455 86.4545 216.98 85.9492 217.156 85.2377C217.352 85.1552 217.455 85.0005 217.455 84.7839C217.568 84.5983 217.599 84.3405 217.898 84.3302C217.702 85.6089 217.496 86.8877 217.31 88.1664C217.022 90.0639 216.754 91.9717 216.475 93.8692C216.197 95.7461 215.918 97.6229 215.65 99.4998C215.361 101.469 215.073 103.449 214.794 105.429C214.526 107.327 214.258 109.235 213.99 111.132C213.68 113.308 213.371 115.484 213.051 117.65C212.711 119.97 212.361 122.29 212.031 124.611C211.762 126.467 211.68 128.364 211.206 130.159C210.638 132.304 209.318 134.005 207.349 135.181C205.472 136.295 203.492 136.542 201.367 136.192C199.078 135.81 196.778 135.511 194.489 135.171C192.241 134.841 190.003 134.49 187.755 134.16C185.857 133.882 183.95 133.624 182.052 133.356C180.155 133.088 178.247 132.809 176.349 132.531C174.452 132.252 172.544 131.974 170.647 131.695C168.698 131.407 166.748 131.128 164.799 130.85C162.923 130.582 161.046 130.334 159.169 130.025C157.508 129.746 155.786 129.746 154.188 129.117C153.652 128.901 153.146 128.633 152.744 128.22C153.064 127.942 153.445 128.138 153.796 128.076C154.044 128.024 154.301 127.973 154.549 127.931C155.054 127.88 155.559 127.828 156.065 127.777C156.312 127.725 156.57 127.673 156.818 127.622C157.302 127.673 157.746 127.519 158.179 127.323C158.478 127.282 158.818 127.447 159.086 127.178C159.334 127.178 159.592 127.178 159.839 127.178C159.994 127.127 160.138 127.075 160.293 127.034C160.695 126.931 161.097 126.838 161.499 126.735C161.84 126.745 162.17 126.725 162.407 126.436C162.51 126.436 162.603 126.436 162.706 126.436C162.912 126.415 163.149 126.508 163.314 126.292C163.531 126.312 163.727 126.24 163.923 126.137C164.212 126.271 164.459 126.188 164.676 125.982C164.923 125.931 165.181 125.879 165.428 125.828C165.872 125.786 166.295 125.693 166.635 125.384C167.068 125.384 167.47 125.302 167.842 125.085C168.471 124.951 169.131 124.92 169.657 124.477C169.811 124.425 169.956 124.373 170.11 124.322C170.987 124.301 171.698 123.734 172.534 123.569C172.833 123.414 173.142 123.27 173.441 123.115C173.648 123.095 173.885 123.188 174.05 122.961C174.452 122.909 174.751 122.651 175.112 122.507C175.627 122.445 176.102 122.29 176.473 121.909C176.628 121.857 176.772 121.806 176.927 121.754C177.226 121.764 177.484 121.692 177.68 121.455C178.072 121.486 178.329 121.228 178.587 121.001C178.855 120.939 179.134 120.908 179.34 120.702L179.381 120.651Z" fill="#FEF9EC"/>
<path d="M177.113 67.2321C175.906 68.8924 174.205 69.604 172.235 69.8102C170.451 69.9958 168.729 69.4802 166.986 69.274C165.109 69.0471 163.243 68.7171 161.366 68.449C159.809 68.2324 158.252 68.0365 156.694 67.8302C156.849 66.7165 157.922 66.4896 158.602 65.9327C160.943 64.0146 163.449 62.313 165.841 60.4671C167.801 58.9512 169.791 57.4765 171.802 56.0224C174.256 54.2487 176.618 52.3512 179.114 50.6393C179.506 50.3712 179.846 49.9278 180.413 50C180.403 51.4334 180.073 52.8153 179.887 54.2281C179.64 56.1256 179.361 58.0334 179.062 59.9309C178.784 61.6531 178.701 63.4062 178.227 65.0974C178.021 65.809 177.691 66.4793 177.257 67.0877C177.206 67.1393 177.165 67.1805 177.113 67.2321Z" fill="#CB8C3D"/>
<path d="M149.723 124.714C149.764 124.765 149.806 124.817 149.857 124.879C149.816 124.827 149.775 124.776 149.723 124.714Z" fill="#FFFEFC"/>
<path d="M207.823 98.8605C207.143 99.737 206.607 100.758 205.555 101.284C206.019 100.201 206.844 99.4586 207.823 98.8605Z" fill="#DB9597"/>
<path d="M172.565 123.518C171.73 123.683 171.028 124.25 170.142 124.27C170.554 123.817 172.08 123.342 172.565 123.518Z" fill="#DB9597"/>
<path d="M169.698 124.425C169.172 124.868 168.512 124.899 167.883 125.033C168.306 124.425 169.038 124.188 169.698 124.425Z" fill="#DB9597"/>
<path d="M182.249 119.135C181.785 119.599 181.269 119.98 180.578 120.042C180.836 119.186 181.64 119.341 182.249 119.135Z" fill="#DB9597"/>
<path d="M210.7 95.0757C210.587 95.7461 210.236 96.2617 209.638 96.5917C209.999 96.0864 209.886 95.2614 210.7 95.0757Z" fill="#DB9597"/>
<path d="M191.633 113.535C191.262 113.875 190.932 114.278 190.426 114.443C190.529 113.741 190.963 113.484 191.633 113.535Z" fill="#DB9597"/>
<path d="M204.802 102.191C204.472 102.666 204.152 103.161 203.595 103.408C203.729 102.738 204.121 102.315 204.802 102.191Z" fill="#DB9597"/>
<path d="M214.32 90.2289C213.969 90.6827 213.763 91.2499 213.268 91.5902C213.464 91.0127 213.505 90.3218 214.32 90.2289Z" fill="#DB9597"/>
<path d="M197.532 108.998C197.357 109.513 196.923 109.719 196.47 109.905C196.645 109.389 196.934 109.018 197.532 108.998Z" fill="#DB9597"/>
<path d="M176.504 121.857C176.133 122.239 175.659 122.394 175.143 122.455C175.349 121.703 176.071 122.084 176.504 121.857Z" fill="#DB9597"/>
<path d="M200.11 106.873C199.893 107.203 199.666 107.523 199.202 107.482C199.161 106.77 199.676 106.884 200.11 106.873Z" fill="#DB9597"/>
<path d="M166.667 125.343C166.326 125.663 165.903 125.755 165.46 125.786C165.79 125.446 166.12 125.075 166.667 125.343Z" fill="#DB9597"/>
<path d="M201.017 105.966C200.976 106.43 200.522 106.481 200.264 106.719C200.264 106.203 200.512 105.955 201.017 105.966Z" fill="#DB9597"/>
<path d="M198.903 107.791C198.862 108.255 198.408 108.307 198.14 108.544C198.14 108.028 198.387 107.781 198.903 107.791Z" fill="#DB9597"/>
<path d="M185.734 117.32C185.487 117.588 185.28 117.928 184.827 117.774C184.899 117.165 185.373 117.361 185.734 117.32Z" fill="#DB9597"/>
<path d="M159.107 127.148C158.839 127.426 158.499 127.251 158.2 127.292C158.427 126.766 158.767 126.972 159.107 127.148Z" fill="#DB9597"/>
<path d="M205.555 101.284C205.586 101.717 205.379 101.923 204.946 101.892C204.988 101.531 205.194 101.325 205.555 101.284Z" fill="#DB9597"/>
<path d="M162.428 126.395C162.191 126.684 161.861 126.704 161.521 126.694C161.716 126.271 162.046 126.25 162.428 126.395Z" fill="#DB9597"/>
<path d="M177.711 121.404C177.515 121.641 177.247 121.723 176.958 121.703C177.061 121.218 177.319 121.125 177.711 121.404Z" fill="#DB9597"/>
<path d="M164.697 125.941C164.48 126.147 164.233 126.219 163.944 126.096C164.109 125.632 164.398 125.735 164.697 125.941Z" fill="#DB9597"/>
<path d="M213.268 91.5902C213.216 91.8686 213.175 92.1471 212.814 92.1986C212.618 91.7346 212.948 91.6624 213.268 91.5902Z" fill="#DB9597"/>
<path d="M154.559 127.911C154.312 127.962 154.054 128.014 153.807 128.055C153.992 127.684 154.188 127.313 154.559 127.911Z" fill="#DB9597"/>
<path d="M189.519 114.896C189.385 115.134 189.22 115.34 188.911 115.35C188.983 115.03 189.055 114.7 189.519 114.896Z" fill="#DB9597"/>
<path d="M156.839 127.601C156.591 127.653 156.333 127.704 156.086 127.756C156.272 127.405 156.488 127.158 156.839 127.601Z" fill="#DB9597"/>
<path d="M211.753 93.7146C211.598 93.9208 211.835 94.4055 211.299 94.323C211.35 94.0446 211.392 93.7661 211.753 93.7146Z" fill="#DB9597"/>
<path d="M179.382 120.651C179.175 120.857 178.887 120.888 178.629 120.95C178.763 120.558 179.031 120.496 179.382 120.651Z" fill="#DB9597"/>
<path d="M211.299 94.4673C211.247 94.7458 211.206 95.0242 210.845 95.0758C210.835 94.7561 210.907 94.488 211.299 94.4673Z" fill="#DB9597"/>
<path d="M188.157 115.804C188.013 116.062 187.807 116.268 187.549 116.402C187.518 115.969 187.724 115.763 188.157 115.804Z" fill="#DB9597"/>
<path d="M187.095 116.412C186.961 116.649 186.796 116.856 186.487 116.866C186.507 116.474 186.765 116.402 187.095 116.412Z" fill="#DB9597"/>
<path d="M214.784 89.3214C214.733 89.5999 214.692 89.8783 214.331 89.9299C214.382 89.6514 214.423 89.3627 214.784 89.3214Z" fill="#DB9597"/>
<path d="M184.527 117.928C184.393 118.165 184.228 118.372 183.919 118.382C183.94 117.99 184.197 117.918 184.527 117.928Z" fill="#DB9597"/>
<path d="M183.765 118.382C183.589 118.526 183.558 118.98 183.156 118.681C183.27 118.403 183.507 118.361 183.765 118.382Z" fill="#DB9597"/>
<path d="M202.378 104.759C202.244 105.007 202.079 105.203 201.78 105.213C201.801 104.821 202.059 104.739 202.378 104.759Z" fill="#DB9597"/>
<path d="M216.146 87.0527C216.146 87.2692 216.146 87.4961 215.846 87.5064C215.568 87.1042 215.919 87.1249 216.146 87.0527Z" fill="#DB9597"/>
<path d="M174.081 122.919C173.926 123.136 173.689 123.054 173.473 123.074C173.576 122.641 173.813 122.713 174.081 122.919Z" fill="#DB9597"/>
<path d="M163.346 126.25C163.181 126.467 162.944 126.374 162.737 126.395C162.851 125.962 163.078 126.034 163.346 126.25Z" fill="#DB9597"/>
<path d="M160.314 127.003C160.159 127.055 160.015 127.106 159.86 127.148C159.881 126.983 159.819 126.776 160.056 126.735C160.252 126.694 160.293 126.848 160.314 127.003Z" fill="#DB9597"/>
<path d="M208.432 98.0974C208.38 98.3758 208.339 98.6542 207.978 98.7058C208.03 98.4274 208.071 98.1489 208.432 98.0974Z" fill="#DB9597"/>
<path d="M201.626 105.368C201.605 105.656 201.461 105.811 201.172 105.821C201.182 105.533 201.337 105.378 201.626 105.368Z" fill="#DB9597"/>
<path d="M183.011 118.681C182.908 118.887 182.764 119.032 182.558 119.135C182.527 118.794 182.681 118.65 183.011 118.681Z" fill="#DB9597"/>
<path d="M217.507 84.7839C217.507 85.0005 217.404 85.1552 217.208 85.2377C217.208 85.0211 217.208 84.7942 217.507 84.7839Z" fill="#DB9597"/>
<path d="M202.976 104.151C202.894 104.357 202.739 104.45 202.522 104.45C202.533 104.14 202.749 104.14 202.976 104.151Z" fill="#DB9597"/>
<path d="M203.585 103.553C203.503 103.759 203.348 103.852 203.131 103.852C203.142 103.542 203.358 103.542 203.585 103.553Z" fill="#DB9597"/>
<path d="M212.206 93.1061C212.206 93.3226 212.103 93.4773 211.907 93.5598C211.907 93.3433 211.907 93.1164 212.206 93.1061Z" fill="#DB9597"/>
<path d="M215.692 87.9602C215.692 88.1561 215.589 88.2592 215.393 88.2695C215.393 88.0736 215.496 87.9705 215.692 87.9602Z" fill="#DB9597"/>
<path d="M208.886 97.6436C208.886 97.8396 208.783 97.9427 208.587 97.9427C208.587 97.7467 208.69 97.6436 208.886 97.6436Z" fill="#DB9597"/>
<path d="M209.484 96.8907C209.484 97.0867 209.381 97.1898 209.185 97.1898C209.185 96.9939 209.288 96.8907 209.484 96.8907Z" fill="#DB9597"/>
<path d="M177.113 67.2321C177.113 67.2321 177.206 67.1393 177.258 67.0878C177.206 67.1393 177.165 67.1806 177.113 67.2321Z" fill="#DB9597"/>
<path d="M269.441 94.4261C278.402 97.9942 287.364 101.562 296.325 105.141C297.914 105.78 299.522 106.378 301.09 107.069C304.307 108.482 306.328 112.318 305.823 115.659C305.452 118.124 304.245 120.248 303.389 122.517C301.76 126.818 300.017 131.077 298.316 135.356C298.202 135.635 298.068 135.903 297.944 136.181C297.15 136.233 296.841 136.697 296.872 137.45C296.81 137.45 296.748 137.45 296.697 137.45C296.459 137.45 296.336 137.573 296.336 137.811C295.964 137.821 295.964 138.089 295.975 138.357L295.789 138.543C295.17 138.543 294.871 138.832 294.882 139.45C294.758 139.574 294.634 139.687 294.521 139.811C294.284 139.811 294.17 139.935 294.16 140.172C293.799 140.533 293.438 140.894 293.067 141.265C292.551 141.224 292.304 141.472 292.345 141.987C292.283 141.987 292.221 141.987 292.169 141.987C291.767 141.946 291.582 142.132 291.623 142.534C290.592 142.987 289.612 143.503 289.261 144.71C289.199 144.71 289.138 144.71 289.086 144.71C288.735 144.72 288.56 144.906 288.539 145.256C288.271 145.256 288.014 145.256 287.993 145.617C287.591 145.576 287.405 145.762 287.446 146.164C286.642 146.257 286.034 146.597 285.817 147.432C285.745 147.577 285.611 147.607 285.456 147.618C285.219 147.618 285.095 147.742 285.085 147.979C284.693 147.958 284.384 148.051 284.363 148.525C284.301 148.525 284.239 148.525 284.188 148.525C283.95 148.525 283.827 148.649 283.816 148.886C283.229 148.958 282.723 149.154 282.548 149.794C282.486 149.794 282.424 149.794 282.373 149.794C281.517 150.155 280.537 150.371 280.197 151.423C280.063 151.64 279.856 151.598 279.65 151.609C279.258 151.588 278.949 151.681 278.918 152.155C278.691 152.465 278.33 152.547 278.01 152.702C277.536 152.372 277.546 152.795 277.464 153.063C277.34 153.125 277.227 153.186 277.103 153.248C276.515 153.197 276.03 153.331 275.835 153.97C275.546 154.135 275.309 154.414 274.937 154.341C274.545 154.321 274.236 154.414 274.205 154.878C274.143 154.878 274.081 154.878 274.03 154.878C273.648 154.929 273.081 154.671 273.122 155.424C272.772 155.631 272.473 155.95 272.029 155.971C271.534 155.589 271.4 155.919 271.307 156.332C270.637 156.755 269.884 157.043 269.183 157.415C268.09 158.002 266.966 158.59 265.687 158.693C265.419 158.693 265.161 158.693 265.141 159.054C265.017 159.054 264.903 159.054 264.78 159.054C264.099 158.642 264.089 159.137 264.058 159.591C263.821 159.591 263.573 159.591 263.336 159.591C262.841 159.199 262.707 159.529 262.614 159.951C262.387 160.075 262.15 160.158 261.892 160.137C261.407 159.807 261.098 159.91 260.985 160.498C260.17 160.869 259.335 161.137 258.448 161.23C258.097 160.869 257.901 161.117 257.726 161.416C257.664 161.416 257.602 161.416 257.551 161.416C256.88 161.086 256.468 161.467 256.096 161.952C256.035 161.952 255.973 161.952 255.911 161.952C255.385 161.715 254.952 161.797 254.642 162.313C254.23 162.416 253.817 162.55 253.374 162.499C253.075 162.2 252.9 162.292 252.827 162.674C252.487 162.891 252.116 162.86 251.734 162.86C251.497 162.756 251.229 162.561 251.188 163.045H250.827C250.507 162.798 250.229 162.715 250.105 163.231C249.713 163.478 249.27 163.396 248.836 163.416C248.207 163.159 247.599 162.994 247.207 163.777C247.011 163.777 246.795 163.746 246.661 163.963C246.599 163.963 246.547 163.963 246.485 163.963C246.062 163.963 245.64 163.963 245.217 163.963C244.32 163.716 243.464 163.767 242.67 164.324C242.309 164.324 241.948 164.324 241.587 164.324C241.525 164.324 241.463 164.324 241.401 164.324C241.339 164.324 241.277 164.324 241.226 164.324C240.71 164.118 240.184 163.829 239.772 164.499C239.535 164.675 239.287 164.664 239.05 164.499C238.926 164.314 238.802 164.314 238.689 164.499C238.627 164.499 238.576 164.499 238.514 164.499C238.452 164.499 238.39 164.499 238.328 164.499C238.266 164.499 238.204 164.499 238.153 164.499C238.112 164.458 238.07 164.386 238.029 164.386C236.039 164.355 234.048 164.345 232.048 164.324C231.78 164.324 231.491 164.293 231.439 164.685C230.666 164.417 229.872 164.53 229.078 164.51C228.944 163.994 228.665 164.076 228.356 164.334C228.232 164.334 228.119 164.334 227.995 164.334C227.593 163.612 227.046 164.015 226.541 164.149C226.056 164.149 225.572 164.149 225.087 164.149C225.046 163.911 225.004 163.695 224.726 163.973C224.499 163.973 224.375 164.076 224.365 164.314C222.787 162.375 221.993 160.199 222.168 157.662C222.282 156.053 223.004 154.661 223.581 153.217C227.046 144.431 230.522 135.645 234.017 126.869C235.884 122.177 237.854 117.516 239.638 112.782C240.411 110.73 241.092 108.647 241.927 106.626C242.01 106.43 242.03 106.203 242.309 106.213C246.434 107.853 250.59 109.431 254.684 111.153C256.756 112.019 258.757 112.06 260.789 111.256C261.82 110.844 262.779 110.297 263.356 109.214C263.707 108.544 263.975 107.853 264.264 107.162C266.027 102.924 267.523 98.582 269.513 94.4364L269.441 94.4261Z" fill="#F5D5AB"/>
<path d="M257.498 161.416C257.56 161.416 257.622 161.416 257.674 161.416C257.921 161.385 258.21 161.498 258.396 161.23C259.282 161.148 260.128 160.869 260.932 160.498C261.283 160.508 261.603 160.426 261.84 160.137C262.108 160.158 262.335 160.075 262.562 159.952C262.851 159.931 263.098 159.828 263.284 159.591C263.521 159.591 263.768 159.591 264.006 159.591C264.274 159.446 264.604 159.374 264.727 159.054C264.851 159.054 264.965 159.054 265.088 159.054C265.356 159.054 265.532 158.931 265.635 158.693C266.914 158.59 268.038 158.002 269.131 157.415C269.832 157.043 270.585 156.755 271.255 156.332C271.565 156.352 271.843 156.301 271.977 155.971C272.421 155.95 272.72 155.631 273.07 155.424C273.514 155.476 273.782 155.249 273.978 154.878C274.04 154.878 274.101 154.878 274.153 154.878C274.524 154.878 274.72 154.62 274.885 154.342C275.267 154.414 275.504 154.135 275.782 153.97C276.319 153.929 276.69 153.599 277.051 153.248C277.175 153.187 277.288 153.125 277.412 153.063C277.67 153.063 277.855 152.939 277.958 152.702C278.278 152.547 278.639 152.465 278.866 152.155C279.299 152.227 279.454 151.939 279.598 151.609C279.794 151.609 280.01 151.64 280.145 151.423C280.846 150.846 281.856 150.681 282.32 149.794C282.382 149.794 282.444 149.794 282.496 149.794C283.022 149.639 283.465 149.371 283.764 148.886C284.001 148.886 284.125 148.762 284.135 148.525C284.197 148.525 284.259 148.525 284.311 148.525C284.682 148.515 284.878 148.267 285.033 147.979C285.27 147.979 285.394 147.855 285.404 147.618C285.548 147.618 285.682 147.577 285.765 147.432C286.363 147.082 286.951 146.71 287.394 146.164C287.745 146.153 287.92 145.968 287.941 145.617C288.199 145.617 288.384 145.493 288.487 145.256C288.838 145.236 289.013 145.06 289.034 144.71C289.096 144.71 289.158 144.71 289.209 144.71C290.045 144.039 290.942 143.431 291.571 142.534C291.921 142.513 292.097 142.338 292.117 141.987C292.179 141.987 292.241 141.987 292.293 141.987C292.561 141.771 292.963 141.688 293.014 141.265C293.375 140.904 293.736 140.543 294.108 140.172C294.345 140.172 294.469 140.048 294.469 139.811C294.592 139.688 294.716 139.574 294.829 139.45C295.201 139.213 295.51 138.914 295.737 138.543C295.799 138.481 295.861 138.419 295.923 138.357C296.16 138.254 296.284 138.079 296.284 137.811C296.521 137.811 296.644 137.677 296.644 137.45C296.706 137.45 296.768 137.45 296.82 137.45C297.067 137.274 297.139 136.862 297.552 136.913C297.047 138.708 296.242 140.399 295.562 142.121C292.674 149.412 289.756 156.703 286.858 163.994C284.837 169.078 282.97 174.224 280.784 179.236C279.34 182.546 275.999 184.361 272.132 183.897C270.214 183.67 268.522 182.66 266.749 181.958C259.427 179.071 252.126 176.142 244.814 173.234C238.792 170.831 232.759 168.428 226.736 166.036C225.777 165.654 225.045 164.943 224.251 164.324C224.251 164.087 224.385 163.984 224.612 163.984C224.694 164.128 224.828 164.159 224.973 164.159C225.458 164.159 225.942 164.159 226.427 164.159C226.87 164.52 227.396 164.262 227.881 164.345C228.005 164.345 228.118 164.345 228.242 164.345C228.438 164.613 228.716 164.499 228.964 164.52C229.748 164.551 230.552 164.427 231.325 164.695C233.254 164.695 235.182 164.695 237.111 164.695C237.42 164.695 237.771 164.819 238.039 164.52C238.101 164.52 238.162 164.52 238.214 164.52C238.276 164.644 238.338 164.644 238.4 164.52C238.462 164.52 238.513 164.52 238.575 164.52C238.699 164.706 238.822 164.706 238.936 164.52C239.173 164.685 239.421 164.695 239.658 164.52C240.142 164.437 240.668 164.706 241.112 164.345C241.174 164.345 241.236 164.345 241.287 164.345C241.349 164.468 241.411 164.468 241.473 164.345C241.834 164.345 242.195 164.345 242.556 164.345C243.412 164.314 244.288 164.386 245.103 163.984C245.526 163.984 245.948 163.984 246.371 163.984C246.433 164.087 246.485 164.087 246.547 163.984C246.681 163.767 246.897 163.808 247.093 163.798C247.671 163.808 248.207 163.664 248.722 163.437C249.156 163.416 249.599 163.509 249.991 163.251C250.238 163.221 250.527 163.334 250.713 163.066H251.074C251.27 163.066 251.486 163.097 251.62 162.88C251.992 162.88 252.373 162.911 252.713 162.695C252.909 162.695 253.126 162.726 253.26 162.519C253.703 162.571 254.116 162.437 254.528 162.334C254.992 162.334 255.384 162.138 255.797 161.973C255.859 161.973 255.921 161.973 255.982 161.973C256.519 161.921 257.024 161.818 257.436 161.436L257.498 161.416Z" fill="#FEF9EC"/>
<path d="M269.441 94.4261C267.45 98.5717 265.965 102.913 264.192 107.152C263.903 107.843 263.645 108.534 263.284 109.204C262.707 110.287 261.758 110.833 260.716 111.246C258.685 112.05 256.674 112.009 254.611 111.143C250.517 109.42 246.361 107.843 242.236 106.203C242.267 105.677 242.68 105.512 243.061 105.357C246.042 104.099 249.043 102.872 252.013 101.593C255.086 100.273 258.128 98.8914 261.191 97.5611C263.604 96.5092 266.027 95.4986 268.43 94.4467C268.801 94.2817 269.1 94.2817 269.43 94.4467L269.441 94.4261Z" fill="#CB8C3D"/>
<path d="M297.604 136.903C297.191 136.852 297.119 137.264 296.872 137.439C296.841 136.687 297.15 136.223 297.944 136.171C297.955 136.315 297.944 136.46 297.79 136.532C297.635 136.604 297.604 136.748 297.604 136.903Z" fill="#DB9597"/>
<path d="M297.604 136.903C297.604 136.748 297.635 136.604 297.79 136.532C297.779 136.676 297.759 136.821 297.604 136.903Z" fill="#FEF9EC"/>
<path d="M238.091 164.499C237.823 164.798 237.472 164.675 237.163 164.675C235.234 164.675 233.306 164.675 231.377 164.675C231.429 164.293 231.718 164.314 231.986 164.314C233.976 164.334 235.966 164.355 237.967 164.376C238.008 164.376 238.05 164.448 238.091 164.489V164.499Z" fill="#DB9597"/>
<path d="M291.613 142.523C290.983 143.421 290.086 144.029 289.251 144.699C289.602 143.493 290.571 142.977 291.613 142.523Z" fill="#DB9597"/>
<path d="M282.362 149.794C281.898 150.681 280.877 150.846 280.186 151.423C280.526 150.371 281.506 150.155 282.362 149.794Z" fill="#DB9597"/>
<path d="M245.165 163.963C244.36 164.355 243.484 164.293 242.618 164.324C243.401 163.777 244.257 163.716 245.165 163.963Z" fill="#DB9597"/>
<path d="M287.436 146.153C286.982 146.7 286.405 147.071 285.807 147.422C286.034 146.587 286.642 146.246 287.436 146.153Z" fill="#DB9597"/>
<path d="M248.795 163.416C248.269 163.633 247.733 163.788 247.166 163.777C247.568 162.994 248.176 163.169 248.795 163.416Z" fill="#DB9597"/>
<path d="M257.498 161.416C257.086 161.797 256.581 161.911 256.044 161.952C256.416 161.457 256.828 161.086 257.498 161.416Z" fill="#DB9597"/>
<path d="M241.174 164.324C240.73 164.685 240.204 164.427 239.72 164.499C240.132 163.829 240.658 164.118 241.174 164.324Z" fill="#DB9597"/>
<path d="M277.093 153.248C276.732 153.599 276.36 153.929 275.824 153.97C276.02 153.331 276.505 153.197 277.093 153.248Z" fill="#DB9597"/>
<path d="M227.923 164.324C227.438 164.242 226.912 164.499 226.469 164.138C226.974 164.004 227.521 163.592 227.923 164.324Z" fill="#DB9597"/>
<path d="M283.806 148.886C283.506 149.371 283.063 149.639 282.537 149.794C282.712 149.154 283.218 148.958 283.806 148.886Z" fill="#DB9597"/>
<path d="M274.009 154.878C273.813 155.239 273.535 155.466 273.102 155.424C273.071 154.672 273.628 154.929 274.009 154.878Z" fill="#DB9597"/>
<path d="M255.87 161.962C255.457 162.138 255.055 162.334 254.601 162.323C254.91 161.797 255.344 161.715 255.87 161.962Z" fill="#DB9597"/>
<path d="M295.779 138.533C295.552 138.904 295.242 139.213 294.871 139.44C294.871 138.821 295.16 138.522 295.779 138.533Z" fill="#DB9597"/>
<path d="M261.85 160.147C261.613 160.436 261.293 160.519 260.943 160.508C261.067 159.921 261.366 159.817 261.85 160.147Z" fill="#DB9597"/>
<path d="M264.759 159.054C264.624 159.384 264.305 159.446 264.037 159.591C264.068 159.127 264.088 158.642 264.759 159.054Z" fill="#DB9597"/>
<path d="M293.056 141.255C293.005 141.688 292.592 141.76 292.335 141.977C292.293 141.451 292.541 141.214 293.056 141.255Z" fill="#DB9597"/>
<path d="M272.009 155.971C271.874 156.301 271.596 156.352 271.287 156.332C271.379 155.919 271.524 155.589 272.009 155.971Z" fill="#DB9597"/>
<path d="M279.639 151.609C279.505 151.928 279.34 152.227 278.907 152.155C278.938 151.681 279.248 151.598 279.639 151.609Z" fill="#DB9597"/>
<path d="M263.305 159.601C263.119 159.838 262.872 159.931 262.583 159.962C262.676 159.549 262.82 159.209 263.305 159.601Z" fill="#DB9597"/>
<path d="M285.074 147.979C284.909 148.267 284.713 148.515 284.353 148.525C284.373 148.051 284.693 147.968 285.074 147.979Z" fill="#DB9597"/>
<path d="M292.159 141.977C292.139 142.327 291.963 142.503 291.613 142.523C291.571 142.121 291.757 141.936 292.159 141.977Z" fill="#DB9597"/>
<path d="M287.982 145.617C287.962 145.968 287.786 146.143 287.436 146.164C287.395 145.762 287.58 145.576 287.982 145.617Z" fill="#DB9597"/>
<path d="M250.785 163.056C250.589 163.324 250.311 163.21 250.063 163.241C250.187 162.726 250.466 162.808 250.785 163.056Z" fill="#DB9597"/>
<path d="M229.016 164.499C228.768 164.479 228.48 164.582 228.294 164.324C228.614 164.076 228.892 163.984 229.016 164.499Z" fill="#DB9597"/>
<path d="M274.917 154.331C274.752 154.62 274.556 154.867 274.185 154.867C274.216 154.393 274.525 154.3 274.917 154.331Z" fill="#DB9597"/>
<path d="M289.065 144.71C289.044 145.06 288.869 145.236 288.519 145.256C288.529 144.906 288.714 144.73 289.065 144.71Z" fill="#DB9597"/>
<path d="M278 152.702C277.897 152.939 277.722 153.063 277.454 153.063C277.536 152.795 277.526 152.372 278 152.702Z" fill="#DB9597"/>
<path d="M258.406 161.23C258.211 161.498 257.932 161.385 257.685 161.416C257.87 161.117 258.066 160.88 258.406 161.23Z" fill="#DB9597"/>
<path d="M253.322 162.509C253.188 162.715 252.971 162.684 252.775 162.684C252.848 162.292 253.023 162.2 253.322 162.509Z" fill="#DB9597"/>
<path d="M265.666 158.693C265.563 158.931 265.388 159.054 265.12 159.054C265.14 158.683 265.398 158.693 265.666 158.693Z" fill="#DB9597"/>
<path d="M288.529 145.246C288.426 145.483 288.251 145.607 287.982 145.607C287.993 145.236 288.261 145.236 288.529 145.246Z" fill="#DB9597"/>
<path d="M251.693 162.87C251.558 163.087 251.352 163.045 251.146 163.056C251.187 162.581 251.455 162.777 251.693 162.87Z" fill="#DB9597"/>
<path d="M296.325 137.8C296.325 138.058 296.201 138.244 295.964 138.347C295.964 138.079 295.964 137.821 296.325 137.8Z" fill="#DB9597"/>
<path d="M285.445 147.618C285.445 147.855 285.311 147.979 285.074 147.979C285.074 147.742 285.198 147.618 285.445 147.618Z" fill="#DB9597"/>
<path d="M294.51 139.801C294.51 140.038 294.387 140.162 294.149 140.162C294.149 139.925 294.273 139.801 294.51 139.801Z" fill="#DB9597"/>
<path d="M225.025 164.138C224.87 164.138 224.736 164.107 224.664 163.963C224.953 163.685 224.994 163.911 225.025 164.138Z" fill="#DB9597"/>
<path d="M284.177 148.525C284.177 148.762 284.043 148.886 283.806 148.886C283.806 148.649 283.929 148.525 284.177 148.525Z" fill="#DB9597"/>
<path d="M296.686 137.439C296.686 137.677 296.562 137.8 296.325 137.8C296.325 137.563 296.449 137.439 296.686 137.439Z" fill="#DB9597"/>
<path d="M238.988 164.499C238.864 164.685 238.751 164.685 238.627 164.499C238.751 164.314 238.864 164.303 238.988 164.499Z" fill="#DB9597"/>
<path d="M246.609 163.953C246.547 164.056 246.495 164.056 246.434 163.953C246.495 163.953 246.547 163.953 246.609 163.953Z" fill="#DB9597"/>
<path d="M241.535 164.324C241.473 164.448 241.411 164.448 241.349 164.324C241.411 164.324 241.473 164.324 241.535 164.324Z" fill="#DB9597"/>
<path d="M238.452 164.499C238.39 164.623 238.328 164.623 238.266 164.499C238.328 164.499 238.39 164.499 238.452 164.499Z" fill="#DB9597"/>
<path d="M183.012 223.579V144.658" stroke="#3575B9" stroke-width="4.64061" stroke-miterlimit="10"/>
<path d="M183.012 140.275L187.529 148.102L192.045 155.919H183.012H173.978L178.495 148.102L183.012 140.275Z" fill="#3575B9"/>
<path d="M221.467 169.769L216.156 177.07L210.845 184.371L207.174 176.121L203.513 167.861L212.495 168.82L221.467 169.769Z" fill="#3575B9"/>
<path d="M144.33 170.285L153.291 169.222L162.263 168.171L158.695 176.462L155.116 184.763L149.723 177.524L144.33 170.285Z" fill="#3575B9"/>
<path d="M183.156 185.702L210.165 174.698" stroke="#3575B9" stroke-width="4.64061" stroke-miterlimit="10"/>
<path d="M183.156 185.702L210.165 174.698" stroke="#3575B9" stroke-width="4.64061" stroke-miterlimit="10"/>
<path d="M182.053 185.702L155.044 174.698" stroke="#3575B9" stroke-width="4.64061" stroke-miterlimit="10"/>
</g>
<defs>
<clipPath id="clip0_399_8577">
<rect width="277.478" height="200" fill="white" transform="translate(45 50)"/>
</clipPath>
</defs>
</svg>
