<svg width="470" height="250" viewBox="0 0 470 250" fill="none" xmlns="http://www.w3.org/2000/svg">
<mask id="mask0_402_11318" style="mask-type:alpha" maskUnits="userSpaceOnUse" x="0" y="0" width="470" height="250">
<path d="M0 20C0 8.9543 8.9543 0 20 0H450C461.046 0 470 8.9543 470 20V250H0V20Z" fill="#F7ECDE"/>
</mask>
<g mask="url(#mask0_402_11318)">
<path d="M174.884 50.0667C172.063 42.1894 176.215 33.5137 184.159 30.7992C191.717 28.2178 200.086 32.0899 202.987 39.5281C204.797 44.1587 204.145 49.122 201.71 52.9941C201.044 54.0453 200.898 55.3227 201.324 56.4936L201.803 57.811C202.468 59.6605 201.51 61.6831 199.661 62.3484L191.863 65.1427C190.014 65.808 187.991 64.85 187.326 63.0004L186.847 61.6698C186.421 60.4988 185.476 59.6073 184.292 59.2214C180.074 57.811 176.521 54.5642 174.898 50.0534L174.884 50.0667Z" fill="#F6CE6A"/>
<path d="M182.988 49.2813C182.855 49.2813 182.735 49.2015 182.682 49.0684C182.456 48.4164 180.566 42.6947 183.028 41.4173C183.56 41.1379 184.412 41.0315 185.503 42.096C185.543 42.1359 185.596 42.1891 185.636 42.229C185.889 41.2044 186.408 40.3528 187.206 40.0468C188.177 39.6742 189.282 40.273 190.187 41.1379C190.213 40.4726 190.306 39.8472 190.466 39.4081C190.719 38.6762 191.118 38.5166 191.398 38.5033C191.424 38.5033 191.451 38.5033 191.491 38.5033C193.966 38.5033 196.254 43.4931 196.348 43.706C196.427 43.8657 196.348 44.0653 196.188 44.1318C196.028 44.1983 195.829 44.1318 195.762 43.9721C195.137 42.6016 193.181 39.0488 191.438 39.142C191.278 39.142 191.065 39.4613 190.945 40.1532C190.852 40.6855 190.812 41.2577 190.825 41.8165C191.291 42.3887 191.664 42.9875 191.877 43.4798C192.396 44.6774 191.983 45.0766 191.704 45.2229C191.464 45.3427 191.198 45.2895 190.998 45.1032C190.533 44.6774 190.253 43.3734 190.2 42.056C189.348 41.0714 188.257 40.3262 187.459 40.6323C186.78 40.8984 186.355 41.8032 186.182 42.8544C187.153 44.1983 187.805 46.008 187.472 46.6866C187.353 46.9394 187.1 47.0592 186.807 47.006C186.128 46.8995 185.636 46.0213 185.503 44.6641C185.45 44.1185 185.45 43.5596 185.503 43.0141C185.423 42.9209 185.357 42.8278 185.277 42.7347C184.771 42.1758 184.039 41.577 183.347 41.9496C181.671 42.8278 182.749 47.2056 183.307 48.8289C183.361 49.0019 183.281 49.1749 183.108 49.2414C183.068 49.2414 183.041 49.2547 183.001 49.2547L182.988 49.2813ZM186.088 43.9322C186.088 44.1717 186.088 44.3979 186.128 44.6241C186.248 45.7286 186.607 46.3407 186.9 46.3939C187.033 46.1943 186.74 45.0633 186.088 43.9322ZM190.919 43.0673C191.038 43.9189 191.251 44.5709 191.438 44.6508C191.477 44.6108 191.531 44.3447 191.278 43.7459C191.185 43.533 191.065 43.2935 190.919 43.0673Z" fill="#34302D"/>
<path d="M195.616 63.7589C195.43 63.7589 195.283 63.6126 195.297 63.4263L195.829 39.1157C195.829 38.9428 195.962 38.8097 196.162 38.7964C196.335 38.7964 196.481 38.9428 196.481 39.129L195.949 63.4396C195.949 63.6126 195.802 63.7589 195.629 63.7589H195.616Z" fill="#34302D"/>
<path d="M195.722 64.0648C195.629 64.0648 195.536 64.0249 195.483 63.9584L179.608 45.5292C179.488 45.3961 179.502 45.1965 179.648 45.0768C179.781 44.957 179.981 44.9703 180.101 45.1167L195.975 63.5459C196.095 63.6789 196.081 63.8785 195.935 63.9983C195.868 64.0515 195.802 64.0781 195.722 64.0781V64.0648Z" fill="#34302D"/>
<path d="M190.293 67.7505L202.482 63.3727C203.08 63.1598 203.4 62.4945 203.187 61.8824C202.974 61.2836 202.309 60.9643 201.697 61.1772L189.508 65.555C188.909 65.7679 188.59 66.4332 188.803 67.0453C189.016 67.644 189.681 67.9634 190.293 67.7505Z" fill="#A38552"/>
<path d="M191.012 69.773L203.2 65.3953C203.799 65.1824 204.119 64.5171 203.906 63.905C203.693 63.3062 203.027 62.9868 202.415 63.1997L190.227 67.5775C189.628 67.7904 189.309 68.4557 189.522 69.0678C189.735 69.6666 190.4 69.9859 191.012 69.773Z" fill="#A38552"/>
<path d="M199.621 75.9072C199.474 75.9072 199.341 75.8007 199.301 75.6543C198.663 72.4076 198.437 70.3984 198.437 70.3718C198.423 70.1988 198.543 70.0391 198.729 70.0125C198.889 69.9859 199.062 70.1189 199.089 70.3052C199.089 70.3185 199.301 72.3012 199.94 75.5213C199.98 75.6943 199.86 75.8672 199.687 75.9072C199.661 75.9072 199.647 75.9072 199.621 75.9072Z" fill="#F6CE6A"/>
<path d="M228.668 126.019C228.668 126.019 228.535 126.005 228.482 125.952C225.847 124.049 223.319 121.88 220.964 119.485C220.844 119.352 220.844 119.153 220.964 119.033C221.084 118.9 221.296 118.913 221.416 119.033C223.745 121.401 226.246 123.544 228.854 125.42C229.001 125.526 229.027 125.726 228.934 125.872C228.868 125.965 228.775 126.005 228.668 126.005V126.019ZM214.816 112.047C214.723 112.047 214.617 112.007 214.55 111.914C212.661 109.319 210.878 106.498 209.268 103.531C209.188 103.371 209.241 103.185 209.401 103.092C209.56 103.012 209.747 103.065 209.84 103.225C211.45 106.166 213.206 108.96 215.082 111.541C215.189 111.688 215.149 111.887 215.016 111.994C214.963 112.034 214.896 112.06 214.83 112.06L214.816 112.047ZM205.316 94.7756C205.183 94.7756 205.063 94.6957 205.023 94.576C203.785 91.5688 202.681 88.4285 201.723 85.235C201.67 85.062 201.763 84.889 201.936 84.8358C202.109 84.7826 202.282 84.8757 202.335 85.0487C203.293 88.2289 204.398 91.3426 205.622 94.3232C205.688 94.4829 205.622 94.6824 205.449 94.749C205.409 94.7623 205.369 94.7756 205.329 94.7756H205.316Z" fill="#F6CE6A"/>
<path d="M242.068 133.125C242.068 133.125 241.988 133.125 241.961 133.111C240.284 132.499 238.621 131.807 237.024 131.036C236.865 130.956 236.798 130.769 236.878 130.61C236.958 130.45 237.144 130.383 237.304 130.463C238.887 131.222 240.524 131.9 242.187 132.512C242.36 132.579 242.44 132.752 242.374 132.925C242.32 133.058 242.201 133.138 242.068 133.138V133.125Z" fill="#F6CE6A"/>
<path d="M223.286 137.939C223.286 137.939 216.873 167.293 196.868 175.22C180.508 181.708 164.597 171.817 164.597 171.817L176.787 140.594C176.787 140.594 187.388 142.669 196.886 137.696C205.562 133.153 207.861 124.776 207.861 124.776L223.286 137.939Z" fill="#F48462"/>
<path d="M174.169 139.678L191.707 138.406L198.139 177.37C198.139 177.37 182.976 180.942 177.441 177.501C171.907 174.061 169.645 146.315 174.169 139.678Z" fill="#D8E7EF"/>
<path d="M157.735 112.175C157.735 112.175 166.373 104.079 161.698 98.302C157.024 92.5248 148.517 99.4425 148.517 99.4425C148.517 99.4425 144.741 96.208 140.01 99.4425C135.28 102.677 135.261 109.632 135.261 109.632C135.261 109.632 130.194 109.913 130.4 116.083C130.587 122.253 137.636 127.207 137.636 127.207L157.753 112.175H157.735Z" fill="black"/>
<path d="M91.6231 165.629C91.6231 165.629 86.0327 171.631 81.7138 183.447C76.4787 197.769 78.2736 220.859 78.2736 220.859L98.5408 221.42C98.5408 221.42 106.244 190.421 112.619 189.935C118.976 189.449 91.6417 165.629 91.6417 165.629H91.6231Z" fill="#F48462"/>
<path d="M92.8946 233.106C91.2306 232.545 84.1632 240.603 83.3032 241.033C82.4431 241.463 84.4997 247.764 82.5927 248.232C80.6669 248.699 77.1893 247.951 74.4035 248.643C71.7859 249.297 42.3199 275.398 37.2718 281.194C36.8418 281.68 36.9353 282.428 37.4588 282.858C38.6367 283.812 40.8989 285.55 43.6287 287.027C46.5827 288.654 50.0977 289.981 53.3136 289.738C60.9231 289.159 71.7299 282.091 77.2267 281.325C82.7422 280.558 91.511 282.652 92.6702 279.773C93.8294 276.894 93.549 268.63 99.8124 264.348C106.095 260.067 109.927 259.132 110.245 256.421C110.47 254.589 103.196 244.829 97.9614 238.528C95.456 235.499 93.4181 233.274 92.8759 233.106H92.8946Z" fill="#D8E7EF"/>
<path d="M92.8946 233.106C91.2306 232.545 84.1632 240.603 83.3031 241.033C82.4431 241.463 84.4997 247.764 82.5927 248.232C80.6669 248.699 77.1893 247.951 74.4035 248.643C71.7859 249.297 42.3199 275.398 37.2718 281.194C36.8418 281.68 36.9353 282.428 37.4588 282.858C38.6367 283.812 40.8989 285.55 43.6287 287.027L97.9801 238.528C95.4747 235.499 93.4368 233.274 92.8946 233.106Z" fill="#92B4EA"/>
<path d="M123.165 214.577C123.165 214.577 119.799 231.909 118.266 246.642C116.733 261.375 114.209 281.138 114.209 281.138C114.209 281.138 102.393 326.496 131.447 330.329C167.476 335.078 165.382 292.412 165.382 292.412L154.014 203.172L123.165 214.596V214.577Z" fill="#5C69A5"/>
<path d="M182.153 209.735C182.153 209.735 192.997 257.991 189.408 293.328C185.818 328.665 172.618 369.929 172.618 369.929L128.755 368.807L137.094 311.202L147.789 212.708L182.153 209.716V209.735Z" fill="#5C69A5"/>
<path d="M235.289 125.599C235.289 125.599 223.23 142.763 217.134 139.846C211.039 136.93 208.665 131.601 208.665 131.601C208.665 131.601 203.392 112.979 211.694 112.736C221.846 112.418 235.27 125.599 235.27 125.599H235.289Z" fill="#F48462"/>
<path d="M229.344 112.68C229.344 112.68 233.513 104.865 228.652 104.79C223.791 104.715 213.134 116.7 216.088 120.813C219.023 124.908 229.362 112.68 229.362 112.68H229.344Z" fill="#F48462"/>
<path d="M234.785 117.597C234.785 117.597 238.954 109.782 234.093 109.707C229.232 109.632 218.575 121.617 221.529 125.73C224.464 129.825 234.803 117.597 234.803 117.597H234.785Z" fill="#F48462"/>
<path d="M238.673 123.842C238.673 123.842 243.497 117.654 239.253 116.868C235.027 116.064 223.922 124.927 225.885 128.946C227.848 132.966 238.673 123.861 238.673 123.861V123.842Z" fill="#F48462"/>
<path d="M183.163 187.336L185.668 216.091L122.38 218.877C122.38 218.877 115.593 156.748 118.94 149.643C125.484 135.752 174.17 139.678 174.17 139.678L183.182 187.355L183.163 187.336Z" fill="#D8E7EF"/>
<path d="M104.094 233.125C104.15 235.2 101.458 239.669 101.458 239.669C101.458 239.669 101.159 247.203 99.0086 247.97C96.8584 248.737 94.0913 245.596 94.0913 245.596C94.0913 245.596 89.7911 248.138 88.0336 247.97C86.2761 247.802 77.9561 248.026 75.5068 244.006C73.0575 239.987 78.2739 220.86 78.2739 220.86L96.204 217.214C96.204 217.214 104.038 231.05 104.094 233.125Z" fill="#F48462"/>
<path d="M94.0911 246.025C93.8667 246.025 93.6611 245.857 93.6424 245.614L93.0815 240.285C93.0628 240.042 93.2311 239.818 93.4928 239.781C93.7359 239.743 93.9602 239.93 93.9976 240.192L94.5585 245.52C94.5772 245.763 94.4089 245.988 94.1472 246.025C94.1472 246.025 94.1098 246.025 94.0911 246.025Z" fill="black"/>
<path d="M142.741 129.171L143.545 142.726C143.545 142.726 145.975 146.446 153.173 146.521C158.539 146.577 160.334 145.1 160.334 145.1L159.156 139.117L158.053 131.657L144.947 129.526L142.741 129.171Z" fill="#F48462"/>
<path d="M144.891 131.171C144.947 131.508 145.096 131.882 145.321 132.33C148.48 138.257 156.053 139.061 159.156 139.117L158.109 132.218L144.891 131.171Z" fill="black"/>
<path d="M158.334 105.5C158.334 105.5 165.494 119.766 163.625 128.105C161.755 136.444 154.22 135.546 149.658 134.2C145.096 132.854 142.871 130.218 142.871 130.218C142.871 130.218 138.758 131.863 135.767 128.124C132.756 124.384 134.252 119.822 136.571 118.682C138.908 117.541 141.824 119.112 141.824 119.112L139.375 114.98C139.375 114.98 147.583 92.8989 158.315 105.519L158.334 105.5Z" fill="#F48462"/>
<path d="M141.824 125.431C141.824 125.431 141.656 125.413 141.581 125.357L136.047 121.916C135.842 121.786 135.767 121.505 135.898 121.299C136.029 121.094 136.309 121.019 136.515 121.15L142.049 124.59C142.255 124.721 142.329 125.001 142.198 125.207C142.105 125.338 141.974 125.413 141.806 125.413L141.824 125.431Z" fill="black"/>
<path d="M137 125.693C136.814 125.693 136.627 125.581 136.57 125.375C136.496 125.132 136.627 124.889 136.851 124.795L140.272 123.655C140.515 123.58 140.759 123.711 140.852 123.935C140.927 124.178 140.796 124.422 140.572 124.515L137.15 125.656C137.15 125.656 137.057 125.674 137 125.674V125.693Z" fill="black"/>
<path d="M148.91 112.344C148.91 112.344 148.742 112.325 148.667 112.269C148.461 112.138 148.405 111.858 148.536 111.634C149.976 109.483 152.107 109.708 153.042 110.119C153.266 110.231 153.36 110.493 153.267 110.717C153.173 110.942 152.893 111.054 152.668 110.942C152.575 110.904 150.649 110.082 149.284 112.12C149.191 112.251 149.06 112.325 148.91 112.325V112.344Z" fill="black"/>
<path d="M160.24 111.016C160.24 111.016 160.053 110.997 159.978 110.923C158.67 109.988 157.417 110.81 157.361 110.848C157.155 110.997 156.875 110.941 156.725 110.736C156.576 110.53 156.632 110.249 156.837 110.119C156.912 110.062 158.651 108.903 160.502 110.212C160.708 110.362 160.745 110.642 160.614 110.848C160.521 110.979 160.39 111.035 160.24 111.035V111.016Z" fill="black"/>
<path d="M159.063 123.581C159.063 123.581 158.988 123.581 158.969 123.581C158.726 123.524 158.577 123.281 158.633 123.038C159.605 118.738 156.464 116.495 156.427 116.476C156.221 116.326 156.165 116.046 156.314 115.84C156.464 115.634 156.745 115.578 156.95 115.728C156.988 115.747 160.615 118.364 159.512 123.225C159.456 123.431 159.269 123.581 159.063 123.581Z" fill="black"/>
<path d="M160.577 116.644C160.39 116.644 160.222 116.532 160.147 116.345L159.231 113.708C159.156 113.465 159.268 113.222 159.511 113.129C159.754 113.035 159.997 113.166 160.091 113.409L161.007 116.046C161.082 116.289 160.97 116.532 160.727 116.625C160.671 116.625 160.633 116.644 160.577 116.644Z" fill="black"/>
<path d="M153.173 117.298C152.986 117.298 152.818 117.186 152.743 116.999L151.827 114.363C151.752 114.12 151.864 113.877 152.108 113.783C152.351 113.69 152.594 113.821 152.687 114.064L153.603 116.7C153.678 116.943 153.566 117.186 153.323 117.279C153.267 117.279 153.229 117.298 153.173 117.298Z" fill="black"/>
<path d="M159.791 108.735C159.791 108.735 158.352 106.472 155.435 106.641C152.518 106.809 150.948 108.997 150.948 108.997C150.948 108.997 152.574 113.839 148.779 116.718C144.983 119.598 141.861 119.093 141.861 119.093L138.907 118.27L136.495 114.194L144.217 104.64L154.612 98.1898L160.464 102.808L159.791 108.735Z" fill="black"/>
<path d="M155.903 127.207C154.744 127.207 153.005 126.759 152.033 125.02C151.92 124.796 151.995 124.534 152.201 124.403C152.425 124.291 152.687 124.366 152.818 124.571C153.958 126.609 156.258 126.273 156.352 126.254C156.595 126.217 156.838 126.385 156.875 126.628C156.912 126.871 156.744 127.114 156.501 127.151C156.333 127.17 156.127 127.189 155.884 127.189L155.903 127.207Z" fill="black"/>
<path d="M159.156 139.117C159.156 139.117 161.886 141.585 163.775 146.409C164.84 149.138 164.971 153.289 164.373 153.326C163.793 153.383 158.857 146.913 156.015 146.727C153.173 146.54 151.472 154.878 150.294 155.252C149.116 155.626 144.199 152.784 142.18 148.278C140.16 143.772 143.376 139.902 143.376 139.902C143.376 139.902 158.259 150.391 159.156 139.136V139.117Z" fill="#92B4EA"/>
<path d="M101.458 240.117C101.234 240.117 101.028 239.949 101.009 239.706L100.056 229.872C100.037 229.628 100.205 229.404 100.467 229.385C100.691 229.367 100.934 229.535 100.953 229.797L101.907 239.631C101.925 239.874 101.757 240.099 101.495 240.117H101.458Z" fill="black"/>
<path d="M130.213 142.258C130.213 142.258 114.957 146.241 104.318 153.271C93.68 160.301 87.2109 167.536 87.2109 167.536L114.676 194.329L124.474 188.477L130.232 142.258H130.213Z" fill="#D8E7EF"/>
<path d="M183.163 187.803C182.957 187.803 182.752 187.654 182.714 187.429L179.835 172.229C179.797 171.986 179.947 171.743 180.19 171.706C180.433 171.649 180.676 171.818 180.714 172.061L183.593 187.261C183.63 187.504 183.481 187.747 183.238 187.785C183.2 187.785 183.182 187.785 183.144 187.785L183.163 187.803Z" fill="#92B4EA"/>
<path d="M119.968 191.618C119.968 191.618 119.837 191.618 119.781 191.58C119.594 191.505 119.5 191.3 119.519 191.094C120.08 187.317 121.258 180.979 122.772 180.773C123.221 180.699 123.576 181.016 123.875 181.671C125.539 185.448 120.529 191.225 120.304 191.468C120.211 191.561 120.099 191.618 119.968 191.618ZM122.828 181.652C122.323 181.951 121.37 185.672 120.716 189.486C122.062 187.616 124.044 184.288 123.071 182.026C122.94 181.727 122.847 181.652 122.847 181.652H122.828Z" fill="#92B4EA"/>
<path d="M133.934 330.908C132.383 330.908 131.429 330.777 131.392 330.777C131.149 330.74 130.98 330.516 130.999 330.273C131.036 330.03 131.261 329.861 131.504 329.88C131.672 329.899 148.387 332.068 159.53 317.166C175.011 296.488 164.017 237.462 163.905 236.864C163.887 236.733 163.905 236.602 163.98 236.509C164.055 236.415 164.167 236.34 164.298 236.34L180.153 234.957C180.396 234.901 180.62 235.125 180.639 235.368C180.657 235.611 180.471 235.835 180.227 235.854L164.859 237.182C165.981 243.333 175.366 297.479 160.222 317.69C151.378 329.506 139.113 330.89 133.878 330.89L133.934 330.908Z" fill="#40507F"/>
<path d="M125.876 234.134C125.708 234.134 125.558 234.04 125.465 233.891C125.352 233.667 125.446 233.405 125.67 233.293C131.859 230.226 135.953 222.355 135.991 222.262C136.103 222.037 136.383 221.962 136.608 222.056C136.832 222.168 136.926 222.449 136.795 222.673C136.627 223.009 132.513 230.899 126.063 234.097C126.007 234.134 125.932 234.153 125.857 234.153L125.876 234.134Z" fill="#40507F"/>
<path d="M207.319 114.232C206.328 116.812 207.955 119.635 210.666 120.065C215.845 120.869 223.847 122.44 224.071 118.719C224.258 115.447 215.994 112.792 212.76 111.689C210.554 110.941 208.16 112.044 207.319 114.213V114.232Z" fill="#F48462"/>
<path d="M218.462 133.882C218.462 133.882 218.369 133.882 218.313 133.863C218.07 133.788 217.958 133.527 218.032 133.284C220.164 127.301 217.415 121.673 217.378 121.617C217.303 121.486 217.322 121.318 217.378 121.187C217.453 121.056 217.602 120.962 217.752 120.962C221.996 120.832 222.856 119.934 222.987 119.411C223.342 118.027 220.145 115.522 218.032 114.269C217.827 114.138 217.752 113.858 217.883 113.652C218.014 113.428 218.294 113.372 218.5 113.502C219.117 113.876 224.501 117.167 223.866 119.654C223.529 120.944 221.753 121.673 218.444 121.841C219.135 123.524 220.725 128.366 218.855 133.583C218.78 133.77 218.612 133.882 218.425 133.882H218.462Z" fill="black"/>
<path d="M224.072 119.186C223.978 119.186 223.885 119.149 223.791 119.093C223.586 118.943 223.548 118.663 223.698 118.457L228.877 111.614C229.027 111.409 229.307 111.371 229.513 111.521C229.718 111.67 229.756 111.951 229.606 112.156L224.427 118.999C224.334 119.112 224.203 119.186 224.072 119.186Z" fill="black"/>
<path d="M223.716 126.31C223.491 126.31 223.285 126.272 223.099 126.197C220.818 125.207 220.911 122.365 221.266 121C221.322 120.757 221.584 120.626 221.827 120.682C222.07 120.757 222.22 121 222.145 121.243C222.145 121.28 221.322 124.459 223.454 125.375C225.006 126.048 230.82 121.056 234.447 117.298C234.616 117.111 234.915 117.111 235.083 117.298C235.27 117.466 235.27 117.765 235.083 117.934C233.662 119.411 226.8 126.328 223.697 126.328L223.716 126.31Z" fill="black"/>
<path d="M227.736 129.788C227.343 129.788 226.951 129.769 226.596 129.694C225.792 129.545 225.436 129.096 225.268 128.741C224.595 127.264 226.109 124.721 226.278 124.441C226.409 124.216 226.689 124.16 226.895 124.291C227.1 124.422 227.175 124.702 227.044 124.908C226.483 125.824 225.736 127.582 226.072 128.367C226.147 128.516 226.278 128.722 226.726 128.797C229.101 129.208 233.102 127.787 233.139 127.769C233.364 127.675 233.626 127.806 233.719 128.049C233.813 128.292 233.682 128.535 233.439 128.629C233.289 128.685 230.223 129.788 227.699 129.788H227.736Z" fill="black"/>
<path d="M321.565 77.6863H250.088C247.83 77.6863 246 79.5164 246 81.774V153.251C246 155.509 247.83 157.339 250.088 157.339H321.565C323.823 157.339 325.653 155.509 325.653 153.251V81.774C325.653 79.5164 323.823 77.6863 321.565 77.6863Z" fill="#A63019"/>
<path d="M321.565 157.067H250.088C247.83 157.067 246 158.897 246 161.154V232.632C246 234.889 247.83 236.72 250.088 236.72H321.565C323.823 236.72 325.653 234.889 325.653 232.632V161.154C325.653 158.897 323.823 157.067 321.565 157.067Z" fill="#F4C245"/>
<path d="M401.218 77.9939H329.74C327.483 77.9939 325.653 79.824 325.653 82.0816V153.559C325.653 155.817 327.483 157.647 329.74 157.647H401.218C403.476 157.647 405.306 155.817 405.306 153.559V82.0816C405.306 79.824 403.476 77.9939 401.218 77.9939Z" fill="#34302D"/>
<path d="M401.218 157.752H329.74C327.483 157.752 325.653 159.583 325.653 161.84V233.318C325.653 235.575 327.483 237.405 329.74 237.405H401.218C403.476 237.405 405.306 235.575 405.306 233.318V161.84C405.306 159.583 403.476 157.752 401.218 157.752Z" fill="#C35053"/>
<path d="M285.822 161.55C295.26 161.55 302.911 153.899 302.911 144.461C302.911 135.023 295.26 127.372 285.822 127.372C276.384 127.372 268.733 135.023 268.733 144.461C268.733 153.899 276.384 161.55 285.822 161.55Z" fill="#F4C245"/>
<path d="M314.076 134.914C323.514 134.914 331.165 127.263 331.165 117.825C331.165 108.387 323.514 100.736 314.076 100.736C304.637 100.736 296.986 108.387 296.986 117.825C296.986 127.263 304.637 134.914 314.076 134.914Z" fill="#34302D"/>
<path d="M285.286 82.1784C294.724 82.1784 302.375 74.5273 302.375 65.0892C302.375 55.6511 294.724 48 285.286 48C275.848 48 268.197 55.6511 268.197 65.0892C268.197 74.5273 275.848 82.1784 285.286 82.1784Z" fill="#A63019"/>
<path d="M416.514 134.914C425.952 134.914 433.603 127.263 433.603 117.825C433.603 108.387 425.952 100.736 416.514 100.736C407.076 100.736 399.425 108.387 399.425 117.825C399.425 127.263 407.076 134.914 416.514 134.914Z" fill="#34302D"/>
<path d="M314.076 213.732C323.514 213.732 331.165 206.081 331.165 196.642C331.165 187.204 323.514 179.553 314.076 179.553C304.637 179.553 296.986 187.204 296.986 196.642C296.986 206.081 304.637 213.732 314.076 213.732Z" fill="#C35053"/>
<path d="M365.475 161.717C374.913 161.717 382.564 154.066 382.564 144.628C382.564 135.19 374.913 127.539 365.475 127.539C356.037 127.539 348.386 135.19 348.386 144.628C348.386 154.066 356.037 161.717 365.475 161.717Z" fill="#C35053"/>
<path d="M253.428 198.111C253.217 198.111 253.05 197.944 253.059 197.733L253.164 173.374C253.164 173.171 253.331 173.004 253.534 173.004C253.745 173.004 253.912 173.171 253.903 173.382L253.797 197.742C253.797 197.944 253.63 198.111 253.428 198.111Z" fill="#34302D"/>
<path d="M252.707 108.419C252.47 108.419 252.285 108.225 252.285 107.988L252.391 83.6287C252.391 83.3914 252.584 83.2068 252.813 83.2068C253.05 83.2068 253.235 83.4002 253.235 83.6375L253.129 107.997C253.129 108.234 252.936 108.419 252.707 108.419Z" fill="#34302D"/>
<path d="M365.475 231.797H341.362C341.151 231.797 340.984 231.63 340.984 231.419C340.984 231.208 341.151 231.041 341.362 231.041H365.475C365.686 231.041 365.853 231.208 365.853 231.419C365.853 231.63 365.686 231.797 365.475 231.797Z" fill="#34302D"/>
<path d="M356.72 85.7299H332.607C332.369 85.7299 332.185 85.5365 332.185 85.3079C332.185 85.0794 332.378 84.886 332.607 84.886H356.72C356.957 84.886 357.141 85.0794 357.141 85.3079C357.141 85.5365 356.948 85.7299 356.72 85.7299Z" fill="#34302D"/>
</g>
</svg>
