<svg width="368" height="250" viewBox="0 0 368 250" fill="none" xmlns="http://www.w3.org/2000/svg">
<g clip-path="url(#clip0_399_8052)">
<path d="M180.504 30.0336C183.278 31.6152 184.081 34.0379 183.88 37.1504C183.679 40.3135 184.298 40.7846 187.407 40.7846C189.479 40.7846 191.568 40.7677 193.641 40.7846C196.816 40.8182 198.621 42.5007 198.972 45.6637C198.972 49.466 198.972 53.2684 198.972 57.0539C179.05 57.0539 159.127 57.0539 139.205 57.0539C139.205 53.2516 139.205 49.4492 139.205 45.6469C139.539 42.5007 141.361 40.8014 144.52 40.7677C146.893 40.7341 149.283 40.7677 151.656 40.7677C153.545 40.7677 154.264 40.0275 154.347 38.1094C154.364 37.5542 154.397 36.999 154.347 36.4438C154.046 33.3986 155.233 31.2282 158.041 30H180.504V30.0336Z" fill="#C2D0DA"/>
<path d="M242.444 84.9154C244.049 81.3655 245.469 77.6809 249.13 75.6619C251.42 74.3833 253.893 74.5179 256.099 75.6619C258.072 76.6714 260.01 77.7818 261.849 79.0773C263.336 80.1373 263.721 81.8702 264.874 83.0816V87.1699C263.286 89.6936 261.698 92.2005 260.144 94.7242C259.927 95.0943 259.793 95.4813 259.342 95.6159C255.999 93.4455 252.69 91.2247 249.314 89.1216C247.041 87.6915 244.885 86.0427 242.444 84.9154Z" fill="#66B49D"/>
<path d="M139.204 45.6805C139.204 49.4828 139.204 53.2852 139.204 57.0875C131.834 57.0875 124.48 57.1212 117.109 57.138C113.933 57.138 113.449 57.6091 113.449 60.7385C113.449 108.806 113.449 156.891 113.449 204.959C113.449 207.752 114.151 208.475 116.909 208.475C136.296 208.475 155.684 208.475 175.072 208.475C175.64 208.475 176.309 208.744 176.793 208.155C177.612 208.542 178.465 208.509 179.334 208.408C193.624 208.425 207.914 208.458 222.204 208.458C223.909 208.458 224.678 207.567 224.678 205.716C224.678 187.613 224.678 169.526 224.678 151.423C228.271 145.232 232.115 139.192 236.06 133.236C236.076 133.909 236.11 134.598 236.11 135.271C236.11 160.794 236.06 186.334 236.16 211.857C236.177 216.618 233.034 220.034 228.137 220.017C188.61 219.933 149.082 219.966 109.538 219.966C104.958 219.966 102.033 217.022 102.033 212.378C102.05 159.331 102.084 106.299 102 53.2515C102 49.0454 105.092 45.6468 109.555 45.63C119.432 45.63 129.327 45.6468 139.204 45.6637V45.6805Z" fill="#FFC250"/>
<path d="M236.076 133.202C232.131 139.175 228.271 145.198 224.694 151.389C224.393 151.776 224.076 152.13 223.808 152.55C216.671 163.907 209.551 175.28 202.398 186.637C200.409 189.8 198.637 193.165 195.362 195.268C192.169 189.295 186.938 186.57 180.47 185.796C180.186 184.517 180.704 183.407 181.222 182.33C183.177 178.225 185.785 174.523 188.208 170.704C195.311 159.532 202.298 148.294 209.334 137.088C214.499 128.844 219.646 120.6 224.794 112.339C228.705 106.333 232.583 100.327 236.193 94.1353C236.393 94.068 236.594 94.0175 236.811 93.9502C239.168 95.4476 241.558 96.9113 243.881 98.476C247.107 100.613 250.516 102.463 253.508 104.97C251.386 109.126 248.661 112.895 246.238 116.848C242.895 122.316 239.485 127.768 236.093 133.219L236.076 133.202Z" fill="#FC8086"/>
<path d="M253.475 104.953C250.483 102.463 247.074 100.613 243.848 98.4592C241.525 96.9113 239.135 95.4476 236.778 93.9334C238.283 90.6694 240.138 87.6578 242.428 84.8986C244.868 86.0427 247.024 87.6915 249.297 89.1047C252.673 91.2078 255.982 93.4287 259.325 95.599C257.654 98.8966 255.665 101.976 253.475 104.937V104.953Z" fill="#C2D0DA"/>
<path d="M236.177 94.1185C232.567 100.31 228.689 106.316 224.778 112.323C224.762 111.515 224.728 110.724 224.728 109.917C224.728 93.4792 224.728 77.0416 224.711 60.6039C224.711 57.7269 224.076 57.1381 221.268 57.1213C213.848 57.1044 206.41 57.0876 198.989 57.0708C198.989 53.2684 198.989 49.4661 198.989 45.6805C208.967 45.6805 218.962 45.5964 228.94 45.6637C233.336 45.6805 236.127 48.709 236.144 53.2348C236.177 66.8627 236.177 80.4906 236.194 94.1353L236.177 94.1185Z" fill="#FFC250"/>
<path d="M198.611 57.1765C206.032 57.1933 213.469 57.2102 220.89 57.227C223.698 57.227 224.333 57.8158 224.333 60.7097C224.35 77.1473 224.333 93.5849 224.35 110.023C224.35 110.83 224.383 111.621 224.4 112.428C219.252 120.672 214.104 128.933 208.94 137.177C201.92 148.399 194.917 159.621 187.814 170.793C185.39 174.612 182.783 178.314 180.827 182.419C180.309 183.495 179.791 184.606 180.075 185.885C179.524 185.918 179.49 186.288 179.39 186.743C178.07 192.513 176.783 198.284 175.312 204.005C174.861 205.771 175.078 207.084 176.448 208.211C175.964 208.8 175.312 208.53 174.727 208.53C155.339 208.53 135.951 208.53 116.564 208.53C113.823 208.53 113.104 207.807 113.104 205.014C113.104 156.946 113.104 108.862 113.104 60.7938C113.104 57.6644 113.589 57.1933 116.764 57.1933C124.135 57.1933 131.489 57.1597 138.86 57.1429C158.782 57.1429 178.705 57.1429 198.627 57.1429L198.611 57.1765ZM142.72 194.431C146.28 194.431 149.84 194.448 153.4 194.431C156.476 194.415 158.331 192.564 158.331 189.451C158.364 182.654 158.381 175.857 158.331 169.06C158.298 165.005 156.593 163.407 152.565 163.407C146.113 163.407 139.679 163.407 133.227 163.407C132.241 163.407 131.255 163.474 130.336 163.828C128.631 164.467 127.561 165.83 127.545 167.579C127.461 174.999 127.478 182.419 127.545 189.838C127.561 192.598 129.5 194.448 132.241 194.465C135.734 194.499 139.244 194.465 142.737 194.465L142.72 194.431ZM127.511 86.7036C127.511 90.3378 127.478 93.9887 127.511 97.6228C127.545 100.5 129.4 102.384 132.258 102.401C139.361 102.435 146.481 102.451 153.584 102.401C156.359 102.384 158.281 100.533 158.298 97.7742C158.364 90.792 158.381 83.8266 158.298 76.8444C158.264 73.3449 156.726 71.4437 153.868 71.4101C146.581 71.3092 139.277 71.3092 131.99 71.4101C129.216 71.4437 127.478 73.53 127.494 76.3397C127.494 79.7887 127.494 83.2546 127.494 86.7036H127.511ZM142.737 148.433C146.297 148.433 149.857 148.467 153.417 148.433C156.426 148.399 158.298 146.616 158.331 143.604C158.398 136.689 158.415 129.758 158.331 122.843C158.281 119.276 156.777 117.476 153.668 117.425C146.498 117.308 139.311 117.308 132.141 117.425C129.132 117.476 127.511 119.461 127.528 122.473C127.528 129.388 127.528 136.319 127.528 143.234C127.528 146.582 129.333 148.399 132.625 148.416C136.002 148.433 139.378 148.416 142.754 148.416L142.737 148.433Z" fill="#F5F5F5"/>
<path d="M195.346 195.268C198.621 193.165 200.393 189.8 202.382 186.637C209.535 175.28 216.655 163.924 223.792 152.55C224.043 152.146 224.377 151.776 224.678 151.389C224.678 169.493 224.678 187.579 224.678 205.682C224.678 207.533 223.909 208.425 222.204 208.425C207.914 208.425 193.624 208.391 179.334 208.374C181.139 207.045 182.593 205.211 184.348 203.966C188.175 201.241 191.819 198.347 195.346 195.268Z" fill="#F5F5F5"/>
<path d="M195.345 195.268C191.835 198.364 188.175 201.257 184.347 203.966C182.593 205.211 181.138 207.045 179.333 208.374C178.464 208.475 177.612 208.509 176.793 208.122C175.422 206.978 175.205 205.682 175.656 203.916C177.127 198.195 178.414 192.408 179.735 186.654C179.835 186.183 179.868 185.812 180.42 185.796C186.888 186.57 192.119 189.312 195.312 195.268H195.345Z" fill="#66B49D"/>
<path d="M143.099 194.326C139.606 194.326 136.096 194.343 132.603 194.326C129.878 194.309 127.94 192.458 127.906 189.699C127.839 182.279 127.823 174.86 127.906 167.44C127.923 165.69 129.009 164.327 130.697 163.688C131.617 163.335 132.603 163.268 133.589 163.268C140.04 163.284 146.475 163.268 152.926 163.268C156.954 163.268 158.659 164.883 158.693 168.921C158.743 175.718 158.726 182.515 158.693 189.312C158.693 192.424 156.837 194.258 153.762 194.292C150.202 194.326 146.642 194.292 143.082 194.292L143.099 194.326ZM137.166 176.206C136.163 175.987 135.377 176.307 134.859 177.249C134.274 178.309 134.19 179.385 134.859 180.395C135.962 182.01 137.065 183.659 138.335 185.156C140.308 187.495 142.597 187.478 144.536 185.123C147.06 182.044 149.316 178.746 151.623 175.499C152.659 174.018 152.341 172.656 150.938 171.713C149.366 170.637 148.079 170.788 147.01 172.235C145.506 174.237 143.985 176.239 142.564 178.325C141.812 179.419 141.344 179.89 140.425 178.443C139.706 177.299 138.954 175.92 137.166 176.239V176.206Z" fill="#66B49D"/>
<path d="M127.889 86.5979C127.889 83.1488 127.889 79.683 127.889 76.2339C127.889 73.4242 129.611 71.338 132.385 71.3043C139.672 71.2202 146.976 71.2034 154.263 71.3043C157.121 71.338 158.659 73.256 158.692 76.7387C158.776 83.7209 158.759 90.6862 158.692 97.6684C158.676 100.428 156.754 102.278 153.979 102.295C146.876 102.346 139.756 102.346 132.653 102.295C129.795 102.278 127.94 100.394 127.906 97.517C127.856 93.8829 127.906 90.232 127.906 86.5979H127.889ZM137.333 84.1751C134.876 84.1751 133.639 86.2445 134.842 88.2467C135.862 89.9291 137.048 91.4938 138.268 93.0417C140.358 95.7168 142.798 95.2625 144.67 92.9407C147.043 89.9796 149.233 86.8502 151.422 83.7377C152.659 81.9711 152.391 80.3728 150.904 79.3801C149.567 78.4716 148.029 78.8417 146.776 80.4737C145.322 82.3749 143.918 84.3265 142.53 86.2782C141.828 87.254 141.31 87.8092 140.391 86.3623C139.689 85.2519 139.037 83.6872 137.333 84.1919V84.1751Z" fill="#66B49D"/>
<path d="M143.115 148.327C139.739 148.327 136.363 148.344 132.987 148.327C129.694 148.31 127.889 146.477 127.889 143.145C127.873 136.23 127.889 129.299 127.889 122.384C127.889 119.372 129.494 117.387 132.502 117.336C139.672 117.219 146.859 117.219 154.029 117.336C157.138 117.387 158.642 119.187 158.692 122.754C158.776 129.669 158.759 136.601 158.692 143.515C158.659 146.527 156.787 148.31 153.779 148.344C150.219 148.378 146.659 148.344 143.099 148.344L143.115 148.327ZM152.174 128.945C152.174 127.633 151.723 126.64 150.636 126.287C149.4 125.883 148.046 125.799 147.11 127.027C145.873 128.642 144.686 130.274 143.5 131.923C141.645 134.514 141.661 134.531 139.505 132.125C138.335 130.813 136.714 130.594 135.444 131.587C134.24 132.512 134.006 134.11 134.959 135.541C136.029 137.122 137.132 138.687 138.335 140.167C140.057 142.287 143.015 142.203 144.636 140.016C146.826 137.072 148.982 134.077 151.155 131.116C151.673 130.409 152.191 129.719 152.157 128.929L152.174 128.945Z" fill="#66B49D"/>
<path d="M137.165 176.206C138.953 175.869 139.706 177.266 140.424 178.41C141.343 179.873 141.811 179.385 142.564 178.292C143.984 176.222 145.505 174.22 147.009 172.201C148.079 170.771 149.366 170.62 150.937 171.68C152.341 172.622 152.659 174.002 151.622 175.465C149.333 178.712 147.06 182.027 144.536 185.089C142.597 187.444 140.324 187.461 138.335 185.123C137.065 183.625 135.978 181.993 134.859 180.361C134.173 179.352 134.257 178.275 134.859 177.215C135.377 176.29 136.162 175.97 137.165 176.172V176.206Z" fill="#F5F5F5"/>
<path d="M137.333 84.1919C139.038 83.704 139.689 85.2519 140.391 86.3623C141.311 87.8092 141.829 87.254 142.531 86.2782C143.935 84.3265 145.322 82.3917 146.776 80.4737C148.013 78.8417 149.55 78.4548 150.904 79.3801C152.392 80.3896 152.659 81.9711 151.422 83.7377C149.25 86.8502 147.06 89.9796 144.67 92.9407C142.798 95.2625 140.358 95.7168 138.269 93.0417C137.065 91.4938 135.862 89.9291 134.842 88.2467C133.639 86.2445 134.859 84.1919 137.333 84.1751V84.1919Z" fill="#F5F5F5"/>
<path d="M152.174 128.929C152.208 129.719 151.69 130.409 151.171 131.116C148.999 134.077 146.843 137.072 144.653 140.016C143.032 142.203 140.074 142.287 138.352 140.167C137.149 138.687 136.046 137.122 134.976 135.541C134.007 134.111 134.257 132.512 135.461 131.587C136.748 130.594 138.352 130.813 139.522 132.125C141.678 134.531 141.661 134.531 143.517 131.923C144.687 130.275 145.89 128.643 147.127 127.027C148.063 125.799 149.417 125.883 150.653 126.287C151.74 126.64 152.191 127.633 152.191 128.945L152.174 128.929Z" fill="#F5F5F5"/>
</g>
<defs>
<clipPath id="clip0_399_8052">
<rect width="162.857" height="190" fill="white" transform="translate(102 30)"/>
</clipPath>
</defs>
</svg>
