<svg width="470" height="250" viewBox="0 0 470 250" fill="none" xmlns="http://www.w3.org/2000/svg">
<mask id="mask0_402_11191" style="mask-type:alpha" maskUnits="userSpaceOnUse" x="0" y="0" width="470" height="250">
<path d="M0 20C0 8.9543 8.9543 0 20 0H450C461.046 0 470 8.9543 470 20V250H0V20Z" fill="#F7ECDE"/>
</mask>
<g mask="url(#mask0_402_11191)">
<path d="M87.5001 92.2125C102.805 92.2125 115.213 79.8043 115.213 64.4979C115.213 49.1916 102.805 36.7833 87.5001 36.7833C72.1949 36.7833 59.7876 49.1916 59.7876 64.4979C59.7876 79.8043 72.1949 92.2125 87.5001 92.2125Z" fill="white"/>
<path d="M75.2468 54.4478C75.2672 54.3662 75.308 54.2887 75.3652 54.2193C75.5773 53.9704 75.9486 53.9377 76.1975 54.1499L87.5812 63.7962L107.284 53.9541C107.578 53.8072 107.933 53.9255 108.08 54.2193C108.227 54.5131 108.109 54.8681 107.815 55.015L87.7607 65.0326C87.5485 65.1387 87.2956 65.106 87.112 64.955L75.4304 55.0558C75.2509 54.9007 75.1856 54.6641 75.2428 54.4478H75.2468Z" fill="#A63019"/>
<path d="M87.5003 44.8668C87.284 44.8668 87.1045 44.6913 87.1045 44.471V36.7833C87.1045 36.5671 87.2799 36.3875 87.5003 36.3875C87.7206 36.3875 87.896 36.563 87.896 36.7833V44.471C87.896 44.6872 87.7206 44.8668 87.5003 44.8668Z" fill="#285A8F"/>
<path d="M87.5003 92.6331C87.284 92.6331 87.1045 92.4576 87.1045 92.2373V84.5497C87.1045 84.3334 87.2799 84.1539 87.5003 84.1539C87.7206 84.1539 87.896 84.3293 87.896 84.5497V92.2373C87.896 92.4536 87.7206 92.6331 87.5003 92.6331Z" fill="#285A8F"/>
<path d="M109.708 53.5826C109.565 53.5826 109.427 53.5051 109.357 53.3664C109.259 53.1705 109.337 52.9339 109.529 52.836L112.018 51.567C112.213 51.4691 112.45 51.5466 112.548 51.7384C112.646 51.9302 112.568 52.1709 112.377 52.2688L109.888 53.5378C109.831 53.5663 109.769 53.5826 109.708 53.5826Z" fill="#D7E5FF"/>
<path d="M62.7986 77.4981C62.6558 77.4981 62.5171 77.4205 62.4477 77.2818C62.3498 77.086 62.4273 76.8493 62.6191 76.7514L65.108 75.4825C65.3038 75.3845 65.5405 75.4621 65.6384 75.6538C65.7363 75.8497 65.6588 76.0863 65.467 76.1843L62.9781 77.4532C62.921 77.4817 62.8598 77.4981 62.7986 77.4981Z" fill="#D7E5FF"/>
<path d="M72.1749 88.0094C72.1015 88.0094 72.024 87.989 71.9587 87.9442C71.7792 87.8217 71.7261 87.5769 71.8485 87.3974L73.3908 85.0676C73.5092 84.8881 73.754 84.8351 73.9376 84.9575C74.1171 85.0799 74.1701 85.3247 74.0477 85.5042L72.5054 87.834C72.4279 87.9482 72.3055 88.0094 72.1749 88.0094Z" fill="#D7E5FF"/>
<path d="M101.279 44.128C101.205 44.128 101.128 44.1076 101.063 44.0627C100.883 43.9403 100.83 43.6955 100.953 43.516L102.495 41.1862C102.613 41.0026 102.858 40.9536 103.042 41.076C103.221 41.1984 103.274 41.4432 103.152 41.6228L101.609 43.9525C101.532 44.0668 101.409 44.128 101.279 44.128Z" fill="#D7E5FF"/>
<path d="M100.091 89.6049C99.9487 89.6049 99.8099 89.5273 99.7406 89.3886L98.4716 86.8997C98.3737 86.7038 98.4512 86.4672 98.643 86.3693C98.8389 86.2713 99.0755 86.3489 99.1734 86.5406L100.442 89.0295C100.54 89.2254 100.463 89.462 100.271 89.56C100.214 89.5885 100.153 89.6049 100.091 89.6049Z" fill="#D7E5FF"/>
<path d="M76.1735 42.6917C76.0307 42.6917 75.892 42.6142 75.8226 42.4755L74.5537 39.9866C74.4557 39.7907 74.5333 39.5541 74.725 39.4562C74.9209 39.3582 75.1575 39.4358 75.2555 39.6275L76.5244 42.1164C76.6223 42.3123 76.5448 42.5489 76.353 42.6468C76.2959 42.6754 76.2347 42.6917 76.1735 42.6917Z" fill="#D7E5FF"/>
<path d="M66.724 51.1221C66.6505 51.1221 66.573 51.1017 66.5077 51.0568L64.1779 49.5145C63.9984 49.3921 63.9454 49.1472 64.0678 48.9677C64.1861 48.7882 64.4309 48.7352 64.6145 48.8576L66.9443 50.3999C67.1238 50.5223 67.1769 50.7671 67.0544 50.9466C66.9769 51.0608 66.8545 51.1221 66.724 51.1221Z" fill="#D7E5FF"/>
<path d="M110.602 80.232C110.529 80.232 110.451 80.2116 110.386 80.1668L108.06 78.6244C107.881 78.502 107.828 78.2572 107.95 78.0777C108.068 77.8982 108.313 77.8451 108.497 77.9675L110.823 79.5098C111.002 79.6322 111.055 79.8771 110.933 80.0566C110.855 80.1708 110.733 80.232 110.602 80.232Z" fill="#D7E5FF"/>
<path d="M87.5 93.0043C71.7832 93.0043 59 80.2161 59 64.5021C59 48.7882 71.7872 36 87.5 36C103.213 36 116 48.7882 116 64.5021C116 80.2161 103.213 93.0043 87.5 93.0043ZM87.5 37.5751C72.6563 37.5751 60.5749 49.6533 60.5749 64.5021C60.5749 79.351 72.6522 91.4292 87.5 91.4292C102.348 91.4292 114.425 79.351 114.425 64.5021C114.425 49.6533 102.348 37.5751 87.5 37.5751Z" fill="#285A8F"/>
<path d="M114.927 64.9551H107.284C107.068 64.9551 106.889 64.7796 106.889 64.5593C106.889 64.339 107.064 64.1635 107.284 64.1635H114.927C115.143 64.1635 115.322 64.339 115.322 64.5593C115.322 64.7796 115.147 64.9551 114.927 64.9551Z" fill="#285A8F"/>
<path d="M67.4295 64.955H59.7874C59.5711 64.955 59.3916 64.7796 59.3916 64.5592C59.3916 64.3389 59.567 64.1635 59.7874 64.1635H67.4295C67.6458 64.1635 67.8253 64.3389 67.8253 64.5592C67.8253 64.7796 67.6499 64.955 67.4295 64.955Z" fill="#285A8F"/>
<path d="M89.1644 64.4979C89.1644 65.416 88.4177 66.1626 87.4997 66.1626C86.5816 66.1626 85.835 65.416 85.835 64.4979C85.835 63.5799 86.5816 62.8332 87.4997 62.8332C88.4177 62.8332 89.1644 63.5799 89.1644 64.4979Z" fill="#C35053"/>
<path d="M143.643 249.063C143.643 249.063 174.466 253.431 187.307 247.526C200.149 241.617 192.91 207.658 192.91 207.658C192.91 207.658 185.935 161.144 175.929 160.152C165.923 159.16 157.091 160.414 157.091 160.414L144.748 199.94L143.645 249.063H143.643Z" fill="#E7765F"/>
<path d="M66.0575 204.023C66.0575 204.023 71.9243 183.395 74.1075 183.859C76.2885 184.322 59.2775 230.129 57.9662 229.838C56.655 229.549 66.0575 204.023 66.0575 204.023Z" fill="#94B73D"/>
<path d="M61.8521 229.168C60.6083 229.664 54.1544 203.24 54.1544 203.24C54.1544 203.24 50.9384 193.352 49.6837 187.072C49.1314 184.33 48.9574 182.267 49.5793 182.012C49.9946 181.852 50.7775 183.602 51.769 186.529C55.7222 198.271 62.8437 228.777 61.8521 229.168Z" fill="#D08625"/>
<path d="M66.1122 232.095H53.9894C53.2023 232.095 52.5347 231.512 52.4129 230.721L49.3034 210.542C49.1512 209.557 49.8992 208.665 50.8799 208.665H69.2195C70.2002 208.665 70.9483 209.557 70.796 210.542L67.6865 230.721C67.5647 231.512 66.895 232.095 66.11 232.095H66.1122Z" fill="#A38552"/>
<path d="M51.769 186.529L49.6837 187.07C49.1314 184.328 48.9574 182.265 49.5793 182.01C49.9946 181.849 50.7775 183.6 51.769 186.527V186.529Z" fill="#F7B369"/>
<path d="M89.5727 249.998H21.3591V240.924H89.5727C92.0169 240.924 94 242.907 94 245.351V245.57C94 248.015 92.0169 249.998 89.5727 249.998Z" fill="#A38552"/>
<path d="M65.2097 249.998H21.4873C20.6675 249.998 20.0021 249.332 20.0021 248.513V242.411C20.0021 241.591 20.6675 240.926 21.4873 240.926H65.2097C67.5147 240.926 69.3848 242.796 69.3848 245.101V245.825C69.3848 248.13 67.5147 250 65.2097 250V249.998Z" fill="#CFBEA0"/>
<path d="M64.5334 248.245H19.9999V242.483H64.5334C66.1012 242.483 67.3755 243.755 67.3755 245.325V245.403C67.3755 246.971 66.1012 248.245 64.5334 248.245Z" fill="white"/>
<path d="M76.7216 240.924H35.1237C32.6861 240.924 30.7095 238.947 30.7095 236.509C30.7095 234.072 32.6861 232.095 35.1237 232.095H76.7216C77.4849 232.095 78.1024 232.715 78.1024 233.476V239.541C78.1024 240.304 77.4849 240.921 76.7216 240.921V240.924Z" fill="#E7765F"/>
<path d="M86.8657 240.924H45.2677C42.8301 240.924 40.8535 238.947 40.8535 236.509C40.8535 234.072 42.8301 232.095 45.2677 232.095H86.8657C87.6289 232.095 88.2465 232.715 88.2465 233.476V239.541C88.2465 240.304 87.6267 240.921 86.8657 240.921V240.924Z" fill="#C3391D"/>
<path d="M88.2481 239.219H45.5846C44.0364 239.219 42.7817 237.964 42.7817 236.416C42.7817 234.868 44.0364 233.613 45.5846 233.613H88.2481V239.219Z" fill="white"/>
<path d="M157.16 121.42C157.16 121.42 144.009 116.471 137.514 127.756C131.016 139.041 132.474 166.435 132.474 166.435L155.267 165.7L157.16 121.42Z" fill="black"/>
<path d="M169.216 123.327C169.216 123.327 177.778 114.498 186.296 123.823C194.814 133.149 197.41 161.607 197.41 161.607L175.617 164.038L169.219 123.324L169.216 123.327Z" fill="black"/>
<path d="M191.83 246.784C191.83 246.784 223.636 260.354 228.327 235.679C234.318 204.159 194.944 169.128 194.944 169.128L191.83 246.784Z" fill="#DEEBF7"/>
<path d="M171.762 158.882C171.762 158.882 173.44 159.342 175.932 160.149L158.716 161.166C158.716 161.166 156.399 183.907 155.558 209.987C154.969 228.467 155.454 242.794 155.87 250.929L129.949 249.061C129.949 249.061 130.178 175.179 139.344 167.143C148.506 159.111 161.139 159.02 161.139 159.02L171.765 158.879L171.762 158.882Z" fill="#DEEBF7"/>
<path d="M198.162 254.247L184.51 253.93C185.279 244.02 185.106 226.331 182.708 202.789C179.652 172.842 177.447 161.086 177.147 160.706C183.711 162.82 194.698 166.796 196.939 171.679C200.031 178.434 198.159 254.247 198.159 254.247H198.162Z" fill="#DEEBF7"/>
<path d="M197.41 196.068C197.41 196.068 197.3 210.872 204.431 211.679C216.818 213.082 217.799 188.525 217.799 188.525L197.41 196.068Z" fill="#F48462"/>
<path d="M158.965 147.773L158.499 162.012C158.499 162.012 160.932 166.19 169.241 167.138C175.43 167.843 177.5 164.721 177.5 164.721L176.403 152.21L161.467 148.41L158.962 147.771L158.965 147.773Z" fill="#F48462"/>
<path d="M161.47 148.416C161.495 148.807 161.627 149.27 161.839 149.804C164.793 157.022 173.454 158.84 177.029 159.279L176.406 152.218L161.47 148.418V148.416Z" fill="black"/>
<path d="M180.639 119.86C180.639 119.86 187.531 137.957 184.26 147.782C180.991 157.606 171.994 155.602 166.656 153.414C161.321 151.229 158.962 147.779 158.962 147.779C158.962 147.779 153.809 149.253 150.645 144.376C147.481 139.498 149.829 134.182 152.784 133.083C155.738 131.98 159.08 134.237 159.08 134.237L156.631 128.957C156.631 128.957 169.244 103.326 180.639 119.863V119.86Z" fill="#F48462"/>
<path d="M158.138 141.826C157.992 141.826 157.846 141.774 157.73 141.667L152.271 136.671C152.023 136.445 152.006 136.061 152.232 135.816C152.458 135.568 152.841 135.552 153.087 135.778L158.546 140.774C158.794 141 158.81 141.383 158.584 141.628C158.466 141.758 158.3 141.824 158.138 141.824V141.826Z" fill="black"/>
<path d="M152.409 141.496C152.172 141.496 151.948 141.358 151.852 141.127C151.722 140.818 151.866 140.462 152.174 140.333L155.845 138.779C156.151 138.649 156.506 138.792 156.639 139.101C156.768 139.41 156.625 139.765 156.316 139.895L152.646 141.449C152.568 141.482 152.488 141.499 152.409 141.499V141.496Z" fill="black"/>
<path d="M159.08 134.234C159.08 134.234 165.336 133.918 169.516 128.99C173.697 124.063 175.797 118.918 175.797 118.918C175.797 118.918 178.406 119.486 179.988 121.666C181.151 123.267 182.496 125.579 182.496 125.579C182.496 125.579 182.992 118.408 179.553 114.71C176.114 111.009 172.956 112.078 172.956 112.078C172.956 112.078 165.251 107.181 156.84 113.93C148.43 120.679 151.577 133.802 151.577 133.802C151.577 133.802 155.741 132.377 159.08 134.234Z" fill="black"/>
<path d="M179.407 141.653C179.346 141.653 179.288 141.645 179.227 141.625C178.908 141.526 178.729 141.187 178.828 140.868C179.845 137.58 177.381 135.381 177.276 135.287C177.026 135.067 176.998 134.686 177.216 134.433C177.436 134.179 177.817 134.155 178.067 134.37C178.197 134.483 181.239 137.164 179.985 141.223C179.905 141.482 179.666 141.65 179.407 141.65V141.653Z" fill="black"/>
<path d="M182.457 135.436C182.162 135.436 181.903 135.218 181.859 134.918L181.17 130.233C181.143 130.051 181.201 129.867 181.327 129.732L182.27 128.726C182.499 128.483 182.882 128.469 183.124 128.698C183.369 128.927 183.38 129.31 183.152 129.555L182.41 130.346L183.058 134.742C183.108 135.072 182.876 135.381 182.545 135.428C182.515 135.433 182.485 135.433 182.457 135.433V135.436Z" fill="black"/>
<path d="M172.203 136.337C171.903 136.337 171.644 136.114 171.603 135.808L170.994 131.035C170.972 130.872 171.018 130.707 171.12 130.58L172.217 129.214C172.429 128.952 172.81 128.91 173.069 129.12C173.331 129.329 173.372 129.71 173.162 129.971L172.228 131.14L172.804 135.656C172.846 135.987 172.611 136.29 172.281 136.334C172.256 136.337 172.228 136.34 172.203 136.34V136.337Z" fill="black"/>
<path d="M182.711 126.943H179.677C179.343 126.943 179.07 126.673 179.07 126.336C179.07 126 179.34 125.73 179.677 125.73H182.711C183.044 125.73 183.317 126 183.317 126.336C183.317 126.673 183.047 126.943 182.711 126.943Z" fill="black"/>
<path d="M169.246 127.59C168.946 127.59 168.687 127.37 168.645 127.064C168.601 126.733 168.836 126.427 169.166 126.383L174.058 125.736C174.397 125.694 174.694 125.926 174.738 126.257C174.783 126.587 174.548 126.893 174.218 126.937L169.326 127.585C169.299 127.588 169.271 127.59 169.246 127.59Z" fill="black"/>
<path d="M174.76 148.38C174.468 148.38 174.182 148.333 173.906 148.217C172.267 147.536 171.619 144.582 171.55 144.249C171.506 144.028 171.586 143.8 171.759 143.659C171.933 143.516 172.173 143.483 172.38 143.571L177.908 145.916C178.103 145.999 178.241 146.178 178.271 146.387C178.302 146.597 178.222 146.806 178.056 146.941C177.85 147.112 176.257 148.382 174.76 148.382V148.38ZM173.077 145.18C173.385 146.026 173.843 146.878 174.375 147.098C174.898 147.319 175.736 146.988 176.417 146.597L173.077 145.18Z" fill="black"/>
<path d="M151.695 133.264C151.475 133.264 151.26 133.143 151.155 132.934C148.52 127.747 151.039 122.269 151.147 122.04C151.287 121.737 151.648 121.608 151.951 121.751C152.254 121.894 152.384 122.253 152.243 122.556C152.219 122.608 149.871 127.736 152.235 132.385C152.387 132.683 152.268 133.047 151.971 133.198C151.882 133.242 151.789 133.264 151.698 133.264H151.695Z" fill="#E5B06A"/>
<path d="M169.497 167.728C166.121 167.728 162.078 166.523 158.066 162.439C157.832 162.202 157.835 161.817 158.072 161.582C158.309 161.348 158.694 161.351 158.929 161.591C167.959 170.778 177.05 164.302 177.141 164.236C177.411 164.038 177.789 164.098 177.987 164.366C178.186 164.636 178.125 165.013 177.858 165.212C177.8 165.256 174.33 167.725 169.497 167.725V167.728Z" fill="#C3391D"/>
<path d="M211.47 177.844C211.47 177.844 202.516 172.01 200.75 174.785C198.983 177.563 206.11 181.801 206.11 181.801L211.47 177.841V177.844Z" fill="#F48462"/>
<path d="M203.831 177.706C203.831 177.706 210.279 155.035 212.677 155.545C215.074 156.054 196.379 206.396 194.938 206.079C193.497 205.76 203.831 177.706 203.831 177.706Z" fill="#94B73D"/>
<path d="M212.87 177.646C212.87 177.646 197.848 179.542 194.93 183.198C192.011 186.855 196.219 187.619 196.219 187.619C196.219 187.619 191.055 189.906 191.929 192.248C192.799 194.591 196.374 193.282 196.374 193.282C196.374 193.282 193.249 196.528 195.134 198.457C197.018 200.386 213.368 199.157 216.003 196.699C218.637 194.238 214.537 191.617 214.537 191.617C214.537 191.617 219.266 188.365 218.513 186.004C217.764 183.645 213.412 183.579 213.412 183.579C213.412 183.579 218.888 178.318 212.867 177.646H212.87Z" fill="#F48462"/>
<path d="M196.222 188.222C195.955 188.222 195.709 188.046 195.638 187.776C195.55 187.453 195.74 187.12 196.062 187.032L211.31 182.887C211.629 182.802 211.966 182.992 212.054 183.311C212.142 183.634 211.952 183.967 211.629 184.056L196.382 188.2C196.329 188.214 196.277 188.222 196.222 188.222Z" fill="black"/>
<path d="M197.349 194.836C197.077 194.836 196.826 194.649 196.76 194.37C196.682 194.045 196.884 193.717 197.209 193.64L211.365 190.267C211.69 190.193 212.018 190.391 212.095 190.716C212.173 191.041 211.971 191.369 211.646 191.446L197.49 194.819C197.443 194.83 197.396 194.836 197.349 194.836Z" fill="black"/>
<path d="M179.065 199.041L209.841 207.733L199.62 255.829L166.526 252.538L179.065 199.041Z" fill="#EF9F50"/>
<path d="M184.182 200.538L214.959 209.229L206.815 256.656L171.966 252.651L184.182 200.538Z" fill="#F7B369"/>
<path d="M152.778 224.413C152.778 224.413 175.879 216.085 182.088 217.441C188.294 218.797 185.775 238.412 184.4 242.124C183.025 245.836 158.022 244.511 158.022 244.511L149.802 235.908L152.778 224.416V224.413Z" fill="#F48462"/>
<path d="M182.088 217.441C182.088 217.441 197.553 224.579 198.796 230.338C200.039 236.098 180.939 226.645 180.939 226.645L182.088 217.441Z" fill="#F48462"/>
<path d="M175.524 242.654C175.524 242.654 163.699 247.217 167.937 249.799C172.176 252.381 183.593 245.28 184.397 242.124C185.202 238.969 175.934 236.635 175.934 236.635L175.521 242.654H175.524Z" fill="#F48462"/>
<path d="M170.704 245.354C170.514 245.354 170.332 245.263 170.216 245.106C170.081 244.924 170.062 244.682 170.161 244.478L171.721 241.334C171.87 241.033 172.231 240.912 172.531 241.061C172.831 241.21 172.953 241.573 172.804 241.871L171.765 243.968L174.397 243.555C174.73 243.511 175.036 243.728 175.088 244.059C175.141 244.39 174.915 244.698 174.584 244.751L170.795 245.346C170.765 245.351 170.732 245.351 170.701 245.351L170.704 245.354Z" fill="black"/>
<path d="M186.304 228.789C186.169 228.789 186.034 228.745 185.924 228.654C184.221 227.271 181.154 225.014 180.186 224.843C179.858 224.785 179.638 224.471 179.696 224.14C179.754 223.813 180.068 223.592 180.398 223.65C181.955 223.926 185.91 227.084 186.687 227.715C186.946 227.927 186.987 228.307 186.775 228.566C186.654 228.715 186.48 228.789 186.304 228.789Z" fill="black"/>
<path d="M185.714 235.706C185.601 235.706 185.486 235.676 185.384 235.607L177.657 230.567C177.375 230.385 177.298 230.01 177.48 229.729C177.662 229.448 178.037 229.368 178.318 229.553L186.045 234.593C186.326 234.775 186.403 235.15 186.221 235.431C186.106 235.61 185.913 235.706 185.714 235.706Z" fill="black"/>
<path d="M142.017 165.077C142.017 165.077 104.577 185.546 103.395 224.761C102.386 258.224 159.287 250.565 159.287 250.565L161.618 220.365L136.69 212.467L142.017 165.077Z" fill="#DEEBF7"/>
<path d="M138.153 213.688C138.12 213.688 138.087 213.688 138.054 213.68C137.178 213.534 129.439 212.153 128.017 209.053C127.645 208.243 127.72 207.369 128.23 206.526C128.866 205.47 129.71 205.236 130.305 205.225C133.647 205.225 138.159 211.977 138.663 212.748C138.795 212.949 138.795 213.208 138.663 213.412C138.55 213.586 138.357 213.685 138.156 213.685L138.153 213.688ZM130.346 206.438C130.048 206.443 129.643 206.523 129.263 207.151C128.96 207.656 128.913 208.099 129.117 208.546C129.927 210.309 134.124 211.594 136.806 212.194C134.915 209.59 132.06 206.435 130.349 206.435L130.346 206.438Z" fill="#70A1D7"/>
<path d="M149.135 218.141C149.057 218.141 148.983 218.127 148.909 218.097L137.927 213.647C137.616 213.52 137.467 213.167 137.594 212.859C137.72 212.547 138.073 212.398 138.382 212.525L149.363 216.976C149.675 217.102 149.824 217.455 149.697 217.764C149.6 218.001 149.374 218.141 149.135 218.141Z" fill="#70A1D7"/>
<path d="M253.506 109.62C253.506 109.62 262.164 149.249 289.172 159.951C311.258 168.71 332.739 155.357 332.739 155.357L316.281 113.204C316.281 113.204 301.97 116.006 289.147 109.292C277.435 103.158 274.33 91.8499 274.33 91.8499L253.506 109.62Z" fill="#F48462"/>
<path d="M319.816 111.967L296.139 110.251L287.456 162.854C287.456 162.854 307.927 167.675 315.398 163.03C322.87 158.386 325.924 120.928 319.816 111.967Z" fill="#F5B400"/>
<path d="M342.002 74.837C342.002 74.837 330.341 63.9075 336.651 56.1079C342.962 48.3083 354.446 57.6476 354.446 57.6476C354.446 57.6476 359.545 53.2808 365.931 57.6476C372.317 62.0144 372.343 71.4042 372.343 71.4042C372.343 71.4042 379.183 71.7828 378.905 80.1124C378.653 88.4421 369.137 95.1311 369.137 95.1311L341.977 74.837H342.002Z" fill="black"/>
<path d="M431.256 147.002C431.256 147.002 438.804 155.105 444.634 171.057C451.702 190.392 449.279 221.565 449.279 221.565L421.917 222.323C421.917 222.323 411.518 180.472 402.91 179.816C394.328 179.16 431.231 147.002 431.231 147.002H431.256Z" fill="#F48462"/>
<path d="M429.54 238.099C431.786 237.342 441.328 248.221 442.489 248.801C443.65 249.382 440.873 257.888 443.448 258.519C446.048 259.15 450.743 258.14 454.504 259.074C458.037 259.958 497.818 295.195 504.633 303.02C505.214 303.676 505.087 304.686 504.381 305.266C502.79 306.553 499.736 308.901 496.051 310.895C492.063 313.091 487.318 314.883 482.976 314.555C472.703 313.773 458.113 304.231 450.692 303.196C443.246 302.161 431.408 304.989 429.843 301.101C428.278 297.214 428.656 286.057 420.201 280.277C411.719 274.497 406.545 273.235 406.116 269.575C405.813 267.101 415.632 253.925 422.7 245.419C426.082 241.33 428.833 238.326 429.565 238.099H429.54Z" fill="#F5B400"/>
<path d="M429.54 238.099C431.786 237.342 441.328 248.221 442.489 248.801C443.65 249.382 440.873 257.888 443.448 258.519C446.048 259.15 450.743 258.14 454.504 259.074C458.038 259.958 497.818 295.195 504.633 303.02C505.214 303.676 505.087 304.686 504.381 305.266C502.79 306.553 499.736 308.901 496.051 310.895L422.674 245.419C426.057 241.33 428.808 238.326 429.54 238.099Z" fill="#92B4EA"/>
<path d="M388.674 213.084C388.674 213.084 393.217 236.483 395.287 256.373C397.357 276.263 400.765 302.944 400.765 302.944C400.765 302.944 416.717 364.179 377.492 369.354C328.852 375.765 331.679 318.164 331.679 318.164L347.026 197.687L388.674 213.11V213.084Z" fill="#D08625"/>
<path d="M309.037 206.547C309.037 206.547 294.397 271.695 299.243 319.401C304.09 367.108 321.91 422.815 321.91 422.815L381.126 421.301L369.869 343.532L355.431 210.56L309.037 206.522V206.547Z" fill="#D08625"/>
<path d="M237.301 92.9602C237.301 92.9602 253.582 116.132 261.811 112.194C270.04 108.256 273.245 101.063 273.245 101.063C273.245 101.063 280.363 75.9223 269.156 75.5941C255.45 75.165 237.327 92.9602 237.327 92.9602H237.301Z" fill="#F48462"/>
<path d="M245.328 75.5187C245.328 75.5187 239.699 64.9678 246.262 64.8669C252.824 64.7659 267.212 80.9456 263.224 86.4987C259.261 92.0266 245.302 75.5187 245.302 75.5187H245.328Z" fill="#F48462"/>
<path d="M237.983 82.1572C237.983 82.1572 232.354 71.6063 238.916 71.5054C245.479 71.4044 259.867 87.5841 255.879 93.1372C251.916 98.6651 237.957 82.1572 237.957 82.1572H237.983Z" fill="#F48462"/>
<path d="M232.732 90.5877C232.732 90.5877 226.22 82.2328 231.95 81.1726C237.654 80.0873 252.648 92.0517 249.997 97.4786C247.347 102.905 232.732 90.6129 232.732 90.6129V90.5877Z" fill="#F48462"/>
<path d="M307.674 176.307L304.291 215.129L389.733 218.89C389.733 218.89 398.896 135.013 394.378 125.421C385.543 106.666 319.815 111.967 319.815 111.967L307.648 176.333L307.674 176.307Z" fill="#F5B400"/>
<path d="M414.42 238.124C414.344 240.926 417.979 246.958 417.979 246.958C417.979 246.958 418.383 257.131 421.286 258.166C424.189 259.2 427.924 254.96 427.924 254.96C427.924 254.96 433.73 258.393 436.103 258.166C438.475 257.938 449.708 258.241 453.014 252.814C456.321 247.387 449.279 221.565 449.279 221.565L425.072 216.643C425.072 216.643 414.496 235.322 414.42 238.124Z" fill="#F48462"/>
<path d="M427.924 255.54C428.227 255.54 428.505 255.313 428.53 254.985L429.287 247.791C429.312 247.463 429.085 247.16 428.732 247.11C428.404 247.059 428.101 247.312 428.05 247.665L427.293 254.859C427.268 255.187 427.495 255.49 427.848 255.54C427.848 255.54 427.899 255.54 427.924 255.54Z" fill="black"/>
<path d="M362.246 97.7817L361.16 116.082C361.16 116.082 357.879 121.105 348.161 121.206C340.917 121.281 338.493 119.287 338.493 119.287L340.084 111.21L341.573 101.139L359.267 98.2613L362.246 97.7817Z" fill="#F48462"/>
<path d="M359.343 100.483C359.267 100.937 359.065 101.442 358.762 102.048C354.496 110.049 344.274 111.134 340.084 111.21L341.497 101.896L359.343 100.483Z" fill="black"/>
<path d="M341.195 65.8262C341.195 65.8262 331.527 85.0854 334.051 96.3431C336.576 107.601 346.748 106.389 352.907 104.572C359.066 102.754 362.069 99.1953 362.069 99.1953C362.069 99.1953 367.622 101.417 371.661 96.3683C375.725 91.32 373.706 85.1611 370.576 83.6214C367.421 82.0817 363.483 84.202 363.483 84.202L366.789 78.6236C366.789 78.6236 355.709 48.8135 341.22 65.8515L341.195 65.8262Z" fill="#F48462"/>
<path d="M363.483 92.7335C363.483 92.7335 363.71 92.7082 363.811 92.6325L371.282 87.9881C371.56 87.8114 371.661 87.4328 371.484 87.1551C371.308 86.8775 370.929 86.7765 370.651 86.9532L363.18 91.5976C362.902 91.7743 362.801 92.1529 362.978 92.4306C363.104 92.6073 363.281 92.7082 363.508 92.7082L363.483 92.7335Z" fill="black"/>
<path d="M369.995 93.0865C370.248 93.0865 370.5 92.9351 370.576 92.6574C370.677 92.3293 370.5 92.0012 370.197 91.875L365.578 90.3352C365.25 90.2343 364.922 90.4109 364.796 90.7138C364.695 91.042 364.871 91.3701 365.174 91.4963L369.793 93.0361C369.793 93.0361 369.92 93.0613 369.995 93.0613V93.0865Z" fill="black"/>
<path d="M353.917 75.0648C353.917 75.0648 354.144 75.0395 354.245 74.9638C354.523 74.7871 354.598 74.4085 354.422 74.1056C352.478 71.2028 349.6 71.5057 348.338 72.061C348.036 72.2125 347.909 72.5659 348.035 72.8688C348.162 73.1716 348.54 73.3231 348.843 73.1717C348.969 73.1212 351.569 72.0105 353.412 74.7619C353.538 74.9385 353.715 75.0395 353.917 75.0395V75.0648Z" fill="black"/>
<path d="M338.621 73.2724C338.621 73.2724 338.873 73.2472 338.974 73.1462C340.741 71.8842 342.432 72.9948 342.508 73.0453C342.785 73.2472 343.164 73.1715 343.366 72.8938C343.568 72.6162 343.492 72.2375 343.214 72.0608C343.113 71.9851 340.766 70.4202 338.267 72.1871C337.989 72.389 337.939 72.7676 338.116 73.0453C338.242 73.2219 338.419 73.2977 338.621 73.2977V73.2724Z" fill="black"/>
<path d="M340.21 90.2346C340.21 90.2346 340.311 90.2346 340.336 90.2346C340.664 90.1589 340.866 89.8307 340.791 89.5026C339.478 83.6971 343.719 80.6681 343.769 80.6428C344.047 80.4409 344.123 80.0623 343.921 79.7846C343.719 79.507 343.34 79.4313 343.062 79.6332C343.012 79.6584 338.115 83.1922 339.604 89.755C339.68 90.0326 339.932 90.2346 340.21 90.2346Z" fill="black"/>
<path d="M338.165 80.8702C338.418 80.8702 338.645 80.7187 338.746 80.4663L339.983 76.9073C340.084 76.5791 339.932 76.251 339.604 76.1248C339.276 75.9986 338.948 76.1752 338.822 76.5034L337.585 80.0624C337.484 80.3906 337.635 80.7187 337.963 80.8449C338.039 80.8449 338.09 80.8702 338.165 80.8702Z" fill="black"/>
<path d="M348.161 81.7536C348.414 81.7536 348.641 81.6021 348.742 81.3497L349.979 77.7907C350.08 77.4625 349.928 77.1344 349.6 77.0082C349.272 76.882 348.944 77.0587 348.818 77.3868L347.581 80.9458C347.48 81.274 347.631 81.6021 347.959 81.7283C348.035 81.7283 348.086 81.7536 348.161 81.7536Z" fill="black"/>
<path d="M339.226 70.1925C339.226 70.1925 341.17 67.1383 345.107 67.3655C349.045 67.5927 351.165 70.5459 351.165 70.5459C351.165 70.5459 348.969 77.0834 354.093 80.9706C359.217 84.8578 363.432 84.1763 363.432 84.1763L367.421 83.0656L370.677 77.563L360.252 64.6647L346.218 55.9564L338.317 62.191L339.226 70.1925Z" fill="black"/>
<path d="M344.476 95.1312C346.041 95.1312 348.389 94.5254 349.701 92.178C349.853 91.8751 349.752 91.5217 349.474 91.345C349.171 91.1936 348.818 91.2945 348.641 91.5722C347.101 94.3235 343.997 93.8692 343.87 93.8439C343.542 93.7934 343.214 94.0206 343.164 94.3487C343.113 94.6769 343.34 95.005 343.668 95.0555C343.896 95.0807 344.173 95.106 344.501 95.106L344.476 95.1312Z" fill="black"/>
<path d="M340.083 111.21C340.083 111.21 336.398 114.542 333.849 121.054C332.41 124.739 332.233 130.343 333.041 130.393C333.824 130.469 340.487 121.736 344.324 121.483C348.161 121.231 350.458 132.488 352.048 132.993C353.638 133.498 360.277 129.661 363.003 123.578C365.729 117.495 361.387 112.27 361.387 112.27C361.387 112.27 341.295 126.43 340.083 111.235V111.21Z" fill="#F5D5AB"/>
<path d="M417.979 247.564C418.282 247.564 418.56 247.337 418.585 247.009L419.872 233.732C419.897 233.404 419.67 233.101 419.317 233.076C419.014 233.05 418.686 233.278 418.66 233.631L417.373 246.908C417.348 247.236 417.575 247.539 417.928 247.564H417.979Z" fill="black"/>
<path d="M379.158 115.451C379.158 115.451 399.755 120.827 414.118 130.318C428.48 139.809 437.213 149.577 437.213 149.577L400.134 185.748L386.907 177.847L379.133 115.451H379.158Z" fill="#F5B400"/>
<path d="M307.674 176.939C307.951 176.939 308.229 176.737 308.279 176.434L312.167 155.913C312.217 155.584 312.015 155.256 311.687 155.206C311.359 155.13 311.031 155.357 310.98 155.685L307.093 176.207C307.043 176.535 307.245 176.863 307.573 176.913C307.623 176.913 307.648 176.913 307.699 176.913L307.674 176.939Z" fill="#F5D5AB"/>
<path d="M392.99 182.088C392.99 182.088 393.166 182.088 393.242 182.037C393.494 181.936 393.621 181.659 393.595 181.381C392.838 176.282 391.248 167.725 389.203 167.448C388.598 167.347 388.118 167.776 387.714 168.659C385.468 173.758 392.232 181.558 392.535 181.886C392.661 182.012 392.813 182.088 392.99 182.088ZM389.128 168.634C389.809 169.038 391.097 174.061 391.98 179.21C390.163 176.686 387.487 172.193 388.8 169.139C388.976 168.735 389.102 168.634 389.102 168.634H389.128Z" fill="#F5D5AB"/>
<path d="M374.135 370.136C376.23 370.136 377.517 369.959 377.568 369.959C377.896 369.909 378.123 369.606 378.098 369.278C378.047 368.95 377.744 368.723 377.416 368.748C377.189 368.773 354.623 371.701 339.579 351.584C318.68 323.667 333.521 243.98 333.673 243.172C333.698 242.995 333.673 242.818 333.572 242.692C333.471 242.566 333.319 242.465 333.143 242.465L311.738 240.597C311.41 240.521 311.107 240.824 311.082 241.153C311.057 241.481 311.309 241.784 311.637 241.809L332.386 243.601C330.871 251.905 318.2 325.004 338.645 352.29C350.585 368.243 367.143 370.111 374.211 370.111L374.135 370.136Z" fill="#E5B06A"/>
<path d="M385.013 239.487C385.241 239.487 385.442 239.361 385.569 239.159C385.72 238.856 385.594 238.503 385.291 238.351C376.936 234.212 371.408 223.585 371.358 223.459C371.206 223.156 370.828 223.055 370.525 223.181C370.222 223.333 370.096 223.711 370.272 224.014C370.499 224.468 376.053 235.12 384.761 239.437C384.837 239.487 384.938 239.512 385.039 239.512L385.013 239.487Z" fill="#E5B06A"/>
<path d="M275.062 77.6136C276.4 81.0969 274.204 84.9084 270.544 85.4889C263.552 86.5743 252.748 88.6946 252.446 83.6716C252.193 79.2543 263.35 75.67 267.717 74.1808C270.695 73.1711 273.926 74.6604 275.062 77.5884V77.6136Z" fill="#F48462"/>
<path d="M260.018 104.142C260.018 104.142 260.144 104.142 260.22 104.117C260.548 104.016 260.7 103.663 260.599 103.335C257.721 95.2574 261.432 87.6597 261.482 87.584C261.583 87.4073 261.558 87.1801 261.482 87.0034C261.381 86.8267 261.179 86.7005 260.977 86.7005C255.248 86.5238 254.087 85.3122 253.91 84.6055C253.43 82.7376 257.746 79.3553 260.599 77.6641C260.876 77.4874 260.977 77.1088 260.801 76.8311C260.624 76.5282 260.245 76.4525 259.968 76.6292C259.135 77.134 251.865 81.5765 252.723 84.9336C253.178 86.6753 255.576 87.6597 260.043 87.8869C259.11 90.1586 256.964 96.6961 259.488 103.738C259.589 103.991 259.816 104.142 260.069 104.142H260.018Z" fill="black"/>
<path d="M252.445 84.3028C252.571 84.3028 252.697 84.2523 252.824 84.1766C253.101 83.9746 253.152 83.596 252.95 83.3184L245.958 74.08C245.756 73.8023 245.377 73.7519 245.1 73.9538C244.822 74.1557 244.772 74.5343 244.974 74.812L251.965 84.0503C252.092 84.2018 252.268 84.3028 252.445 84.3028Z" fill="black"/>
<path d="M252.926 93.9194C253.229 93.9194 253.507 93.8689 253.759 93.7679C256.839 92.4301 256.712 88.5934 256.233 86.7508C256.157 86.4227 255.804 86.246 255.476 86.3217C255.148 86.4227 254.946 86.7508 255.047 87.079C255.047 87.1295 256.157 91.4205 253.28 92.6573C251.185 93.566 243.335 86.8266 238.438 81.753C238.211 81.5006 237.807 81.5006 237.58 81.753C237.327 81.9802 237.327 82.3841 237.58 82.6112C239.498 84.6053 248.761 93.9446 252.952 93.9446L252.926 93.9194Z" fill="black"/>
<path d="M247.498 98.6148C248.028 98.6148 248.558 98.5896 249.038 98.4886C250.123 98.2867 250.603 97.6809 250.83 97.2013C251.739 95.2072 249.694 91.7744 249.467 91.3958C249.29 91.0929 248.912 91.0172 248.634 91.1938C248.356 91.3705 248.255 91.7492 248.432 92.0268C249.189 93.2636 250.199 95.6363 249.745 96.6965C249.644 96.8984 249.467 97.1761 248.861 97.277C245.656 97.8323 240.254 95.914 240.203 95.8887C239.9 95.7625 239.547 95.9392 239.421 96.2674C239.295 96.5955 239.471 96.9236 239.8 97.0499C240.002 97.1256 244.141 98.6148 247.549 98.6148H247.498Z" fill="black"/>
</g>
</svg>
