<svg width="470" height="250" viewBox="0 0 470 250" fill="none" xmlns="http://www.w3.org/2000/svg">
<mask id="mask0_402_11098" style="mask-type:alpha" maskUnits="userSpaceOnUse" x="0" y="0" width="470" height="250">
<path d="M0 20C0 8.9543 8.9543 0 20 0H450C461.046 0 470 8.9543 470 20V250H0V20Z" fill="#F7ECDE"/>
</mask>
<g mask="url(#mask0_402_11098)">
<path d="M194.933 63.7876L210.261 39.3064C210.746 38.5343 211.764 38.2984 212.536 38.783L220.987 44.0751C219.052 44.357 217.246 45.4574 216.13 47.244C214.106 50.4762 215.083 54.7404 218.318 56.7669C221.55 58.7902 225.812 57.8098 227.835 54.5776C228.955 52.7886 229.157 50.6829 228.563 48.8221L237.014 54.1141C237.786 54.5988 238.022 55.6167 237.537 56.3887L222.208 80.87C221.724 81.6421 220.706 81.878 219.934 81.3934L195.453 66.0646C194.681 65.5799 194.445 64.5621 194.929 63.79L194.933 63.7876Z" fill="#F6CE6A"/>
<path d="M201.441 55.2841C202.923 51.755 201.263 47.6932 197.733 46.212C194.204 44.7307 190.143 46.3908 188.661 49.9199C187.18 53.4491 188.84 57.5108 192.369 58.9921C195.898 60.4734 199.96 58.8132 201.441 55.2841Z" fill="#F6CE6A"/>
<path d="M168.724 30.1813L198.1 36.2093C199.03 36.4002 199.627 37.3046 199.436 38.2345L197.356 48.3734C196.378 46.5917 194.654 45.235 192.509 44.7947C188.63 43.9988 184.836 46.497 184.039 50.3797C183.242 54.2623 185.747 58.0488 189.626 58.8448C191.771 59.2851 193.894 58.7176 195.49 57.4641L193.409 67.6071C193.218 68.537 192.314 69.1334 191.384 68.9425L162.007 62.9145C161.077 62.7237 160.481 61.8192 160.672 60.8894L166.7 31.5127C166.89 30.5828 167.795 29.9864 168.725 30.1772L168.724 30.1813Z" fill="#A38552"/>
<path d="M168.703 68.7382C167.896 72.6687 170.428 76.5089 174.359 77.3154C178.289 78.1219 182.13 75.5895 182.936 71.659C183.743 67.7285 181.21 63.8883 177.28 63.0818C173.349 62.2753 169.509 64.8077 168.703 68.7382Z" fill="#A38552"/>
<path d="M177.173 27.4609C176.366 31.3914 178.899 35.2316 182.829 36.0381C186.76 36.8447 190.6 34.3122 191.407 30.3817C192.213 26.4512 189.681 22.6111 185.75 21.8045C181.82 20.998 177.98 23.5304 177.173 27.4609Z" fill="#A38552"/>
<path d="M350.604 68.5969C350.604 68.5969 360.471 58.1647 380.759 71.893C401.047 85.6214 385.509 136.366 385.509 136.366L345.342 126.704L350.604 68.5969Z" fill="black"/>
<path d="M159.177 198.055C159.177 198.055 197.098 265.62 197.411 292.252C197.723 318.891 142.772 407.255 142.772 407.255C142.772 407.255 127.837 413.379 105.901 412.673C83.9647 411.968 80.5178 409.463 80.5178 409.463C80.5178 409.463 84.2771 219.932 93.0505 202.191C101.824 184.456 159.172 198.055 159.172 198.055H159.177Z" fill="#D08625"/>
<path d="M142.772 407.917C142.368 407.896 142.088 407.584 142.11 407.212C145.718 345.265 144.442 244.696 144.431 243.683C144.431 243.446 144.55 243.226 144.754 243.107L164.019 231.695C164.337 231.512 164.746 231.614 164.929 231.926C165.118 232.244 165.01 232.648 164.698 232.836L145.761 244.055C145.842 250.943 146.935 347.241 143.435 407.293C143.413 407.643 143.122 407.917 142.772 407.917Z" fill="#F5D5AB"/>
<path d="M94.9623 228.969C94.6553 228.969 94.3753 228.749 94.316 228.436C94.2406 228.081 94.4776 227.731 94.833 227.655C104.328 225.743 109.348 213.733 109.396 213.609C109.536 213.27 109.924 213.114 110.258 213.248C110.597 213.388 110.759 213.776 110.619 214.115C110.403 214.638 105.271 226.901 95.0916 228.959C95.0485 228.969 95.0054 228.969 94.9569 228.969H94.9623Z" fill="#F5D5AB"/>
<path d="M150.883 119.891L131.936 112.303L123.943 109.249L110.091 114.392L117.34 204.066C117.34 204.066 139.158 210.017 153.56 202.423C167.961 194.829 150.878 119.897 150.878 119.897L150.883 119.891Z" fill="#FFEFC2"/>
<path d="M95.2373 117.898C102.007 111.624 113.027 109.89 119.506 109.421C119.506 109.421 117.917 151.883 120.157 178.015C121.423 192.788 122.193 203.064 122.619 209.22C107.064 209.602 89.6846 209.117 89.6846 209.117C89.6846 209.117 85.2251 127.178 95.2427 117.898H95.2373Z" fill="#F5B400"/>
<path d="M165.128 176.9C165.042 192.669 164.676 205.46 164.676 205.46C164.676 205.46 159.753 207.254 149.084 209.123C149.052 197.5 148.734 168.886 146.876 151.646C144.49 129.596 136.352 112.464 136.352 112.464L119.511 109.432C121.477 109.286 123.044 109.254 123.949 109.254C124.487 109.254 124.8 109.27 124.8 109.27C124.8 109.27 146.757 110.17 157.147 115.712C157.147 115.712 157.405 115.857 157.879 116.105C159.656 117.166 161.046 118.383 161.811 119.767C164.838 125.201 165.29 154.139 165.134 176.905L165.128 176.9Z" fill="#F5B400"/>
<path d="M102.486 113.197C102.486 113.197 82.7905 117.468 68.4536 134.702C55.1992 150.633 52 170.097 52 170.097C52 170.097 65.8038 167.776 74.1625 167.862C82.5212 167.949 94.5423 168.94 94.5423 168.94L102.486 113.197Z" fill="#F5B400"/>
<path d="M146.176 73.2556C146.176 73.2556 155.337 58.5901 148.093 55.2348C140.85 51.8741 131.936 59.8342 131.936 59.8342C131.936 59.8342 115.547 60.9114 109.138 69.5287C102.724 78.1459 117.653 93.8347 117.653 93.8347L146.176 73.2556Z" fill="black"/>
<path d="M120.48 97.2223L119.204 112.27C119.204 112.27 121.552 116.827 130.293 118.286C136.805 119.374 139.234 118.087 139.234 118.087L138.964 110.391L138.695 102.883L123.098 98.0409L120.48 97.2277V97.2223Z" fill="#F48462"/>
<path d="M123.098 98.0355C123.098 98.4502 123.216 98.9457 123.41 99.522C126.141 107.321 135.205 109.723 138.964 110.385L138.695 102.877L123.098 98.0355Z" fill="black"/>
<path d="M144.953 68.8662C144.953 68.8662 151.249 88.4005 147.247 98.6173C143.246 108.834 133.831 106.217 128.306 103.61C122.78 101.003 120.469 97.2224 120.469 97.2224C120.469 97.2224 114.933 98.4988 111.852 93.1615C108.771 87.8242 111.55 82.3307 114.739 81.3235C117.927 80.3218 121.342 82.8908 121.342 82.8908L119.037 77.1657C119.037 77.1657 133.799 50.7323 144.948 68.8608L144.953 68.8662Z" fill="#F48462"/>
<path d="M120.152 91.034C120.001 91.034 119.845 90.9801 119.721 90.8724L113.355 85.422C113.075 85.185 113.042 84.765 113.285 84.4903C113.522 84.2102 113.942 84.1779 114.217 84.4149L120.583 89.8653C120.863 90.1023 120.895 90.5224 120.653 90.797C120.523 90.9532 120.335 91.0286 120.152 91.0286V91.034Z" fill="black"/>
<path d="M113.98 90.4309C113.662 90.4309 113.382 90.1993 113.328 89.8761C113.269 89.5153 113.511 89.1706 113.872 89.1114L118.434 88.3412C118.795 88.2766 119.139 88.5243 119.199 88.8852C119.258 89.246 119.015 89.5907 118.655 89.6499L114.093 90.4201C114.055 90.4255 114.017 90.4309 113.98 90.4309Z" fill="black"/>
<path d="M142.637 90.4309C142.583 90.4309 142.535 90.4255 142.481 90.4094C142.125 90.3232 141.905 89.9677 141.991 89.6123C143.046 85.2229 140.418 82.5892 140.305 82.4815C140.047 82.2284 140.036 81.8083 140.294 81.5444C140.547 81.2859 140.968 81.2751 141.226 81.5282C141.361 81.6575 144.522 84.7759 143.283 89.9247C143.208 90.2263 142.939 90.4309 142.637 90.4309Z" fill="black"/>
<path d="M145.702 83.5532C145.39 83.5532 145.109 83.327 145.05 83.0092L144.399 79.4761C144.334 79.1153 144.571 78.7706 144.932 78.706C145.287 78.6575 145.637 78.8783 145.702 79.2392L146.354 82.7722C146.418 83.1331 146.181 83.4778 145.82 83.5424C145.783 83.5478 145.74 83.5532 145.702 83.5532Z" fill="black"/>
<path d="M136.164 82.9286C135.851 82.9286 135.571 82.7024 135.512 82.3846L134.86 78.8569C134.796 78.4961 135.033 78.1514 135.393 78.0868C135.749 78.0383 136.099 78.2591 136.164 78.62L136.815 82.1477C136.88 82.5085 136.643 82.8532 136.282 82.9232C136.244 82.9286 136.201 82.934 136.164 82.934V82.9286Z" fill="black"/>
<path d="M146.175 73.2556C146.175 73.2556 144.797 70.0941 141.048 69.7494C137.294 69.4047 134.881 71.8607 134.881 71.8607C134.881 71.8607 135.991 78.3182 130.605 81.2481C125.219 84.1726 121.347 82.9015 121.347 82.9015L117.755 81.2696L115.498 75.6307L127.185 64.9992L141.668 58.8594L148.19 65.8717L146.181 73.2663L146.175 73.2556Z" fill="black"/>
<path d="M138.393 96.1021C138.081 96.1021 134.381 96.0213 133.062 92.4559C132.932 92.1112 133.11 91.7288 133.455 91.605C133.799 91.4757 134.182 91.6534 134.306 91.9981C135.318 94.7341 138.221 94.7772 138.393 94.7772C138.765 94.7772 139.061 95.0734 139.061 95.4343C139.061 95.8005 138.77 96.0967 138.41 96.1021H138.393Z" fill="black"/>
<path d="M134.166 119.875C125.037 119.875 119.08 113.547 119.01 113.471C118.763 113.202 118.779 112.782 119.048 112.534C119.317 112.286 119.737 112.303 119.985 112.572C120.061 112.653 127.654 120.694 138.685 117.995C139.045 117.904 139.401 118.125 139.487 118.48C139.573 118.836 139.358 119.196 139.002 119.283C137.311 119.697 135.695 119.87 134.171 119.87L134.166 119.875Z" fill="#FCBC49"/>
<path d="M131.936 59.8289C131.936 59.8289 132.151 51.4594 123.098 54.4054C114.039 57.346 113.791 68.7693 113.791 68.7693L131.941 59.8343L131.936 59.8289Z" fill="black"/>
<path d="M55.4091 169.564C55.4091 169.564 48.3376 191.786 65.8037 201.658C83.2752 211.53 139.233 191.027 139.233 191.027L136.169 167.862H88.6986C88.6986 167.862 60.9619 167.857 55.4091 169.57V169.564Z" fill="#F48462"/>
<path d="M146.698 76.0886C146.66 76.0886 146.623 76.0886 146.58 76.0778L143.741 75.5715C143.381 75.5069 143.138 75.1622 143.203 74.8014C143.267 74.4405 143.623 74.2035 143.973 74.2628L146.811 74.7691C147.172 74.8337 147.414 75.1784 147.35 75.5392C147.291 75.8624 147.011 76.0886 146.698 76.0886Z" fill="black"/>
<path d="M133.681 76.9503C133.406 76.9503 133.148 76.7779 133.051 76.5033C132.932 76.1586 133.115 75.7816 133.465 75.6631L137.462 74.3005C137.806 74.182 138.183 74.3651 138.302 74.7152C138.42 75.0599 138.237 75.4369 137.887 75.5554L133.891 76.918C133.821 76.9395 133.745 76.9557 133.675 76.9557L133.681 76.9503Z" fill="black"/>
<path d="M245.446 135.855C244.972 137.4 239.463 148.834 227.102 153.283C214.742 157.737 211.581 142.382 211.581 142.382L227.549 127.054L245.446 135.855Z" fill="#F48462"/>
<path d="M257.403 167.13L223.322 149.05L253.536 103.034L287.617 121.114L257.403 167.13Z" fill="#A63019"/>
<path d="M252.523 164.782L218.442 146.702L248.656 100.685L282.737 118.766L252.523 164.782Z" fill="#E7765F"/>
<path d="M211.01 134.777C211.01 134.777 218.781 121.571 223.672 120.43C228.562 119.288 236.081 120.753 238.957 125.498C241.833 130.237 230.14 128.826 230.14 128.826C230.14 128.826 225.024 141.633 218.173 143.077C211.322 144.52 211.004 134.777 211.004 134.777H211.01Z" fill="#F48462"/>
<path d="M182.481 142.382C182.481 142.382 191.271 143.874 197.292 142.048C203.314 140.222 212.227 133.953 212.227 133.953L224.447 153.919C224.447 153.919 210.854 180.675 185.137 183.26C160.658 185.722 146.763 172.596 146.763 172.596L182.481 142.388V142.382Z" fill="#F48462"/>
<path d="M161.805 119.762C161.805 119.762 167.326 126.311 174.683 132.009C182.034 137.707 186.693 140.966 186.693 140.966C186.693 140.966 183.322 153.299 178.124 167.862C174.026 179.345 171.241 191.016 171.241 191.016C171.241 191.016 148.389 196.035 146.763 184.553C145.142 173.07 161.805 119.762 161.805 119.762Z" fill="#F5B400"/>
<path d="M216.972 143.917C216.342 143.917 215.717 143.788 215.108 143.492C214.78 143.33 214.645 142.937 214.801 142.603C214.963 142.274 215.361 142.14 215.69 142.296C219.018 143.923 223.973 138.241 225.605 135.919C225.815 135.618 226.23 135.548 226.526 135.758C226.828 135.968 226.898 136.382 226.688 136.679C226.456 137.013 221.56 143.917 216.972 143.917Z" fill="black"/>
<path d="M134.984 167.41C134.984 167.41 147.824 158.276 150.646 158.399C153.468 158.518 164.38 160.823 164.989 162.907C165.597 164.992 155.558 167.415 155.558 167.415C155.558 167.415 160.077 171.584 164.068 173.205C168.064 174.826 180.139 173.641 181.351 176.593C182.562 179.544 178.119 179.339 178.119 179.339C178.119 179.339 183.376 181.968 177.311 185.199C171.247 188.431 144.356 194.899 132.34 188.835C120.324 182.77 134.984 167.415 134.984 167.415V167.41Z" fill="#F48462"/>
<path d="M165.172 182.592C164.682 182.592 164.385 182.582 164.326 182.576C163.96 182.56 163.68 182.248 163.696 181.881C163.712 181.515 164.025 181.257 164.391 181.251C164.45 181.251 171.527 181.558 177.85 178.725C178.173 178.575 178.577 178.725 178.728 179.059C178.879 179.393 178.728 179.786 178.394 179.937C173.019 182.345 167.294 182.592 165.172 182.592Z" fill="black"/>
<path d="M155.558 168.078H148.584C148.217 168.078 147.921 167.782 147.921 167.415C147.921 167.049 148.217 166.753 148.584 166.753H155.558C155.924 166.753 156.221 167.049 156.221 167.415C156.221 167.782 155.924 168.078 155.558 168.078Z" fill="black"/>
<path d="M304.33 205.197C304.33 205.197 292.099 255.877 286.966 298.801C281.839 341.726 279.162 411.402 282.641 414.009C286.115 416.615 326.767 420.009 326.767 420.009C326.767 420.009 340.49 425.976 364.144 425.373C381.309 424.937 395.253 420.445 395.253 420.445C395.253 420.445 391.903 229.643 378.826 200.118C368.593 177.007 304.335 205.197 304.335 205.197H304.33Z" fill="#508DCE"/>
<path d="M302.778 196.245V206.392C302.778 206.392 328.49 212.284 349.591 210.771C370.693 209.257 378.578 205.552 378.578 205.552L387.545 154.042L360.584 116.1L338.534 114.317L284.779 153.283L297.909 188.883L302.773 196.245H302.778Z" fill="#DEEBF7"/>
<path d="M328.172 91.3411C328.172 91.3411 322.916 85.5298 324.429 76.5248C325.458 70.4227 328.172 68.4461 328.172 68.4461C328.172 68.4461 324.036 60.1143 336.353 60.6206C348.67 61.1268 355.914 67.1751 355.914 67.1751C355.914 67.1751 361.542 64.4122 364.068 70.9774C366.594 77.5427 364.068 87.2263 364.068 87.2263L328.172 91.3465V91.3411Z" fill="black"/>
<path d="M319.868 182.824L329.842 136.366H364.532L356.712 185.565L319.868 182.824Z" fill="#A63019"/>
<path d="M360.584 136.366L352.769 185.571L339.208 184.558L323.573 183.406L315.925 182.829L316.426 180.524L320.002 163.877L324.24 144.106L325.91 136.366H360.584Z" fill="#E7765F"/>
<path d="M302.45 176.426L311.207 144.111H340.883L332.497 183.082L302.45 176.426Z" fill="#A49CF2"/>
<path d="M336.348 144.106L332.847 160.392L327.968 183.088L323.244 182.043L316.426 180.524L297.91 176.42L306.667 144.106H336.348Z" fill="white"/>
<path d="M303.645 171.713C303.645 171.713 314.778 170.561 317.131 170.561C319.485 170.561 322.657 176.092 322.657 176.092L329.718 178.128L321.645 200.834C321.645 200.834 304.852 203.015 297.91 194.942C295.303 191.91 303.64 171.713 303.64 171.713H303.645Z" fill="#F27E64"/>
<path d="M338.545 115.324C338.545 115.324 317.444 115.83 296.068 133.673C274.692 151.516 265.433 169.193 269.807 184.677C274.185 200.161 301.62 200.834 301.62 200.834L309.699 168.853L288.576 155.05L338.545 115.324Z" fill="#DEEBF7"/>
<path d="M349.931 177.099C349.931 177.099 343.366 173.593 340.166 172.758C337.14 171.966 334.856 172.117 334.856 172.117L333.843 176.83C333.843 176.83 323.336 179.124 315.93 182.824C308.525 186.529 309.871 189.896 309.871 189.896C309.871 189.896 305.159 192.928 307.178 194.947C309.198 196.967 316.943 194.947 316.943 194.947C316.943 194.947 307.178 198.653 311.218 200.839C315.257 203.026 324.16 202.353 324.16 202.353C324.16 202.353 343.538 205.719 349.936 198.987C356.335 192.255 349.936 177.104 349.936 177.104L349.931 177.099Z" fill="#FF9280"/>
<path d="M355.209 101.488L354.832 116.525C354.832 116.525 352.01 120.78 343.199 121.275C336.633 121.642 334.641 118.227 334.641 118.227L336.558 105.113L352.527 102.016L355.204 101.493L355.209 101.488Z" fill="#F27E64"/>
<path d="M353.97 115.324C353.97 115.324 390.497 116.67 408.846 146.125C427.195 175.58 412.718 202.175 383.931 207.566C355.15 212.952 340.167 205.04 340.167 205.04L347.023 171.541L361.785 169.354L376.219 151.764L353.965 115.324H353.97Z" fill="#DEEBF7"/>
<path d="M355.209 100.572C355.161 100.982 354.994 101.461 354.735 102.01C351.181 109.437 339.267 112.265 335.47 112.507L336.558 105.102L355.209 100.567V100.572Z" fill="black"/>
<path d="M334.07 70.7513C334.07 70.7513 325.706 89.4022 328.555 99.9584C331.404 110.509 341.007 108.947 346.764 106.965C352.521 104.983 355.214 101.493 355.214 101.493C355.214 101.493 360.557 103.362 364.187 98.4127C367.817 93.4631 365.668 87.7219 362.62 86.3808C359.571 85.0398 355.914 87.2156 355.914 87.2156L358.817 81.7975C358.817 81.7975 347.087 54.0176 334.07 70.7513Z" fill="#F27E64"/>
<path d="M355.909 87.2102C355.909 87.2102 347.852 88.8367 342.256 79.8694C336.66 70.9074 337.171 67.2236 337.171 67.2236L331.597 76.4763C331.597 76.4763 330.353 70.0619 332.917 65.9687C335.486 61.8809 338.146 62.7264 338.146 62.7264L355.909 67.1643L360.584 81.3989L355.903 87.2048L355.909 87.2102Z" fill="black"/>
<path d="M334.705 94.5295C334.463 94.5295 334.237 94.3733 334.161 94.1255C332.939 90.1293 335.766 86.0792 335.89 85.9068C336.073 85.6537 336.429 85.5891 336.682 85.7722C336.935 85.9553 337 86.3054 336.817 86.5639C336.79 86.6016 334.194 90.3393 335.249 93.797C335.341 94.0986 335.174 94.4164 334.872 94.5079C334.818 94.5241 334.759 94.5295 334.705 94.5295Z" fill="black"/>
<path d="M356.684 95.9728C356.544 95.9728 356.404 95.9244 356.291 95.8166C356.065 95.6012 356.054 95.2404 356.27 95.0142L361.376 89.6391C361.591 89.4129 361.952 89.3968 362.178 89.6176C362.404 89.833 362.415 90.1939 362.2 90.4201L357.094 95.7951C356.981 95.9136 356.83 95.9728 356.679 95.9728H356.684Z" fill="black"/>
<path d="M362.076 94.5403C361.99 94.5349 358.467 93.991 358.467 93.991C358.155 93.9425 357.945 93.6517 357.993 93.3447C358.042 93.0377 358.306 92.8169 358.64 92.8707L362.156 93.4147C362.469 93.4632 362.679 93.754 362.63 94.061C362.587 94.341 362.345 94.5403 362.07 94.5403H362.076Z" fill="black"/>
<path d="M341.674 100.007C340.172 100.007 338.604 99.4306 338.34 99.3283C338.152 99.2529 338.012 99.0859 337.985 98.8812C337.953 98.6766 338.034 98.4773 338.195 98.348L343.231 94.3949C343.365 94.2925 343.538 94.2495 343.705 94.2872C343.872 94.3249 344.012 94.4326 344.087 94.5834C344.146 94.6965 345.547 97.4594 344.006 99.1721C343.441 99.7968 342.574 100.001 341.68 100.001L341.674 100.007ZM339.741 98.5796C340.904 98.8812 342.531 99.1074 343.155 98.4181C343.812 97.6856 343.575 96.4953 343.333 95.7629L339.741 98.5796Z" fill="black"/>
<path d="M331.102 79.1907C330.833 79.1907 330.591 78.9969 330.542 78.7222C330.488 78.4098 330.693 78.119 331.005 78.0651L334.334 77.4888C334.652 77.4242 334.937 77.6396 334.991 77.952C335.045 78.2644 334.84 78.5552 334.528 78.6091L331.199 79.1854C331.167 79.1907 331.129 79.1961 331.102 79.1961V79.1907Z" fill="black"/>
<path d="M344.927 81.3774C344.841 81.3774 344.755 81.3559 344.668 81.3182L339.213 78.5553C338.933 78.4152 338.82 78.0706 338.965 77.7905C339.105 77.5104 339.45 77.4027 339.73 77.5428L345.185 80.3057C345.466 80.4457 345.579 80.7904 345.433 81.0704C345.331 81.2643 345.132 81.3828 344.927 81.3828V81.3774Z" fill="black"/>
<path d="M331.102 86.8816C331.048 86.8816 330.989 86.8762 330.935 86.8601C330.633 86.7685 330.467 86.4507 330.558 86.1491L331.506 83.0577L330.66 82.0236C330.461 81.7813 330.499 81.4258 330.741 81.2265C330.989 81.0273 331.339 81.0596 331.538 81.3073L332.578 82.5784C332.702 82.7292 332.739 82.9231 332.68 83.1062L331.641 86.4884C331.565 86.7308 331.339 86.8924 331.097 86.8924L331.102 86.8816Z" fill="black"/>
<path d="M340.565 87.7864C340.511 87.7864 340.452 87.781 340.398 87.7649C340.096 87.6733 339.929 87.3555 340.021 87.0539L340.969 83.9679L339.735 82.5299C339.531 82.2929 339.563 81.9321 339.8 81.7274C340.037 81.5227 340.392 81.5497 340.602 81.792L342.035 83.467C342.164 83.6124 342.202 83.8171 342.148 84.0002L341.109 87.3825C341.033 87.6248 340.807 87.7864 340.565 87.7864Z" fill="black"/>
<path d="M322.663 176.657C322.555 176.646 311.95 174.627 311.95 174.627C311.643 174.568 311.439 174.271 311.498 173.959C311.557 173.652 311.843 173.453 312.166 173.507L322.77 175.526C323.077 175.585 323.282 175.882 323.223 176.194C323.169 176.463 322.932 176.657 322.663 176.657Z" fill="black"/>
<path d="M333.843 177.395C333.601 177.395 333.369 177.234 333.299 176.991C333.213 176.69 333.38 176.372 333.682 176.286L339.585 174.541C339.892 174.454 340.204 174.627 340.29 174.923C340.376 175.225 340.209 175.542 339.908 175.629L334.005 177.374C333.951 177.39 333.897 177.395 333.843 177.395Z" fill="black"/>
<path d="M310.319 189.923C310.071 189.923 309.845 189.761 309.775 189.513C309.688 189.212 309.861 188.899 310.162 188.813L325.2 184.467C325.501 184.375 325.813 184.553 325.9 184.855C325.986 185.156 325.813 185.468 325.512 185.56L310.475 189.901C310.421 189.917 310.372 189.923 310.319 189.923Z" fill="black"/>
<path d="M315.925 195.745C315.677 195.745 315.451 195.583 315.381 195.335C315.295 195.034 315.467 194.721 315.769 194.63L325.194 191.872C325.49 191.781 325.813 191.953 325.9 192.26C325.986 192.562 325.813 192.874 325.512 192.966L316.087 195.723C316.033 195.739 315.979 195.745 315.925 195.745Z" fill="black"/>
<path d="M361.785 169.925C361.521 169.925 361.279 169.742 361.23 169.467C361.171 169.16 361.37 168.859 361.677 168.799C361.876 168.762 381.825 164.835 393.362 164.835C393.674 164.835 393.927 165.089 393.927 165.401C393.927 165.713 393.674 165.966 393.362 165.966C381.939 165.966 362.103 169.871 361.903 169.909C361.866 169.92 361.828 169.92 361.79 169.92L361.785 169.925Z" fill="#70A1D7"/>
<path d="M378.583 167.178C378.41 167.178 378.238 167.097 378.13 166.957C377.974 166.753 377.974 166.467 378.13 166.263C379.003 165.142 386.775 155.405 390.841 157.575C391.611 157.985 391.746 158.539 391.729 158.933C391.595 161.642 381.798 165.891 378.793 167.135C378.723 167.162 378.647 167.178 378.577 167.178H378.583ZM389.5 158.389C387.195 158.389 383.328 161.927 380.516 165.164C385.654 162.87 390.539 160.074 390.598 158.879C390.598 158.846 390.609 158.733 390.313 158.577C390.071 158.448 389.796 158.389 389.494 158.389H389.5Z" fill="#508DCE"/>
<path d="M301.652 164.162C301.502 164.162 301.356 164.103 301.243 163.99C301.173 163.92 294.516 157.058 288.441 155.599C288.134 155.529 287.946 155.217 288.021 154.915C288.096 154.613 288.393 154.425 288.705 154.495C295.103 156.03 301.782 162.907 302.062 163.198C302.277 163.424 302.272 163.785 302.046 164.001C301.938 164.108 301.792 164.162 301.652 164.162Z" fill="#70A1D7"/>
<path d="M295.114 158.389C294.969 158.389 294.824 158.329 294.716 158.227C294.269 157.786 290.375 153.849 290.515 151.323C290.547 150.725 290.8 150.218 291.253 149.858C291.7 149.502 292.201 149.416 292.669 149.599C294.554 150.359 295.448 156.03 295.68 157.748C295.712 157.99 295.588 158.222 295.368 158.329C295.287 158.367 295.201 158.389 295.114 158.389ZM292.179 150.639C292.131 150.639 292.066 150.66 291.958 150.746C291.764 150.902 291.662 151.102 291.646 151.382C291.576 152.604 293.019 154.603 294.247 156.046C293.741 153.412 292.949 150.94 292.244 150.655C292.228 150.649 292.211 150.644 292.185 150.644L292.179 150.639Z" fill="#70A1D7"/>
<path d="M326.233 418.511C325.932 418.511 325.657 418.301 325.587 417.994C316.673 378.188 317.131 244.136 317.169 235.438L303.376 229.298C303.042 229.147 302.891 228.759 303.042 228.425C303.187 228.092 303.586 227.941 303.914 228.092L318.106 234.404C318.348 234.511 318.499 234.748 318.499 235.012C318.488 236.429 317.745 376.911 326.879 417.709C326.96 418.064 326.734 418.42 326.379 418.501C326.33 418.511 326.282 418.517 326.233 418.517V418.511Z" fill="#90B6E0"/>
<path d="M334.215 120.893C334.215 120.893 333.257 112.809 335.476 112.507C337.694 112.206 340.15 113.784 345.342 112.992C350.534 112.2 353.351 110.595 354.983 110.638C356.615 110.681 355.214 120.645 355.214 120.645L342.202 124.706L334.215 120.893Z" fill="#DEEBF7"/>
<path d="M345.342 118.243C345.051 118.243 344.803 118.022 344.776 117.726C344.744 117.414 344.976 117.139 345.288 117.107C347.652 116.886 354.686 115.965 354.756 115.959C355.096 115.9 355.354 116.137 355.392 116.45C355.435 116.762 355.214 117.047 354.902 117.085C354.832 117.096 347.776 118.017 345.39 118.238C345.374 118.238 345.358 118.238 345.337 118.238L345.342 118.243Z" fill="#70A1D7"/>
<path d="M373.703 229.352C373.644 229.352 373.579 229.341 373.52 229.325C361.677 225.878 359.959 214.81 359.937 214.697C359.889 214.336 360.136 214.002 360.497 213.949C360.88 213.9 361.197 214.148 361.246 214.509C361.311 214.929 362.883 224.855 373.886 228.049C374.236 228.151 374.441 228.522 374.339 228.873C374.253 229.158 373.989 229.352 373.703 229.352Z" fill="#90B6E0"/>
</g>
</svg>
