<svg width="200" height="201" viewBox="0 0 200 201" fill="none" xmlns="http://www.w3.org/2000/svg">
<mask id="mask0_143_912" style="mask-type:alpha" maskUnits="userSpaceOnUse" x="0" y="0" width="200" height="201">
<rect y="0.5" width="200" height="200" fill="#D9D9D9"/>
</mask>
<g mask="url(#mask0_143_912)">
<path d="M67.7027 7.5957C66.1449 10.5866 65.5384 13.9813 65.9643 17.3258C69.8314 18.2189 73.5199 19.7574 76.8744 21.8765C77.09 20.0557 77.6385 18.29 78.4929 16.6672C74.3321 14.3843 70.6649 11.3012 67.7027 7.5957Z" fill="#F4C245"/>
<path d="M55.354 172.29C54.6805 170.57 54.4755 168.702 54.7598 166.877C55.0441 165.052 55.8075 163.335 56.9725 161.901C51.7609 161.38 46.4993 162.067 41.5964 163.907C40.656 165.282 40.0945 166.88 39.9682 168.541C39.8419 170.201 40.1554 171.866 40.8771 173.367C45.4909 171.591 50.5275 171.216 55.354 172.29Z" fill="#F4C245"/>
<path d="M190.637 103.051C189.884 102.329 189.298 101.451 188.92 100.479C188.542 99.5067 188.381 98.4636 188.449 97.4229C183.018 98.965 177.839 101.284 173.073 104.309C173.283 106.824 174.174 109.236 175.651 111.285C179.84 107.279 185.007 104.44 190.637 103.051Z" fill="#F4C245"/>
<path d="M99.534 76.8137C95.9972 77.9214 92.0408 77.5921 84.008 73.6401C82.8347 77.514 82.9503 81.6634 84.3377 85.466C89.6804 87.5936 95.4831 88.3052 101.182 87.5318C99.4975 84.2278 98.9196 80.4705 99.534 76.8137Z" fill="#F4C245"/>
<path d="M44.3835 38.0158C45.2882 39.0443 45.9614 40.2547 46.3577 41.5653C48.1877 39.5717 50.2865 37.8423 52.5938 36.4267C52.5563 35.073 52.0137 33.7822 51.0725 32.8076C48.6417 34.2694 46.3959 36.018 44.3835 38.0158Z" fill="#F4C245"/>
<path d="M60.3755 70.1567C57.4849 67.9554 53.9686 66.7287 50.3345 66.6538C48.4952 68.4241 46.392 69.8986 44.1001 71.0249C46.4979 71.8931 47.3372 73.42 48.0565 77.0127C51.7688 74.0832 55.9282 71.7684 60.3755 70.1567Z" fill="#F4C245"/>
<path d="M185.496 33.5222C186.004 31.6148 186.879 29.8248 188.074 28.2529C187.274 27.5745 186.275 27.1751 185.227 27.1152C183.954 28.7017 182.942 30.4804 182.229 32.3845C183.878 32.2348 184.747 32.4444 185.496 33.5222Z" fill="#F4C245"/>
<path d="M149.645 77.969C149.645 77.969 156.794 67.642 158.856 59.9872C160.915 52.3479 159.867 49.249 158.773 48.7712C157.679 48.2933 155.318 52.7756 155.318 52.7756C155.318 52.7756 157.042 45.5321 154.622 44.5236C152.201 43.5152 149.974 49.6854 149.974 49.6854C149.974 49.6854 150.13 44.245 147.88 44.6899C145.627 45.1505 137.973 58.9715 137.973 58.9715L138.849 71.0503L149.645 77.969Z" fill="#F48462"/>
<path d="M133.105 59.449C133.105 59.449 129.984 76.4241 135.388 77.9211C140.79 79.4338 147.396 79.8229 147.396 79.8229C147.396 79.8229 156.644 69.3957 154.888 64.2934C149.452 48.5273 133.105 59.449 133.105 59.449Z" fill="#F48462"/>
<path d="M140.018 71.1542C140.018 71.1542 139.94 71.1418 139.896 71.1187C139.705 71.0083 139.643 70.7902 139.738 70.5969C141.723 66.9686 146.346 66.1142 146.544 66.0813C146.757 66.051 146.945 66.177 146.991 66.3926C147.021 66.6058 146.895 66.7942 146.68 66.8402C146.633 66.8327 142.221 67.6725 140.418 70.961C140.33 71.1074 140.175 71.1789 140.018 71.1542Z" fill="black"/>
<path d="M43.648 166.782C43.648 166.782 32.8529 173.214 25.0786 174.74C17.3043 176.265 14.2963 175.019 13.8993 173.883C13.4999 172.761 18.1209 170.705 18.1209 170.705C18.1209 170.705 10.7788 171.93 9.9389 169.441C9.09904 166.952 15.4112 165.147 15.4112 165.147C15.4112 165.147 9.96251 164.941 10.5693 162.729C11.176 160.517 20.928 158.648 20.928 158.648C20.928 158.648 13.9328 157.076 14.3797 155.367C14.829 153.643 26.3076 151.599 29.7019 152.329C33.0987 153.043 37.4805 155.532 37.4805 155.532L43.6349 166.764L43.648 166.782Z" fill="#F48462"/>
<path d="M29.515 162.412C23.9803 161.535 22.1606 158.554 22.0734 158.396C21.9731 158.22 22.0258 157.988 22.2045 157.872C22.3806 157.772 22.6127 157.825 22.7287 158.003C22.7525 158.055 25.587 162.623 35.0661 161.768C35.2768 161.754 35.4602 161.911 35.4749 162.122C35.4896 162.332 35.3324 162.516 35.1217 162.53C32.9268 162.728 31.0653 162.641 29.5018 162.394L29.515 162.412Z" fill="black"/>
<path d="M30.8636 152.175C30.8636 152.175 45.9556 145.126 54.2138 136.497C66.6943 123.472 77.6761 115.66 77.6761 115.66L95.5779 146.222L67.7825 167.703L41.991 175.318L30.866 152.16L30.8636 152.175Z" fill="#D8E7EF"/>
<path d="M93.5826 77.9686C93.5826 77.9686 100.297 76.3555 106.356 79.9917C112.415 83.6279 112.249 90.4451 112.249 90.4451C112.249 90.4451 114.694 93.8294 111.115 97.6058C107.536 101.382 101.7 102.814 101.7 102.814L93.5801 77.9842L93.5826 77.9686Z" fill="#020200"/>
<path d="M89.9141 82.9168C89.9141 82.9168 82.4035 95.831 83.0096 101.921C83.7434 109.33 90.6372 109.316 94.8189 108.616C99.0007 107.916 101.233 105.865 101.233 105.865C101.233 105.865 104.709 107.698 107.751 104.782C110.78 101.848 109.904 97.7665 107.952 96.5278C106.001 95.2892 103.235 96.3577 103.235 96.3577L105.814 93.0318C105.814 93.0318 100.685 73.0992 89.9298 82.9192L89.9141 82.9168Z" fill="#F48462"/>
<path d="M103.22 96.3561C103.22 96.3561 97.496 96.5715 94.5876 89.9404C91.6792 83.3094 92.4301 80.8961 92.4301 80.8961L87.6008 86.4939C87.6008 86.4939 87.4243 82.0425 89.6244 79.5862C91.827 77.1143 93.5803 77.985 93.5803 77.985L105.349 82.9102L107.057 92.9732L103.22 96.3561Z" fill="#020200"/>
<path d="M87.8237 98.948C87.6674 98.9232 87.5284 98.789 87.5062 98.6252C87.0879 95.8023 89.4731 93.3914 89.5686 93.2944C89.7209 93.1422 89.9604 93.1481 90.1125 93.3004C90.2647 93.4527 90.2589 93.6922 90.1066 93.8444C90.086 93.8731 87.8918 96.0899 88.2601 98.5203C88.2905 98.7334 88.1488 98.9193 87.9356 98.9497C87.9044 98.9447 87.855 98.9529 87.8237 98.948Z" fill="black"/>
<path d="M86.1523 93.4128C86.1523 93.4128 86.0742 93.4004 86.0454 93.3798C85.852 93.2851 85.7772 93.0489 85.8694 92.8712L86.8786 90.8513L86.4406 89.4677C86.3765 89.2653 86.4893 89.0587 86.6943 88.979C86.8967 88.9149 87.1033 89.0278 87.183 89.2327L87.6769 90.7694C87.7089 90.8706 87.6941 90.9645 87.648 91.0533L86.5697 93.2064C86.498 93.3554 86.3243 93.44 86.168 93.4153L86.1523 93.4128Z" fill="black"/>
<path d="M96.905 114.57C96.905 114.57 122.082 83.4106 128.143 65.8914L153.605 78.1622C142.472 116.579 119.04 136.619 119.04 136.619C119.04 136.619 115.616 157.024 113.641 167.466C112.977 170.95 133.789 218.353 133.637 218.505C133.014 219.096 107.273 229.732 91.5343 232.063C75.7952 234.394 49.1895 230.757 46.5797 229.526C44.7013 228.636 62.5986 165.119 62.2712 164.859C61.4905 164.222 77.6895 115.678 77.6895 115.678C77.6895 115.678 84.5576 112.791 96.9025 114.586L96.905 114.57Z" fill="#D8E7EF"/>
<path d="M92.5915 95.0552C92.5915 95.0552 92.5133 95.0428 92.4845 95.0222C92.2911 94.9275 92.2164 94.6912 92.3087 94.5135L93.3152 92.5093L92.8582 91.3471C92.7785 91.1421 92.8757 90.9332 93.0807 90.8534C93.2856 90.7737 93.4945 90.8709 93.5743 91.0759L94.1003 92.4093C94.1324 92.5105 94.1307 92.6224 94.0821 92.7269L93.0038 94.8801C92.9322 95.029 92.7585 95.1137 92.6022 95.0889L92.5915 95.0552Z" fill="black"/>
<path d="M86.9696 88.2512C86.782 88.2215 86.6455 88.0717 86.6439 87.8791C86.6448 87.6709 86.8177 87.4899 87.0259 87.4908L89.3861 87.464C89.61 87.4674 89.7752 87.6378 89.7743 87.846C89.7734 88.0542 89.6006 88.2352 89.3924 88.2343L87.0321 88.2611C87.0321 88.2611 86.9852 88.2537 86.9696 88.2512Z" fill="black"/>
<path d="M96.2739 91.2321C96.2739 91.2321 96.1645 91.2148 96.1094 91.1579L92.6517 88.7031C92.4789 88.5796 92.4354 88.3483 92.559 88.1755C92.6825 88.0028 92.9294 87.9618 93.0865 88.0828L96.5442 90.5377C96.717 90.6612 96.7605 90.8924 96.6369 91.0652C96.5546 91.1804 96.4014 91.2363 96.2607 91.214L96.2739 91.2321Z" fill="black"/>
<path d="M62.5199 162.782C62.2722 162.727 62.1612 162.517 62.209 162.316L67.9615 139.555C68.0094 139.354 68.2399 139.215 68.4225 139.276C68.6233 139.323 68.75 139.536 68.7022 139.737L62.9496 162.497C62.9017 162.698 62.7075 162.812 62.5199 162.782Z" fill="#020200"/>
<path d="M27.9487 170.578C27.8392 170.561 27.7529 170.499 27.6871 170.408L21.6726 161.026C21.5566 160.847 21.6093 160.615 21.788 160.499C21.9666 160.383 22.1987 160.436 22.3146 160.614L28.3292 169.997C28.4451 170.176 28.3923 170.408 28.2137 170.524C28.1256 170.574 28.0425 170.593 27.9487 170.578Z" fill="black"/>
<path d="M133.818 49.0811C137.941 49.8624 142.029 61.3922 140.838 63.4473C139.647 65.5025 132.25 67.2798 132.25 67.2798C132.25 67.2798 129.695 48.2998 133.818 49.0811Z" fill="#F48462"/>
<path d="M89.9136 103.864C88.7567 103.681 88.1673 102.241 88.1459 102.174C88.0982 102.07 88.118 101.945 88.1666 101.841C88.2309 101.739 88.3215 101.673 88.4383 101.643L92.6752 101C92.8233 100.976 92.9722 101.047 93.0487 101.171C93.1252 101.296 93.1317 101.457 93.0468 101.588C92.9159 101.808 91.7077 103.668 90.3794 103.858C90.2156 103.88 90.0568 103.871 89.9161 103.849L89.9136 103.864ZM89.084 102.323C89.329 102.698 89.7518 103.166 90.2744 103.104C90.8151 103.029 91.4219 102.436 91.8731 101.915L89.0815 102.338L89.084 102.323Z" fill="black"/>
<path d="M99.2423 95.2595C99.2423 95.2595 98.6609 109.96 87.3676 108.204C87.3676 108.204 81.8172 107.629 81.2937 114.678C80.7702 121.727 82.4121 135.242 84.9951 135.731C87.5781 136.22 100.158 110.326 102.639 107.209C107.557 101.048 113.214 92.5521 113.214 92.5521C113.214 92.5521 114.7 83.8765 107.98 81.1773L99.6234 91.842L99.2398 95.2751L99.2423 95.2595Z" fill="#020200"/>
<path d="M168.524 232.897C168.524 232.897 142.216 230.107 132.665 213C121.363 192.779 113.665 168.5 113.665 168.5L62.2757 164.83C62.2757 164.83 49.7757 213.496 45.167 246.743C40.5607 279.975 39.5179 307.809 40.4792 309.227C41.4406 310.646 77.884 315.616 80.0978 315.502C143.731 325.581 168.214 270.271 168.214 270.271C170.159 269.425 168.54 232.899 168.54 232.899L168.524 232.897Z" fill="#5C69A5"/>
<path d="M200.424 195.885H0.424316V200.5H200.424V195.885Z" fill="white"/>
<path d="M153.224 63.7949C149.783 64.9177 146.878 66.9254 144.679 69.4829L144.97 70.3746L163.771 64.2404L163.48 63.3488C160.196 62.5801 156.666 62.6718 153.225 63.7946L153.224 63.7949Z" fill="#FED100"/>
<path d="M166.259 63.4281L142.481 71.186L147.33 86.048L171.108 78.29L166.259 63.4281Z" fill="#97512C"/>
<path d="M172.751 77.7543L145.688 86.584L146.422 88.8329L173.485 80.0032L172.751 77.7543Z" fill="#7C3E25"/>
<path d="M150.34 48.582C149.826 48.9915 149.233 49.3171 148.571 49.5329C147.91 49.7488 147.24 49.8356 146.584 49.8086L146.584 49.8003C146.226 48.7003 145.324 47.7257 144.005 47.2658L143.981 47.2619C139.48 45.9854 135.372 43.495 132.155 40.0421L132.154 40.0425C126.546 34.0653 122.13 26.792 119.419 18.4849L153.803 7.26655C156.513 15.5737 157.236 24.0519 156.232 32.1864L156.231 32.1867C155.668 36.872 153.82 41.3055 150.937 44.9913L150.922 45.0078C150.128 46.1581 149.975 47.477 150.333 48.5761L150.338 48.5826L150.34 48.582Z" fill="#FED100"/>
<path d="M150.091 48.7686C150.431 49.8106 151.172 50.5289 152.106 50.9298L152.108 50.9291C152.436 51.0781 152.701 51.3564 152.821 51.7255C153.05 52.4254 152.667 53.1776 151.968 53.4059C151.955 53.41 151.943 53.414 151.931 53.4178L148.149 54.6518C148.136 54.6559 148.124 54.66 148.113 54.6637C147.413 54.892 146.661 54.5099 146.432 53.8101C146.312 53.4409 146.362 53.0608 146.538 52.7464L146.54 52.7457C147.058 51.8723 147.233 50.8539 146.893 49.8119L150.091 48.7686Z" fill="#FED100"/>
<path d="M156.78 63.8284C155.863 64.4593 154.84 64.9708 153.726 65.3341C152.613 65.6974 151.486 65.8872 150.372 65.9191L150.372 65.8859L149.688 63.7884C149.869 61.6492 149.635 59.4383 148.927 57.2692C148.636 56.3765 148.275 55.5258 147.855 54.7212L152.208 53.3008C152.343 54.1997 152.554 55.0992 152.845 55.9909C153.553 58.1609 154.667 60.0839 156.075 61.7042L156.76 63.8017L156.779 63.8288L156.78 63.8284Z" fill="#FFDB31"/>
<path d="M135.176 49.6647C134.3 49.9506 133.349 49.9131 132.5 49.5604C131.812 49.2753 131.487 48.4865 131.772 47.7993C132.058 47.112 132.846 46.7869 133.534 47.0721C133.714 47.1474 134.001 47.2144 134.34 47.1038C134.951 46.9045 135.285 46.2458 135.086 45.6351C135.058 45.548 135.019 45.4643 134.972 45.3878C134.599 44.8326 134.087 44.3813 133.486 44.0784C133.331 44.0247 133.209 43.9556 133.131 43.9099L118.488 37.0478C113.637 34.7747 109.134 30.2052 110.01 25.1229C110.383 22.9545 111.938 21.1038 113.998 20.3526C114.028 20.3404 114.059 20.3292 114.09 20.319L114.192 20.2859C114.222 20.2761 114.252 20.2673 114.283 20.2596C117.416 19.3497 120.741 21.0905 121.76 24.2155C122.235 25.6692 122.147 27.2351 121.513 28.6248C121.203 29.3016 120.405 29.6 119.728 29.2918C119.052 28.9826 118.753 28.184 119.061 27.5076C119.415 26.7338 119.464 25.8609 119.199 25.0511C118.625 23.2916 116.74 22.3201 114.978 22.8641C113.785 23.2739 112.881 24.3352 112.666 25.5803C112.034 29.2438 115.834 32.828 119.633 34.6081L134.322 41.4929C134.364 41.5125 134.4 41.5317 134.431 41.5491C134.468 41.5625 134.505 41.5779 134.54 41.595C135.634 42.109 136.563 42.9106 137.228 43.9129C137.235 43.9223 137.24 43.932 137.247 43.9413C137.414 44.209 137.55 44.4975 137.648 44.7992C138.308 46.8221 137.2 49.0044 135.177 49.6644L135.176 49.6647ZM133.172 43.9299C133.172 43.9299 133.177 43.9316 133.178 43.9333L133.172 43.9299Z" fill="#FED100"/>
<path d="M154.601 39.2676C154.503 38.9659 154.442 38.653 154.42 38.338C154.42 38.3266 154.418 38.3155 154.418 38.3041C154.364 37.1022 154.642 35.9068 155.222 34.8469C155.241 34.8118 155.261 34.7778 155.283 34.7455C155.298 34.7132 155.315 34.6764 155.338 34.6359L163.14 20.4129C165.157 16.7354 166.113 11.5994 163.442 9.01298C162.534 8.13358 161.178 7.81075 159.973 8.18314C158.229 8.78215 157.28 10.6796 157.854 12.4391C158.118 13.2488 158.672 13.9239 159.414 14.3414C160.063 14.7056 160.293 15.5276 159.927 16.1757C159.563 16.8246 158.741 17.0549 158.093 16.6893C156.761 15.94 155.767 14.7272 155.293 13.2746C154.273 10.1496 155.931 6.783 158.998 5.66991C159.028 5.65802 159.057 5.64718 159.088 5.63737L159.189 5.60421C159.22 5.59407 159.252 5.58495 159.283 5.57688C161.389 4.96914 163.738 5.54731 165.317 7.07732C169.022 10.665 168.08 17.0113 165.503 21.7078L157.726 35.8848C157.69 35.9677 157.632 36.0945 157.539 36.2305C157.232 36.8297 157.084 37.4951 157.111 38.1644C157.118 38.2537 157.136 38.3442 157.165 38.4313C157.364 39.042 158.022 39.3766 158.633 39.1774C158.972 39.0667 159.165 38.8445 159.266 38.6761C159.653 38.0405 160.481 37.8378 161.117 38.2247C161.753 38.6116 161.955 39.4403 161.568 40.0759C161.09 40.8616 160.345 41.4525 159.469 41.7383C157.446 42.3983 155.264 41.2898 154.604 39.2669L154.601 39.2676ZM157.7 35.9325C157.7 35.9325 157.702 35.9284 157.703 35.9257L157.7 35.9325Z" fill="#FED100"/>
<path d="M127.229 17.669L121.41 19.5674C123.345 25.4971 126.351 30.779 130.144 35.266C129.311 33.7894 128.611 32.2098 128.065 30.5364C126.66 26.2314 126.443 21.8237 127.23 17.6676L127.229 17.669Z" fill="#FFDF5A"/>
<path d="M147.33 86.048L171.108 78.29L166.259 63.4281C166.259 63.4281 163.161 80.8827 147.33 86.048Z" fill="#8D492B"/>
<path d="M164.16 67.908L146.819 73.5659L149.59 82.0576L166.931 76.3997L164.16 67.908Z" fill="#FED100"/>
<path d="M111.533 26.4998C111.931 24.1974 113.582 22.2303 115.77 21.4327C115.802 21.4198 115.834 21.4083 115.869 21.3971L115.976 21.3619C116.008 21.3514 116.041 21.342 116.074 21.3336C116.752 21.1365 117.439 21.0581 118.111 21.0841C116.96 20.5536 115.621 20.4202 114.319 20.7978C114.292 20.8045 114.264 20.8123 114.237 20.8211L114.146 20.8509C114.118 20.86 114.09 20.8702 114.063 20.8814C112.219 21.5542 110.827 23.2119 110.492 25.1532C110.132 27.2427 110.788 29.2349 112.022 30.9761C111.472 29.5589 111.267 28.0518 111.533 26.4998Z" fill="#FFDF5A"/>
<path d="M137.528 44.4308C139.536 45.6618 141.708 46.6165 143.981 47.2617L144.004 47.2657C145.324 47.7266 146.225 48.7011 146.584 49.8002L146.583 49.8085C147.239 49.8354 147.911 49.7483 148.571 49.5328C149.231 49.3173 149.826 48.9914 150.339 48.5818L150.335 48.5752C149.976 47.4751 150.13 46.1562 150.924 45.0069L150.939 44.9905C153.822 41.3047 155.67 36.8711 156.232 32.1849L156.233 32.1845C157.236 24.0528 156.513 15.5745 153.803 7.26743C156.025 39.8402 137.611 44.4037 137.528 44.4308Z" fill="#FCC200"/>
<path d="M150.31 28.0357C149.594 23.4362 145.285 20.2882 140.685 21.0043C136.086 21.7205 132.938 26.0296 133.654 30.629C134.37 35.2285 138.679 38.3765 143.278 37.6603C147.878 36.9442 151.026 32.6351 150.31 28.0357Z" fill="#FFF3C0"/>
<path d="M143.187 35.5814L140.048 25.9606L138.292 26.5333L137.595 24.3975L141.736 23.0467L145.571 34.8033L143.187 35.5814Z" fill="#D69A13"/>
<path d="M39.2456 123.123C39.8369 123.097 40.4269 123.198 40.9752 123.42C41.5235 123.643 42.0173 123.98 42.423 124.411C43.9031 121.587 44.9473 118.557 45.5201 115.422C44.4091 114.543 43.0795 113.982 41.6737 113.8C41.6849 117.065 40.8483 120.277 39.2456 123.123Z" fill="#F4C245"/>
<path d="M101.731 43.3175C100.018 45.0373 97.9836 46.4047 95.744 47.3421C96.1829 48.5558 97.0043 49.5941 98.0847 50.3013C100.411 49.3849 102.58 48.1115 104.513 46.5272C102.674 45.6685 101.969 44.869 101.731 43.3175Z" fill="#F4C245"/>
<path d="M28.751 86.733C26.8132 85.2711 25.1806 83.443 23.946 81.3525C22.8036 81.9532 21.8873 82.9088 21.3344 84.0757C22.5601 86.2547 24.1179 88.2292 25.9516 89.9281C26.5509 87.9885 27.2465 87.1813 28.751 86.733Z" fill="#F4C245"/>
<path d="M174.985 45.501C175.199 47.6972 174.53 49.9891 171.243 54.2276C173.39 55.3703 175.849 55.7921 178.255 55.4305C180.135 52.545 181.25 49.2301 181.496 45.7971C179.349 46.3961 177.067 46.2923 174.985 45.501Z" fill="#F4C245"/>
<path d="M157.868 116.139C155.267 115.975 152.816 114.869 150.976 113.026C149.776 116.92 149.234 120.987 149.371 125.058C151.724 125.727 154.193 125.881 156.611 125.509C156.314 122.331 156.744 119.127 157.868 116.139Z" fill="#F4C245"/>
</g>
</svg>
