<svg width="390" height="50" viewBox="0 0 390 50" fill="none" xmlns="http://www.w3.org/2000/svg">
<rect x="0.5" y="0.5" width="389" height="49" rx="24.5" fill="white"/>
<path d="M74.3057 31.7333L74.1482 31.569C73.7836 31.1886 73.7766 30.5906 74.1324 30.2018L78.8927 25L74.1248 19.876C73.7713 19.4961 73.7671 18.9091 74.115 18.5242L74.3072 18.3115C74.7013 17.8756 75.3845 17.8718 75.7834 18.3033L81.3468 24.3212C81.701 24.7044 81.701 25.2956 81.3468 25.6788L75.7618 31.72C75.3708 32.143 74.7043 32.149 74.3057 31.7333Z" fill="#285A8F"/>
<path d="M80.8312 31.7333L80.6737 31.569C80.3091 31.1886 80.3021 30.5906 80.6579 30.2018L85.4183 25L80.6503 19.876C80.2968 19.4961 80.2926 18.9091 80.6405 18.5242L80.8327 18.3115C81.2268 17.8756 81.91 17.8718 82.3089 18.3033L87.8723 24.3212C88.2265 24.7044 88.2265 25.2956 87.8723 25.6788L82.2874 31.72C81.8964 32.143 81.2298 32.149 80.8312 31.7333Z" fill="#285A8F"/>
<path d="M108.034 16.2266V34H104.384V16.2266H108.034ZM113.502 16.2266V19.0952H99.0005V16.2266H113.502ZM120.302 34.2441C119.276 34.2441 118.357 34.0814 117.543 33.7559C116.729 33.4222 116.037 32.9624 115.468 32.3765C114.906 31.7905 114.475 31.111 114.174 30.3379C113.873 29.5566 113.722 28.7266 113.722 27.8477V27.3594C113.722 26.3584 113.865 25.4429 114.149 24.6128C114.434 23.7827 114.841 23.0625 115.37 22.4521C115.907 21.8418 116.558 21.3739 117.323 21.0483C118.088 20.7147 118.951 20.5479 119.911 20.5479C120.847 20.5479 121.677 20.7025 122.401 21.0117C123.126 21.321 123.732 21.7604 124.22 22.3301C124.717 22.8997 125.091 23.5833 125.343 24.3809C125.596 25.1702 125.722 26.0492 125.722 27.0176V28.4824H115.224V26.1387H122.267V25.8701C122.267 25.3818 122.178 24.9465 121.999 24.564C121.828 24.1733 121.567 23.8641 121.217 23.6362C120.867 23.4084 120.42 23.2944 119.875 23.2944C119.411 23.2944 119.012 23.3962 118.678 23.5996C118.345 23.8031 118.072 24.0879 117.86 24.4541C117.657 24.8203 117.502 25.2516 117.396 25.748C117.299 26.2363 117.25 26.7734 117.25 27.3594V27.8477C117.25 28.3766 117.323 28.8649 117.47 29.3125C117.624 29.7601 117.84 30.1466 118.117 30.4722C118.402 30.7977 118.743 31.05 119.142 31.229C119.549 31.408 120.009 31.4976 120.521 31.4976C121.156 31.4976 121.746 31.3755 122.292 31.1313C122.845 30.8791 123.321 30.5007 123.72 29.9961L125.429 31.8516C125.152 32.2503 124.774 32.6328 124.293 32.999C123.821 33.3652 123.252 33.6663 122.584 33.9023C121.917 34.1302 121.156 34.2441 120.302 34.2441ZM131.435 15.25V34H127.907V15.25H131.435ZM141.469 31.0215V25.1377C141.469 24.7145 141.4 24.3524 141.261 24.0513C141.123 23.742 140.907 23.502 140.614 23.3311C140.329 23.1602 139.959 23.0747 139.503 23.0747C139.113 23.0747 138.775 23.1439 138.49 23.2822C138.205 23.4124 137.986 23.6037 137.831 23.856C137.676 24.1001 137.599 24.389 137.599 24.7227H134.083C134.083 24.1611 134.214 23.6281 134.474 23.1235C134.735 22.619 135.113 22.1755 135.609 21.793C136.106 21.4023 136.696 21.0972 137.379 20.8774C138.071 20.6577 138.844 20.5479 139.699 20.5479C140.724 20.5479 141.636 20.7188 142.433 21.0605C143.231 21.4023 143.857 21.915 144.313 22.5986C144.777 23.2822 145.009 24.1367 145.009 25.1621V30.814C145.009 31.5382 145.054 32.1323 145.143 32.5962C145.233 33.0519 145.363 33.4507 145.534 33.7925V34H141.981C141.811 33.6419 141.68 33.1943 141.591 32.6572C141.509 32.112 141.469 31.5667 141.469 31.0215ZM141.933 25.9556L141.957 27.9453H139.992C139.528 27.9453 139.125 27.9982 138.783 28.104C138.441 28.2098 138.161 28.3604 137.941 28.5557C137.721 28.7428 137.558 28.9626 137.453 29.2148C137.355 29.4671 137.306 29.7438 137.306 30.0449C137.306 30.346 137.375 30.6187 137.514 30.8628C137.652 31.0988 137.851 31.286 138.112 31.4243C138.372 31.5545 138.677 31.6196 139.027 31.6196C139.556 31.6196 140.016 31.5138 140.407 31.3022C140.797 31.0907 141.098 30.8302 141.31 30.521C141.53 30.2118 141.644 29.9188 141.652 29.6421L142.58 31.1313C142.449 31.465 142.27 31.8109 142.042 32.1689C141.823 32.527 141.542 32.8647 141.2 33.1821C140.858 33.4914 140.447 33.7477 139.967 33.9512C139.487 34.1465 138.917 34.2441 138.258 34.2441C137.42 34.2441 136.659 34.0773 135.976 33.7437C135.3 33.4019 134.763 32.9339 134.364 32.3398C133.974 31.7376 133.778 31.054 133.778 30.2891C133.778 29.5973 133.909 28.9829 134.169 28.4458C134.429 27.9087 134.812 27.457 135.316 27.0908C135.829 26.7165 136.468 26.4357 137.233 26.2485C137.998 26.0532 138.885 25.9556 139.894 25.9556H141.933ZM151.149 15.25V34H147.633V15.25H151.149ZM150.648 26.9321H149.684C149.692 26.0125 149.814 25.1662 150.05 24.3931C150.286 23.6118 150.624 22.9364 151.063 22.3667C151.503 21.7889 152.028 21.3413 152.638 21.0239C153.257 20.7065 153.94 20.5479 154.689 20.5479C155.34 20.5479 155.93 20.6414 156.459 20.8286C156.996 21.0076 157.456 21.3006 157.838 21.7075C158.229 22.1063 158.53 22.6312 158.742 23.2822C158.953 23.9333 159.059 24.7227 159.059 25.6504V34H155.519V25.626C155.519 25.04 155.434 24.5802 155.263 24.2466C155.1 23.9048 154.86 23.6647 154.542 23.5264C154.233 23.3799 153.851 23.3066 153.395 23.3066C152.89 23.3066 152.459 23.4002 152.101 23.5874C151.751 23.7746 151.47 24.035 151.259 24.3687C151.047 24.6942 150.893 25.0767 150.795 25.5161C150.697 25.9556 150.648 26.4276 150.648 26.9321ZM169.85 16.2266H172.951L177.516 29.2759L182.082 16.2266H185.182L178.761 34H176.271L169.85 16.2266ZM168.178 16.2266H171.266L171.828 28.9463V34H168.178V16.2266ZM183.766 16.2266H186.867V34H183.205V28.9463L183.766 16.2266ZM195.937 34.2441C194.911 34.2441 193.992 34.0814 193.178 33.7559C192.364 33.4222 191.672 32.9624 191.103 32.3765C190.541 31.7905 190.11 31.111 189.809 30.3379C189.507 29.5566 189.357 28.7266 189.357 27.8477V27.3594C189.357 26.3584 189.499 25.4429 189.784 24.6128C190.069 23.7827 190.476 23.0625 191.005 22.4521C191.542 21.8418 192.193 21.3739 192.958 21.0483C193.723 20.7147 194.586 20.5479 195.546 20.5479C196.482 20.5479 197.312 20.7025 198.036 21.0117C198.76 21.321 199.367 21.7604 199.855 22.3301C200.351 22.8997 200.726 23.5833 200.978 24.3809C201.23 25.1702 201.356 26.0492 201.356 27.0176V28.4824H190.858V26.1387H197.902V25.8701C197.902 25.3818 197.812 24.9465 197.633 24.564C197.462 24.1733 197.202 23.8641 196.852 23.6362C196.502 23.4084 196.055 23.2944 195.509 23.2944C195.045 23.2944 194.647 23.3962 194.313 23.5996C193.979 23.8031 193.707 24.0879 193.495 24.4541C193.292 24.8203 193.137 25.2516 193.031 25.748C192.934 26.2363 192.885 26.7734 192.885 27.3594V27.8477C192.885 28.3766 192.958 28.8649 193.104 29.3125C193.259 29.7601 193.475 30.1466 193.751 30.4722C194.036 30.7977 194.378 31.05 194.777 31.229C195.184 31.408 195.644 31.4976 196.156 31.4976C196.791 31.4976 197.381 31.3755 197.926 31.1313C198.48 30.8791 198.956 30.5007 199.354 29.9961L201.063 31.8516C200.787 32.2503 200.408 32.6328 199.928 32.999C199.456 33.3652 198.887 33.6663 198.219 33.9023C197.552 34.1302 196.791 34.2441 195.937 34.2441ZM206.801 23.6118V34H203.285V20.792H206.581L206.801 23.6118ZM206.288 26.9321H205.336C205.336 25.9556 205.462 25.0767 205.714 24.2954C205.967 23.506 206.321 22.8346 206.776 22.2812C207.232 21.7197 207.773 21.2925 208.4 20.9995C209.035 20.6984 209.743 20.5479 210.524 20.5479C211.142 20.5479 211.708 20.6374 212.221 20.8164C212.733 20.9954 213.173 21.2803 213.539 21.6709C213.913 22.0615 214.198 22.5783 214.394 23.2212C214.597 23.8641 214.699 24.6494 214.699 25.5771V34H211.159V25.5649C211.159 24.979 211.077 24.5233 210.915 24.1978C210.752 23.8722 210.512 23.6444 210.194 23.5142C209.885 23.3758 209.503 23.3066 209.047 23.3066C208.575 23.3066 208.164 23.4002 207.814 23.5874C207.472 23.7746 207.187 24.035 206.959 24.3687C206.74 24.6942 206.573 25.0767 206.459 25.5161C206.345 25.9556 206.288 26.4276 206.288 26.9321ZM225.734 20.792H228.92V33.5605C228.92 34.765 228.651 35.7863 228.114 36.6245C227.585 37.4709 226.845 38.1097 225.893 38.541C224.94 38.9805 223.834 39.2002 222.572 39.2002C222.019 39.2002 221.433 39.127 220.814 38.9805C220.204 38.834 219.618 38.6061 219.057 38.2969C218.503 37.9876 218.039 37.597 217.665 37.125L219.215 35.0498C219.622 35.5218 220.094 35.888 220.631 36.1484C221.168 36.417 221.763 36.5513 222.414 36.5513C223.048 36.5513 223.585 36.4333 224.025 36.1973C224.464 35.9694 224.802 35.6317 225.038 35.1841C225.274 34.7446 225.392 34.2116 225.392 33.585V23.8438L225.734 20.792ZM216.847 27.5547V27.2983C216.847 26.2892 216.969 25.3737 217.213 24.5518C217.466 23.7217 217.82 23.0096 218.275 22.4155C218.739 21.8215 219.301 21.3617 219.96 21.0361C220.619 20.7106 221.364 20.5479 222.194 20.5479C223.073 20.5479 223.809 20.7106 224.403 21.0361C224.997 21.3617 225.486 21.8255 225.868 22.4277C226.251 23.0218 226.548 23.7257 226.759 24.5396C226.979 25.3452 227.15 26.2282 227.272 27.1885V27.75C227.15 28.6696 226.967 29.5241 226.723 30.3135C226.479 31.1029 226.157 31.7946 225.758 32.3887C225.36 32.9746 224.863 33.4303 224.269 33.7559C223.683 34.0814 222.983 34.2441 222.169 34.2441C221.356 34.2441 220.619 34.0773 219.96 33.7437C219.309 33.41 218.751 32.9421 218.288 32.3398C217.824 31.7376 217.466 31.0296 217.213 30.2158C216.969 29.402 216.847 28.515 216.847 27.5547ZM220.363 27.2983V27.5547C220.363 28.0999 220.416 28.6086 220.521 29.0806C220.627 29.5526 220.79 29.9717 221.01 30.3379C221.238 30.696 221.518 30.9767 221.852 31.1802C222.194 31.3755 222.597 31.4731 223.061 31.4731C223.703 31.4731 224.228 31.3389 224.635 31.0703C225.042 30.7936 225.347 30.4152 225.551 29.9351C225.754 29.4549 225.872 28.9015 225.905 28.2749V26.6758C225.889 26.1631 225.819 25.7033 225.697 25.2964C225.575 24.8813 225.404 24.5273 225.185 24.2344C224.965 23.9414 224.68 23.7135 224.33 23.5508C223.98 23.388 223.565 23.3066 223.085 23.3066C222.621 23.3066 222.218 23.4124 221.876 23.624C221.543 23.8275 221.262 24.1082 221.034 24.4663C220.814 24.8244 220.648 25.2476 220.534 25.7358C220.42 26.216 220.363 26.7368 220.363 27.2983ZM239.467 30.8384V20.792H242.982V34H239.674L239.467 30.8384ZM239.857 28.1284L240.895 28.104C240.895 28.9829 240.793 29.8008 240.59 30.5576C240.386 31.3063 240.081 31.9574 239.674 32.5107C239.267 33.056 238.755 33.4832 238.136 33.7925C237.518 34.0936 236.789 34.2441 235.951 34.2441C235.308 34.2441 234.714 34.1546 234.169 33.9756C233.632 33.7884 233.168 33.4995 232.777 33.1089C232.395 32.7101 232.094 32.2015 231.874 31.583C231.662 30.9564 231.557 30.2036 231.557 29.3247V20.792H235.072V29.3491C235.072 29.7397 235.117 30.0693 235.207 30.3379C235.304 30.6064 235.438 30.8262 235.609 30.9971C235.78 31.168 235.98 31.29 236.208 31.3633C236.444 31.4365 236.704 31.4731 236.989 31.4731C237.713 31.4731 238.283 31.3267 238.698 31.0337C239.121 30.7407 239.418 30.342 239.589 29.8374C239.768 29.3247 239.857 28.755 239.857 28.1284ZM252.797 31.0215V25.1377C252.797 24.7145 252.728 24.3524 252.589 24.0513C252.451 23.742 252.235 23.502 251.942 23.3311C251.658 23.1602 251.287 23.0747 250.832 23.0747C250.441 23.0747 250.103 23.1439 249.818 23.2822C249.534 23.4124 249.314 23.6037 249.159 23.856C249.005 24.1001 248.927 24.389 248.927 24.7227H245.412C245.412 24.1611 245.542 23.6281 245.802 23.1235C246.063 22.619 246.441 22.1755 246.938 21.793C247.434 21.4023 248.024 21.0972 248.708 20.8774C249.399 20.6577 250.172 20.5479 251.027 20.5479C252.052 20.5479 252.964 20.7188 253.761 21.0605C254.559 21.4023 255.185 21.915 255.641 22.5986C256.105 23.2822 256.337 24.1367 256.337 25.1621V30.814C256.337 31.5382 256.382 32.1323 256.471 32.5962C256.561 33.0519 256.691 33.4507 256.862 33.7925V34H253.31C253.139 33.6419 253.008 33.1943 252.919 32.6572C252.838 32.112 252.797 31.5667 252.797 31.0215ZM253.261 25.9556L253.285 27.9453H251.32C250.856 27.9453 250.453 27.9982 250.111 28.104C249.77 28.2098 249.489 28.3604 249.269 28.5557C249.049 28.7428 248.887 28.9626 248.781 29.2148C248.683 29.4671 248.634 29.7438 248.634 30.0449C248.634 30.346 248.703 30.6187 248.842 30.8628C248.98 31.0988 249.18 31.286 249.44 31.4243C249.7 31.5545 250.006 31.6196 250.355 31.6196C250.884 31.6196 251.344 31.5138 251.735 31.3022C252.125 31.0907 252.427 30.8302 252.638 30.521C252.858 30.2118 252.972 29.9188 252.98 29.6421L253.908 31.1313C253.778 31.465 253.598 31.8109 253.371 32.1689C253.151 32.527 252.87 32.8647 252.528 33.1821C252.187 33.4914 251.776 33.7477 251.295 33.9512C250.815 34.1465 250.246 34.2441 249.586 34.2441C248.748 34.2441 247.987 34.0773 247.304 33.7437C246.628 33.4019 246.091 32.9339 245.692 32.3398C245.302 31.7376 245.106 31.054 245.106 30.2891C245.106 29.5973 245.237 28.9829 245.497 28.4458C245.757 27.9087 246.14 27.457 246.645 27.0908C247.157 26.7165 247.796 26.4357 248.561 26.2485C249.326 26.0532 250.213 25.9556 251.222 25.9556H253.261ZM266.188 30.3501C266.188 30.0978 266.115 29.87 265.968 29.6665C265.822 29.4631 265.549 29.2759 265.15 29.105C264.76 28.9259 264.194 28.7632 263.454 28.6167C262.786 28.4702 262.164 28.2871 261.586 28.0674C261.016 27.8395 260.52 27.5669 260.097 27.2495C259.682 26.9321 259.356 26.5578 259.12 26.1265C258.884 25.687 258.766 25.1865 258.766 24.625C258.766 24.0716 258.884 23.5508 259.12 23.0625C259.364 22.5742 259.71 22.1429 260.158 21.7686C260.613 21.3861 261.167 21.089 261.818 20.8774C262.477 20.6577 263.218 20.5479 264.04 20.5479C265.187 20.5479 266.172 20.731 266.994 21.0972C267.824 21.4634 268.458 21.9679 268.898 22.6108C269.346 23.2456 269.569 23.9699 269.569 24.7837H266.054C266.054 24.4419 265.98 24.1367 265.834 23.8682C265.696 23.5915 265.476 23.3758 265.175 23.2212C264.882 23.0584 264.499 22.9771 264.027 22.9771C263.637 22.9771 263.299 23.0462 263.014 23.1846C262.729 23.3148 262.51 23.4938 262.355 23.7217C262.208 23.9414 262.135 24.1855 262.135 24.4541C262.135 24.6576 262.176 24.8407 262.257 25.0034C262.347 25.158 262.489 25.3005 262.685 25.4307C262.88 25.5609 263.132 25.6829 263.441 25.7969C263.759 25.9027 264.149 26.0003 264.613 26.0898C265.565 26.2852 266.416 26.5415 267.165 26.8589C267.913 27.1681 268.507 27.5913 268.947 28.1284C269.386 28.6574 269.606 29.3532 269.606 30.2158C269.606 30.8018 269.476 31.3389 269.215 31.8271C268.955 32.3154 268.581 32.7427 268.092 33.1089C267.604 33.467 267.018 33.7477 266.334 33.9512C265.659 34.1465 264.898 34.2441 264.052 34.2441C262.823 34.2441 261.781 34.0244 260.927 33.585C260.08 33.1455 259.438 32.5881 258.998 31.9126C258.567 31.229 258.351 30.5291 258.351 29.813H261.684C261.7 30.2931 261.822 30.6797 262.05 30.9727C262.286 31.2656 262.583 31.4772 262.941 31.6074C263.307 31.7376 263.702 31.8027 264.125 31.8027C264.581 31.8027 264.959 31.7417 265.26 31.6196C265.561 31.4894 265.789 31.3185 265.944 31.1069C266.107 30.8872 266.188 30.6349 266.188 30.3501ZM279.018 31.0215V25.1377C279.018 24.7145 278.948 24.3524 278.81 24.0513C278.672 23.742 278.456 23.502 278.163 23.3311C277.878 23.1602 277.508 23.0747 277.052 23.0747C276.662 23.0747 276.324 23.1439 276.039 23.2822C275.754 23.4124 275.535 23.6037 275.38 23.856C275.225 24.1001 275.148 24.389 275.148 24.7227H271.632C271.632 24.1611 271.763 23.6281 272.023 23.1235C272.283 22.619 272.662 22.1755 273.158 21.793C273.655 21.4023 274.245 21.0972 274.928 20.8774C275.62 20.6577 276.393 20.5479 277.248 20.5479C278.273 20.5479 279.184 20.7188 279.982 21.0605C280.779 21.4023 281.406 21.915 281.862 22.5986C282.326 23.2822 282.558 24.1367 282.558 25.1621V30.814C282.558 31.5382 282.602 32.1323 282.692 32.5962C282.781 33.0519 282.912 33.4507 283.083 33.7925V34H279.53C279.359 33.6419 279.229 33.1943 279.14 32.6572C279.058 32.112 279.018 31.5667 279.018 31.0215ZM279.481 25.9556L279.506 27.9453H277.541C277.077 27.9453 276.674 27.9982 276.332 28.104C275.99 28.2098 275.709 28.3604 275.49 28.5557C275.27 28.7428 275.107 28.9626 275.001 29.2148C274.904 29.4671 274.855 29.7438 274.855 30.0449C274.855 30.346 274.924 30.6187 275.062 30.8628C275.201 31.0988 275.4 31.286 275.661 31.4243C275.921 31.5545 276.226 31.6196 276.576 31.6196C277.105 31.6196 277.565 31.5138 277.956 31.3022C278.346 31.0907 278.647 30.8302 278.859 30.521C279.079 30.2118 279.193 29.9188 279.201 29.6421L280.128 31.1313C279.998 31.465 279.819 31.8109 279.591 32.1689C279.372 32.527 279.091 32.8647 278.749 33.1821C278.407 33.4914 277.996 33.7477 277.516 33.9512C277.036 34.1465 276.466 34.2441 275.807 34.2441C274.969 34.2441 274.208 34.0773 273.524 33.7437C272.849 33.4019 272.312 32.9339 271.913 32.3398C271.522 31.7376 271.327 31.054 271.327 30.2891C271.327 29.5973 271.457 28.9829 271.718 28.4458C271.978 27.9087 272.361 27.457 272.865 27.0908C273.378 26.7165 274.017 26.4357 274.782 26.2485C275.547 26.0532 276.434 25.9556 277.443 25.9556H279.481ZM288.979 20.792V34H285.451V20.792H288.979ZM285.231 17.3496C285.231 16.8369 285.41 16.4137 285.768 16.0801C286.126 15.7464 286.606 15.5796 287.208 15.5796C287.803 15.5796 288.279 15.7464 288.637 16.0801C289.003 16.4137 289.186 16.8369 289.186 17.3496C289.186 17.8623 289.003 18.2855 288.637 18.6191C288.279 18.9528 287.803 19.1196 287.208 19.1196C286.606 19.1196 286.126 18.9528 285.768 18.6191C285.41 18.2855 285.231 17.8623 285.231 17.3496Z" fill="#285A8F"/>
<path d="M315.694 31.7333L315.852 31.569C316.216 31.1886 316.223 30.5906 315.868 30.2018L311.107 25L315.875 19.876C316.229 19.4961 316.233 18.9091 315.885 18.5242L315.693 18.3115C315.299 17.8756 314.616 17.8718 314.217 18.3033L308.653 24.3212C308.299 24.7044 308.299 25.2956 308.653 25.6788L314.238 31.72C314.629 32.143 315.296 32.149 315.694 31.7333Z" fill="#285A8F"/>
<path d="M309.169 31.7333L309.326 31.569C309.691 31.1886 309.698 30.5906 309.342 30.2018L304.582 25L309.35 19.876C309.703 19.4961 309.707 18.9091 309.359 18.5242L309.167 18.3115C308.773 17.8756 308.09 17.8718 307.691 18.3033L302.128 24.3212C301.773 24.7044 301.773 25.2956 302.128 25.6788L307.713 31.72C308.104 32.143 308.77 32.149 309.169 31.7333Z" fill="#285A8F"/>
<rect x="0.5" y="0.5" width="389" height="49" rx="24.5" stroke="#A3A3A3"/>
</svg>
