<svg width="80" height="80" viewBox="0 0 80 80" fill="none" xmlns="http://www.w3.org/2000/svg">
<mask id="mask0_143_408" style="mask-type:alpha" maskUnits="userSpaceOnUse" x="0" y="0" width="80" height="80">
<rect width="80" height="80" fill="#D9D9D9"/>
</mask>
<g mask="url(#mask0_143_408)">
<path d="M56.9775 10.3243H56.9803V40.2814C56.9803 40.9501 56.4379 41.4903 55.7714 41.4903H7.61506C6.94579 41.4903 6.40338 40.9472 6.40338 40.2814V10.0743C6.40338 9.40852 6.94579 8.86548 7.61506 8.86548H55.7686C56.4373 8.86548 56.9775 9.40789 56.9775 10.0743V10.3243Z" fill="white" stroke="#A38552" stroke-width="0.5"/>
<path d="M57.2303 10.0743V10.6697H6.15338V10.0743C6.15338 9.27013 6.80803 8.61548 7.61506 8.61548H55.7686C56.5757 8.61548 57.2275 9.27013 57.2275 10.0743H57.2303Z" fill="#B79D70"/>
<path d="M54.1371 10.17C54.1061 10.17 54.075 10.1559 54.0553 10.1305C54.0214 10.0853 54.0327 10.0232 54.0778 9.99219L55.3618 9.04972C55.4069 9.01868 55.469 9.02714 55.5 9.07229C55.5339 9.11744 55.5226 9.17952 55.4774 9.21056L54.1935 10.153C54.1766 10.1671 54.154 10.1728 54.1343 10.1728L54.1371 10.17Z" fill="#5C69A5"/>
<path d="M55.4222 10.1706C55.4024 10.1706 55.3799 10.1649 55.3629 10.1508L54.079 9.20836C54.0339 9.1745 54.0254 9.11242 54.0565 9.07009C54.0903 9.02494 54.1524 9.01648 54.1947 9.04752L55.4786 9.98999C55.5238 10.0239 55.5323 10.0859 55.5012 10.1283C55.4815 10.1537 55.4504 10.1678 55.4194 10.1678L55.4222 10.1706Z" fill="#5C69A5"/>
<path d="M53.1097 10.1712H51.4421C51.3856 10.1712 51.3433 10.1261 51.3433 10.0725V9.13001C51.3433 9.07358 51.3884 9.03125 51.4421 9.03125H53.1097C53.1662 9.03125 53.2085 9.0764 53.2085 9.13001V10.0725C53.2085 10.1289 53.1633 10.1712 53.1097 10.1712ZM51.5408 9.9709H53.011V9.22877H51.5408V9.9709Z" fill="#5C69A5"/>
<path d="M50.5 9.69997H49.1512C49.0947 9.69997 49.0524 9.65482 49.0524 9.6012C49.0524 9.54759 49.0976 9.50244 49.1512 9.50244H50.5C50.5564 9.50244 50.5987 9.54759 50.5987 9.6012C50.5987 9.65482 50.5536 9.69997 50.5 9.69997Z" fill="#5C69A5"/>
<path d="M41.6005 13.8408H15.1661C13.9054 13.8408 12.8833 14.8629 12.8833 16.1236V30.1676C12.8833 31.4284 13.9054 32.4504 15.1661 32.4504H41.6005C42.8613 32.4504 43.8833 31.4284 43.8833 30.1676V16.1236C43.8833 14.8629 42.8613 13.8408 41.6005 13.8408Z" fill="#A63019"/>
<path d="M43.8829 16.8657H12.8829V17.0209H43.8829V16.8657Z" fill="#FEF9EC"/>
<path d="M43.8829 20.0688V20.224H12.9337C12.9139 20.224 12.897 20.2156 12.8829 20.2043V20.0886C12.8829 20.0886 12.9139 20.0688 12.9337 20.0688H43.8829Z" fill="#FEF9EC"/>
<path d="M43.8829 23.0873V23.234C43.8829 23.234 43.8659 23.2397 43.8575 23.2397H12.8829V23.0845H43.8575C43.8575 23.0845 43.8772 23.0845 43.8829 23.0901V23.0873Z" fill="#FEF9EC"/>
<path d="M43.8829 26.288V26.4432H12.9083C12.9083 26.4432 12.8913 26.4432 12.8829 26.4375V26.2908C12.8829 26.2908 12.897 26.2852 12.9083 26.2852H43.8829V26.288Z" fill="#FEF9EC"/>
<path d="M43.8829 29.4926V29.6393C43.8829 29.6393 43.8659 29.6449 43.8575 29.6449H12.8829V29.4897H43.8575C43.8575 29.4897 43.8772 29.4897 43.8829 29.4954V29.4926Z" fill="#FEF9EC"/>
<path d="M16.1214 13.8398H15.9662V32.4494H16.1214V13.8398Z" fill="#FEF9EC"/>
<path d="M19.3233 13.8398H19.1681V32.4494H19.3233V13.8398Z" fill="#FEF9EC"/>
<path d="M22.3401 13.8398H22.1849V32.4494H22.3401V13.8398Z" fill="#FEF9EC"/>
<path d="M25.5433 13.8398H25.3881V32.4494H25.5433V13.8398Z" fill="#FEF9EC"/>
<path d="M28.7488 13.8398H28.5936V32.4494H28.7488V13.8398Z" fill="#FEF9EC"/>
<path d="M31.8682 13.8403H31.713V32.4499H31.8682V13.8403Z" fill="#FEF9EC"/>
<path d="M35.0714 13.8403H34.9162V32.4499H35.0714V13.8403Z" fill="#FEF9EC"/>
<path d="M38.0846 13.8403H37.9294V32.4499H38.0846V13.8403Z" fill="#FEF9EC"/>
<path d="M41.2901 13.8403H41.1349V32.4499H41.2901V13.8403Z" fill="#FEF9EC"/>
<path d="M49.7787 24.248H27.2243C26.8269 24.248 26.5047 24.5702 26.5047 24.9676V37.6317C26.5047 38.0291 26.8269 38.3513 27.2243 38.3513H49.7787C50.1761 38.3513 50.4983 38.0291 50.4983 37.6317V24.9676C50.4983 24.5702 50.1761 24.248 49.7787 24.248Z" fill="#B79D70"/>
<path d="M32.6498 32.0088H31.239V35.8831H32.6498V32.0088Z" fill="#FEF9EC"/>
<path d="M45.5597 32.0088H44.1488V35.8831H45.5597V32.0088Z" fill="#FEF9EC"/>
<path d="M35.8746 30.0146H34.4637V35.8698H35.8746V30.0146Z" fill="#FEF9EC"/>
<path d="M39.103 28.3306H37.6921V35.8703H39.103V28.3306Z" fill="#FEF9EC"/>
<path d="M42.3313 26.6963H40.9204V35.9009H42.3313V26.6963Z" fill="#FEF9EC"/>
<path d="M19.1712 20.8972C19.5857 20.8972 19.9218 20.5611 19.9218 20.1466C19.9218 19.732 19.5857 19.396 19.1712 19.396C18.7566 19.396 18.4206 19.732 18.4206 20.1466C18.4206 20.5611 18.7566 20.8972 19.1712 20.8972Z" fill="#F7B369"/>
<path d="M23.0131 26.4435C23.0131 26.8583 22.6773 27.1941 22.2625 27.1941C21.8477 27.1941 21.5119 26.8583 21.5119 26.4435C21.5119 26.0287 21.8477 25.6929 22.2625 25.6929C22.6773 25.6929 23.0131 26.0287 23.0131 26.4435Z" fill="#5C69A5"/>
<path d="M34.9957 20.9743C35.4102 20.9743 35.7463 20.6383 35.7463 20.2237C35.7463 19.8092 35.4102 19.4731 34.9957 19.4731C34.5812 19.4731 34.2451 19.8092 34.2451 20.2237C34.2451 20.6383 34.5812 20.9743 34.9957 20.9743Z" fill="#92B4EA"/>
<path d="M30.3501 59.8253L21.8431 62.1437C21.8204 62.1486 21.8004 62.1528 21.7777 62.1577L13.0998 63.7148L13.0144 63.7329C12.6086 63.8252 12.3527 64.2309 12.445 64.6368L14.4526 73.5435C14.5407 73.9296 14.9096 74.1815 15.2993 74.1254C17.1048 73.8574 21.9664 73.1299 24.2064 72.7784C26.3817 72.1371 31.0845 70.7053 32.828 70.1737C33.205 70.0578 33.432 69.6702 33.3445 69.287L31.337 60.3803C31.2447 59.9743 30.842 59.7177 30.4361 59.81L30.3507 59.8281L30.3501 59.8253Z" fill="#003672"/>
<path d="M13.1372 62.6071L12.9088 64.373L14.8501 73.3176L15.312 72.258C15.312 72.258 15.1142 62.7818 13.1343 62.6077L13.1372 62.6071Z" fill="#FAB45A"/>
<path d="M15.3158 72.2591L14.8539 73.3187L24.0823 72.2099L23.8935 71.378C23.8935 71.378 18.3562 69.5438 15.3152 72.2562L15.3158 72.2591Z" fill="#FAB45A"/>
<path d="M32.0147 68.4932L32.8876 69.254L24.0768 72.2145L23.888 71.3826C23.888 71.3826 28.1028 67.349 32.0118 68.4938L32.0147 68.4932Z" fill="#FAB45A"/>
<path d="M23.8894 71.3804L21.6888 61.6219C21.6888 61.6219 16.5245 59.5833 13.1363 62.6077L15.314 72.258C15.314 72.258 18.0883 70.2363 23.8923 71.3798L23.8894 71.3804Z" fill="#FFEDCC"/>
<path d="M29.8396 58.8396L30.8037 60.337L32.8901 69.2507L32.0172 68.4899C32.0172 68.4899 28.1281 59.8435 29.8396 58.8396Z" fill="#FAB45A"/>
<path d="M23.8901 71.3807L21.6894 61.6222C21.6894 61.6222 25.4764 57.5635 29.8363 58.8416L32.0139 68.4919C32.0139 68.4919 28.642 67.8579 23.8901 71.3807Z" fill="#FFEDCC"/>
<path d="M21.9416 62.7368L24.2451 71.3008L23.9091 71.4556L21.9416 62.7368Z" fill="#FAB45A"/>
<path d="M20.9689 62.5583C20.9689 62.5583 20.9427 62.5609 20.9294 62.5548C18.7492 61.8161 16.3314 62.003 14.3027 63.0685C14.2653 63.0883 14.2172 63.0718 14.1989 63.0281C14.1785 62.9878 14.1944 62.9368 14.2318 62.9169C16.2956 61.835 18.7516 61.646 20.9697 62.3944C21.0116 62.4094 21.0361 62.4547 21.0247 62.4988C21.0165 62.5303 20.9939 62.55 20.9683 62.5555L20.9689 62.5583Z" fill="#6593C7"/>
<path d="M21.1828 63.5124C21.1828 63.5124 21.1566 63.515 21.1434 63.5089C18.9631 62.7702 16.5453 62.9571 14.5167 64.0226C14.4792 64.0424 14.4311 64.0259 14.4129 63.9822C14.3924 63.9419 14.4083 63.8909 14.4457 63.871C16.5095 62.7891 18.9656 62.6001 21.1836 63.3486C21.2255 63.3635 21.25 63.4088 21.2386 63.4529C21.2304 63.4844 21.2078 63.5041 21.1822 63.5096L21.1828 63.5124Z" fill="#6593C7"/>
<path d="M21.3992 64.467C21.3992 64.467 21.3729 64.4696 21.3597 64.4635C19.1795 63.7248 16.7616 63.9117 14.733 64.9772C14.6956 64.997 14.6475 64.9805 14.6292 64.9367C14.6088 64.8965 14.6247 64.8454 14.6621 64.8256C16.7259 63.7437 19.1819 63.5547 21.4 64.3031C21.4419 64.3181 21.4664 64.3634 21.4549 64.4075C21.4468 64.439 21.4242 64.4587 21.3986 64.4642L21.3992 64.467Z" fill="#6593C7"/>
<path d="M21.6131 65.4211C21.6131 65.4211 21.5869 65.4237 21.5737 65.4176C19.3934 64.6789 16.9756 64.8658 14.947 65.9313C14.9095 65.9511 14.8614 65.9346 14.8432 65.8908C14.8227 65.8506 14.8386 65.7995 14.876 65.7797C16.9398 64.6978 19.3959 64.5088 21.614 65.2572C21.6558 65.2722 21.6803 65.3175 21.6689 65.3616C21.6607 65.3931 21.6381 65.4128 21.6125 65.4183L21.6131 65.4211Z" fill="#6593C7"/>
<path d="M21.8283 66.3757C21.8283 66.3757 21.802 66.3783 21.7888 66.3722C19.6085 65.6335 17.1907 65.8204 15.1621 66.8859C15.1247 66.9057 15.0765 66.8892 15.0583 66.8454C15.0378 66.8051 15.0538 66.7541 15.0912 66.7343C17.155 65.6524 19.611 65.4633 21.8291 66.2118C21.8709 66.2267 21.8955 66.2721 21.884 66.3162C21.8759 66.3477 21.8533 66.3674 21.8276 66.3729L21.8283 66.3757Z" fill="#6593C7"/>
<path d="M22.0469 67.3283C22.0469 67.3283 22.0206 67.3309 22.0074 67.3248C20.9431 66.9648 19.773 66.8209 18.6256 66.9101C18.5817 66.9135 18.5448 66.8797 18.5408 66.8329C18.5368 66.7862 18.5671 66.747 18.6082 66.7442C19.7732 66.6541 20.9616 66.8002 22.0483 67.1673C22.0902 67.1822 22.1147 67.2275 22.1033 67.2717C22.0951 67.3032 22.0725 67.3228 22.0469 67.3283Z" fill="#6593C7"/>
<path d="M22.2612 68.2827C22.2612 68.2827 22.235 68.2853 22.2218 68.2792C21.1288 67.9104 19.9324 67.7691 18.7579 67.8701C18.714 67.8735 18.677 67.8397 18.673 67.7929C18.669 67.7461 18.6994 67.7069 18.7404 67.7041C19.9321 67.5995 21.1496 67.7423 22.2621 68.1188C22.3039 68.1337 22.3284 68.1791 22.317 68.2232C22.3088 68.2547 22.2862 68.2744 22.2606 68.2798L22.2612 68.2827Z" fill="#6593C7"/>
<path d="M22.4764 69.2378C22.4764 69.2378 22.4502 69.2404 22.437 69.2343C21.3274 68.8572 20.1111 68.7201 18.9206 68.8304C18.8767 68.8338 18.8398 68.8 18.8329 68.7538C18.8289 68.707 18.8587 68.665 18.8997 68.6622C20.1101 68.5476 21.3481 68.6891 22.4773 69.0739C22.5191 69.0888 22.5437 69.1342 22.5322 69.1783C22.524 69.2098 22.5014 69.2295 22.4758 69.235L22.4764 69.2378Z" fill="#6593C7"/>
<path d="M22.6916 70.1924C22.6916 70.1924 22.6654 70.195 22.6522 70.1889C21.5425 69.8118 20.3262 69.6746 19.1358 69.785C19.0919 69.7884 19.0549 69.7546 19.0481 69.7084C19.0441 69.6616 19.0738 69.6196 19.1149 69.6168C20.3252 69.5022 21.5633 69.6437 22.6924 70.0285C22.7343 70.0434 22.7588 70.0888 22.7474 70.1329C22.7392 70.1644 22.7166 70.1841 22.691 70.1895L22.6916 70.1924Z" fill="#6593C7"/>
<path d="M29.0017 59.7538C29.0017 59.7538 28.9903 59.7563 28.9846 59.7575C27.7517 59.7102 26.4869 59.9465 25.3315 60.4452C25.2935 60.4622 25.247 60.4394 25.2293 60.3985C25.2111 60.3548 25.2305 60.306 25.2685 60.289C26.4461 59.7825 27.7308 59.542 28.9849 59.5907C29.0271 59.5937 29.0618 59.6309 29.063 59.6783C29.0623 59.7171 29.0365 59.7494 29.0051 59.7561L29.0017 59.7538Z" fill="#6593C7"/>
<path d="M29.2167 60.7079C29.2167 60.7079 29.2053 60.7103 29.1996 60.7115C27.9633 60.662 26.6963 60.9017 25.5351 61.4017C25.4971 61.4187 25.4512 61.3987 25.433 61.355C25.4147 61.3112 25.4341 61.2625 25.4721 61.2454C26.652 60.7355 27.9396 60.4944 29.1964 60.5425C29.2387 60.5455 29.2734 60.5827 29.2745 60.6301C29.2739 60.6689 29.248 60.7012 29.2167 60.7079Z" fill="#6593C7"/>
<path d="M29.4313 61.6615C29.4313 61.6615 29.4199 61.6639 29.4142 61.6651C28.1722 61.6168 26.9023 61.8572 25.739 62.3606C25.7009 62.3776 25.655 62.3576 25.6368 62.3138C25.6186 62.2701 25.6379 62.2213 25.676 62.2043C26.858 61.691 28.1507 61.4458 29.4139 61.4956C29.4562 61.4985 29.4909 61.5357 29.492 61.5831C29.4913 61.6219 29.4655 61.6542 29.4342 61.6609L29.4313 61.6615Z" fill="#6593C7"/>
<path d="M29.647 62.6192C29.647 62.6192 29.6356 62.6216 29.6299 62.6228C28.3908 62.5739 27.118 62.8148 25.9575 63.3176C25.9195 63.3346 25.8736 63.3146 25.8553 63.2709C25.8371 63.2272 25.8565 63.1784 25.8945 63.1614C27.0766 62.648 28.3699 62.4057 29.6296 62.4532C29.6719 62.4561 29.7066 62.4934 29.7077 62.5408C29.707 62.5796 29.6812 62.6119 29.6499 62.6186L29.647 62.6192Z" fill="#6593C7"/>
<path d="M23.6024 65.9738C23.5768 65.9792 23.5482 65.9704 23.5279 65.945C23.4995 65.9093 23.4999 65.8557 23.5327 65.8279C25.2148 64.1962 27.5145 63.3142 29.8427 63.4053C29.8849 63.4082 29.9196 63.4455 29.9208 63.4929C29.9219 63.5402 29.8875 63.5743 29.843 63.5749C27.5537 63.4844 25.2926 64.3523 23.6376 65.9573C23.628 65.9683 23.6173 65.9736 23.603 65.9766L23.6024 65.9738Z" fill="#6593C7"/>
<path d="M23.8284 66.963C23.8028 66.9685 23.7741 66.9597 23.7538 66.9342C23.7254 66.8986 23.7259 66.8449 23.7587 66.8171C25.4408 65.1855 27.7405 64.3034 30.0686 64.3946C30.1109 64.3975 30.1456 64.4347 30.1468 64.4821C30.1479 64.5295 30.1135 64.5636 30.069 64.5641C27.7796 64.4737 25.5186 65.3416 23.8636 66.9466C23.854 66.9576 23.8432 66.9628 23.829 66.9659L23.8284 66.963Z" fill="#6593C7"/>
<path d="M24.0423 67.9161C24.0167 67.9216 23.9881 67.9128 23.9678 67.8874C23.9394 67.8517 23.9399 67.7981 23.9726 67.7703C25.6547 66.1386 27.9544 65.2566 30.2826 65.3477C30.3248 65.3506 30.3595 65.3879 30.3607 65.4352C30.3618 65.4826 30.3274 65.5167 30.2829 65.5173C27.9936 65.4268 25.7325 66.2947 24.0775 67.8997C24.0679 67.9107 24.0572 67.916 24.0429 67.919L24.0423 67.9161Z" fill="#6593C7"/>
<path d="M24.2575 68.8717C24.2319 68.8772 24.2032 68.8684 24.1829 68.8429C24.1545 68.8073 24.155 68.7536 24.1878 68.7258C25.8698 67.0942 28.1695 66.2121 30.4977 66.3033C30.54 66.3062 30.5747 66.3434 30.5758 66.3908C30.577 66.4382 30.5426 66.4723 30.4981 66.4728C28.2087 66.3824 25.9477 67.2502 24.2927 68.8553C24.2831 68.8663 24.2723 68.8715 24.2581 68.8746L24.2575 68.8717Z" fill="#6593C7"/>
<path d="M24.4726 69.8258C24.447 69.8313 24.4184 69.8225 24.3981 69.797C24.3697 69.7614 24.3702 69.7077 24.4029 69.6799C26.085 68.0483 28.3847 67.1662 30.7129 67.2574C30.7551 67.2603 30.7898 67.2975 30.791 67.3449C30.7921 67.3923 30.7577 67.4264 30.7132 67.4269C28.4239 67.3365 26.1628 68.2043 24.5078 69.8094C24.4983 69.8204 24.4875 69.8256 24.4732 69.8287L24.4726 69.8258Z" fill="#6593C7"/>
<path d="M15.2791 67.4772L15.9882 70.6152C15.9882 70.6152 17.1024 70.1044 18.678 69.8049L17.9574 66.6128C17.9574 66.6128 16.8609 66.7449 15.2785 67.4743L15.2791 67.4772Z" fill="#6593C7"/>
<path d="M22.6957 61.9482L23.3911 65.0356C23.3911 65.0356 24.0502 64.2316 25.1915 63.6526L24.5204 60.6791C24.5204 60.6791 23.604 61.0288 22.6929 61.9488L22.6957 61.9482Z" fill="#6593C7"/>
<path d="M28.8475 48.6102C28.8475 48.6102 20.4116 37.9531 19.8866 38.6666C19.3616 39.3756 27.5058 49.2923 27.5058 49.2923L28.852 48.6102H28.8475Z" fill="#3475B9"/>
<path d="M35.345 54.6813C35.345 54.6813 32.2712 54.7307 30.9161 53.5281C29.561 52.3255 32.4014 49.5435 32.4014 49.5435L35.345 51.5403V54.6768V54.6813Z" fill="#F48462"/>
<path d="M31.1494 48.0985C30.7814 47.8382 30.3417 47.6991 29.8975 47.6408C28.3853 47.4434 24.0506 47.6408 23.5211 49.162C23.0096 50.6203 25.4237 50.5889 25.4237 50.5889C25.4237 50.5889 23.4852 51.0062 24.2211 52.2267C24.8359 53.2498 26.0968 53.0389 26.0968 53.0389C26.0968 53.0389 24.1224 53.6626 25.5628 54.8383C27.0032 56.0139 31.4455 55.4261 32.8052 54.6722C34.1648 53.9184 32.2532 52.6126 32.2532 52.6126C32.2532 52.6126 33.6129 51.6075 33.1866 50.7863C32.7378 49.9158 31.4007 50.185 31.4007 50.185C31.4007 50.185 32.4776 49.0273 31.1494 48.0985Z" fill="#F48462"/>
<path d="M36.4762 47.529C36.4762 47.529 30.9525 44.8322 29.9249 44.9848C28.8928 45.1373 25.0518 48.395 25.9941 49.2925C26.9364 50.1899 29.9249 47.879 29.9249 47.879C29.9249 47.879 32.9941 53.0348 35.0089 52.4515C37.0237 51.8681 36.4762 47.529 36.4762 47.529Z" fill="#F48462"/>
<path d="M25.4197 50.7459C25.3345 50.7459 25.2672 50.6786 25.2627 50.5979C25.2582 50.5126 25.3255 50.4363 25.4108 50.4318L30.9031 50.1491C31.0018 50.1447 31.0646 50.212 31.0691 50.2972C31.0736 50.3825 31.0063 50.4588 30.9211 50.4632L25.4287 50.7459C25.4287 50.7459 25.4242 50.7459 25.4197 50.7459Z" fill="black"/>
<path d="M26.0976 53.1956C26.0169 53.1956 25.9451 53.1328 25.9406 53.0475C25.9361 52.9623 25.9989 52.886 26.0887 52.8815L31.5945 52.5315C31.6887 52.527 31.756 52.5898 31.7605 52.6796C31.765 52.7648 31.7022 52.8411 31.6124 52.8456L26.1066 53.1956H26.0976Z" fill="black"/>
<path d="M34.0079 52.6526C34.0079 52.6526 33.9764 52.6526 33.963 52.6481C33.9271 52.6391 30.5662 51.6115 29.7719 47.9141C29.754 47.8288 29.8078 47.7436 29.8931 47.7256C29.9828 47.7077 30.0636 47.7615 30.0816 47.8468C30.8354 51.3602 34.0213 52.3385 34.0572 52.3474C34.1425 52.3744 34.1873 52.4596 34.1649 52.5449C34.147 52.6122 34.0841 52.657 34.0123 52.657L34.0079 52.6526Z" fill="black"/>
<path d="M53.5895 61.9774C53.5895 61.9774 47.5407 72.9934 43.2913 91.8307C39.4144 109.012 38.5798 123.223 38.5798 123.223H55.3484C55.3484 123.223 57.2151 109.214 57.7087 103.672C58.2023 98.1307 59.8581 90.7089 59.8581 90.7089C59.8581 90.7089 62.16 122.68 62.7075 123.223C63.2549 123.766 79.3101 123.344 79.1351 122.608C78.9601 121.873 73.0415 68.4569 72.6062 64.9614C71.269 54.2145 53.585 61.9819 53.585 61.9819L53.5895 61.9774Z" fill="#020200"/>
<path d="M59.8577 90.8657C59.7769 90.8657 59.7051 90.8028 59.7006 90.7176C59.6961 90.6503 59.1711 83.7624 59.0186 80.7066C58.8884 78.0996 58.866 76.6502 58.8615 76.2688L53.5218 73.8053C53.441 73.7694 53.4096 73.6752 53.4455 73.5944C53.4814 73.5136 53.5756 73.4822 53.6564 73.5181L59.0904 76.022C59.1442 76.0489 59.1801 76.1028 59.1801 76.1656C59.1801 76.179 59.1846 77.6419 59.3372 80.6887C59.4897 83.74 60.0102 90.6233 60.0192 90.6907C60.0237 90.7759 59.9609 90.8522 59.8756 90.8612C59.8756 90.8612 59.8667 90.8612 59.8622 90.8612L59.8577 90.8657Z" fill="#FAE1A2"/>
<path d="M72.6113 74.0394C72.5799 74.0394 72.5485 74.0304 72.5171 74.008C69.6229 71.917 68.4427 68.2734 68.4337 68.2375C68.4068 68.1522 68.4517 68.0669 68.537 68.04C68.6177 68.0131 68.7075 68.058 68.7344 68.1432C68.7479 68.1791 69.8966 71.7285 72.7056 73.7522C72.7774 73.8016 72.7908 73.9003 72.7415 73.9721C72.71 74.0125 72.6607 74.0394 72.6113 74.0394Z" fill="#FAE1A2"/>
<path d="M63.7492 36.1087C63.7492 36.1087 68.7121 36.3735 72.6967 39.8017C76.6769 43.2299 80.7423 54.596 78.5032 58.1633C76.264 61.7306 73.4147 61.9774 73.4147 61.9774L73.5807 66.1236L51.8178 66.3255C51.8178 66.3255 53.6127 39.9273 54.4877 37.9664C55.3627 36.01 63.7537 36.1042 63.7537 36.1042L63.7492 36.1087Z" fill="#FAE1A2"/>
<path d="M57.8438 24.0649C57.8438 24.0649 56.0624 26.0214 56.9957 28.2246C57.9291 30.4233 59.0509 24.2803 59.0509 24.2803L57.8438 24.0649Z" fill="black"/>
<path d="M63.6138 33.0576L63.6273 36.9929C63.6273 36.9929 62.9228 38.1282 60.6208 38.3211C58.9067 38.4647 58.3009 38.0788 58.3009 38.0788L58.5343 36.0865L58.7631 34.1435L62.9183 33.2192L63.6138 33.0621V33.0576Z" fill="#F48462"/>
<path d="M62.9192 33.2139C62.9103 33.3216 63.5474 33.6671 63.4846 33.8152C62.6096 35.785 59.4417 36.7363 58.45 36.8261L58.7686 34.1427L62.9237 33.2184L62.9192 33.2139Z" fill="black"/>
<path d="M58.5896 24.2717C58.0421 24.7025 57.6562 25.3038 57.4229 25.9589C56.8889 27.4711 55.7985 30.998 56.4492 33.1833C57.2928 36.0192 59.846 35.5256 61.3671 34.9512C62.8883 34.3724 63.5838 33.4077 63.5838 33.4077C63.5838 33.4077 65.0242 33.8743 65.9575 32.5102C66.8909 31.1461 66.2672 29.6025 65.446 29.2615C64.6204 28.9205 63.6601 29.5352 63.6601 29.5352L64.3915 28.0454C64.3915 28.0454 61.6094 21.8755 58.5851 24.2672L58.5896 24.2717Z" fill="#F48462"/>
<path d="M63.8427 31.4465C63.7933 31.4465 63.7439 31.424 63.7125 31.3792C63.6632 31.3074 63.6766 31.2087 63.7484 31.1593L65.5164 29.8804C65.5882 29.8311 65.6869 29.8445 65.7363 29.9163C65.7856 29.9881 65.7722 30.0869 65.7004 30.1362L63.9324 31.4151C63.9055 31.4375 63.8741 31.4465 63.8382 31.4465H63.8427Z" fill="black"/>
<path d="M65.4585 31.4203C65.4585 31.4203 65.4316 31.4203 65.4181 31.4158L64.2515 31.1196C64.1662 31.0972 64.1168 31.0119 64.1393 30.9267C64.1617 30.8414 64.247 30.7921 64.3322 30.8145L65.4989 31.1106C65.5842 31.1331 65.6335 31.2183 65.6111 31.3036C65.5931 31.3754 65.5303 31.4247 65.4585 31.4247V31.4203Z" fill="black"/>
<path d="M58.018 30.8091C57.9596 30.8091 57.9013 30.7776 57.8744 30.7193C57.3135 29.5526 58.1616 28.3501 58.1975 28.2962C58.2468 28.2244 58.3455 28.211 58.4173 28.2603C58.4891 28.3097 58.5026 28.4084 58.4532 28.4802C58.4443 28.4892 57.6769 29.5885 58.1571 30.5802C58.193 30.6565 58.1616 30.7507 58.0853 30.7911C58.0628 30.8001 58.0404 30.8091 58.018 30.8091Z" fill="black"/>
<path d="M57.3676 28.8346C57.3676 28.8346 57.3406 28.8346 57.3272 28.8301C57.2419 28.8077 57.1926 28.7224 57.215 28.6372L57.4573 27.7353C57.4797 27.65 57.565 27.6006 57.6503 27.6231C57.7355 27.6455 57.7849 27.7308 57.7624 27.816L57.5201 28.718C57.5022 28.7897 57.4394 28.8346 57.3676 28.8346Z" fill="black"/>
<path d="M57.3592 40.5014L56.7535 66.9624H50.8707L51.5707 55.3944C51.5707 55.3944 47.3842 56.2156 42.0983 56.2515C36.8123 56.2919 34.6495 55.7489 34.6495 55.7489L35.5604 46.4739C35.5604 46.4739 42.013 46.1508 47.3797 42.8931C52.7509 39.6354 54.7477 36.2835 58.1445 36.3642C61.5413 36.445 57.3592 40.4969 57.3592 40.4969V40.5014Z" fill="#FAE1A2"/>
<path d="M59.858 29.0016C59.858 29.0016 59.831 29.0016 59.8176 28.9971C59.7323 28.9747 59.6829 28.8894 59.7054 28.8042L59.9477 27.9023C59.9701 27.817 60.0554 27.7676 60.1406 27.7901C60.2259 27.8125 60.2753 27.8978 60.2528 27.983L60.0105 28.8849C59.9926 28.9567 59.9297 29.0016 59.858 29.0016Z" fill="black"/>
<path d="M57.3675 27.0586C57.2867 27.0586 57.2194 26.9958 57.2104 26.915C57.2015 26.8298 57.2643 26.7535 57.354 26.7445L58.1034 26.6727C58.1976 26.6638 58.2694 26.7266 58.2739 26.8163C58.2829 26.9016 58.2201 26.9779 58.1303 26.9868L57.381 27.0586C57.381 27.0586 57.372 27.0586 57.3675 27.0586Z" fill="black"/>
<path d="M60.6303 27.4994C60.6303 27.4994 60.59 27.4994 60.5675 27.486L59.5579 27.0462C59.4771 27.0103 59.4412 26.9206 59.4771 26.8398C59.513 26.759 59.6028 26.7231 59.6835 26.759L60.6932 27.1988C60.7739 27.2347 60.8098 27.3244 60.7739 27.4052C60.747 27.4635 60.6887 27.4994 60.6303 27.4994Z" fill="black"/>
<path d="M63.6594 29.5352C63.6594 29.5352 63.2286 31.1686 62.919 30.9622C62.6094 30.7602 62.3491 28.3955 62.5959 27.341C62.8427 26.2865 63.0222 25.757 63.0222 25.757C63.0222 25.757 58.7324 25.3128 57.6106 24.2762C56.4933 23.2397 58.894 22.616 61.335 23.1096C63.776 23.6076 64.7273 24.541 64.7273 24.541C64.7273 24.541 66.2619 24.3346 66.8228 25.2769C67.3837 26.2192 66.0286 29.7551 66.0286 29.7551C66.0286 29.7551 65.6562 28.8577 63.6549 29.5307L63.6594 29.5352Z" fill="black"/>
<path d="M59.0503 32.4611C59.0009 32.4611 58.9515 32.4387 58.9201 32.3938C58.8708 32.322 58.8887 32.2233 58.9605 32.1739L60.015 31.4605C60.0868 31.4111 60.1855 31.4291 60.2349 31.5009C60.2842 31.5726 60.2663 31.6714 60.1945 31.7207L59.14 32.4342C59.1131 32.4521 59.0817 32.4611 59.0503 32.4611Z" fill="black"/>
<path d="M56.4878 58.0375C56.4249 58.0375 56.3666 57.9971 56.3397 57.9343C55.2583 55.1118 53.4544 50.3285 53.5307 50.0234C53.6025 49.7317 54.8993 48.1791 55.4423 47.5374C54.7916 46.999 53.2301 45.6753 53.1538 45.3028C53.0775 44.9124 55.3615 40.7034 56.3487 38.9131C56.3891 38.8368 56.4878 38.8098 56.5641 38.8502C56.6403 38.8906 56.6673 38.9893 56.6269 39.0656C55.4153 41.2643 53.4858 44.89 53.4679 45.258C53.5307 45.4599 54.6839 46.5054 55.7653 47.3939C55.7967 47.4208 55.8192 47.4612 55.8237 47.5016C55.8237 47.5419 55.8147 47.5868 55.7878 47.6182C54.8769 48.6907 53.8987 49.9112 53.8403 50.0996C53.8583 50.4362 55.523 54.9054 56.6403 57.8176C56.6717 57.8984 56.6314 57.9881 56.5506 58.0195C56.5326 58.0285 56.5147 58.0285 56.4923 58.0285L56.4878 58.0375Z" fill="#A63019"/>
<path d="M56.736 66.3305H64.3059L62.4034 41.1753H57.1713L56.736 66.3305Z" fill="#A63019"/>
<path d="M62.4019 44.4902C62.4019 44.4902 64.1788 67.0608 64.291 66.9621C64.4032 66.8634 73.777 66.7019 73.777 66.7019L73.4673 60.1192L62.4064 44.4902H62.4019Z" fill="#FAE1A2"/>
<path d="M64.2914 58.0383C64.2914 58.0383 64.2555 58.0383 64.2331 58.0293C64.1523 57.9979 64.1119 57.9082 64.1433 57.8274C65.2606 54.9107 66.9254 50.4415 66.9389 50.0825C66.885 49.9209 65.9068 48.7004 64.9914 47.628C64.9645 47.5966 64.951 47.5562 64.9555 47.5113C64.9555 47.4709 64.978 47.4306 65.0139 47.4036C66.0953 46.5152 67.253 45.4696 67.3158 45.2498C67.2934 44.8998 65.3639 41.2741 64.1523 39.0754C64.1119 38.9991 64.1389 38.9049 64.2151 38.86C64.2914 38.8196 64.3856 38.8465 64.4305 38.9228C65.4177 40.7132 67.7017 44.9222 67.6254 45.3126C67.5491 45.685 65.9876 47.0088 65.3369 47.5472C65.8799 48.1844 67.1767 49.7415 67.2485 50.0331C67.3248 50.3383 65.5209 55.1216 64.4395 57.9441C64.4171 58.0069 64.3542 58.0473 64.2914 58.0473V58.0383Z" fill="#A63019"/>
<path d="M61.2275 36.8002C61.2275 36.8002 55.2461 33.0579 54.5775 33.4886C53.9089 33.9239 57.1756 36.6566 57.1756 36.6566C57.1756 36.6566 55.6903 37.913 55.6095 38.1508C55.5288 38.3886 55.1743 38.9765 54.9005 39.6181C54.6268 40.2598 54.748 40.6861 55.3672 41.3547C55.9864 42.0233 60.0204 43.9662 60.9134 44.0291L61.8063 44.0919L64.4628 39.5329C64.4628 39.5329 64.6108 35.5438 63.7538 35.0591C62.8967 34.5745 62.4884 37.6842 62.4884 37.6842L61.232 36.8002H61.2275Z" fill="#F48462"/>
<path d="M62.4797 37.8414C62.4483 37.8414 62.4214 37.8324 62.3945 37.8189L59.8951 36.2484C59.8233 36.2035 59.8009 36.1048 59.8457 36.033C59.8951 35.9567 59.9893 35.9388 60.0656 35.9837L62.3675 37.433C62.4124 37.1997 62.5022 36.7689 62.6637 36.0824C62.9598 34.8125 63.7361 34.9023 63.7675 34.9067C63.8528 34.9202 63.9156 34.9965 63.9022 35.0862C63.8887 35.1715 63.8124 35.2298 63.7272 35.2208C63.6958 35.2208 63.1977 35.1849 62.9688 36.1542C62.7041 37.276 62.6368 37.7112 62.6323 37.7157C62.6233 37.7696 62.5919 37.8144 62.5425 37.8324C62.5201 37.8414 62.4977 37.8459 62.4752 37.8459L62.4797 37.8414Z" fill="black"/>
<path d="M57.8436 37.398C57.8077 37.398 57.7718 37.3845 57.7404 37.3576L57.0673 36.7743C57 36.7159 56.9955 36.6172 57.0493 36.5499C57.1077 36.4826 57.2064 36.4781 57.2737 36.532L57.9468 37.1153C58.0141 37.1736 58.0186 37.2724 57.9647 37.3397C57.9333 37.3756 57.8884 37.3935 57.8436 37.3935V37.398Z" fill="black"/>
<path d="M46.4681 47.1209C46.329 47.1209 46.1989 47.0671 46.0822 46.9639C45.454 46.394 45.4136 44.3254 45.4091 44.0921C45.4091 44.0203 45.454 43.9575 45.5213 43.9395C45.5886 43.9171 45.6604 43.944 45.7008 44.0023C45.9476 44.3793 47.1591 46.2818 46.8585 46.8966C46.7957 47.0267 46.6745 47.103 46.5175 47.1165C46.4995 47.1165 46.486 47.1165 46.4681 47.1165V47.1209ZM45.7546 44.6889C45.813 45.4203 45.961 46.4254 46.2976 46.7306C46.3604 46.7889 46.4232 46.8113 46.4905 46.8068C46.5534 46.8024 46.5668 46.7799 46.5758 46.762C46.7104 46.4882 46.2437 45.5145 45.7591 44.6889H45.7546Z" fill="#A63019"/>
<path d="M51.5707 55.5515C51.5707 55.5515 51.5572 55.5515 51.5482 55.5515C51.463 55.538 51.4047 55.4572 51.4136 55.372L51.6559 53.7342C51.6694 53.6489 51.7457 53.5906 51.8354 53.5995C51.9207 53.613 51.979 53.6938 51.97 53.779L51.7277 55.4169C51.7143 55.4931 51.647 55.5515 51.5707 55.5515Z" fill="#A63019"/>
<path d="M64.8748 38.9951L60.962 45.1291C60.962 45.1291 64.3812 60.076 72.6063 61.7946C80.8313 63.5132 79.0768 54.0586 79.0768 54.0586L64.8748 38.9951Z" fill="#FAE1A2"/>
<path d="M74.886 48.9513C74.8366 48.9513 74.7873 48.9288 74.7559 48.884C72.8219 46.0301 67.352 40.7711 67.2981 40.7218C67.2353 40.6634 67.2353 40.5602 67.2937 40.4974C67.3565 40.4346 67.4552 40.4346 67.518 40.4929C67.5719 40.5468 73.0642 45.8237 75.0161 48.709C75.0655 48.7808 75.0475 48.8795 74.9757 48.9288C74.9488 48.9468 74.9174 48.9558 74.886 48.9558V48.9513Z" fill="#A63019"/>
<path d="M74.8367 47.2231C73.9303 47.2231 72.0995 45.5808 71.7226 45.2308C71.6687 45.1814 71.6553 45.1007 71.6912 45.0378C71.7271 44.975 71.7989 44.9436 71.8707 44.9616C72.1758 45.0423 74.8502 45.7603 75.2809 46.5007C75.3482 46.6128 75.3662 46.7295 75.3348 46.8417C75.272 47.0795 75.1194 47.1693 74.9982 47.2052C74.9489 47.2186 74.895 47.2276 74.8322 47.2276L74.8367 47.2231ZM72.4585 45.4596C73.3425 46.2045 74.4912 47.0212 74.9085 46.9C74.9534 46.8866 74.9982 46.8596 75.0252 46.7609C75.0252 46.7519 75.0341 46.7205 75.0027 46.6622C74.7604 46.2494 73.4098 45.7558 72.454 45.4641L72.4585 45.4596Z" fill="#A63019"/>
</g>
</svg>
