<svg width="500" height="250" viewBox="0 0 500 250" fill="none" xmlns="http://www.w3.org/2000/svg">
<rect x="0.657959" y="217" width="499.34" height="33" fill="#FEF9EC"/>
<path d="M341.228 192.279H272.018V193.726H341.228V192.279Z" fill="#CB8C3D"/>
<path d="M383.071 212.55H264.907V213.997H383.071V212.55Z" fill="#CB8C3D"/>
<path d="M381.931 209.656H250.447V211.103H381.931V209.656Z" fill="#CB8C3D"/>
<path d="M383.071 206.763H235.686V208.21H383.071V206.763Z" fill="#CB8C3D"/>
<path d="M343.208 203.869H263.481V205.316H343.208V203.869Z" fill="#CB8C3D"/>
<path d="M343.208 200.96H188.158V202.406H343.208V200.96Z" fill="#CB8C3D"/>
<path d="M343.208 198.066H256.925V199.513H343.208V198.066Z" fill="#CB8C3D"/>
<path d="M343.208 195.173H256.925V196.619H343.208V195.173Z" fill="#CB8C3D"/>
<path d="M272.018 113.605C272.847 113.564 273.675 113.494 274.506 113.484C275.528 113.434 276.34 113.967 276.684 114.96C277.064 116.101 277.43 117.244 277.723 118.42C277.834 118.881 278.052 119.097 278.472 119.197C280.078 119.556 281.603 120.114 283.064 120.857C283.444 121.049 283.722 120.975 284.052 120.733C284.928 120.103 285.835 119.501 286.741 118.9C287.806 118.185 288.768 118.123 289.727 118.935C291.103 120.103 292.494 121.271 293.673 122.66C294.224 123.311 294.379 124.072 293.999 124.844C293.458 125.955 292.902 127.052 292.299 128.121C292.026 128.617 292.058 128.992 292.317 129.446C293.109 130.809 293.798 132.207 294.256 133.721C294.38 134.137 294.611 134.322 295 134.393C295.794 134.535 296.562 134.769 297.353 134.851C298.62 134.97 299.636 135.433 300.285 136.592L300.589 143.01C300.106 144.104 299.211 144.644 298.108 144.864C297.888 144.905 297.684 145.005 297.479 145.045C295.726 145.342 294.624 146.209 294.344 148.136C294.198 149.122 293.785 150.122 293.233 151.008C293.026 151.334 293.068 151.588 293.305 151.908C293.957 152.811 294.551 153.761 295.174 154.695C295.988 155.906 295.915 156.859 294.942 157.961C293.942 159.094 292.957 160.242 291.911 161.333C290.92 162.36 289.904 162.545 288.729 161.849C287.781 161.278 286.779 160.799 285.817 160.228C285.511 160.047 285.288 160.028 284.985 160.223C283.605 161.165 282.076 161.797 280.529 162.354C280.091 162.511 279.939 162.744 279.855 163.17C279.656 164.295 279.427 165.421 279.198 166.547C278.945 167.795 278.204 168.434 276.96 168.494C276.19 168.532 275.405 168.57 274.634 168.608C274.4 163.662 274.167 158.731 273.933 153.786C274.316 153.707 274.682 153.614 275.066 153.565C277.928 153.184 280.347 151.921 282.31 149.807C284.951 146.951 286.007 143.54 285.629 139.626C285.43 137.616 284.764 135.781 283.677 134.146C281.087 130.219 277.364 128.411 272.734 128.441C272.5 123.495 272.267 118.565 272.033 113.619L272.018 113.605Z" fill="#A4D9F5"/>
<path d="M240.264 133.036C239.612 132.751 238.916 133.086 238.236 132.833C237.918 132.713 237.76 133.128 237.593 133.377C236.873 134.467 236.29 135.64 235.415 136.602C234.766 137.311 233.689 137.454 232.782 137.107C231.436 136.585 230.051 136.17 228.705 135.648C227.208 135.058 226.76 134.055 226.993 132.401C227.152 131.369 227.131 130.3 227.275 129.254C227.318 128.92 227.178 128.776 226.978 128.635C225.612 127.692 224.415 126.545 223.345 125.271C222.904 124.735 222.41 124.955 221.91 125.055C220.895 125.24 219.881 125.455 218.85 125.641C217.216 125.932 216.471 124.928 215.984 123.732C215.512 122.549 215.011 121.368 214.38 120.269C213.734 119.155 214.009 117.756 215.052 116.891C215.838 116.25 216.639 115.609 217.457 115.011C217.873 114.705 218.122 114.331 218.009 113.809C217.697 112.242 217.77 110.657 217.785 109.074C217.792 108.607 217.717 108.264 217.229 108.001C216.39 107.53 215.62 106.934 214.824 106.416C213.522 105.575 213.151 104.644 213.63 103.159C214.082 101.721 214.549 100.297 215.091 98.8994C215.754 97.2248 216.513 96.9468 218.473 97.2732C219.296 97.4139 220.156 97.3871 220.969 97.6187C221.33 97.7217 221.648 97.5555 221.885 97.2125C222.885 95.7626 224.056 94.4701 225.428 93.3636C225.615 93.2189 225.638 93.0822 225.58 92.7987C225.3 91.5919 225.005 90.3708 224.858 89.1425C224.676 87.509 225.165 86.8524 226.647 86.1775C228.086 85.5199 229.506 84.8028 230.929 84.1158C231.255 84.0999 231.595 84.0833 231.921 84.0675C232.825 84.3399 233.406 85.0197 233.96 85.7461C234.499 86.4732 235.109 87.1365 235.605 87.8959C235.861 88.2902 236.177 88.3652 236.496 88.1991C237.033 87.9469 237.572 88.0562 238.105 88.0152C238.258 91.2622 238.412 94.5092 238.566 97.7562C236.453 97.9796 234.511 98.6467 232.805 99.9352C229.121 102.706 227.19 106.446 227.397 111.122C227.534 114.023 228.694 116.589 230.594 118.786C232.321 120.766 234.458 122.018 236.954 122.68C237.871 122.922 238.824 122.996 239.752 123.147C239.908 126.454 240.064 129.746 240.221 133.053L240.264 133.036Z" fill="#17ACE8"/>
<path d="M238.595 97.7548C238.442 94.5078 238.288 91.2608 238.135 88.0138C239.216 87.9611 240.281 87.8791 241.363 87.8566C241.793 87.8356 242.023 87.6738 242.272 87.3C243.203 85.9589 243.794 84.333 245.25 83.4184L246.583 83.3534C247.833 84.0309 249.241 84.3088 250.543 84.8481C250.801 84.9561 251.057 85.034 251.314 85.142C252.788 85.8538 253.082 86.427 252.908 88.0778C252.804 89.017 252.7 89.9563 252.625 90.894C252.588 91.3629 252.567 91.8612 253.071 92.1531C254.398 92.9021 255.374 94.09 256.36 95.157C257.174 96.0515 257.852 95.6267 258.605 95.5448C259.359 95.478 260.054 95.1126 260.804 94.9706C262.159 94.7389 263.277 95.4529 263.757 96.8157C264.324 98.4455 265.24 99.9226 265.821 101.552C265.975 101.981 265.897 102.211 265.708 102.597C265.02 104.062 263.578 104.659 262.45 105.603C261.936 106.035 261.731 106.392 261.88 107.032C262.233 108.537 262.217 110.074 262.097 111.617C262.063 112.161 262.284 112.452 262.743 112.731C263.721 113.331 264.673 113.993 265.611 114.67C266.502 115.305 266.663 116.201 266.383 117.194C266.116 118.126 265.787 119.031 265.489 119.95C264.194 120.495 262.884 121.041 261.703 121.806C261.328 122.051 261.016 122.036 260.635 121.828C259.704 121.286 258.759 120.76 257.799 120.249C256.566 119.601 255.681 119.719 254.719 120.715C253.644 121.852 252.601 123.018 251.589 124.212C250.69 125.296 250.673 126.186 251.426 127.354C252.019 128.275 252.625 129.179 253.232 130.069C253.486 130.433 253.546 130.747 253.342 131.148C252.689 132.416 252.248 133.763 251.868 135.138C251.796 135.186 251.74 135.249 251.668 135.298C250.707 135.706 249.762 136.114 248.8 136.492C247.983 136.803 247.257 136.507 246.725 135.93C245.863 134.963 245.072 133.947 244.324 132.883C244.054 132.505 243.797 132.397 243.431 132.52C242.393 132.857 241.299 132.624 240.276 132.96C240.119 129.653 239.963 126.361 239.807 123.054C240.484 122.93 241.166 122.912 241.843 122.789C245.229 122.202 248.016 120.544 249.976 117.737C253.006 113.386 253.306 108.73 250.723 104.02C249.764 102.258 248.432 100.786 246.717 99.6796C244.222 98.0834 241.507 97.4924 238.607 97.6789L238.595 97.7548Z" fill="#1689FC"/>
<path d="M251.871 135.198C252.251 133.823 252.707 132.475 253.345 131.208C253.549 130.807 253.489 130.478 253.235 130.129C252.614 129.24 252.021 128.32 251.429 127.414C250.676 126.246 250.692 125.341 251.592 124.273C252.589 123.079 253.647 121.912 254.722 120.775C255.683 119.764 256.569 119.661 257.802 120.309C258.761 120.805 259.707 121.346 260.638 121.888C261.02 122.111 261.332 122.126 261.706 121.867C262.886 121.086 264.196 120.54 265.492 120.01C266.559 119.958 266.791 119.223 266.911 118.313C267.032 117.404 267.211 116.491 267.407 115.607C267.677 114.419 268.449 113.794 269.619 113.722C270.418 113.683 271.218 113.644 272.018 113.605C272.252 118.551 272.485 123.481 272.719 128.427C268.65 128.715 265.302 130.43 263.017 133.902C260.234 138.135 259.973 142.668 262.351 147.118C264.794 151.684 268.853 153.717 273.918 153.771C274.152 158.717 274.385 163.648 274.619 168.593C273.849 168.631 273.065 168.699 272.294 168.707C271.049 168.752 270.284 168.262 269.886 167.076C269.491 165.935 269.154 164.791 268.818 163.633C268.694 163.217 268.52 162.999 268.071 162.9C266.496 162.57 264.985 162.011 263.541 161.283C263.16 161.09 262.894 161.103 262.563 161.331C261.73 161.929 260.867 162.498 260.034 163.096C258.683 164.036 257.899 164.089 256.662 163.049C255.363 161.952 254.079 160.84 252.963 159.538C252.335 158.815 252.267 158.005 252.644 157.188C253.169 156.047 253.77 154.933 254.371 153.834C254.52 153.541 254.657 153.293 254.435 152.988C253.494 151.617 252.931 150.062 252.368 148.523C252.18 148.005 251.874 147.809 251.364 147.698C250.163 147.41 248.9 147.381 247.734 146.895C246.84 146.517 246.335 145.879 246.315 144.84C246.285 143.259 246.167 141.698 246.092 140.12C246.023 138.662 246.593 137.85 247.998 137.42C248.92 137.149 249.841 136.833 250.781 136.637C251.516 136.481 251.809 136.075 251.82 135.366C251.817 135.306 251.844 135.244 251.841 135.199L251.871 135.198Z" fill="#B7E0F6"/>
<path d="M251.871 135.198C251.871 135.198 251.847 135.319 251.849 135.365C251.79 135.367 251.731 135.37 251.671 135.358C251.743 135.309 251.799 135.246 251.871 135.198Z" fill="#FDFEFF"/>
<path d="M308.519 136.752L301.379 141.751L311.659 156.878L318.799 151.879L308.519 136.752Z" fill="#6593C7"/>
<path d="M326.822 103.739C325.829 78.6411 304.979 59.1115 280.252 60.1181C255.525 61.1248 236.285 82.2866 237.277 107.384C238.27 132.482 259.12 152.012 283.847 151.005C308.574 149.999 327.814 128.837 326.822 103.739Z" fill="#003672"/>
<path d="M309.526 130.882C323.312 115.487 322.186 91.6713 307.009 77.6874C291.833 63.7035 268.354 64.8468 254.568 80.2412C240.781 95.6356 241.908 119.452 257.084 133.435C272.26 147.419 295.739 146.276 309.526 130.882Z" fill="#AAE0FE"/>
<path d="M312.575 84.1625C300.943 67.0403 277.82 62.7272 260.952 74.5476L303.104 136.56C319.973 124.754 324.221 101.284 312.575 84.1625Z" fill="#8CCDF5"/>
<path d="M264.573 79.8707C280.565 68.6806 302.141 71.9691 314.264 86.9129C313.745 85.9889 313.182 85.0671 312.575 84.1625C300.943 67.0403 277.82 62.7272 260.951 74.5476C244.083 86.3529 239.834 109.823 251.48 126.945C252.087 127.834 252.736 128.692 253.413 129.518C243.949 112.712 248.595 91.0601 264.573 79.8707Z" fill="#6593C7"/>
<path d="M314.264 86.9129C314.005 86.4584 313.746 86.004 313.472 85.5502C313.182 85.0822 312.893 84.6141 312.575 84.1625C300.943 67.0403 277.82 62.7272 260.952 74.5476L264.573 79.8707C280.565 68.6806 302.141 71.9692 314.264 86.9129Z" fill="#4C77AD"/>
<path d="M316.164 148.429L309.382 153.174C307.457 154.519 306.975 157.194 308.298 159.133L340.687 206.795C343.304 210.645 348.5 211.613 352.294 208.957C356.087 206.301 357.04 201.026 354.423 197.176L322.035 149.515C320.71 147.56 318.074 147.071 316.164 148.414L316.164 148.429Z" fill="#003672"/>
<path d="M311.693 155.578C310.759 156.226 310.524 157.533 311.162 158.482L342.737 204.947C343.376 205.896 344.664 206.134 345.598 205.486C346.532 204.838 346.767 203.531 346.129 202.582L314.554 156.117C313.915 155.168 312.627 154.93 311.693 155.578Z" fill="#4C77AD"/>
<mask id="mask0_398_7768" style="mask-type:luminance" maskUnits="userSpaceOnUse" x="244" y="67" width="76" height="77">
<path d="M283.748 143.183C304.213 142.186 320.007 124.539 319.024 103.767C318.042 82.995 300.655 66.9639 280.19 67.9605C259.725 68.9571 243.931 86.6041 244.914 107.376C245.897 128.148 263.283 144.179 283.748 143.183Z" fill="white"/>
</mask>
<g mask="url(#mask0_398_7768)">
<path d="M294.336 105.903C295.417 105.851 296.496 105.768 297.578 105.73C298.912 105.681 299.969 106.367 300.401 107.657C300.901 109.14 301.373 110.638 301.742 112.157C301.889 112.753 302.17 113.04 302.71 113.165C304.795 113.636 306.775 114.368 308.676 115.33C309.163 115.578 309.529 115.484 309.959 115.162C311.108 114.338 312.273 113.558 313.454 112.777C314.835 111.851 316.092 111.76 317.33 112.814C319.124 114.339 320.933 115.863 322.457 117.657C323.181 118.511 323.375 119.481 322.874 120.5C322.17 121.935 321.451 123.372 320.671 124.766C320.315 125.401 320.353 125.896 320.694 126.497C321.727 128.255 322.615 130.095 323.213 132.055C323.372 132.589 323.68 132.831 324.174 132.927C325.193 133.118 326.201 133.416 327.231 133.516C328.87 133.663 330.206 134.276 331.048 135.771L331.443 144.114C330.813 145.546 329.658 146.235 328.217 146.531C327.938 146.59 327.677 146.724 327.397 146.767C325.129 147.149 323.699 148.288 323.312 150.778C323.12 152.068 322.588 153.36 321.871 154.525C321.609 154.944 321.654 155.274 321.956 155.696C322.799 156.875 323.569 158.103 324.384 159.314C325.438 160.89 325.348 162.13 324.08 163.563C322.783 165.027 321.503 166.521 320.145 167.928C318.857 169.271 317.533 169.517 316.02 168.596C314.783 167.858 313.491 167.227 312.239 166.49C311.842 166.253 311.543 166.222 311.17 166.482C309.372 167.699 307.392 168.519 305.378 169.265C304.809 169.473 304.601 169.77 304.509 170.332C304.252 171.806 303.95 173.267 303.663 174.727C303.324 176.356 302.369 177.186 300.754 177.265C299.747 177.314 298.74 177.363 297.732 177.397C297.429 170.978 297.125 164.559 296.821 158.125C297.306 158.026 297.804 157.897 298.291 157.828C302.008 157.33 305.166 155.685 307.694 152.94C311.126 149.232 312.504 144.796 312.011 139.712C311.754 137.103 310.884 134.719 309.477 132.588C306.104 127.494 301.272 125.138 295.262 125.174C294.958 118.755 294.655 112.337 294.351 105.918L294.336 105.903Z" fill="#A4D9F5"/>
<path d="M253.061 131.162C252.212 130.796 251.297 131.218 250.436 130.898C250.012 130.738 249.831 131.289 249.608 131.601C248.68 133.002 247.921 134.546 246.778 135.792C245.931 136.722 244.53 136.911 243.35 136.441C241.61 135.757 239.804 135.228 238.064 134.529C236.128 133.764 235.531 132.453 235.846 130.313C236.049 128.962 236.028 127.577 236.202 126.227C236.256 125.803 236.083 125.6 235.823 125.432C234.042 124.193 232.488 122.717 231.103 121.067C230.521 120.372 229.882 120.659 229.249 120.78C227.925 121.025 226.603 121.316 225.277 121.546C223.158 121.921 222.176 120.627 221.553 119.061C220.931 117.524 220.295 116.003 219.469 114.552C218.628 113.101 219.002 111.275 220.33 110.17C221.344 109.322 222.39 108.518 223.451 107.728C223.996 107.325 224.315 106.842 224.178 106.156C223.771 104.127 223.866 102.058 223.887 100.008C223.889 99.405 223.793 98.9576 223.168 98.5964C222.085 97.9861 221.083 97.2062 220.027 96.5345C218.342 95.4413 217.855 94.2446 218.476 92.3008C219.07 90.4337 219.666 88.5816 220.381 86.7688C221.244 84.6024 222.236 84.2377 224.764 84.657C225.842 84.8455 226.938 84.7922 228.007 85.1017C228.473 85.2297 228.894 85.0284 229.199 84.5766C230.505 82.6899 232.029 81.0186 233.802 79.5762C234.03 79.3843 234.081 79.201 233.99 78.8438C233.619 77.2798 233.232 75.6865 233.052 74.0831C232.819 71.97 233.446 71.1108 235.379 70.2332C237.253 69.3735 239.095 68.4551 240.952 67.5511C241.382 67.5301 241.811 67.5092 242.255 67.4876C243.43 67.8522 244.185 68.7346 244.897 69.6792C245.609 70.6089 246.393 71.4898 247.048 72.4674C247.384 72.9784 247.804 73.0634 248.21 72.8628C248.907 72.5275 249.611 72.674 250.307 72.6251C250.506 76.8492 250.705 81.0583 250.905 85.2824C248.172 85.5661 245.631 86.4432 243.424 88.1177C238.637 91.7258 236.135 96.5787 236.393 102.653C236.556 106.412 238.08 109.758 240.56 112.62C242.805 115.193 245.584 116.821 248.83 117.672C250.017 117.976 251.254 118.081 252.481 118.278C252.684 122.562 252.887 126.861 253.09 131.145L253.061 131.162Z" fill="#17ACE8"/>
<path d="M250.892 85.3131C250.692 81.089 250.493 76.88 250.293 72.6559C251.685 72.5881 253.091 72.4895 254.484 72.4367C255.032 72.41 255.333 72.1995 255.667 71.7162C256.876 69.9698 257.637 67.8685 259.54 66.6759L261.273 66.5916C262.903 67.4765 264.716 67.8251 266.412 68.5411C266.745 68.6755 267.092 68.7792 267.41 68.9294C269.325 69.8607 269.716 70.595 269.476 72.7462C269.341 73.9732 269.206 75.1852 269.115 76.41C269.069 77.0149 269.026 77.6649 269.697 78.0391C271.42 79.0098 272.695 80.5448 273.964 81.9446C275.029 83.1131 275.908 82.558 276.882 82.4503C277.858 82.3576 278.755 81.877 279.757 81.7077C281.509 81.4114 282.962 82.32 283.581 84.0979C284.319 86.2015 285.508 88.1324 286.263 90.2653C286.452 90.8286 286.363 91.1343 286.119 91.6283C285.23 93.5399 283.351 94.3094 281.896 95.5405C281.224 96.1005 280.965 96.5802 281.151 97.3848C281.601 99.3517 281.576 101.342 281.433 103.338C281.378 104.048 281.678 104.426 282.274 104.788C283.557 105.57 284.772 106.445 286 107.304C287.152 108.122 287.371 109.301 287.002 110.6C286.658 111.807 286.224 112.988 285.835 114.182C284.146 114.882 282.458 115.597 280.918 116.607C280.428 116.932 280.012 116.907 279.523 116.629C278.302 115.92 277.082 115.226 275.834 114.579C274.221 113.738 273.085 113.884 271.84 115.195C270.44 116.665 269.072 118.178 267.78 119.732C266.614 121.13 266.595 122.306 267.573 123.826C268.341 125.009 269.124 126.191 269.922 127.358C270.241 127.824 270.335 128.241 270.063 128.767C269.221 130.42 268.636 132.181 268.141 133.953C268.055 134.018 267.97 134.097 267.884 134.162C266.647 134.689 265.411 135.231 264.142 135.715C263.093 136.128 262.139 135.737 261.45 134.972C260.336 133.716 259.293 132.38 258.323 131.011C257.973 130.516 257.625 130.382 257.158 130.54C255.813 130.983 254.388 130.675 253.044 131.118C252.841 126.833 252.638 122.534 252.435 118.25C253.319 118.101 254.207 118.058 255.091 117.91C259.494 117.153 263.117 114.987 265.661 111.338C269.594 105.677 269.99 99.6158 266.629 93.5116C265.377 91.2221 263.654 89.3172 261.419 87.8742C258.173 85.7872 254.649 85.0398 250.875 85.2688L250.892 85.3131Z" fill="#1689FC"/>
<path d="M268.142 133.983C268.637 132.196 269.221 130.435 270.064 128.797C270.336 128.271 270.257 127.853 269.923 127.388C269.111 126.222 268.343 125.039 267.574 123.856C266.597 122.336 266.615 121.16 267.781 119.763C269.088 118.207 270.442 116.695 271.842 115.225C273.086 113.914 274.237 113.768 275.836 114.609C277.083 115.256 278.304 115.95 279.525 116.659C280.014 116.952 280.43 116.962 280.919 116.637C282.46 115.627 284.149 114.927 285.837 114.212C287.214 114.145 287.54 113.18 287.677 111.998C287.829 110.816 288.055 109.645 288.326 108.471C288.684 106.932 289.684 106.115 291.209 106.026C292.246 105.975 293.283 105.925 294.32 105.889C294.624 112.308 294.927 118.727 295.231 125.146C289.935 125.524 285.587 127.755 282.624 132.269C279.009 137.763 278.664 143.656 281.759 149.442C284.934 155.389 290.21 158.025 296.79 158.097C297.093 164.515 297.397 170.934 297.701 177.368C296.694 177.417 295.688 177.496 294.681 177.53C293.066 177.594 292.07 176.949 291.553 175.423C291.052 173.94 290.595 172.441 290.168 170.94C290.009 170.405 289.788 170.115 289.188 169.993C287.134 169.566 285.184 168.832 283.314 167.883C282.812 167.637 282.471 167.638 282.055 167.945C280.963 168.721 279.856 169.468 278.764 170.23C277.011 171.46 275.99 171.525 274.382 170.172C272.696 168.747 271.025 167.307 269.579 165.614C268.762 164.66 268.669 163.625 269.153 162.561C269.84 161.081 270.633 159.642 271.395 158.188C271.6 157.817 271.762 157.477 271.477 157.084C270.25 155.306 269.516 153.293 268.797 151.278C268.557 150.597 268.16 150.36 267.484 150.197C265.923 149.821 264.273 149.781 262.773 149.146C261.622 148.66 260.959 147.818 260.925 146.479C260.873 144.432 260.732 142.39 260.635 140.346C260.545 138.436 261.282 137.391 263.111 136.835C264.312 136.475 265.51 136.085 266.73 135.815C267.685 135.618 268.076 135.086 268.077 134.167C268.088 134.091 268.099 134.015 268.111 133.94L268.142 133.983Z" fill="#B7E0F6"/>
<path d="M268.142 133.983C268.142 133.983 268.12 134.135 268.109 134.21C268.035 134.214 267.961 134.218 267.886 134.206C267.972 134.142 268.057 134.063 268.143 133.998L268.142 133.983Z" fill="#FDFEFF"/>
</g>
<path d="M241.253 155.778L182.223 159.165C182.067 159.165 181.931 159.165 181.775 159.165L122.687 157.244H122.101C119.311 157.284 117.067 159.621 117.106 162.453L117.847 224.566C117.886 227.26 119.955 229.459 122.589 229.637C134.805 230.409 167.705 232.449 182.887 233.281C198.049 232.093 230.891 229.221 243.068 228.151C245.702 227.914 247.732 225.656 247.693 222.982L246.951 160.869C246.912 158.036 244.629 155.758 241.838 155.798H241.253V155.778Z" fill="#BF6240"/>
<path d="M124.482 152.503L120.521 163.931L120.774 226.203L125.282 219.806C125.282 219.806 137.205 156.464 124.462 152.503H124.482Z" fill="#F4C245"/>
<path d="M125.302 219.806L120.794 226.203L182.868 231.888L182.79 226.084C182.79 226.084 149.031 206.04 125.302 219.786V219.806Z" fill="#F4C245"/>
<path d="M240.082 218.379L244.746 224.678L182.828 231.907L182.75 226.104C182.75 226.104 216.021 205.228 240.063 218.379H240.082Z" fill="#F4C245"/>
<path d="M182.77 226.104L181.95 158.049C181.95 158.049 150.923 137.172 124.482 152.503L125.302 219.805C125.302 219.805 146.318 210.279 182.789 226.104H182.77Z" fill="#FEF9EC"/>
<path d="M239.282 151.077L243.517 162.406L244.766 224.678L240.102 218.379C240.102 218.379 226.657 155.335 239.282 151.077Z" fill="#F4C245"/>
<path d="M182.77 226.104L181.95 158.049C181.95 158.049 212.45 136.4 239.262 151.077L240.082 218.379C240.082 218.379 218.851 209.387 182.77 226.104Z" fill="#FEF9EC"/>
<path d="M182.048 165.833L185.209 226.084L182.789 226.639L182.048 165.833Z" fill="#F4C245"/>
<path d="M175.92 163.258C175.92 163.258 175.745 163.238 175.667 163.179C162.397 155.177 146.279 152.998 131.487 157.217C131.214 157.296 130.922 157.118 130.863 156.801C130.785 156.504 130.961 156.187 131.234 156.108C146.279 151.829 162.651 154.048 176.155 162.168C176.408 162.327 176.506 162.664 176.369 162.941C176.272 163.139 176.096 163.238 175.92 163.238V163.258Z" fill="#A63019"/>
<path d="M175.999 169.913C175.999 169.913 175.823 169.893 175.745 169.834C162.476 161.832 146.357 159.653 131.566 163.872C131.292 163.951 131 163.773 130.941 163.456C130.863 163.159 131.039 162.842 131.312 162.763C146.357 158.484 162.729 160.703 176.233 168.823C176.486 168.982 176.584 169.319 176.447 169.596C176.35 169.794 176.174 169.893 175.999 169.893V169.913Z" fill="#A63019"/>
<path d="M176.077 176.568C176.077 176.568 175.901 176.548 175.823 176.489C162.554 168.487 146.435 166.308 131.644 170.527C131.37 170.606 131.078 170.428 131.019 170.111C130.941 169.814 131.117 169.497 131.39 169.418C146.435 165.139 162.807 167.358 176.311 175.478C176.564 175.637 176.662 175.974 176.525 176.251C176.428 176.449 176.252 176.548 176.077 176.548V176.568Z" fill="#A63019"/>
<path d="M176.155 183.223C176.155 183.223 175.979 183.203 175.901 183.144C162.632 175.142 146.513 172.963 131.722 177.182C131.449 177.261 131.156 177.083 131.097 176.766C131.019 176.469 131.195 176.152 131.468 176.073C146.513 171.794 162.885 174.013 176.389 182.133C176.643 182.292 176.74 182.629 176.604 182.906C176.506 183.104 176.33 183.203 176.155 183.203V183.223Z" fill="#A63019"/>
<path d="M176.233 189.878C176.233 189.878 176.057 189.858 175.979 189.799C162.71 181.797 146.591 179.618 131.8 183.837C131.527 183.916 131.234 183.738 131.175 183.421C131.097 183.124 131.273 182.807 131.546 182.728C146.591 178.449 162.963 180.668 176.467 188.788C176.721 188.947 176.818 189.284 176.682 189.561C176.584 189.759 176.408 189.858 176.233 189.858V189.878Z" fill="#A63019"/>
<path d="M176.33 196.533C176.33 196.533 176.155 196.513 176.077 196.454C169.598 192.552 162.124 189.937 154.475 188.907C154.182 188.868 153.987 188.59 154.026 188.273C154.065 187.957 154.319 187.739 154.592 187.778C162.358 188.828 169.949 191.482 176.565 195.463C176.818 195.622 176.916 195.958 176.779 196.236C176.682 196.434 176.506 196.533 176.33 196.533Z" fill="#A63019"/>
<path d="M176.408 203.188C176.408 203.188 176.233 203.168 176.155 203.109C169.5 199.108 161.851 196.473 154.007 195.483C153.714 195.443 153.519 195.166 153.558 194.849C153.597 194.532 153.85 194.314 154.124 194.354C162.085 195.344 169.871 198.018 176.643 202.098C176.896 202.257 176.994 202.594 176.857 202.871C176.76 203.069 176.584 203.168 176.408 203.168V203.188Z" fill="#A63019"/>
<path d="M176.486 209.843C176.486 209.843 176.311 209.823 176.233 209.764C169.481 205.683 161.695 203.049 153.733 202.098C153.44 202.059 153.245 201.782 153.265 201.465C153.304 201.148 153.558 200.91 153.831 200.95C161.929 201.9 169.852 204.594 176.721 208.753C176.974 208.912 177.072 209.249 176.935 209.526C176.838 209.724 176.662 209.823 176.486 209.823V209.843Z" fill="#A63019"/>
<path d="M176.565 216.498C176.565 216.498 176.389 216.478 176.311 216.419C169.559 212.338 161.773 209.704 153.811 208.753C153.519 208.714 153.324 208.437 153.343 208.12C153.382 207.803 153.636 207.565 153.909 207.605C162.007 208.555 169.93 211.249 176.799 215.408C177.052 215.567 177.15 215.904 177.013 216.181C176.916 216.379 176.74 216.478 176.565 216.478V216.498Z" fill="#A63019"/>
<path d="M232.511 155.969C232.511 155.969 232.433 155.969 232.394 155.969C224.373 153.909 215.748 153.691 207.474 155.375C207.201 155.434 206.928 155.216 206.87 154.919C206.811 154.602 207.006 154.305 207.279 154.246C215.709 152.542 224.471 152.76 232.628 154.86C232.901 154.939 233.077 155.236 233.018 155.553C232.96 155.811 232.745 155.989 232.53 155.989L232.511 155.969Z" fill="#A63019"/>
<path d="M232.589 162.624C232.589 162.624 232.511 162.624 232.472 162.624C224.432 160.544 215.787 160.346 207.474 162.03C207.201 162.089 206.928 161.891 206.87 161.574C206.811 161.257 207.006 160.96 207.279 160.901C215.729 159.178 224.51 159.396 232.686 161.495C232.96 161.574 233.135 161.871 233.077 162.188C233.018 162.446 232.803 162.624 232.589 162.624Z" fill="#A63019"/>
<path d="M232.667 169.279C232.667 169.279 232.589 169.279 232.55 169.279C224.471 167.199 215.807 167.001 207.474 168.705C207.201 168.764 206.928 168.566 206.87 168.249C206.811 167.932 207.006 167.635 207.279 167.576C215.748 165.833 224.569 166.031 232.784 168.15C233.057 168.229 233.233 168.526 233.174 168.843C233.116 169.101 232.901 169.279 232.686 169.279H232.667Z" fill="#A63019"/>
<path d="M232.745 175.954C232.745 175.954 232.667 175.954 232.628 175.954C224.569 173.874 215.885 173.676 207.572 175.379C207.299 175.439 207.026 175.241 206.967 174.924C206.909 174.607 207.104 174.31 207.377 174.251C215.846 172.508 224.666 172.725 232.862 174.825C233.135 174.904 233.311 175.201 233.253 175.518C233.194 175.776 232.979 175.954 232.765 175.954H232.745Z" fill="#A63019"/>
<path d="M188.429 189.719C188.253 189.719 188.078 189.62 187.98 189.422C187.844 189.145 187.922 188.788 188.175 188.65C201.484 180.173 217.797 177.558 232.94 181.46C233.213 181.539 233.389 181.836 233.33 182.153C233.272 182.47 232.999 182.648 232.706 182.589C217.817 178.747 201.777 181.321 188.683 189.66C188.605 189.719 188.527 189.739 188.429 189.739V189.719Z" fill="#A63019"/>
<path d="M188.527 196.612C188.351 196.612 188.175 196.513 188.078 196.315C187.941 196.038 188.019 195.681 188.273 195.542C201.581 187.065 217.895 184.451 233.038 188.353C233.311 188.432 233.487 188.729 233.428 189.046C233.37 189.363 233.096 189.541 232.804 189.482C217.915 185.639 201.874 188.214 188.78 196.553C188.702 196.612 188.624 196.632 188.527 196.632V196.612Z" fill="#A63019"/>
<path d="M188.605 203.267C188.429 203.267 188.254 203.168 188.156 202.97C188.02 202.693 188.098 202.336 188.351 202.198C201.66 193.72 217.973 191.106 233.116 195.008C233.389 195.087 233.565 195.384 233.506 195.701C233.448 196.018 233.175 196.196 232.882 196.137C217.993 192.294 201.952 194.869 188.859 203.208C188.781 203.267 188.702 203.287 188.605 203.287V203.267Z" fill="#A63019"/>
<path d="M188.683 209.922C188.507 209.922 188.332 209.823 188.234 209.625C188.097 209.348 188.175 208.991 188.429 208.853C201.738 200.375 218.051 197.761 233.194 201.663C233.467 201.742 233.643 202.039 233.584 202.356C233.526 202.673 233.252 202.851 232.96 202.792C218.071 198.949 202.03 201.524 188.937 209.863C188.858 209.922 188.78 209.942 188.683 209.942V209.922Z" fill="#A63019"/>
<path d="M188.761 216.577C188.585 216.577 188.41 216.478 188.312 216.28C188.176 216.003 188.254 215.646 188.507 215.507C201.816 207.03 218.129 204.416 233.272 208.318C233.545 208.397 233.721 208.694 233.662 209.011C233.604 209.328 233.331 209.506 233.038 209.447C218.149 205.604 202.109 208.179 189.015 216.518C188.937 216.577 188.859 216.597 188.761 216.597V216.577Z" fill="#A63019"/>
<path d="M131.741 187.937L132.014 209.823C132.014 209.823 140.034 208.001 150.786 208.239L150.513 185.976C150.513 185.976 143.137 185.303 131.741 187.917V187.937Z" fill="#A63019"/>
<path d="M188.097 161.653L188.351 183.183C188.351 183.183 193.795 178.766 202.089 176.528L201.835 155.791C201.835 155.791 195.337 156.821 188.078 161.653H188.097Z" fill="#A63019"/>
</svg>
