<svg width="470" height="250" viewBox="0 0 470 250" fill="none" xmlns="http://www.w3.org/2000/svg">
<mask id="mask0_402_11019" style="mask-type:alpha" maskUnits="userSpaceOnUse" x="0" y="0" width="470" height="250">
<path d="M470 20C470 8.9543 461.046 0 450 0H20C8.95428 0 -2.12193e-05 8.9543 -2.12193e-05 20V250H470V20Z" fill="#F7ECDE"/>
</mask>
<g mask="url(#mask0_402_11019)">
<path d="M332.544 93.2506C332.987 92.5427 333.596 91.938 333.741 91.0578C333.895 90.0573 333.881 89.1207 333.288 88.261C331.024 89.5392 328.83 90.9323 326.61 92.3048C327.795 94.0242 329.443 94.414 331.383 93.9528L332.53 93.2571L332.544 93.2506Z" fill="#CCCCCD"/>
<path d="M329.468 78.6777C329.337 76.2076 329.146 73.7498 329.082 71.2808C329.003 68.2565 328.729 65.2421 328.67 62.2248C328.634 60.3716 328.134 58.5906 327.371 56.8853C326.505 54.9642 325.325 53.2917 323.731 51.8997C322.144 50.5212 320.389 49.4875 318.392 48.7841C316.795 48.2213 315.155 48.0925 313.495 47.9901C312.35 47.9235 311.134 48.0227 310.129 48.3531C308.637 48.8488 307.028 49.2021 305.759 50.2703C309.463 56.3671 313.153 62.4704 316.863 68.5808C317.31 68.3678 317.772 68.3959 318.241 68.4041C319.313 68.4227 320.385 68.4413 321.451 68.4464C321.719 68.451 322.039 68.5302 322.129 68.0903C322.398 66.7039 323.371 65.644 323.94 64.3965C324.073 64.118 324.384 63.9695 324.739 64.0158C325.575 64.0972 325.883 64.7446 325.484 65.5804C324.932 66.7211 324.339 67.8478 323.766 68.9815C323.627 69.2466 323.521 69.5123 323.629 69.8084C323.825 70.3603 324.015 70.932 324.238 71.4709C324.769 72.7576 325.225 74.0629 325.708 75.3554C326.204 76.6749 326.686 78.0008 327.169 79.3267C327.308 79.7237 327.532 79.9149 327.967 79.6081C328.464 79.2556 328.993 78.9705 329.508 78.6584L329.468 78.6777Z" fill="#FCCA36"/>
<path d="M316.83 68.58C313.126 62.4832 309.436 56.3798 305.726 50.2695C302.923 51.953 300.871 54.305 299.603 57.3261C298.328 60.367 298.124 63.4601 298.81 66.6755C299.257 68.7632 300.279 70.56 301.465 72.2459C302.761 74.0942 304.536 75.4827 306.545 76.5609C308.336 77.5283 310.05 78.6147 311.799 79.6349C313.68 80.7243 315.59 81.7673 317.436 82.9229C318.217 83.4114 319.061 83.7871 319.773 84.3747C319.853 84.4028 319.913 84.4239 319.993 84.4521C320.033 84.4327 320.074 84.4133 320.101 84.4004C320.42 84.1986 320.727 83.9699 321.052 83.7816C322.118 83.1246 322.111 83.1445 321.265 82.2069C319.206 79.9441 317.155 77.6613 315.103 75.3785C314.795 75.0454 314.477 74.8326 313.967 74.8438C312.687 74.8751 311.4 74.826 310.114 74.8104C309.665 74.8093 309.368 74.57 309.195 74.1724C309.028 73.7883 309.201 73.5238 309.416 73.2065C309.72 72.7637 310.141 72.8111 310.55 72.7982C311.375 72.7857 312.228 72.6935 313.016 72.8477C314.284 73.1038 314.746 72.4697 315.21 71.4545C315.665 70.4592 316.022 69.3953 316.83 68.58Z" fill="#F9BC15"/>
<path d="M320.108 84.3805C320.108 84.3805 320.027 84.4192 320 84.4321L319.952 84.4714L319.898 84.4972C319.334 84.8486 318.757 85.2064 318.2 85.5713C317.378 86.1121 316.841 86.8318 316.9 87.8628C316.959 88.8938 317.488 89.6186 318.396 90.0958C319 90.4206 319.648 90.2111 320.291 90.2357C319.211 91.5612 319.255 93.0467 320.395 94.0095C321.192 94.6721 322.437 94.774 323.38 94.2085C324.459 93.5785 325.545 92.9285 326.617 92.285C328.823 90.9188 331.011 89.5122 333.295 88.241C334.415 87.5582 335.536 86.842 336.669 86.1861C337.917 85.4587 337.957 84.1486 337.677 83.0736C337.467 82.2139 336.182 81.4693 335.201 81.5392C334.993 81.5557 334.765 81.5985 334.489 81.6473C334.8 81.1845 335.063 80.761 335.161 80.2344C335.416 78.8878 334.694 77.8253 333.438 77.2818C332.661 76.9406 332.084 77.2984 331.481 77.6023C330.79 77.9314 330.165 78.362 329.52 78.7521C328.231 79.5322 326.961 80.3195 325.672 81.0996C325.359 81.2815 325.067 81.4704 324.755 81.6522C324.484 81.8147 324.212 81.9772 323.941 82.1397C322.685 82.9204 321.442 83.7282 320.128 84.3875L320.108 84.3805Z" fill="#5B6A70"/>
<path d="M320.108 84.3805C321.436 83.7146 322.665 82.9134 323.921 82.1326C323.816 82.0505 323.71 81.9684 323.618 81.8799C322.798 80.9962 322.128 79.9747 321.22 79.1497C320.733 78.7199 320.443 78.1129 319.95 77.6696C319.495 77.2739 319.082 76.8253 318.648 76.4031C318.05 75.8109 317.664 75.035 316.909 74.5671C316.625 74.3883 316.253 73.8535 316.414 73.5286C316.917 72.5274 317.268 71.4166 318.037 70.5538C318.624 70.3567 319.225 70.434 319.815 70.451C320.405 70.4679 321.119 70.2596 321.584 70.5017C322.048 70.7439 322.066 71.5133 322.262 72.0651C322.326 72.2334 322.444 72.3759 322.494 72.5507C323.549 75.3913 324.597 78.2519 325.652 81.0926C326.941 80.3124 328.211 79.5252 329.5 78.745C329.514 78.7051 329.508 78.6916 329.468 78.6775C328.952 78.9896 328.41 79.2812 327.927 79.6272C327.492 79.934 327.288 79.7499 327.128 79.3459C326.632 78.0264 326.15 76.7005 325.667 75.3746C325.184 74.0821 324.728 72.7767 324.198 71.4901C323.974 70.9512 323.798 70.373 323.588 69.8276C323.48 69.5314 323.586 69.2658 323.726 69.0007C324.305 67.8804 324.891 66.7403 325.444 65.5995C325.857 64.7573 325.534 64.1164 324.698 64.035C324.35 64.0022 324.032 64.1371 323.899 64.4157C323.331 65.6632 322.358 66.7231 322.088 68.1095C322.012 68.5429 321.672 68.4567 321.411 68.4656C320.345 68.4604 319.266 68.4283 318.201 68.4232C317.731 68.4151 317.263 68.3735 316.823 68.5999C316.029 69.4088 315.658 70.4791 315.202 71.4744C314.739 72.4896 314.277 73.1237 313.009 72.8676C312.221 72.7134 311.368 72.8056 310.543 72.8181C310.127 72.8176 309.713 72.7836 309.409 73.2264C309.194 73.5437 309.021 73.8082 309.188 74.1924C309.367 74.6034 309.658 74.8292 310.107 74.8303C311.393 74.8459 312.679 74.895 313.96 74.8637C314.47 74.8525 314.781 75.0519 315.096 75.3984C317.147 77.6812 319.193 79.9505 321.258 82.2268C322.104 83.1644 322.111 83.1445 321.045 83.8015C320.726 84.0033 320.413 84.2186 320.094 84.4203L320.108 84.3805Z" fill="#EF6D63"/>
<path d="M319.082 38.2757C318.703 38.4564 318.523 38.7409 318.428 39.1004C317.997 40.8785 317.545 42.6497 317.114 44.4278C316.959 45.114 317.178 45.5392 317.724 45.7092C318.331 45.9003 318.777 45.6873 319.045 45.0299C319.236 44.5584 319.36 44.0522 319.471 43.5526C319.789 42.0934 320.28 40.6841 320.471 39.2027C320.527 38.7623 320.372 38.472 320.028 38.2387C319.684 38.0053 319.355 38.013 319.082 38.2757Z" fill="#CCCCCD"/>
<path d="M295.699 59.4519C296.051 59.2841 296.264 59.0337 296.199 58.6179C296.129 58.0884 295.841 57.7623 295.334 57.6398C294.2 57.3526 293.073 57.0789 291.945 56.8051C291.232 56.6322 290.518 56.4593 289.798 56.2729C289.231 56.1293 288.816 56.4431 288.533 56.8261C288.175 57.2947 288.554 58.0905 289.202 58.2288C291.118 58.6232 292.967 59.3309 294.925 59.6057C295.212 59.6508 295.46 59.6484 295.692 59.4719L295.699 59.4519Z" fill="#CCCCCD"/>
<path d="M331.741 50.9618C330.94 51.4428 330.126 51.9303 329.332 52.4247C328.755 52.7826 328.549 53.3608 328.821 53.827C329.119 54.3472 329.725 54.5048 330.336 54.1476C331.998 53.1733 333.647 52.172 335.276 51.1637C335.813 50.8253 335.913 50.1984 335.574 49.6976C335.288 49.2713 334.72 49.1611 334.218 49.4667C333.39 49.9606 332.569 50.468 331.741 50.9618Z" fill="#CCCCCD"/>
<path d="M295.356 75.3232C296.116 74.8616 296.89 74.3935 297.65 73.9319C298.342 73.5025 298.562 72.9178 298.224 72.3836C297.9 71.8763 297.291 71.7855 296.633 72.182C295.086 73.1182 293.539 74.0543 291.991 74.9905C291.32 75.3935 291.12 75.9518 291.425 76.4854C291.735 77.0326 292.357 77.1169 293.056 76.701C293.816 76.2394 294.59 75.7713 295.35 75.3097L295.356 75.3232Z" fill="#CCCCCD"/>
<path d="M301.334 45.0635C301.775 45.7801 302.223 46.5102 302.651 47.2332C302.806 47.4901 303.003 47.6941 303.242 47.8454C303.665 48.1069 304.056 48.0201 304.411 47.7186C304.772 47.3972 304.861 46.9907 304.615 46.5785C303.571 44.8415 302.52 43.0911 301.449 41.3671C301.118 40.8464 300.655 40.8851 300.173 41.1978C299.69 41.5104 299.526 42.0359 299.836 42.583C300.315 43.4139 300.822 44.232 301.314 45.0565L301.334 45.0635Z" fill="#CCCCCD"/>
<path d="M319.899 84.497L319.953 84.4713L320.007 84.4456C319.927 84.4174 319.867 84.3962 319.787 84.368C319.827 84.4155 319.859 84.4495 319.912 84.4906L319.899 84.497Z" fill="#CCCCCD"/>
<path d="M325.652 81.0927C324.61 78.2456 323.549 75.3914 322.494 72.5508C322.43 72.3825 322.312 72.24 322.262 72.0652C322.079 71.507 322.048 70.744 321.584 70.5018C321.119 70.2597 320.405 70.468 319.815 70.451C319.212 70.4406 318.624 70.3568 318.037 70.5539C320.281 74.2512 322.511 77.9549 324.749 81.6388C325.061 81.4569 325.353 81.268 325.665 81.0862L325.652 81.0927Z" fill="#FCCA36"/>
<path d="M324.735 81.6453C322.491 77.948 320.261 74.2443 318.023 70.5604C317.261 71.4367 316.917 72.5275 316.401 73.5351C316.24 73.86 316.605 74.3813 316.896 74.5737C317.65 75.0416 318.037 75.8174 318.635 76.4096C319.068 76.8318 319.495 77.274 319.936 77.6762C320.43 78.1195 320.719 78.7265 321.206 79.1563C322.122 79.9613 322.784 81.0028 323.604 81.8865C323.696 81.975 323.802 82.0571 323.907 82.1392C324.179 81.9767 324.45 81.8143 324.722 81.6518L324.735 81.6453Z" fill="#F9BC15"/>
<path d="M191.552 143.839C191.552 143.839 185.106 196.558 156.421 210.42C117.553 229.201 101.976 191.73 101.976 191.73L122.469 173.365C122.469 173.365 142.257 174.57 153.048 162.2C163.839 149.83 169.987 137.106 169.987 137.106L191.555 143.845L191.552 143.839Z" fill="#F48462"/>
<path d="M169.083 142.991C169.083 142.991 166.623 131.02 172.791 124.333C176.979 119.794 188.462 114.92 191.266 116.662C194.07 118.403 186.863 124.596 186.863 124.596C186.863 124.596 199.484 116.067 204.744 116.363C210.005 116.658 207.064 122.036 207.064 122.036C207.064 122.036 212.253 118.897 215.821 121.207C219.385 123.518 214.122 127.972 214.122 127.972C214.122 127.972 220.773 127.027 218.885 132.463C216.997 137.899 204.143 145.886 196.878 148.381C189.612 150.877 186.441 150.961 186.441 150.961L169.086 142.987L169.083 142.991Z" fill="#F48462"/>
<path d="M202.857 132.957C203.045 132.957 203.23 132.885 203.37 132.739C203.643 132.456 203.636 132.005 203.354 131.728C198.217 126.754 192.03 122.325 191.968 122.283C191.647 122.052 191.201 122.13 190.974 122.448C190.746 122.77 190.818 123.215 191.14 123.446C191.201 123.488 197.304 127.859 202.363 132.755C202.502 132.888 202.681 132.957 202.86 132.957H202.857Z" fill="black"/>
<path d="M178.279 138.506C178.341 138.506 178.402 138.497 178.467 138.48C185.723 136.495 187.494 125.181 187.565 124.7C187.624 124.31 187.354 123.946 186.964 123.888C186.574 123.823 186.21 124.099 186.152 124.489C186.136 124.596 184.443 135.361 178.087 137.103C177.707 137.207 177.483 137.6 177.587 137.98C177.674 138.299 177.96 138.506 178.276 138.506H178.279Z" fill="black"/>
<path d="M93.5728 110.81C93.5728 110.81 79.0387 105.52 69.9829 117.581C60.9239 129.642 61.9897 181.683 61.9897 181.683L101.361 183.818L99.0316 126.205L93.5728 110.81Z" fill="black"/>
<path d="M114.963 165.547L128.113 167.367C128.113 167.367 139.846 180.143 140.155 194.365C140.463 208.587 143.073 244.495 143.073 244.495C143.073 244.495 132.866 249.99 113.195 252.04C93.5208 254.087 69.9829 246.139 69.9829 246.139C69.9829 246.139 77.414 175.139 77.414 169.173C77.414 165.144 114.963 165.55 114.963 165.55V165.547Z" fill="#F5B400"/>
<path d="M408.985 239.852L409.453 255.981C409.453 255.981 383.212 258.587 356.473 257.567C337.195 256.833 322.43 254.045 322.43 254.045V201.244H393.528L408.982 239.852H408.985Z" fill="#3475B9"/>
<path d="M373.444 148.115C373.444 148.115 395.601 148.443 412.186 166.87C428.773 185.296 432.841 225.415 432.841 225.415L389.983 234.741L300.637 208.295C300.637 208.295 316.266 173.397 330.57 158.902C344.873 144.41 373.447 148.111 373.447 148.111L373.444 148.115Z" fill="#DEEBF7"/>
<path d="M377.337 135.209L376.807 150.86C376.807 150.86 373.499 155.322 363.232 155.946C355.583 156.41 352.957 154.837 352.957 154.837L354.29 146.922L355.599 139.202L374.214 135.784L377.337 135.205V135.209Z" fill="#F48462"/>
<path d="M374.214 135.826C374.159 136.303 373.964 136.862 373.668 137.506C369.555 146.172 358.793 147.819 354.377 148.115L355.619 139.485L374.214 135.826Z" fill="black"/>
<path d="M352.6 99.4663C352.6 99.4663 342.917 121.227 346.27 133.512C349.624 145.798 360.808 143.943 367.508 141.616C374.208 139.29 377.337 135.212 377.337 135.212C377.337 135.212 383.566 137.369 387.78 131.592C391.994 125.815 389.47 119.128 385.915 117.578C382.36 116.025 378.104 118.572 378.104 118.572L381.47 112.252C381.47 112.252 367.706 79.925 352.6 99.4663Z" fill="#F48462"/>
<path d="M353.266 125.158C353.338 125.158 353.406 125.149 353.477 125.126C353.854 125.009 354.066 124.609 353.949 124.232C352.75 120.356 355.655 117.763 355.778 117.653C356.074 117.393 356.106 116.944 355.849 116.645C355.59 116.346 355.141 116.317 354.845 116.571C354.693 116.704 351.106 119.865 352.584 124.652C352.678 124.957 352.961 125.155 353.266 125.155V125.158Z" fill="black"/>
<path d="M379.033 128.827C379.222 128.827 379.413 128.752 379.553 128.603L385.483 122.319C385.753 122.033 385.74 121.581 385.454 121.308C385.168 121.038 384.716 121.051 384.446 121.337L378.516 127.618C378.247 127.904 378.26 128.356 378.546 128.629C378.682 128.759 378.861 128.824 379.036 128.824L379.033 128.827Z" fill="black"/>
<path d="M385.311 127.144C385.658 127.144 385.964 126.89 386.016 126.536C386.074 126.146 385.808 125.782 385.418 125.724L381.317 125.103C380.934 125.048 380.563 125.311 380.505 125.701C380.446 126.091 380.713 126.455 381.103 126.513L385.203 127.134C385.239 127.141 385.275 127.144 385.311 127.144Z" fill="black"/>
<path d="M363.111 120.642C363.466 120.642 363.771 120.379 363.82 120.018L364.538 114.39C364.587 114 364.31 113.643 363.921 113.591C363.537 113.542 363.173 113.818 363.121 114.208L362.403 119.836C362.354 120.226 362.631 120.583 363.02 120.635C363.05 120.639 363.082 120.642 363.111 120.642Z" fill="black"/>
<path d="M351.021 119.579C351.369 119.579 351.674 119.323 351.726 118.969L352.538 113.445C352.597 113.055 352.324 112.691 351.934 112.636C351.55 112.574 351.18 112.847 351.122 113.237L350.309 118.761C350.251 119.151 350.524 119.514 350.914 119.57C350.949 119.576 350.985 119.576 351.018 119.576L351.021 119.579Z" fill="black"/>
<path d="M367.098 111.287C367.209 111.287 367.319 111.261 367.423 111.209C367.774 111.03 367.911 110.598 367.732 110.247C366.247 107.359 362.592 108.113 362.432 108.148C362.046 108.233 361.802 108.613 361.887 108.996C361.971 109.38 362.348 109.624 362.735 109.542C362.858 109.516 365.484 108.993 366.462 110.901C366.588 111.147 366.839 111.287 367.098 111.287Z" fill="black"/>
<path d="M349.322 110.078C349.51 110.078 349.695 110.007 349.835 109.861C349.907 109.783 351.668 108.009 353.884 108.808C354.254 108.944 354.663 108.749 354.8 108.379C354.933 108.009 354.741 107.599 354.371 107.466C351.265 106.342 348.902 108.772 348.805 108.876C348.532 109.162 348.545 109.614 348.828 109.887C348.964 110.017 349.143 110.085 349.322 110.085V110.078Z" fill="black"/>
<path d="M359.089 156.205C368.817 156.205 376.762 151.712 377.161 151.481C377.503 151.286 377.623 150.847 377.425 150.506C377.23 150.165 376.794 150.045 376.45 150.243C376.336 150.308 364.908 156.758 353.11 154.142C352.733 154.058 352.343 154.298 352.259 154.685C352.174 155.068 352.415 155.452 352.801 155.536C354.939 156.01 357.055 156.205 359.089 156.205Z" fill="#70A1D7"/>
<path d="M356.519 131.845C357.048 131.845 360.424 131.719 363.128 128.58C363.385 128.281 363.352 127.829 363.053 127.573C362.754 127.316 362.303 127.348 362.046 127.647C359.628 130.455 356.629 130.422 356.493 130.419C356.142 130.383 355.771 130.721 355.762 131.114C355.752 131.508 356.061 131.836 356.454 131.849C356.464 131.849 356.486 131.849 356.519 131.849V131.845Z" fill="black"/>
<path d="M384.836 117.627C381.311 117.068 378.107 118.572 377.967 119.358C377.486 122.085 374.374 123.011 374.218 119.927C373.938 114.481 378.107 113.341 378.107 113.341C378.107 113.341 371.703 112.675 366.062 106.829C360.424 100.98 358.969 98.524 358.969 98.524L350.855 103.82C350.855 103.82 341.92 85.829 364.479 87.0605C387.039 88.2887 387.338 108.061 387.338 108.061C387.338 108.061 393.59 109.734 393.18 113.344C392.771 116.954 388.986 120.782 388.986 120.782C388.986 120.782 388.329 118.182 384.836 117.627Z" fill="black"/>
<path d="M299.487 200.666C299.487 200.666 295.92 196.074 288.03 192.786C275.728 187.659 266.855 186.947 266.855 186.947L267.066 193.832L299.487 200.662V200.666Z" fill="#EC9483"/>
<path d="M341.952 190.742L342.274 201.169L289.626 203.97C289.626 203.97 291.419 198.105 306.204 194.401C319.344 191.109 341.949 190.739 341.949 190.739L341.952 190.742Z" fill="#EC9483"/>
<path d="M264.027 191.093L265.863 250.682L296.979 257.002L344.324 256.196L343.609 194.989L296.42 197.462L264.027 191.093Z" fill="#C3391D"/>
<path d="M297.892 197.267L299.75 257.567L295.01 257.171L293.151 196.776L297.892 197.267Z" fill="#A63019"/>
<path d="M260.258 229.019C260.258 229.019 249.633 231.943 253.737 236.401C257.838 240.859 277.779 240.193 278.958 234.026C280.134 227.859 260.262 229.019 260.262 229.019H260.258Z" fill="#F48462"/>
<path d="M260.041 219.905C260.041 219.905 249.416 222.829 253.52 227.287C257.62 231.745 277.561 231.079 278.741 224.912C279.917 218.745 260.044 219.905 260.044 219.905H260.041Z" fill="#F48462"/>
<path d="M265.25 211.476C262.767 211.057 260.2 211.177 257.854 212.087C255.791 212.886 254.091 214.251 255.544 216.503C258.449 221.009 275.936 223.433 277.893 218.234C279.338 214.387 270.14 212.301 265.25 211.473V211.476Z" fill="#F48462"/>
<path d="M274 221.5C274.373 221.5 274.689 221.208 274.711 220.831C274.737 220.437 274.438 220.096 274.042 220.074L260.083 219.19C259.706 219.157 259.349 219.466 259.326 219.859C259.3 220.252 259.599 220.593 259.995 220.616L273.954 221.5C273.954 221.5 273.987 221.5 274 221.5Z" fill="black"/>
<path d="M257.516 230.718L272.859 230.501C273.256 230.494 273.568 230.169 273.564 229.776C273.561 229.383 273.239 229.055 272.84 229.071L257.506 229.289C257.11 229.295 256.798 229.62 256.801 230.013C256.808 230.403 257.126 230.718 257.516 230.718Z" fill="black"/>
<path d="M358.965 244.914C358.965 244.914 381.207 251.874 413.183 245.684C446.137 239.306 435.909 193.784 420.553 175.048C405.196 156.313 388.761 151.016 388.761 151.016L391.884 208.295L358.962 216.204V244.911L358.965 244.914Z" fill="#DEEBF7"/>
<path d="M367.238 243.095C367.238 243.095 358.517 247.644 346.738 243.449C332.363 238.331 354.559 214.134 354.559 214.134L367.563 223.092L367.235 243.095H367.238Z" fill="#F48462"/>
<path d="M351.32 221.874C351.32 221.874 361.055 227.037 356.083 230.497C351.112 233.958 331.792 228.977 331.98 222.702C332.169 216.428 351.32 221.874 351.32 221.874Z" fill="#F48462"/>
<path d="M348.064 212.516C350.579 212.646 353.058 213.322 355.151 214.719C356.99 215.947 358.355 217.65 356.447 219.531C352.633 223.297 335.034 221.867 334.255 216.366C333.676 212.298 343.112 212.259 348.064 212.512V212.516Z" fill="#F48462"/>
<path d="M351.32 222.588C351.664 222.588 351.97 222.338 352.025 221.984C352.087 221.594 351.82 221.23 351.43 221.169L337.614 218.998C337.225 218.946 336.861 219.203 336.799 219.593C336.737 219.983 337.004 220.346 337.393 220.408L351.209 222.579C351.248 222.585 351.284 222.585 351.32 222.585V222.588Z" fill="black"/>
<path d="M367.566 223.807C367.985 223.794 368.294 223.463 368.281 223.069L367.972 214.368C371.585 213.305 392.898 207.148 406.983 205.637C407.376 205.595 407.659 205.244 407.617 204.851C407.575 204.457 407.217 204.168 406.831 204.217C391.341 205.877 367.274 213.084 367.033 213.156C366.721 213.25 366.513 213.539 366.526 213.864L366.855 223.118C366.868 223.505 367.186 223.807 367.569 223.807H367.566Z" fill="#70A1D7"/>
<path d="M388.765 209.01C388.869 209.01 388.973 208.987 389.074 208.938C390.367 208.321 401.752 202.765 402.854 198.199C403.068 197.309 402.899 196.471 402.363 195.769C401.83 195.07 401.106 194.726 400.264 194.774C395.949 195.025 388.937 206.612 388.151 207.931C387.988 208.201 388.024 208.545 388.238 208.779C388.375 208.928 388.57 209.01 388.765 209.01ZM400.417 196.198C400.745 196.198 400.995 196.334 401.226 196.636C401.502 197 401.58 197.39 401.463 197.868C400.81 200.578 394.74 204.344 390.727 206.495C393.697 201.92 398.045 196.334 400.345 196.201C400.368 196.201 400.394 196.201 400.417 196.201V196.198Z" fill="#70A1D7"/>
<path d="M153.1 159.175L162.939 209.351C162.939 209.351 128.474 227.82 114.528 216.035C100.582 204.249 116.555 166.476 116.555 166.476L117.514 165.901C121.582 166.135 127.791 165.596 133.123 164.79C136.545 164.273 139.914 163.451 143.206 162.382L153.097 159.175H153.1Z" fill="#F5B400"/>
<path d="M96.0784 150.717L95.5292 167.506C95.5292 167.506 98.3983 172.432 108.195 173.55C115.493 174.382 117.933 170.701 117.933 170.701L116.64 155.949L99.0287 151.468L96.0751 150.714L96.0784 150.717Z" fill="#F48462"/>
<path d="M99.0349 151.471C99.0641 151.933 99.2201 152.478 99.4703 153.109C102.954 161.619 113.166 163.763 117.38 164.28L116.646 155.955L99.0349 151.474V151.471Z" fill="black"/>
<path d="M121.637 117.802C121.637 117.802 129.764 139.14 125.907 150.724C122.053 162.308 111.444 159.945 105.15 157.365C98.8595 154.789 96.0782 150.721 96.0782 150.721C96.0782 150.721 90.002 152.459 86.2718 146.708C82.5416 140.956 85.31 134.689 88.7932 133.392C92.2765 132.092 96.2179 134.754 96.2179 134.754L93.3292 128.528C93.3292 128.528 108.201 98.3062 121.637 117.805V117.802Z" fill="#F48462"/>
<path d="M113.082 149.886C114.713 149.886 116.279 148.885 116.367 148.83C116.588 148.687 116.715 148.43 116.689 148.163C116.666 147.9 116.497 147.67 116.25 147.569L110.694 145.281C110.46 145.187 110.196 145.22 109.995 145.369C109.794 145.519 109.686 145.765 109.712 146.012C109.898 147.842 110.564 149.047 111.691 149.587C112.14 149.801 112.614 149.886 113.088 149.886H113.082ZM114.196 148.267C113.556 148.469 112.845 148.56 112.302 148.297C111.893 148.098 111.587 147.702 111.382 147.107L114.2 148.267H114.196Z" fill="black"/>
<path d="M95.1032 143.705C95.2949 143.705 95.4899 143.627 95.6296 143.475C95.896 143.182 95.8765 142.734 95.5841 142.467L89.1472 136.576C88.8548 136.31 88.4064 136.33 88.14 136.622C87.8735 136.914 87.893 137.363 88.1855 137.629L94.6223 143.52C94.7588 143.647 94.931 143.709 95.1032 143.709V143.705Z" fill="black"/>
<path d="M88.3482 143.316C88.4425 143.316 88.5367 143.296 88.6277 143.257L92.9557 141.424C93.3196 141.272 93.4886 140.853 93.3359 140.489C93.1799 140.125 92.7575 139.956 92.4001 140.108L88.0721 141.941C87.7081 142.094 87.5392 142.513 87.6919 142.877C87.8088 143.15 88.072 143.312 88.3482 143.312V143.316Z" fill="black"/>
<path d="M96.2179 134.754C96.2179 134.754 103.594 134.38 108.523 128.57C113.452 122.76 115.928 116.694 115.928 116.694C115.928 116.694 119.005 117.363 120.87 119.934C122.241 121.821 123.827 124.548 123.827 124.548C123.827 124.548 124.412 116.093 120.357 111.732C116.302 107.369 112.578 108.629 112.578 108.629C112.578 108.629 103.493 102.855 93.5762 110.813C83.6593 118.77 87.37 134.243 87.37 134.243C87.37 134.243 92.2797 132.564 96.2179 134.754Z" fill="black"/>
<path d="M120.181 143.497C120.487 143.497 120.77 143.299 120.864 142.994C122.345 138.208 118.758 135.046 118.602 134.913C118.303 134.656 117.852 134.689 117.595 134.988C117.338 135.286 117.371 135.735 117.666 135.995C117.79 136.102 120.698 138.695 119.496 142.575C119.379 142.952 119.59 143.351 119.967 143.468C120.038 143.491 120.107 143.501 120.178 143.501L120.181 143.497Z" fill="black"/>
<path d="M123.782 136.167C123.817 136.167 123.853 136.167 123.886 136.161C124.276 136.102 124.545 135.741 124.49 135.351L123.726 130.169L124.6 129.236C124.87 128.947 124.854 128.495 124.568 128.226C124.279 127.956 123.827 127.969 123.561 128.258L122.449 129.444C122.3 129.603 122.232 129.821 122.264 130.036L123.077 135.559C123.129 135.914 123.434 136.17 123.782 136.17V136.167Z" fill="black"/>
<path d="M111.691 137.23C111.72 137.23 111.753 137.23 111.782 137.223C112.175 137.174 112.451 136.817 112.399 136.424L111.72 131.098L112.822 129.72C113.069 129.412 113.017 128.963 112.711 128.716C112.406 128.469 111.954 128.518 111.707 128.827L110.417 130.439C110.297 130.591 110.242 130.783 110.268 130.975L110.986 136.602C111.031 136.963 111.34 137.226 111.694 137.226L111.691 137.23Z" fill="black"/>
<path d="M124.081 126.156C124.409 126.156 124.704 125.929 124.776 125.591C124.86 125.204 124.613 124.824 124.23 124.743L120.656 123.972C120.269 123.888 119.889 124.135 119.808 124.518C119.723 124.905 119.97 125.285 120.354 125.366L123.928 126.136C123.98 126.146 124.029 126.153 124.081 126.153V126.156Z" fill="black"/>
<path d="M108.204 126.92C108.256 126.92 108.308 126.913 108.36 126.903L115.207 125.37C115.59 125.282 115.834 124.902 115.746 124.515C115.658 124.132 115.272 123.888 114.895 123.976L108.048 125.509C107.665 125.597 107.421 125.977 107.506 126.364C107.581 126.695 107.876 126.923 108.201 126.923L108.204 126.92Z" fill="black"/>
<path d="M106.732 257.444C106.732 257.444 57.2034 261.024 44.1478 251.088C20.7984 233.318 49.5156 199.863 49.5156 199.863L67.3867 219.372L103.893 236.021L106.732 257.444Z" fill="#F48462"/>
<path d="M79.3671 167.75C79.3671 167.75 63.764 171.497 52.9796 185.699C44.7946 196.48 38.296 207.856 38.296 207.856L75.7733 222.692L84.4912 214.995L79.3671 167.75Z" fill="#F5B400"/>
<path d="M100.403 181.092C103.857 181.092 108.338 176.51 109.806 174.899C111.931 176.387 117.89 180.354 120.178 179.626C120.665 179.47 121.02 179.123 121.182 178.645C122.167 175.73 118.901 170.85 118.527 170.301C118.404 170.122 118.206 170.008 117.988 169.992C117.774 169.969 117.562 170.06 117.413 170.22C117.26 170.385 113.787 173.979 106.664 172.614C99.402 171.227 96.13 167.113 96.0975 167.071C95.9058 166.824 95.5711 166.73 95.2787 166.844C94.9862 166.957 94.801 167.246 94.8205 167.558C94.9732 169.748 95.935 180.686 100.055 181.075C100.172 181.085 100.289 181.092 100.406 181.092H100.403ZM108.416 174.294C106.433 176.39 102.567 179.87 100.188 179.656C98.307 179.477 96.965 174.076 96.4257 169.42C98.125 170.889 101.352 173.053 106.394 174.018C107.1 174.151 107.775 174.242 108.419 174.294H108.416ZM117.787 171.792C118.813 173.462 120.379 176.549 119.824 178.184C119.811 178.226 119.804 178.242 119.736 178.262C118.557 178.642 114.527 176.37 111.405 174.262C114.667 173.914 116.782 172.585 117.787 171.789V171.792Z" fill="#F5D5AB"/>
<path d="M141.299 218.585C141.734 218.563 142.036 218.225 142.013 217.832L141.497 208.915C141.474 208.522 141.126 208.207 140.743 208.243C140.35 208.266 140.048 208.604 140.07 208.997L140.587 217.913C140.61 218.293 140.925 218.585 141.299 218.585Z" fill="#F5D5AB"/>
<path d="M75.7731 223.404C75.7991 223.404 75.8283 223.404 75.8543 223.401C76.1793 223.362 76.4392 223.108 76.4815 222.783C76.7869 220.444 78.1873 208.649 75.5781 206.284C75.1005 205.848 74.5156 205.695 73.8723 205.845C73.2484 205.988 72.7448 206.388 72.4133 207.002C70.532 210.508 74.6294 221.679 75.1005 222.943C75.2077 223.222 75.4742 223.404 75.7699 223.404H75.7731ZM74.3337 207.216C74.4409 207.216 74.5254 207.255 74.6196 207.34C75.9161 208.516 75.8413 214.481 75.4092 219.43C74.1192 215.382 72.6473 209.595 73.6773 207.674C73.8528 207.349 74.0477 207.268 74.1972 207.236C74.2492 207.223 74.2947 207.216 74.3369 207.216H74.3337Z" fill="#F5D5AB"/>
<path d="M225.231 251.894H135.817C133.832 251.894 132.581 249.753 133.555 248.024L164.157 193.647C164.619 192.828 165.483 192.325 166.419 192.325H255.833C257.818 192.325 259.069 194.466 258.094 196.194L227.492 250.571C227.031 251.387 226.167 251.894 225.231 251.894Z" fill="#A38552"/>
<path d="M225.955 200.159H256.265C256.658 200.159 256.98 199.84 256.98 199.444C256.98 199.047 256.661 198.729 256.265 198.729H225.955C225.562 198.729 225.241 199.047 225.241 199.444C225.241 199.84 225.559 200.159 225.955 200.159Z" fill="white"/>
</g>
</svg>
