<svg width="500" height="250" viewBox="0 0 500 250" fill="none" xmlns="http://www.w3.org/2000/svg">
<rect x="0.0192108" y="217" width="499.981" height="33" fill="#FEF9EC"/>
<path d="M251.662 166.89C251.662 167.894 250.857 168.71 249.867 168.71C248.878 168.71 248.073 167.894 248.073 166.89V52.2736C248.073 51.2695 248.878 50.4531 249.867 50.4531C250.857 50.4531 251.662 51.2695 251.662 52.2736V166.89Z" fill="#CB8C3D"/>
<path d="M251.411 125.166C250.711 125.876 249.577 125.876 248.877 125.166C248.178 124.456 248.178 123.304 248.877 122.594L284.257 86.6829C284.957 85.9727 286.091 85.9727 286.791 86.6829C287.491 87.3931 287.491 88.5442 286.791 89.2544L251.411 125.166Z" fill="#CB8C3D"/>
<path d="M251.781 88.4054C251.395 88.7891 250.775 88.7891 250.397 88.4054C250.011 88.0136 250.011 87.385 250.397 87.0013L269.756 67.3517C270.142 66.968 270.762 66.968 271.14 67.3517C271.526 67.7435 271.526 68.3721 271.14 68.7558L251.781 88.4054Z" fill="#CB8C3D"/>
<path d="M251.139 93.1157C251.839 93.826 251.839 94.977 251.139 95.6872C250.44 96.3975 249.306 96.3975 248.606 95.6872L213.226 59.7759C212.526 59.0657 212.526 57.9146 213.226 57.2044C213.925 56.4941 215.059 56.4941 215.759 57.2044L251.139 93.1157Z" fill="#CB8C3D"/>
<path d="M227.099 70.6497C226.882 70.8701 226.528 70.8701 226.319 70.6497C226.101 70.4293 226.101 70.0783 226.319 69.8578L237.267 58.7473C237.484 58.5269 237.83 58.5269 238.047 58.7473C238.264 58.9677 238.264 59.3269 238.047 59.5391L227.099 70.6497Z" fill="#285A8F"/>
<path d="M271.326 99.6139C271.543 99.8343 271.543 100.193 271.326 100.406C271.109 100.626 270.755 100.626 270.546 100.406L259.598 89.2952C259.381 89.0748 259.381 88.7156 259.598 88.5033C259.815 88.2829 260.169 88.2829 260.378 88.5033L271.326 99.6139Z" fill="#CB8C3D"/>
<path d="M210.443 77.4009C210.17 77.2295 209.446 76.7723 208.754 76.0213C207.95 75.1478 207.548 74.3396 207.483 74.1845C207.298 73.7926 207.145 73.4498 207.001 72.9763C206.832 72.4212 206.824 72.3395 206.703 71.5885C206.614 71.0252 206.631 70.0211 206.743 69.4006C206.848 68.7884 207.009 68.0537 207.507 67.0659C207.998 66.0944 208.649 65.425 208.867 65.1964C209.462 64.5842 210.789 63.4739 212.977 62.976C214.119 62.7147 217.095 62.2984 219.967 64.029C219.388 63.6698 218.64 63.6209 217.787 63.9474C217.691 63.9801 217.602 64.029 217.514 64.078C216.259 63.3107 214.175 63.2862 212.864 64.029C211.553 64.7719 211.513 65.9965 212.768 66.7638C214.023 67.5312 216.106 67.5557 217.417 66.8128C218.728 66.0699 218.768 64.8454 217.514 64.078C217.602 64.029 217.699 63.9801 217.787 63.9474C218.64 63.6209 219.38 63.678 219.967 64.029C220.232 64.2005 220.586 64.4372 220.836 64.6413C221.085 64.8454 221.399 65.1311 221.616 65.3679C222.436 66.2658 222.806 67.0332 222.895 67.2455C222.999 67.4822 223.144 67.7843 223.217 68.0292C223.337 68.4047 223.498 68.9272 223.554 69.3517C223.627 69.9313 223.667 70.2007 223.659 70.715C223.659 71.0334 223.627 71.5313 223.522 72.1109C223.329 73.1232 222.959 73.9314 222.75 74.3233C222.259 75.2457 221.745 75.8253 221.342 76.2335C220.731 76.8458 219.396 77.956 217.272 78.4377C216.138 78.6989 214.891 78.7397 213.757 78.5683C212.213 78.3315 211.119 77.8009 210.467 77.3927L210.443 77.4009Z" fill="#DD4919"/>
<path d="M222.91 73.9478C222.299 74.56 220.964 75.6703 218.84 76.1519C217.706 76.4131 216.459 76.454 215.325 76.2825C213.781 76.0458 212.687 75.5152 212.035 75.107C211.762 74.9356 211.038 74.4866 210.346 73.7273C209.542 72.8539 209.14 72.0457 209.075 71.8906C208.89 71.4987 208.737 71.1558 208.593 70.6824C208.424 70.1272 208.416 70.0456 208.295 69.2945C208.207 68.7313 208.223 67.7272 208.335 67.1067C208.432 66.5761 208.56 65.9475 208.922 65.1393C208.906 65.1556 208.882 65.1801 208.866 65.1965C208.649 65.4169 207.997 66.0944 207.507 67.0659C207.008 68.0537 206.855 68.7884 206.743 69.4007C206.638 70.0211 206.622 71.017 206.702 71.5885C206.823 72.3395 206.831 72.4212 207 72.9763C207.137 73.4416 207.298 73.7845 207.483 74.1845C207.555 74.3396 207.949 75.1478 208.754 76.0213C209.445 76.7723 210.169 77.2295 210.443 77.4009C211.086 77.8091 212.188 78.3397 213.733 78.5765C214.867 78.7479 216.113 78.7071 217.248 78.4459C219.371 77.9642 220.714 76.854 221.318 76.2417C221.72 75.8335 222.243 75.2539 222.725 74.3314C222.782 74.2253 222.846 74.0947 222.918 73.9396C222.918 73.9396 222.918 73.9396 222.91 73.9478Z" fill="#B72B06"/>
<path d="M217.498 64.0862C216.678 64.5516 215.962 65.6046 215.125 66.0863C215.954 65.6046 216.67 64.5597 217.498 64.0862C218.753 64.8536 218.713 66.0781 217.402 66.821C216.09 67.5639 214.007 67.5394 212.752 66.772C211.497 66.0047 211.537 64.7801 212.848 64.0372C214.159 63.2944 216.243 63.3189 217.498 64.0862Z" fill="#B72B06"/>
<path d="M223.039 58.886C223.039 58.886 222.516 61.8004 220.489 63.0494C218.462 64.2903 215.686 63.4086 215.686 63.4086C215.686 63.4086 216.209 60.5024 218.236 59.2452C220.264 58.0044 223.031 58.886 223.031 58.886H223.039Z" fill="#34302C"/>
<path d="M215.568 65.3189C215.39 65.4087 215.213 65.4985 215.035 65.5965C214.745 63.9148 214.697 62.0943 214.906 60.3147C215.173 60.4535 215.431 60.5923 215.697 60.731C215.447 62.1842 215.39 63.776 215.568 65.3189Z" fill="#DD4919"/>
<path d="M213.122 69.0333C212.832 69.2374 212.751 69.6456 212.953 69.9476C213.154 70.2497 213.557 70.315 213.855 70.1191C214.153 69.915 214.225 69.5068 214.024 69.2048C213.815 68.9027 213.42 68.8292 213.122 69.0333Z" fill="white"/>
<path d="M215.18 70.0129C215.574 72.0375 216.645 71.8171 217.972 71.5477C219.3 71.2783 220.145 69.8415 219.992 69.0333C219.839 68.2251 218.737 68.3476 217.417 68.6251C216.081 68.8945 215.027 69.2048 215.18 70.0129Z" fill="white"/>
<path d="M281.327 98.6915C281.086 98.5445 280.459 98.1445 279.847 97.4833C279.139 96.7159 278.794 96.0057 278.729 95.875C278.568 95.5322 278.432 95.2301 278.311 94.8219C278.166 94.3403 278.158 94.2668 278.054 93.6056C277.973 93.1076 277.989 92.2341 278.086 91.6953C278.182 91.1565 278.319 90.5116 278.753 89.6463C279.18 88.7973 279.751 88.2095 279.944 88.0136C280.467 87.4748 281.625 86.5033 283.539 86.0706C284.537 85.8421 287.143 85.4747 289.661 86.9931C289.154 86.6829 288.494 86.6339 287.754 86.9197C287.674 86.9523 287.593 86.9931 287.513 87.0339C286.411 86.3645 284.593 86.34 283.443 86.9931C282.293 87.6462 282.26 88.7156 283.362 89.385C284.464 90.0544 286.282 90.0789 287.432 89.4259C288.583 88.7809 288.615 87.7034 287.521 87.0339C287.601 86.9931 287.682 86.9523 287.762 86.9197C288.502 86.6339 289.162 86.6829 289.669 86.9931C289.902 87.1482 290.207 87.3523 290.425 87.5238C290.642 87.7034 290.915 87.9483 291.108 88.1605C291.824 88.9524 292.146 89.6136 292.226 89.8014C292.315 90.0055 292.444 90.2749 292.508 90.4871C292.613 90.8218 292.757 91.2708 292.798 91.6463C292.862 92.1525 292.894 92.3892 292.886 92.8382C292.886 93.1158 292.854 93.5566 292.765 94.0546C292.596 94.9444 292.267 95.6465 292.09 95.9893C291.663 96.7975 291.205 97.3037 290.859 97.6547C290.328 98.1935 289.154 99.1568 287.296 99.5813C286.306 99.8099 285.212 99.8507 284.223 99.6956C282.872 99.4915 281.914 99.018 281.343 98.667L281.327 98.6915Z" fill="#DD4919"/>
<path d="M292.235 95.671C291.704 96.2098 290.529 97.173 288.671 97.5976C287.682 97.8261 286.588 97.8669 285.598 97.7118C284.247 97.5078 283.29 97.0343 282.719 96.6832C282.478 96.5363 281.85 96.1363 281.239 95.475C280.531 94.7077 280.185 93.9974 280.121 93.8668C279.96 93.524 279.823 93.2219 279.703 92.8137C279.558 92.3239 279.55 92.2586 279.445 91.5974C279.373 91.0994 279.381 90.2259 279.477 89.6871C279.558 89.2218 279.67 88.6748 279.992 87.9646C279.976 87.9809 279.952 87.9973 279.944 88.0136C279.759 88.2095 279.18 88.7973 278.753 89.6463C278.319 90.5116 278.182 91.1565 278.086 91.6953C277.989 92.2341 277.973 93.1076 278.054 93.6056C278.158 94.2668 278.166 94.3321 278.311 94.822C278.432 95.2301 278.576 95.5322 278.729 95.875C278.794 96.0057 279.139 96.7159 279.847 97.4833C280.451 98.1445 281.086 98.5364 281.327 98.6915C281.89 99.0425 282.856 99.516 284.207 99.7201C285.196 99.8752 286.29 99.8344 287.28 99.6058C289.138 99.1813 290.312 98.218 290.843 97.6792C291.197 97.3282 291.647 96.8139 292.074 96.0138C292.122 95.924 292.178 95.8097 292.243 95.671C292.243 95.671 292.243 95.671 292.235 95.6791V95.671Z" fill="#B72B06"/>
<path d="M287.506 87.034C288.608 87.7034 288.567 88.781 287.417 89.4259C286.267 90.079 284.448 90.0545 283.346 89.3851C282.244 88.7157 282.284 87.6462 283.427 86.9932C284.577 86.3401 286.395 86.3646 287.497 87.034H287.506Z" fill="#B72B06"/>
<path d="M292.355 82.4869C292.355 82.4869 291.905 85.0339 290.127 86.1278C288.349 87.2135 285.927 86.438 285.927 86.438C285.927 86.438 286.386 83.891 288.164 82.7971C289.942 81.7113 292.363 82.4869 292.363 82.4869H292.355Z" fill="#34302C"/>
<path d="M285.817 88.1115C285.663 88.1932 285.51 88.2666 285.357 88.3483C285.107 86.8788 285.058 85.2788 285.244 83.7277C285.478 83.8502 285.704 83.9726 285.938 84.0869C285.712 85.3604 285.671 86.7482 285.825 88.1034L285.817 88.1115Z" fill="#DD4919"/>
<path d="M283.676 91.3606C283.418 91.5402 283.353 91.8994 283.531 92.1606C283.708 92.4218 284.063 92.4872 284.321 92.3076C284.579 92.128 284.643 91.7688 284.474 91.5075C284.296 91.2463 283.942 91.181 283.684 91.3606H283.676Z" fill="white"/>
<path d="M285.469 92.2259C285.815 93.9974 286.749 93.8096 287.915 93.5729C289.074 93.3362 289.814 92.079 289.686 91.3769C289.549 90.6667 288.591 90.781 287.433 91.0177C286.266 91.2545 285.341 91.5239 285.477 92.2341L285.469 92.2259Z" fill="white"/>
<path d="M256.1 98.022C255.907 97.8995 255.392 97.5811 254.901 97.0505C254.33 96.4301 254.049 95.8586 254 95.7444C253.872 95.4668 253.759 95.2219 253.663 94.8872C253.542 94.4953 253.534 94.4382 253.453 93.9076C253.389 93.5075 253.405 92.7973 253.478 92.3647C253.55 91.932 253.663 91.4095 254.017 90.7075C254.362 90.0217 254.829 89.5401 254.974 89.385C255.4 88.9523 256.333 88.1686 257.886 87.8094C258.698 87.6216 260.798 87.3278 262.833 88.5523C262.423 88.2992 261.892 88.2666 261.288 88.4951C261.224 88.5196 261.16 88.5523 261.095 88.5849C260.203 88.038 258.73 88.0298 257.805 88.5523C256.88 89.0748 256.848 89.9401 257.741 90.487C258.634 91.034 260.106 91.0422 261.031 90.5197C261.956 89.9972 261.988 89.1237 261.095 88.5849C261.16 88.5523 261.224 88.5196 261.288 88.4951C261.892 88.2666 262.415 88.2992 262.833 88.5523C263.018 88.6747 263.267 88.8462 263.444 88.985C263.621 89.1237 263.847 89.3278 263.999 89.4992C264.579 90.136 264.844 90.6748 264.908 90.8299C264.981 90.9932 265.085 91.2136 265.142 91.385C265.222 91.6544 265.343 92.0218 265.383 92.3238C265.439 92.7402 265.455 92.9279 265.455 93.2953C265.455 93.5239 265.431 93.8749 265.359 94.2831C265.222 95.0015 264.957 95.5729 264.812 95.8505C264.466 96.5036 264.096 96.9117 263.814 97.1975C263.38 97.6301 262.439 98.4138 260.927 98.7567C260.122 98.9363 259.237 98.969 258.441 98.8465C257.347 98.6751 256.567 98.2995 256.116 98.0138L256.1 98.022Z" fill="#DD4919"/>
<path d="M264.933 95.573C264.498 96.0056 263.557 96.7893 262.045 97.1322C261.24 97.3118 260.356 97.3444 259.551 97.222C258.457 97.0506 257.685 96.675 257.226 96.3893C257.033 96.2669 256.519 95.9485 256.028 95.4178C255.457 94.7974 255.175 94.226 255.127 94.1117C254.998 93.8341 254.886 93.5892 254.781 93.2627C254.66 92.8708 254.652 92.8137 254.572 92.2831C254.507 91.883 254.524 91.1728 254.596 90.7401C254.66 90.3646 254.757 89.9156 255.014 89.3442C254.998 89.3605 254.982 89.3687 254.974 89.385C254.821 89.5401 254.355 90.0218 254.017 90.7075C253.663 91.4096 253.55 91.932 253.478 92.3647C253.397 92.7974 253.389 93.5076 253.454 93.9076C253.534 94.4382 253.542 94.4954 253.663 94.8872C253.759 95.2219 253.872 95.4587 254.001 95.7444C254.049 95.8505 254.331 96.4301 254.902 97.0506C255.392 97.5812 255.907 97.9077 256.1 98.022C256.559 98.3077 257.331 98.6833 258.425 98.8547C259.229 98.9771 260.114 98.9445 260.911 98.7649C262.415 98.422 263.364 97.6383 263.799 97.2057C264.08 96.9199 264.45 96.5036 264.796 95.8587C264.836 95.7852 264.884 95.6873 264.933 95.5811V95.573Z" fill="#B72B06"/>
<path d="M261.105 88.5931C260.525 88.9196 260.01 89.6625 259.423 90.0054C260.01 89.6625 260.517 88.9196 261.105 88.5931C261.998 89.1401 261.965 90.0054 261.04 90.5279C260.115 91.0503 258.634 91.034 257.749 90.4952C256.856 89.9482 256.888 89.0829 257.814 88.5604C258.739 88.038 260.219 88.0543 261.105 88.5931Z" fill="#B72B06"/>
<path d="M265.021 84.9113C265.021 84.9113 264.651 86.9685 263.218 87.8584C261.778 88.74 259.823 88.1114 259.823 88.1114C259.823 88.1114 260.193 86.0542 261.633 85.1644C263.074 84.2827 265.029 84.9113 265.029 84.9113H265.021Z" fill="#34302C"/>
<path d="M259.73 89.4666C259.608 89.5319 259.479 89.5972 259.35 89.6625C259.147 88.4707 259.107 87.1808 259.253 85.9236C259.439 86.0216 259.625 86.1196 259.811 86.2175C259.633 87.2461 259.592 88.3727 259.722 89.4666H259.73Z" fill="#DD4919"/>
<path d="M257.998 92.0952C257.789 92.2422 257.74 92.5279 257.877 92.7401C258.023 92.9524 258.305 93.0014 258.515 92.8626C258.724 92.7157 258.781 92.4299 258.636 92.2177C258.491 92.0054 258.208 91.9483 257.99 92.0952H257.998Z" fill="white"/>
<path d="M259.453 92.7891C259.735 94.2177 260.492 94.0708 261.433 93.8749C262.375 93.6871 262.97 92.6667 262.866 92.0952C262.753 91.5238 261.981 91.6136 261.039 91.8014C260.097 91.9891 259.349 92.2095 259.453 92.781V92.7891Z" fill="white"/>
<path d="M266.33 79.4499C266.088 79.303 265.453 78.903 264.842 78.2335C264.134 77.4662 263.78 76.7478 263.716 76.609C263.555 76.258 263.418 75.9559 263.289 75.5477C263.144 75.0579 263.128 74.9926 263.032 74.3232C262.951 73.8252 262.968 72.9436 263.064 72.3966C263.161 71.8578 263.297 71.2047 263.732 70.3394C264.166 69.4822 264.737 68.8945 264.93 68.6985C265.453 68.1598 266.627 67.1801 268.55 66.7393C269.555 66.5107 272.177 66.1434 274.711 67.6699C274.196 67.3597 273.545 67.3107 272.789 67.5965C272.708 67.6291 272.628 67.6699 272.547 67.7108C271.437 67.0332 269.604 67.0169 268.453 67.6699C267.295 68.323 267.263 69.4006 268.365 70.0782C269.475 70.7558 271.309 70.7721 272.459 70.119C273.609 69.4659 273.649 68.3883 272.547 67.7108C272.628 67.6618 272.708 67.6291 272.789 67.5965C273.537 67.3107 274.196 67.3597 274.711 67.6699C274.944 67.8251 275.258 68.0291 275.475 68.2087C275.693 68.3883 275.974 68.6414 276.159 68.8455C276.883 69.6374 277.205 70.3068 277.285 70.4945C277.374 70.6986 277.502 70.968 277.575 71.1884C277.679 71.5231 277.824 71.9803 277.872 72.3558C277.937 72.8701 277.969 73.1068 277.961 73.5558C277.961 73.8334 277.929 74.2742 277.84 74.7804C277.671 75.6784 277.342 76.3886 277.156 76.7314C276.73 77.5396 276.272 78.0539 275.918 78.4131C275.379 78.9519 274.204 79.9316 272.33 80.3561C271.333 80.5846 270.231 80.6255 269.234 80.4703C267.874 80.2581 266.909 79.7928 266.338 79.4336L266.33 79.4499Z" fill="#DD4919"/>
<path d="M277.317 76.405C276.786 76.9438 275.604 77.9234 273.73 78.3479C272.732 78.5765 271.63 78.6173 270.633 78.4622C269.274 78.2499 268.308 77.7846 267.737 77.4254C267.496 77.2785 266.86 76.8785 266.249 76.2091C265.541 75.4417 265.187 74.7233 265.131 74.5927C264.97 74.2416 264.833 73.9396 264.705 73.5314C264.56 73.0416 264.544 72.9681 264.447 72.3069C264.367 71.8089 264.383 70.9272 264.48 70.3803C264.56 69.9068 264.681 69.3599 264.994 68.6496C264.978 68.666 264.954 68.6823 264.946 68.6986C264.753 68.8945 264.182 69.4905 263.748 70.3395C263.305 71.213 263.168 71.8579 263.08 72.3967C262.983 72.9436 262.967 73.8171 263.048 74.3233C263.152 74.9845 263.16 75.058 263.305 75.5478C263.426 75.9641 263.571 76.258 263.731 76.6091C263.796 76.7478 264.142 77.4581 264.858 78.2336C265.469 78.8949 266.104 79.2949 266.346 79.45C266.917 79.8092 267.882 80.2745 269.241 80.4867C270.239 80.6419 271.341 80.601 272.338 80.3725C274.212 79.948 275.395 78.9683 275.926 78.4295C276.28 78.0703 276.738 77.5642 277.164 76.7478C277.213 76.658 277.269 76.5356 277.333 76.3968C277.333 76.3968 277.333 76.3968 277.325 76.405H277.317Z" fill="#B72B06"/>
<path d="M272.547 67.7189C273.657 68.3965 273.617 69.4741 272.459 70.1272C271.3 70.7802 269.474 70.7639 268.364 70.0863C267.254 69.4088 267.294 68.3312 268.452 67.6781C269.603 67.025 271.437 67.0413 272.547 67.7189Z" fill="#B72B06"/>
<path d="M277.438 63.1393C277.438 63.1393 276.98 65.7026 275.194 66.8047C273.408 67.8986 270.962 67.1231 270.962 67.1231C270.962 67.1231 271.42 64.5597 273.214 63.4576C275 62.3637 277.438 63.1393 277.438 63.1393Z" fill="#34302C"/>
<path d="M270.851 68.8047C270.698 68.8863 270.545 68.9679 270.383 69.0496C270.133 67.572 270.085 65.9638 270.27 64.3964C270.504 64.5188 270.73 64.6413 270.964 64.7637C270.738 66.0454 270.698 67.4414 270.851 68.8047Z" fill="#DD4919"/>
<path d="M268.694 72.3231C268.436 72.5027 268.371 72.8619 268.549 73.1313C268.726 73.3926 269.081 73.4579 269.338 73.2783C269.596 73.0987 269.669 72.7395 269.492 72.4701C269.306 72.2089 268.96 72.1354 268.694 72.3231Z" fill="white"/>
<path d="M270.504 73.1884C270.85 74.9681 271.791 74.7803 272.966 74.5436C274.133 74.3068 274.881 73.0415 274.744 72.3313C274.608 71.621 273.642 71.7272 272.475 71.9721C271.3 72.2088 270.367 72.4782 270.504 73.1966V73.1884Z" fill="white"/>
<path d="M235.495 69.3517C235.334 69.2538 234.924 68.9925 234.522 68.5599C234.055 68.0537 233.83 67.5884 233.79 67.4986C233.685 67.27 233.597 67.0741 233.508 66.8047C233.412 66.4863 233.404 66.4374 233.34 66.0047C233.291 65.6781 233.299 65.0985 233.364 64.7475C233.428 64.3965 233.516 63.972 233.806 63.4005C234.088 62.8454 234.466 62.4536 234.586 62.3229C234.932 61.9719 235.696 61.327 236.951 61.0413C237.611 60.8943 239.324 60.6494 240.981 61.6454C240.644 61.4413 240.217 61.4086 239.727 61.5964C239.67 61.6209 239.622 61.6454 239.566 61.6699C238.842 61.229 237.643 61.2127 236.887 61.6454C236.131 62.0699 236.107 62.7801 236.831 63.2209C237.555 63.6617 238.753 63.6781 239.509 63.2454C240.266 62.8209 240.29 62.1107 239.566 61.6699C239.614 61.6372 239.67 61.6127 239.727 61.5964C240.217 61.4086 240.644 61.4413 240.981 61.6454C241.134 61.7433 241.335 61.8821 241.48 61.9964C241.625 62.1107 241.802 62.2821 241.931 62.4127C242.405 62.9352 242.614 63.3679 242.671 63.4903C242.727 63.6209 242.816 63.8005 242.856 63.9393C242.92 64.1597 243.017 64.4536 243.049 64.6985C243.089 65.0332 243.113 65.1883 243.105 65.4822C243.105 65.6618 243.089 65.9557 243.025 66.2822C242.912 66.87 242.695 67.3353 242.582 67.5558C242.301 68.0864 242.003 68.4211 241.77 68.6578C241.416 69.0089 240.652 69.6456 239.421 69.9313C238.769 70.0783 238.045 70.1028 237.394 70.0048C236.501 69.866 235.873 69.564 235.495 69.3272V69.3517Z" fill="#DD4919"/>
<path d="M242.687 67.368C242.333 67.719 241.569 68.3558 240.338 68.6415C239.686 68.7885 238.962 68.8211 238.311 68.715C237.418 68.5762 236.79 68.2742 236.412 68.0374C236.26 67.9395 235.841 67.6782 235.439 67.2456C234.972 66.7394 234.747 66.2741 234.707 66.1843C234.602 65.9557 234.514 65.7598 234.425 65.4904C234.329 65.172 234.321 65.123 234.257 64.6904C234.208 64.3638 234.216 63.7842 234.281 63.4332C234.337 63.123 234.409 62.7638 234.619 62.2985C234.611 62.3066 234.594 62.3229 234.586 62.3311C234.466 62.4617 234.088 62.8454 233.806 63.4087C233.516 63.9801 233.428 64.4046 233.364 64.7557C233.299 65.1149 233.291 65.6863 233.34 66.0129C233.404 66.4455 233.412 66.4945 233.508 66.8129C233.589 67.0823 233.677 67.2782 233.79 67.5068C233.83 67.5966 234.055 68.0619 234.522 68.568C234.924 69.0007 235.343 69.2619 235.495 69.3599C235.865 69.5967 236.501 69.8987 237.394 70.0375C238.045 70.1354 238.769 70.111 239.421 69.964C240.644 69.6865 241.416 69.0497 241.77 68.6905C242.003 68.4619 242.301 68.1191 242.582 67.5884C242.614 67.5313 242.655 67.4496 242.695 67.3598L242.687 67.368Z" fill="#B72B06"/>
<path d="M239.567 61.678C240.291 62.1188 240.267 62.8291 239.51 63.2536C238.754 63.6781 237.555 63.6699 236.831 63.2291C236.107 62.7882 236.131 62.078 236.887 61.6535C237.644 61.229 238.842 61.2372 239.567 61.678Z" fill="#B72B06"/>
<path d="M242.76 58.682C242.76 58.682 242.462 60.3637 241.287 61.0821C240.112 61.8005 238.519 61.2862 238.519 61.2862C238.519 61.2862 238.825 59.6127 239.992 58.8861C241.158 58.1677 242.752 58.682 242.752 58.682H242.76Z" fill="#34302C"/>
<path d="M238.452 62.3882C238.346 62.4372 238.248 62.4943 238.143 62.5433C237.98 61.5718 237.948 60.5269 238.07 59.4983C238.224 59.5799 238.379 59.6616 238.525 59.735C238.379 60.5759 238.346 61.4902 238.452 62.38V62.3882Z" fill="#DD4919"/>
<path d="M237.049 64.5271C236.879 64.6495 236.839 64.8781 236.952 65.0577C237.065 65.2291 237.299 65.27 237.468 65.1557C237.637 65.0332 237.686 64.8046 237.565 64.625C237.444 64.4536 237.218 64.4046 237.04 64.5271H237.049Z" fill="white"/>
<path d="M238.23 65.0985C238.456 66.2659 239.075 66.1353 239.84 65.9883C240.605 65.8332 241.087 65.0087 241.007 64.5434C240.918 64.0781 240.283 64.1515 239.518 64.3066C238.753 64.4617 238.142 64.6413 238.23 65.1067V65.0985Z" fill="white"/>
<path d="M228.338 86.3237C228.177 86.2258 227.767 85.9645 227.364 85.5318C226.898 85.0257 226.673 84.5604 226.632 84.4706C226.528 84.242 226.439 84.0461 226.351 83.7767C226.254 83.4583 226.246 83.4093 226.182 82.9767C226.134 82.6501 226.142 82.0705 226.206 81.7195C226.27 81.3685 226.359 80.944 226.648 80.3725C226.93 79.8174 227.308 79.4255 227.429 79.2949C227.775 78.9439 228.539 78.299 229.794 78.0132C230.453 77.8663 232.167 77.6214 233.824 78.6173C233.486 78.4133 233.06 78.3806 232.569 78.5684C232.513 78.5929 232.464 78.6174 232.408 78.6418C231.684 78.201 230.486 78.1847 229.729 78.6173C228.973 79.0418 228.949 79.7521 229.673 80.1929C230.397 80.6337 231.596 80.6501 232.352 80.2174C233.108 79.7929 233.132 79.0827 232.408 78.6418C232.456 78.6092 232.513 78.5847 232.569 78.5684C233.06 78.3806 233.486 78.4133 233.824 78.6173C233.977 78.7153 234.178 78.8541 234.323 78.9684C234.467 79.0827 234.644 79.2541 234.773 79.3847C235.248 79.9072 235.457 80.3399 235.513 80.4623C235.569 80.5929 235.658 80.7725 235.698 80.9113C235.763 81.1317 235.859 81.4256 235.891 81.6705C235.931 82.0052 235.956 82.1603 235.948 82.4542C235.948 82.6338 235.931 82.9277 235.867 83.2542C235.755 83.842 235.537 84.3073 235.425 84.5277C235.143 85.0584 234.846 85.3931 234.612 85.6298C234.258 85.9809 233.494 86.6176 232.263 86.9033C231.612 87.0503 230.888 87.0748 230.236 86.9768C229.343 86.838 228.716 86.536 228.338 86.2992V86.3237Z" fill="#DD4919"/>
<path d="M235.529 84.3318C235.175 84.6828 234.411 85.3196 233.18 85.6053C232.529 85.7522 231.805 85.7849 231.153 85.6788C230.26 85.54 229.633 85.2379 229.255 85.0012C229.102 84.9032 228.684 84.642 228.281 84.2093C227.815 83.7032 227.59 83.2379 227.549 83.1481C227.445 82.9195 227.356 82.7236 227.268 82.4542C227.171 82.1358 227.163 82.0868 227.099 81.6541C227.051 81.3276 227.059 80.748 227.123 80.397C227.179 80.0868 227.252 79.7276 227.461 79.2622C227.453 79.2704 227.437 79.2867 227.429 79.2949C227.308 79.4255 226.93 79.8092 226.648 80.3725C226.359 80.9439 226.27 81.3684 226.206 81.7195C226.142 82.0787 226.134 82.6501 226.182 82.9766C226.246 83.4093 226.254 83.4583 226.351 83.7767C226.431 84.0461 226.52 84.242 226.632 84.4706C226.673 84.5604 226.898 85.0257 227.364 85.5318C227.767 85.9645 228.185 86.2257 228.338 86.3237C228.708 86.5604 229.343 86.8625 230.236 87.0013C230.888 87.0992 231.612 87.0747 232.263 86.9278C233.486 86.6502 234.258 86.0135 234.612 85.6543C234.846 85.4257 235.143 85.0828 235.425 84.5522C235.457 84.4951 235.497 84.4134 235.537 84.3236L235.529 84.3318Z" fill="#B72B06"/>
<path d="M232.409 78.65C233.133 79.0908 233.109 79.801 232.352 80.2255C231.596 80.65 230.397 80.6419 229.673 80.201C228.949 79.7602 228.973 79.05 229.729 78.6255C230.486 78.201 231.684 78.2091 232.409 78.65Z" fill="#B72B06"/>
<path d="M235.602 75.6539C235.602 75.6539 235.304 77.3356 234.129 78.054C232.954 78.7724 231.361 78.2581 231.361 78.2581C231.361 78.2581 231.667 76.5846 232.834 75.858C234 75.1396 235.594 75.6539 235.594 75.6539H235.602Z" fill="#34302C"/>
<path d="M231.303 79.3602C231.197 79.4091 231.099 79.4663 230.994 79.5153C230.831 78.5438 230.798 77.4989 230.92 76.4703C231.075 76.5519 231.229 76.6335 231.376 76.707C231.229 77.5479 231.197 78.4622 231.303 79.352V79.3602Z" fill="#DD4919"/>
<path d="M229.89 81.499C229.721 81.6215 229.681 81.85 229.793 82.0296C229.906 82.2011 230.14 82.2419 230.31 82.1276C230.479 82.0052 230.528 81.7766 230.407 81.597C230.286 81.4255 230.06 81.3766 229.882 81.499H229.89Z" fill="white"/>
<path d="M231.072 82.0705C231.298 83.2379 231.917 83.1072 232.682 82.9603C233.446 82.8052 233.929 81.9807 233.849 81.5154C233.76 81.05 233.125 81.1235 232.36 81.2786C231.595 81.4337 230.984 81.6133 231.072 82.0786V82.0705Z" fill="white"/>
<path d="M238.631 32.5912L235.688 48.4692C235.254 51.2857 240.964 54.7225 248.524 56.1675C256.076 57.6124 262.63 56.5185 263.233 53.7347L266.177 37.8567L238.623 32.5912H238.631Z" fill="#3575B9"/>
<path d="M249.995 48.2162C251.218 48.4529 252.416 48.6162 253.574 48.7223C254.917 48.8448 255.858 50.1183 255.609 51.4653L254.62 56.796C259.325 56.845 262.799 55.7185 263.233 53.7266L264.954 44.461L266.177 37.8567L238.623 32.5912L237.151 40.518C236.717 43.3344 242.427 46.7712 249.987 48.2162H249.995Z" fill="#285A8F"/>
<path d="M252.489 27.0156L226.552 28.9667C224.863 29.0973 224.428 31.4157 225.956 32.1586L249.417 43.5549C250.277 43.9712 251.234 44.159 252.191 44.0855L278.129 42.1344C279.818 42.0038 280.252 39.6854 278.724 38.9425L255.264 27.5462C254.403 27.1299 253.446 26.9421 252.489 27.0156Z" fill="#3575B9"/>
<path d="M264.666 60.7636C263.411 60.5269 262.003 62.4616 261.52 65.0903C261.439 65.5311 262.389 66.0862 263.636 66.323C264.883 66.5597 265.969 66.3965 266.05 65.9556C266.541 63.327 265.921 61.0085 264.666 60.7636Z" fill="#F5D5AB"/>
<path d="M265.969 61.1473C266.106 60.3962 265.623 59.6778 264.883 59.5391C264.142 59.4003 263.434 59.8901 263.297 60.6411C263.16 61.3922 263.643 62.1106 264.384 62.2494C265.124 62.3881 265.832 61.8983 265.969 61.1473Z" fill="#003672"/>
<path d="M264.643 60.8942C264.24 60.8208 263.975 60.4208 264.047 60.0126L267.144 43.31L252.143 35.473C251.781 35.2853 251.636 34.8281 251.821 34.4526C252.006 34.0852 252.456 33.9383 252.826 34.126L268.327 42.2242C268.616 42.3794 268.777 42.7059 268.721 43.0324L265.519 60.282C265.447 60.6901 265.053 60.9596 264.651 60.8861L264.643 60.8942Z" fill="#F5D5AB"/>
<path d="M366.82 202.403H293.567V207.245H366.82V202.403Z" fill="#F4C245"/>
<path d="M152.82 123.713H101.831V212.499H152.82V123.713Z" fill="#CFBEA0"/>
<path d="M154.612 119.272H99.6711V123.713H154.612V119.272Z" fill="#F4C245"/>
<path d="M154.613 212.088H101.831V222.173H154.613V212.088Z" fill="#F4C245"/>
<path d="M110.629 131.984H105.595V142.481H110.629V131.984Z" fill="white" stroke="black" stroke-width="0.612523" stroke-miterlimit="10"/>
<path d="M115.66 131.984H110.626V142.481H115.66V131.984Z" fill="white" stroke="black" stroke-width="0.612523" stroke-miterlimit="10"/>
<path d="M126.792 131.984H121.758V142.481H126.792V131.984Z" fill="white" stroke="black" stroke-width="0.612523" stroke-miterlimit="10"/>
<path d="M131.814 131.984H126.78V142.481H131.814V131.984Z" fill="white" stroke="black" stroke-width="0.612523" stroke-miterlimit="10"/>
<path d="M110.629 149.338H105.595V159.835H110.629V149.338Z" fill="white" stroke="black" stroke-width="0.612523" stroke-miterlimit="10"/>
<path d="M115.66 149.338H110.626V159.835H115.66V149.338Z" fill="white" stroke="black" stroke-width="0.612523" stroke-miterlimit="10"/>
<path d="M126.792 149.338H121.758V159.835H126.792V149.338Z" fill="white" stroke="black" stroke-width="0.612523" stroke-miterlimit="10"/>
<path d="M131.814 149.338H126.78V159.835H131.814V149.338Z" fill="white" stroke="black" stroke-width="0.612523" stroke-miterlimit="10"/>
<path d="M110.629 168.307H105.595V178.804H110.629V168.307Z" fill="white" stroke="black" stroke-width="0.612523" stroke-miterlimit="10"/>
<path d="M115.66 168.307H110.626V178.804H115.66V168.307Z" fill="white" stroke="black" stroke-width="0.612523" stroke-miterlimit="10"/>
<path d="M126.792 168.307H121.758V178.804H126.792V168.307Z" fill="white" stroke="black" stroke-width="0.612523" stroke-miterlimit="10"/>
<path d="M131.814 168.307H126.78V178.804H131.814V168.307Z" fill="white" stroke="black" stroke-width="0.612523" stroke-miterlimit="10"/>
<path d="M110.629 188.477H105.595V198.974H110.629V188.477Z" fill="white" stroke="black" stroke-width="0.612523" stroke-miterlimit="10"/>
<path d="M115.66 188.477H110.626V198.974H115.66V188.477Z" fill="white" stroke="black" stroke-width="0.612523" stroke-miterlimit="10"/>
<path d="M126.792 188.477H121.758V198.974H126.792V188.477Z" fill="white" stroke="black" stroke-width="0.612523" stroke-miterlimit="10"/>
<path d="M131.814 188.477H126.78V198.974H131.814V188.477Z" fill="white" stroke="black" stroke-width="0.612523" stroke-miterlimit="10"/>
<path d="M347.424 212.488H398.413V123.702H347.424V212.488Z" fill="#CFBEA0"/>
<path d="M345.631 123.702L400.572 123.702V119.26L345.631 119.26V123.702Z" fill="#F4C245"/>
<path d="M345.641 222.184H398.423V212.099H345.641V222.184Z" fill="#F4C245"/>
<path d="M389.616 142.47H394.65V131.973H389.616V142.47Z" fill="white" stroke="black" stroke-width="0.612523" stroke-miterlimit="10"/>
<path d="M384.584 142.47H389.618V131.973H384.584V142.47Z" fill="white" stroke="black" stroke-width="0.612523" stroke-miterlimit="10"/>
<path d="M373.452 142.47H378.486V131.973H373.452V142.47Z" fill="white" stroke="black" stroke-width="0.612523" stroke-miterlimit="10"/>
<path d="M368.431 142.47H373.464V131.973H368.431V142.47Z" fill="white" stroke="black" stroke-width="0.612523" stroke-miterlimit="10"/>
<path d="M389.616 159.824H394.65V149.327H389.616V159.824Z" fill="white" stroke="black" stroke-width="0.612523" stroke-miterlimit="10"/>
<path d="M384.584 159.824H389.618V149.327H384.584V159.824Z" fill="white" stroke="black" stroke-width="0.612523" stroke-miterlimit="10"/>
<path d="M373.452 159.824H378.486V149.327H373.452V159.824Z" fill="white" stroke="black" stroke-width="0.612523" stroke-miterlimit="10"/>
<path d="M368.431 159.824H373.464V149.327H368.431V159.824Z" fill="white" stroke="black" stroke-width="0.612523" stroke-miterlimit="10"/>
<path d="M389.616 178.793H394.65V168.295H389.616V178.793Z" fill="white" stroke="black" stroke-width="0.612523" stroke-miterlimit="10"/>
<path d="M384.584 178.793H389.618V168.295H384.584V178.793Z" fill="white" stroke="black" stroke-width="0.612523" stroke-miterlimit="10"/>
<path d="M373.452 178.793H378.486V168.295H373.452V178.793Z" fill="white" stroke="black" stroke-width="0.612523" stroke-miterlimit="10"/>
<path d="M368.431 178.793H373.464V168.295H368.431V178.793Z" fill="white" stroke="black" stroke-width="0.612523" stroke-miterlimit="10"/>
<path d="M389.616 198.974H394.65V188.477H389.616V198.974Z" fill="white" stroke="black" stroke-width="0.612523" stroke-miterlimit="10"/>
<path d="M384.584 198.974H389.618V188.477H384.584V198.974Z" fill="white" stroke="black" stroke-width="0.612523" stroke-miterlimit="10"/>
<path d="M373.452 198.974H378.486V188.477H373.452V198.974Z" fill="white" stroke="black" stroke-width="0.612523" stroke-miterlimit="10"/>
<path d="M368.431 198.974H373.464V188.477H368.431V198.974Z" fill="white" stroke="black" stroke-width="0.612523" stroke-miterlimit="10"/>
<path d="M130.89 139.442L136.298 132.986H226.251V139.442H130.89Z" fill="#F4C245"/>
<path d="M370.249 139.442L364.851 132.986H274.898V139.442H370.249Z" fill="#F4C245"/>
<path d="M366.466 140.856H133.782V207.245H366.466V140.856Z" fill="#A63019"/>
<path d="M366.466 207.245H133.782V222.173H366.466V207.245Z" fill="#FEF9EC"/>
<path d="M207.036 202.403H133.782V207.245H207.036V202.403Z" fill="#F4C245"/>
<path d="M214.93 139.442H133.782V142.27H214.93V139.442Z" fill="#F4C245"/>
<path d="M366.465 139.442H285.317V141.869H366.465V139.442Z" fill="#F4C245"/>
<path d="M301.116 149.939H199.497V151.553H301.116V149.939Z" fill="#F4C245"/>
<path d="M301.116 151.553H199.497V155.594H301.116V151.553Z" fill="#FEF9EC"/>
<path d="M210.989 158.01H204.886V201.59H210.989V158.01Z" fill="#FEF9EC"/>
<path d="M212.425 201.601H203.45V203.616H212.425V201.601Z" fill="#F4C245"/>
<path d="M213.505 203.616H202.37V205.631H213.505V203.616Z" fill="#FEF9EC"/>
<path d="M212.78 155.605H203.083C201.874 155.717 200.923 156.852 200.923 158.232C200.923 159.68 201.973 160.859 203.261 160.859C204.549 160.859 205.599 159.68 205.599 158.232C205.599 158.166 205.599 158.099 205.599 158.032H210.284C210.284 158.099 210.284 158.166 210.284 158.232C210.284 159.68 211.334 160.859 212.622 160.859C213.91 160.859 214.96 159.68 214.96 158.232C214.96 156.785 214.009 155.728 212.8 155.616L212.78 155.605Z" fill="#F4C245"/>
<path d="M229.302 158.01H223.199V201.59H229.302V158.01Z" fill="#FEF9EC"/>
<path d="M230.738 201.601H221.763V203.616H230.738V201.601Z" fill="#F4C245"/>
<path d="M231.818 203.616H220.683V205.631H231.818V203.616Z" fill="#FEF9EC"/>
<path d="M231.094 155.605H221.396C220.188 155.717 219.237 156.852 219.237 158.232C219.237 159.68 220.287 160.859 221.574 160.859C222.862 160.859 223.912 159.68 223.912 158.232C223.912 158.166 223.912 158.099 223.912 158.032H228.598C228.598 158.099 228.598 158.166 228.598 158.232C228.598 159.68 229.648 160.859 230.936 160.859C232.223 160.859 233.273 159.68 233.273 158.232C233.273 156.785 232.322 155.728 231.114 155.616L231.094 155.605Z" fill="#F4C245"/>
<path d="M277.416 158.01H271.313V201.59H277.416V158.01Z" fill="#FEF9EC"/>
<path d="M278.853 201.601H269.877V203.616H278.853V201.601Z" fill="#F4C245"/>
<path d="M279.932 203.616H268.797V205.631H279.932V203.616Z" fill="#FEF9EC"/>
<path d="M279.209 155.605H269.511C268.302 155.717 267.351 156.852 267.351 158.232C267.351 159.68 268.401 160.859 269.689 160.859C270.977 160.859 272.027 159.68 272.027 158.232C272.027 158.166 272.027 158.099 272.027 158.032H276.712C276.712 158.099 276.712 158.166 276.712 158.232C276.712 159.68 277.762 160.859 279.05 160.859C280.338 160.859 281.388 159.68 281.388 158.232C281.388 156.785 280.437 155.728 279.228 155.616L279.209 155.605Z" fill="#F4C245"/>
<path d="M295.362 158.01H289.259V201.59H295.362V158.01Z" fill="#FEF9EC"/>
<path d="M296.798 201.601H287.823V203.616H296.798V201.601Z" fill="#F4C245"/>
<path d="M297.889 203.616H286.754V205.631H297.889V203.616Z" fill="#FEF9EC"/>
<path d="M297.165 155.605H287.467C286.259 155.717 285.308 156.852 285.308 158.232C285.308 159.68 286.358 160.859 287.645 160.859C288.933 160.859 289.983 159.68 289.983 158.232C289.983 158.166 289.983 158.099 289.983 158.032H294.669C294.669 158.099 294.669 158.166 294.669 158.232C294.669 159.68 295.719 160.859 297.006 160.859C298.294 160.859 299.344 159.68 299.344 158.232C299.344 156.785 298.393 155.728 297.185 155.616L297.165 155.605Z" fill="#F4C245"/>
<path d="M195.902 146.711L197.892 149.939H302.869L304.702 146.711H195.902Z" fill="#FEF9EC"/>
<path d="M207.599 144.796L250.416 119.027L293.283 144.796H207.599Z" fill="#FEF9EC"/>
<path d="M250.435 117.179L200.705 146.644H300.165L250.435 117.179ZM250.614 120.218L289.211 143.605H211.649L250.614 120.218Z" fill="#F4C245"/>
<path d="M303.503 205.631H197.575V211.286H303.503V205.631Z" fill="#F4C245"/>
<path d="M307.466 211.286H193.634V216.941H307.466V211.286Z" fill="#FEF9EC"/>
<path d="M311.773 216.93H189.325V222.585H311.773V216.93Z" fill="#F4C245"/>
<path d="M144.927 149.528H139.171V159.223H144.927V149.528Z" fill="white"/>
<path d="M144.57 149.928V158.822H139.527V149.928H144.57ZM145.283 149.127H138.813V159.624H145.283V149.127Z" fill="#A38552"/>
<path d="M151.385 152.889H145.272V159.223H151.385V152.889Z" fill="white"/>
<path d="M151.027 153.29V158.834H145.628V153.29H151.027ZM151.741 152.489H144.914V159.624H151.741V152.489Z" fill="#A38552"/>
<path d="M151.385 149.528H145.272V152.511H151.385V149.528Z" fill="white"/>
<path d="M151.027 149.928V152.11H145.628V149.928H151.027ZM151.741 149.127H144.914V152.9H151.741V149.127Z" fill="#A38552"/>
<path d="M166.112 149.528H160.356V159.223H166.112V149.528Z" fill="white"/>
<path d="M165.754 149.928V158.822H160.711V149.928H165.754ZM166.468 149.127H159.998V159.624H166.468V149.127Z" fill="#A38552"/>
<path d="M172.569 152.889H166.456V159.223H172.569V152.889Z" fill="white"/>
<path d="M172.212 153.29V158.834H166.812V153.29H172.212ZM172.925 152.489H166.099V159.624H172.925V152.489Z" fill="#A38552"/>
<path d="M172.569 149.528H166.456V152.511H172.569V149.528Z" fill="white"/>
<path d="M172.212 149.928V152.11H166.812V149.928H172.212ZM172.925 149.127H166.099V152.9H172.925V149.127Z" fill="#A38552"/>
<path d="M186.575 149.528H180.818V159.223H186.575V149.528Z" fill="white"/>
<path d="M186.217 149.928V158.822H181.174V149.928H186.217ZM186.93 149.127H180.461V159.624H186.93V149.127Z" fill="#A38552"/>
<path d="M193.042 152.889H186.929V159.223H193.042V152.889Z" fill="white"/>
<path d="M192.685 153.29V158.834H187.285V153.29H192.685ZM193.398 152.489H186.572V159.624H193.398V152.489Z" fill="#A38552"/>
<path d="M193.042 149.528H186.929V152.511H193.042V149.528Z" fill="white"/>
<path d="M192.685 149.928V152.11H187.285V149.928H192.685ZM193.398 149.127H186.572V152.9H193.398V149.127Z" fill="#A38552"/>
<path d="M312.972 149.528H307.216V159.223H312.972V149.528Z" fill="white"/>
<path d="M312.614 149.928V158.822H307.571V149.928H312.614ZM313.328 149.127H306.858V159.624H313.328V149.127Z" fill="#A38552"/>
<path d="M319.429 152.889H313.316V159.223H319.429V152.889Z" fill="white"/>
<path d="M319.072 153.29V158.834H313.672V153.29H319.072ZM319.785 152.489H312.959V159.624H319.785V152.489Z" fill="#A38552"/>
<path d="M319.429 149.528H313.316V152.511H319.429V149.528Z" fill="white"/>
<path d="M319.072 149.928V152.11H313.672V149.928H319.072ZM319.785 149.127H312.959V152.9H319.785V149.127Z" fill="#A38552"/>
<path d="M333.79 149.528H328.034V159.223H333.79V149.528Z" fill="white"/>
<path d="M333.433 149.928V158.822H328.39V149.928H333.433ZM334.147 149.127H327.677V159.624H334.147V149.127Z" fill="#A38552"/>
<path d="M340.258 152.889H334.145V159.223H340.258V152.889Z" fill="white"/>
<path d="M339.902 153.29V158.834H334.502V153.29H339.902ZM340.615 152.489H333.789V159.624H340.615V152.489Z" fill="#A38552"/>
<path d="M340.258 149.528H334.145V152.511H340.258V149.528Z" fill="white"/>
<path d="M339.902 149.928V152.11H334.502V149.928H339.902ZM340.615 149.127H333.789V152.9H340.615V149.127Z" fill="#A38552"/>
<path d="M354.976 149.528H349.219V159.223H354.976V149.528Z" fill="white"/>
<path d="M354.618 149.928V158.822H349.575V149.928H354.618ZM355.332 149.127H348.862V159.624H355.332V149.127Z" fill="#A38552"/>
<path d="M361.444 152.889H355.331V159.223H361.444V152.889Z" fill="white"/>
<path d="M361.086 153.29V158.834H355.687V153.29H361.086ZM361.8 152.489H354.973V159.624H361.8V152.489Z" fill="#A38552"/>
<path d="M361.444 149.528H355.331V152.511H361.444V149.528Z" fill="white"/>
<path d="M361.086 149.928V152.11H355.687V149.928H361.086ZM361.8 149.127H354.973V152.9H361.8V149.127Z" fill="#A38552"/>
<path d="M166.112 169.309H160.356V179.004H166.112V169.309Z" fill="white"/>
<path d="M165.754 169.709V178.603H160.711V169.709H165.754ZM166.468 168.908H159.998V179.405H166.468V168.908Z" fill="#A38552"/>
<path d="M172.569 172.67H166.456V179.004H172.569V172.67Z" fill="white"/>
<path d="M172.212 173.06V178.603H166.812V173.06H172.212ZM172.925 172.258H166.099V179.394H172.925V172.258Z" fill="#A38552"/>
<path d="M172.569 169.309H166.456V172.292H172.569V169.309Z" fill="white"/>
<path d="M172.212 169.709V171.891H166.812V169.709H172.212ZM172.925 168.908H166.099V172.681H172.925V168.908Z" fill="#A38552"/>
<path d="M186.931 169.309H181.174V179.004H186.931V169.309Z" fill="white"/>
<path d="M186.573 169.709V178.603H181.531V169.709H186.573ZM187.287 168.908H180.817V179.405H187.287V168.908Z" fill="#A38552"/>
<path d="M193.398 172.67H187.286V179.004H193.398V172.67Z" fill="white"/>
<path d="M193.042 173.06V178.603H187.642V173.06H193.042ZM193.755 172.258H186.929V179.394H193.755V172.258Z" fill="#A38552"/>
<path d="M193.398 169.309H187.286V172.292H193.398V169.309Z" fill="white"/>
<path d="M193.042 169.709V171.891H187.642V169.709H193.042ZM193.755 168.908H186.929V172.681H193.755V168.908Z" fill="#A38552"/>
<path d="M312.972 169.309H307.216V179.004H312.972V169.309Z" fill="white"/>
<path d="M312.614 169.709V178.603H307.571V169.709H312.614ZM313.328 168.908H306.858V179.405H313.328V168.908Z" fill="#A38552"/>
<path d="M319.429 172.67H313.316V179.004H319.429V172.67Z" fill="white"/>
<path d="M319.072 173.06V178.603H313.672V173.06H319.072ZM319.785 172.258H312.959V179.394H319.785V172.258Z" fill="#A38552"/>
<path d="M319.429 169.309H313.316V172.292H319.429V169.309Z" fill="white"/>
<path d="M319.072 169.709V171.891H313.672V169.709H319.072ZM319.785 168.908H312.959V172.681H319.785V168.908Z" fill="#A38552"/>
<path d="M333.79 169.309H328.034V179.004H333.79V169.309Z" fill="white"/>
<path d="M333.433 169.709V178.603H328.39V169.709H333.433ZM334.147 168.908H327.677V179.405H334.147V168.908Z" fill="#A38552"/>
<path d="M340.258 172.67H334.145V179.004H340.258V172.67Z" fill="white"/>
<path d="M339.902 173.06V178.603H334.502V173.06H339.902ZM340.615 172.258H333.789V179.394H340.615V172.258Z" fill="#A38552"/>
<path d="M340.258 169.309H334.145V172.292H340.258V169.309Z" fill="white"/>
<path d="M339.902 169.709V171.891H334.502V169.709H339.902ZM340.615 168.908H333.789V172.681H340.615V168.908Z" fill="#A38552"/>
<path d="M354.619 169.309H348.863V179.004H354.619V169.309Z" fill="white"/>
<path d="M354.262 169.709V178.603H349.219V169.709H354.262ZM354.975 168.908H348.506V179.405H354.975V168.908Z" fill="#A38552"/>
<path d="M361.077 172.67H354.964V179.004H361.077V172.67Z" fill="white"/>
<path d="M360.73 173.06V178.603H355.33V173.06H360.73ZM361.443 172.258H354.617V179.394H361.443V172.258Z" fill="#A38552"/>
<path d="M361.077 169.309H354.964V172.292H361.077V169.309Z" fill="white"/>
<path d="M360.73 169.709V171.891H355.33V169.709H360.73ZM361.443 168.908H354.617V172.681H361.443V168.908Z" fill="#A38552"/>
<path d="M144.927 169.309H139.171V179.004H144.927V169.309Z" fill="white"/>
<path d="M144.57 169.709V178.603H139.527V169.709H144.57ZM145.283 168.908H138.813V179.405H145.283V168.908Z" fill="#A38552"/>
<path d="M151.385 172.67H145.272V179.004H151.385V172.67Z" fill="white"/>
<path d="M151.027 173.06V178.603H145.628V173.06H151.027ZM151.741 172.258H144.914V179.394H151.741V172.258Z" fill="#A38552"/>
<path d="M151.385 169.309H145.272V172.292H151.385V169.309Z" fill="white"/>
<path d="M151.027 169.709V171.891H145.628V169.709H151.027ZM151.741 168.908H144.914V172.681H151.741V168.908Z" fill="#A38552"/>
<path d="M144.927 188.678H139.171V198.373H144.927V188.678Z" fill="white"/>
<path d="M144.57 189.078V197.973H139.527V189.078H144.57ZM145.283 188.277H138.813V198.774H145.283V188.277Z" fill="#A38552"/>
<path d="M151.385 192.039H145.272V198.373H151.385V192.039Z" fill="white"/>
<path d="M151.027 192.44V197.973H145.628V192.44H151.027ZM151.741 191.639H144.914V198.774H151.741V191.639Z" fill="#A38552"/>
<path d="M151.385 188.678H145.272V191.661H151.385V188.678Z" fill="white"/>
<path d="M151.027 189.078V191.26H145.628V189.078H151.027ZM151.741 188.277H144.914V192.05H151.741V188.277Z" fill="#A38552"/>
<path d="M166.112 188.678H160.356V198.373H166.112V188.678Z" fill="white"/>
<path d="M165.754 189.078V197.973H160.711V189.078H165.754ZM166.468 188.277H159.998V198.774H166.468V188.277Z" fill="#A38552"/>
<path d="M172.569 192.039H166.456V198.373H172.569V192.039Z" fill="white"/>
<path d="M172.212 192.44V197.973H166.812V192.44H172.212ZM172.925 191.639H166.099V198.774H172.925V191.639Z" fill="#A38552"/>
<path d="M172.569 188.678H166.456V191.661H172.569V188.678Z" fill="white"/>
<path d="M172.212 189.078V191.26H166.812V189.078H172.212ZM172.925 188.277H166.099V192.05H172.925V188.277Z" fill="#A38552"/>
<path d="M186.931 188.678H181.174V198.373H186.931V188.678Z" fill="white"/>
<path d="M186.573 189.078V197.973H181.531V189.078H186.573ZM187.287 188.277H180.817V198.774H187.287V188.277Z" fill="#A38552"/>
<path d="M193.398 192.039H187.286V198.373H193.398V192.039Z" fill="white"/>
<path d="M193.042 192.44V197.973H187.642V192.44H193.042ZM193.755 191.639H186.929V198.774H193.755V191.639Z" fill="#A38552"/>
<path d="M193.398 188.678H187.286V191.661H193.398V188.678Z" fill="white"/>
<path d="M193.042 189.078V191.26H187.642V189.078H193.042ZM193.755 188.277H186.929V192.05H193.755V188.277Z" fill="#A38552"/>
<path d="M312.972 188.678H307.216V198.373H312.972V188.678Z" fill="white"/>
<path d="M312.614 189.078V197.973H307.571V189.078H312.614ZM313.328 188.277H306.858V198.774H313.328V188.277Z" fill="#A38552"/>
<path d="M319.429 192.039H313.316V198.373H319.429V192.039Z" fill="white"/>
<path d="M319.072 192.44V197.973H313.672V192.44H319.072ZM319.785 191.639H312.959V198.774H319.785V191.639Z" fill="#A38552"/>
<path d="M319.429 188.678H313.316V191.661H319.429V188.678Z" fill="white"/>
<path d="M319.072 189.078V191.26H313.672V189.078H319.072ZM319.785 188.277H312.959V192.05H319.785V188.277Z" fill="#A38552"/>
<path d="M333.79 188.678H328.034V198.373H333.79V188.678Z" fill="white"/>
<path d="M333.433 189.078V197.973H328.39V189.078H333.433ZM334.147 188.277H327.677V198.774H334.147V188.277Z" fill="#A38552"/>
<path d="M340.258 192.039H334.145V198.373H340.258V192.039Z" fill="white"/>
<path d="M339.902 192.44V197.973H334.502V192.44H339.902ZM340.615 191.639H333.789V198.774H340.615V191.639Z" fill="#A38552"/>
<path d="M340.258 188.678H334.145V191.661H340.258V188.678Z" fill="white"/>
<path d="M339.902 189.078V191.26H334.502V189.078H339.902ZM340.615 188.277H333.789V192.05H340.615V188.277Z" fill="#A38552"/>
<path d="M354.976 188.678H349.219V198.373H354.976V188.678Z" fill="white"/>
<path d="M354.618 189.078V197.973H349.575V189.078H354.618ZM355.332 188.277H348.862V198.774H355.332V188.277Z" fill="#A38552"/>
<path d="M361.444 192.039H355.331V198.373H361.444V192.039Z" fill="white"/>
<path d="M361.086 192.44V197.973H355.687V192.44H361.086ZM361.8 191.639H354.973V198.774H361.8V191.639Z" fill="#A38552"/>
<path d="M361.444 188.678H355.331V191.661H361.444V188.678Z" fill="white"/>
<path d="M361.086 189.078V191.26H355.687V189.078H361.086ZM361.8 188.277H354.973V192.05H361.8V188.277Z" fill="#A38552"/>
<path d="M221.051 162.451H214.215V172.949H221.051V162.451Z" fill="white"/>
<path d="M220.694 162.841V172.548H214.571V162.841H220.694ZM221.408 162.039H213.868V173.338H221.408V162.039Z" fill="#A38552"/>
<path d="M221.051 176.166H214.215V197.961H221.051V176.166Z" fill="white"/>
<path d="M220.694 176.566V197.572H214.571V176.566H220.694ZM221.408 175.765H213.868V198.362H221.408V175.765Z" fill="#A38552"/>
<path d="M287.123 162.451H280.287V172.949H287.123V162.451Z" fill="white"/>
<path d="M286.756 162.841V172.548H280.633V162.841H286.756ZM287.469 162.039H279.929V173.338H287.469V162.039Z" fill="#A38552"/>
<path d="M250.13 162.451H237.916V172.949H250.13V162.451Z" fill="white"/>
<path d="M249.773 162.841V172.548H238.262V162.841H249.773ZM250.486 162.039H237.559V173.338H250.486V162.039Z" fill="#A38552"/>
<path d="M262.689 162.451H250.475V172.949H262.689V162.451Z" fill="white"/>
<path d="M262.342 162.841V172.548H250.831V162.841H262.342ZM263.055 162.039H250.128V173.338H263.055V162.039Z" fill="#A38552"/>
<path d="M287.123 176.166H280.287V197.961H287.123V176.166Z" fill="white"/>
<path d="M286.756 176.566V197.572H280.633V176.566H286.756ZM287.469 175.765H279.929V198.362H287.469V175.765Z" fill="#A38552"/>
<path d="M250.13 176.566H237.916V205.23H250.13V176.566Z" fill="white"/>
<path d="M249.773 176.967V204.83H238.262V176.967H249.773ZM250.486 176.166H237.559V205.631H250.486V176.166Z" fill="#A38552"/>
<path d="M248.337 188.678H247.612V193.52H248.337V188.678Z" fill="#BF6240"/>
<path d="M262.689 176.566H250.475V205.23H262.689V176.566Z" fill="white"/>
<path d="M262.342 176.967V204.83H250.831V176.967H262.342ZM263.055 176.166H250.128V205.631H263.055V176.166Z" fill="#A38552"/>
<path d="M252.275 193.531H253V188.689H252.275V193.531Z" fill="#BF6240"/>
</svg>
