<svg width="80" height="81" viewBox="0 0 80 81" fill="none" xmlns="http://www.w3.org/2000/svg">
<path d="M59.4171 28.6606C64.7175 28.6606 69.0142 24.3736 69.0142 19.0852C69.0142 13.7968 64.7175 9.50977 59.4171 9.50977C54.1168 9.50977 49.82 13.7968 49.82 19.0852C49.82 24.3736 54.1168 28.6606 59.4171 28.6606Z" fill="white"/>
<path d="M59.3373 19.2748C59.2609 19.2429 59.213 19.1703 59.2112 19.087L59.174 13.7963C59.174 13.7148 59.2219 13.644 59.2911 13.6103C59.3177 13.5979 59.3462 13.5908 59.3781 13.5908C59.4917 13.5908 59.584 13.6812 59.584 13.7945L59.6195 18.9506" fill="#A63019"/>
<path d="M58.9928 19.1615L58.0644 11.6071C58.0502 11.4955 58.1301 11.3928 58.2437 11.3786C58.3555 11.3644 58.4585 11.4441 58.4727 11.5557L59.4189 19.243C59.4296 19.3245 59.3887 19.4042 59.3177 19.4449" fill="#A63019"/>
<path d="M59.4173 12.3009C59.3409 12.3009 59.2806 12.2407 59.2806 12.1646V9.50943C59.2806 9.43327 59.3409 9.37305 59.4173 9.37305C59.4936 9.37305 59.554 9.43327 59.554 9.50943V12.1646C59.554 12.2407 59.4936 12.3009 59.4173 12.3009Z" fill="#5774CD"/>
<path d="M59.4172 28.8058C59.3409 28.8058 59.2805 28.7456 59.2805 28.6694V26.0143C59.2805 25.9382 59.3409 25.8779 59.4172 25.8779C59.4936 25.8779 59.5539 25.9382 59.5539 26.0143V28.6694C59.5539 28.7456 59.4936 28.8058 59.4172 28.8058Z" fill="#5774CD"/>
<path d="M67.1091 15.3111C67.0594 15.3111 67.0114 15.2845 66.9866 15.2367C66.9528 15.1694 66.9795 15.0879 67.0469 15.0525L67.9079 14.6132C67.9754 14.5795 68.0571 14.6061 68.0926 14.6734C68.1281 14.7407 68.0997 14.8222 68.0322 14.8576L67.1712 15.2969C67.1517 15.3075 67.1304 15.3111 67.1091 15.3111Z" fill="#D7E5FF"/>
<path d="M50.8637 23.5752C50.8139 23.5752 50.766 23.5487 50.7412 23.5008C50.7074 23.4335 50.7341 23.3521 50.8015 23.3166L51.6625 22.8774C51.73 22.8437 51.8116 22.8703 51.8472 22.9376C51.8809 23.0049 51.8543 23.0864 51.7868 23.1218L50.9258 23.5611C50.9063 23.5717 50.885 23.5752 50.8637 23.5752Z" fill="#D7E5FF"/>
<path d="M54.1089 27.2085C54.0823 27.2085 54.0574 27.2014 54.0344 27.1854C53.9722 27.1429 53.9545 27.0597 53.9953 26.9959L54.5297 26.1918C54.5705 26.1298 54.6557 26.1121 54.7196 26.1528C54.7818 26.1953 54.7995 26.2786 54.7587 26.3423L54.2243 27.1465C54.1977 27.1854 54.1551 27.2067 54.1107 27.2067L54.1089 27.2085Z" fill="#D7E5FF"/>
<path d="M64.1906 12.0478C64.164 12.0478 64.1391 12.0407 64.116 12.0248C64.0539 11.9823 64.0361 11.899 64.077 11.8353L64.6113 11.0311C64.6522 10.9691 64.7374 10.9514 64.8013 10.9922C64.8634 11.0347 64.8812 11.1179 64.8403 11.1817L64.306 11.9858C64.2794 12.0248 64.2368 12.0461 64.1924 12.0461L64.1906 12.0478Z" fill="#D7E5FF"/>
<path d="M63.7795 27.7614C63.7298 27.7614 63.6819 27.7349 63.657 27.687L63.2167 26.8262C63.183 26.7589 63.2096 26.6774 63.2771 26.642C63.3446 26.6083 63.4262 26.6349 63.4617 26.7022L63.902 27.5631C63.9357 27.6304 63.9091 27.7118 63.8416 27.7473C63.8221 27.7579 63.8008 27.7614 63.7795 27.7614Z" fill="#D7E5FF"/>
<path d="M55.4959 11.5526C55.4462 11.5526 55.3983 11.5261 55.3734 11.4782L54.9349 10.6192C54.9012 10.5519 54.9278 10.4704 54.9953 10.435C55.0628 10.4013 55.1444 10.4279 55.1799 10.4952L55.6184 11.3543C55.6522 11.4216 55.6255 11.503 55.5581 11.5385C55.5385 11.5491 55.5172 11.5526 55.4959 11.5526Z" fill="#D7E5FF"/>
<path d="M52.2222 14.4643C52.1955 14.4643 52.1707 14.4572 52.1476 14.4413L51.3416 13.9081C51.2795 13.8656 51.2617 13.7824 51.3026 13.7186C51.3434 13.6566 51.4286 13.6389 51.4925 13.6797L52.2985 14.2128C52.3606 14.2553 52.3784 14.3386 52.3375 14.4023C52.3109 14.4413 52.2683 14.4625 52.2239 14.4625L52.2222 14.4643Z" fill="#D7E5FF"/>
<path d="M67.4183 24.5219C67.3917 24.5219 67.3668 24.5149 67.3438 24.4989L66.5378 23.9658C66.4757 23.9233 66.4579 23.84 66.4987 23.7762C66.5396 23.7142 66.6248 23.6965 66.6887 23.7373L67.4947 24.2704C67.5568 24.3129 67.5745 24.3962 67.5337 24.4599C67.5071 24.4989 67.4645 24.5202 67.4201 24.5202L67.4183 24.5219Z" fill="#D7E5FF"/>
<path d="M59.4171 28.9332C53.9741 28.9332 49.5466 24.5157 49.5466 19.085C49.5466 13.6543 53.9741 9.23682 59.4171 9.23682C64.8601 9.23682 69.2876 13.6543 69.2876 19.085C69.2876 24.5157 64.8601 28.9332 59.4171 28.9332ZM59.4171 9.78236C54.2759 9.78236 50.0934 13.9554 50.0934 19.085C50.0934 24.2146 54.2759 28.3877 59.4171 28.3877C64.5583 28.3877 68.7408 24.2146 68.7408 19.085C68.7408 13.9554 64.5583 9.78236 59.4171 9.78236Z" fill="#5774CD"/>
<path d="M68.9161 19.2415H66.2692C66.1929 19.2415 66.1325 19.1813 66.1325 19.1051C66.1325 19.029 66.1929 18.9688 66.2692 18.9688H68.9161C68.9925 18.9688 69.0528 19.029 69.0528 19.1051C69.0528 19.1813 68.9925 19.2415 68.9161 19.2415Z" fill="#5774CD"/>
<path d="M52.4669 19.2415H49.82C49.7436 19.2415 49.6833 19.1813 49.6833 19.1051C49.6833 19.029 49.7436 18.9688 49.82 18.9688H52.4669C52.5432 18.9688 52.6036 19.029 52.6036 19.1051C52.6036 19.1813 52.5432 19.2415 52.4669 19.2415Z" fill="#5774CD"/>
<path d="M59.994 19.0844C59.994 19.4015 59.7366 19.6601 59.4171 19.6601C59.0975 19.6601 58.8401 19.4033 58.8401 19.0844C58.8401 18.7656 59.0975 18.5088 59.4171 18.5088C59.7366 18.5088 59.994 18.7656 59.994 19.0844Z" fill="#A63019"/>
<path d="M31.883 38.6837C31.883 38.6837 30.9639 38.9147 30.7432 39.2577C30.5225 39.6007 30.584 40.9617 30.584 40.9617C30.584 40.9617 21.1836 41.8678 11.6927 52.5755C2.08969 63.406 0.84861 69.8862 4.0255 74.6083C8.21914 80.8466 22.6526 79.1643 22.6526 79.1643C22.6526 79.1643 26.1298 79.6733 38.5154 79.4856C49.9565 79.3123 56.3392 79.1643 56.3392 79.1643C56.3392 79.1643 76.0482 83.9044 74.4779 70.8826C72.3973 53.6153 51.6282 42.5357 47.6154 40.9617C43.9899 39.5393 40.6791 39.5032 40.6791 39.5032C40.6791 39.5032 40.4982 38.8389 40.2992 38.7234C39.2426 38.1097 31.8866 38.6837 31.8866 38.6837H31.883Z" fill="#D8E7EF"/>
<path d="M31.8938 26.8528C31.8938 26.8528 27.6025 25.0261 27.2696 28.3402C26.8824 32.1814 31.4813 32.2175 31.4813 32.2175L31.8938 26.8528Z" fill="#F48462"/>
<path d="M29.7589 30.2943C29.7987 30.2943 29.8385 30.2835 29.8783 30.2618C29.9905 30.1968 30.0267 30.0524 29.9615 29.9405L28.5287 27.4928C28.4635 27.3809 28.3188 27.3412 28.2066 27.4098C28.0945 27.4748 28.0583 27.6192 28.1234 27.7311L29.5563 30.1788C29.5997 30.2546 29.6793 30.2943 29.7589 30.2943Z" fill="black"/>
<path d="M16.5993 51.871C16.5993 51.871 17.5618 57.7555 12.7856 57.5714C8.00945 57.3873 7.75616 50.5894 7.75616 50.5894L16.5993 51.8746V51.871Z" fill="#F48462"/>
<path d="M11.0235 45.0264C11.0235 45.0264 5.88907 35.8097 4.89403 36.2754C3.89899 36.7411 17.2144 56.763 17.8078 56.4777C18.4049 56.1925 11.0235 45.0264 11.0235 45.0264Z" fill="#3475B9"/>
<path d="M28.0947 29.5574L29.3213 29.5357C29.4516 29.5357 29.5565 29.4274 29.5529 29.2975C29.5529 29.1675 29.4516 29.0664 29.3141 29.0664L28.0911 29.0881C27.9608 29.0881 27.8559 29.1964 27.8595 29.3263C27.8595 29.4563 27.9681 29.5574 28.0947 29.5574Z" fill="black"/>
<path d="M39.6296 35.9832L39.6658 40.4778C39.6658 40.4778 37.9254 41.4128 35.7508 41.4489C32.8163 41.4995 31.8249 39.763 31.8249 39.763L31.8466 34.4922L39.626 35.9832H39.6296Z" fill="#F48462"/>
<path d="M39.6301 35.9754C39.6301 35.9754 38.2225 39.6145 34.8901 39.1163C32.2053 38.7155 31.4346 34.9141 31.4346 34.9141L39.6265 35.9718L39.6301 35.9754Z" fill="black"/>
<path d="M30.5337 23.1742C30.5337 23.1742 28.6521 31.4017 31.0149 35.0444C33.5477 38.9506 37.6256 37.7845 39.1525 36.6148C41.2114 35.0336 41.6347 32.8422 41.6347 32.8422C41.6347 32.8422 44.4642 33.4054 45.4086 31.1021C46.4 28.6833 44.6379 26.7302 43.2195 26.6147C41.8048 26.4992 41.6383 26.7555 41.6383 26.7555L42.0544 24.1706C42.0544 24.1706 33.4464 14.6254 30.5337 23.1706V23.1742Z" fill="#F48462"/>
<path d="M42.1013 30.4708C42.1556 30.4708 42.2098 30.4528 42.2532 30.4131L44.4387 28.543C44.5364 28.46 44.5473 28.312 44.464 28.2109C44.3772 28.1134 44.2289 28.1026 44.1312 28.1856L41.9457 30.0557C41.848 30.1387 41.8371 30.2867 41.9204 30.3878C41.9674 30.442 42.0325 30.4708 42.0977 30.4708H42.1013Z" fill="black"/>
<path d="M44.1202 30.8138C44.1926 30.8138 44.2613 30.7814 44.3084 30.72C44.388 30.6153 44.3663 30.4673 44.2613 30.3915L42.9732 29.4239C42.8683 29.3445 42.7199 29.3662 42.644 29.4709C42.5644 29.5756 42.5861 29.7236 42.691 29.7994L43.9791 30.7669C44.0225 30.7994 44.0696 30.8138 44.1202 30.8138Z" fill="black"/>
<path d="M37.8426 28.1961C37.9656 28.1961 38.0705 28.0987 38.0778 27.9759L38.1574 26.5932C38.1646 26.4633 38.0669 26.3513 37.9366 26.3441C37.81 26.3369 37.6942 26.4344 37.687 26.5643L37.6074 27.947C37.6001 28.077 37.6978 28.1889 37.8281 28.1961C37.8317 28.1961 37.8389 28.1961 37.8426 28.1961Z" fill="black"/>
<path d="M32.5343 27.9068C32.6574 27.9068 32.7623 27.8093 32.7695 27.6866L32.8491 26.3039C32.8564 26.1739 32.7587 26.062 32.6284 26.0548C32.5054 26.0512 32.386 26.145 32.3787 26.275L32.2991 27.6577C32.2919 27.7877 32.3896 27.8996 32.5199 27.9068C32.5235 27.9068 32.5307 27.9068 32.5343 27.9068Z" fill="black"/>
<path d="M34.9839 31.5788C34.9839 31.5788 35.0128 31.5788 35.0309 31.5752C35.1575 31.55 35.2408 31.4272 35.2154 31.3009C34.8102 29.2575 35.4796 27.5644 35.4868 27.5463C35.5338 27.4272 35.476 27.29 35.3566 27.2394C35.2371 27.1925 35.0997 27.2503 35.049 27.3694C35.02 27.4452 34.3217 29.2106 34.7523 31.3875C34.774 31.4994 34.8717 31.5752 34.9839 31.5752V31.5788Z" fill="black"/>
<path d="M31.8362 24.914C31.8797 24.914 31.9267 24.8995 31.9665 24.8742C32.3862 24.5927 33.0809 24.6107 33.3125 24.6432C33.4391 24.6612 33.5586 24.571 33.5766 24.441C33.5947 24.3111 33.5043 24.1955 33.374 24.1775C33.3342 24.1703 32.35 24.0439 31.6987 24.4843C31.5902 24.5565 31.5649 24.7046 31.6372 24.8093C31.6843 24.8779 31.7566 24.914 31.8326 24.914H31.8362Z" fill="black"/>
<path d="M38.5877 25.7299C38.6384 25.7299 38.6891 25.7155 38.7325 25.6794C38.8338 25.6 38.8555 25.452 38.7759 25.3509C38.2947 24.7299 37.3213 24.5458 37.2815 24.5386C37.1513 24.5169 37.0319 24.6 37.0065 24.7263C36.9812 24.8527 37.068 24.9754 37.1947 25.0007C37.2019 25.0007 38.0305 25.1595 38.4032 25.6361C38.4502 25.6974 38.519 25.7263 38.5877 25.7263V25.7299Z" fill="black"/>
<path d="M42.2893 26.774C42.2893 26.774 41.3992 29.312 41.0699 29.2073C40.7407 29.1026 41.2943 25.1025 42.2531 24.9401C43.212 24.7776 42.2893 26.774 42.2893 26.774Z" fill="black"/>
<path d="M41.8876 26.3982C41.8876 26.3982 39.0508 26.0191 37.2127 24.4523C35.6605 23.1274 35.1249 21.3187 35.1249 21.3187C35.1249 21.3187 33.9092 21.1021 32.1073 22.0876C30.309 23.0732 30.005 26.3765 30.005 26.3765C30.005 26.3765 27.0561 20.6075 28.6916 18.6977C30.327 16.7879 32.7622 18.5605 32.7622 18.5605C32.7622 18.5605 32.498 14.871 37.5167 16.5388C42.5353 18.2103 43.4833 22.6508 43.4833 22.6508C43.4833 22.6508 45.2273 22.5858 45.3648 24.1996C45.5023 25.8169 44.7642 27.4162 44.7642 27.4162C44.7642 27.4162 44.0441 26.6617 42.8609 27.0372L41.6777 27.409L41.8912 26.3982H41.8876Z" fill="black"/>
<path d="M31.8832 38.6833C31.8832 38.6833 32.7696 39.6942 35.0166 39.9613C37.2636 40.2285 39.4093 38.5967 39.4093 38.5967L40.6105 41.3873L36.8185 43.2393L30.8519 42.1743L31.1016 39.4848L31.8795 38.6833H31.8832Z" fill="#D8E7EF"/>
<path d="M49.4537 63.4058C49.4827 63.4058 49.5152 63.3985 49.5442 63.3877C49.6382 63.3516 58.9482 59.6332 66.619 62.9978C66.7384 63.052 66.8759 62.9978 66.9302 62.8787C66.9809 62.7595 66.9302 62.6224 66.8108 62.5682C58.9554 59.1205 49.461 62.9148 49.3669 62.9545C49.2475 63.005 49.1896 63.1422 49.2366 63.2614C49.2728 63.3516 49.3633 63.4094 49.4537 63.4094V63.4058Z" fill="#92B4EA"/>
<path d="M56.5239 61.4672C56.466 61.3805 56.4768 61.265 56.5456 61.1856C56.9146 60.7632 60.2109 57.0989 61.9803 58.1531C62.324 58.3588 62.3711 58.6043 62.3494 58.7776C62.2083 59.8859 58.058 61.1928 56.788 61.5647C56.7663 61.5719 56.7446 61.5755 56.7229 61.5755C56.6433 61.5755 56.5673 61.5358 56.5239 61.4672ZM57.5008 60.8535C59.6935 60.1423 61.8175 59.2072 61.879 58.7199C61.8862 58.6585 61.7921 58.5935 61.7343 58.5574C61.5895 58.4708 61.4231 58.431 61.2422 58.431C60.1567 58.431 58.5212 59.8246 57.5008 60.8535Z" fill="#92B4EA"/>
<path d="M9.01169 48.6186C9.01169 48.6186 4.79996 48.4742 5.92888 46.4562C7.05779 44.4381 14.5332 42.9182 15.5211 45.1024C16.5089 47.2865 9.01169 48.6186 9.01169 48.6186Z" fill="#F48462"/>
<path d="M9.73886 52.0185C9.73886 52.0185 5.52713 51.8741 6.65605 49.8561C7.78497 47.838 15.2604 46.3181 16.2482 48.5023C17.236 50.6864 9.73886 52.0185 9.73886 52.0185Z" fill="#F48462"/>
<path d="M12.5213 54.4451C11.5914 54.6183 10.6217 54.5822 9.73157 54.2537C8.93554 53.9613 8.27701 53.4559 8.81614 52.5858C9.8944 50.8457 16.5666 49.7988 17.3518 51.7699C17.9379 53.2393 14.3739 54.1021 12.5213 54.4451Z" fill="#F48462"/>
<path d="M7.95159 48.1599C7.95159 48.1599 7.97692 48.1599 7.98778 48.1599L13.7337 47.2646C13.8603 47.243 13.9508 47.1238 13.9291 46.9975C13.9074 46.8711 13.788 46.7809 13.6613 46.8025L7.91541 47.6979C7.78877 47.7195 7.69831 47.8386 7.72002 47.965C7.73811 48.0805 7.83943 48.1636 7.95159 48.1636V48.1599Z" fill="black"/>
<path d="M9.17455 51.6654C9.17455 51.6654 9.19988 51.6654 9.21074 51.6654L14.9566 50.7701C15.0833 50.7484 15.1737 50.6293 15.152 50.503C15.1303 50.373 15.0145 50.2863 14.8843 50.308L9.13837 51.2033C9.01173 51.225 8.92127 51.3441 8.94298 51.4705C8.96107 51.586 9.06239 51.669 9.17455 51.669V51.6654Z" fill="black"/>
<path d="M34.4413 43.236C34.8067 43.236 35.1939 43.1999 35.61 43.1133C35.7367 43.088 35.8199 42.9617 35.7946 42.8353C35.7692 42.7089 35.6426 42.6259 35.5159 42.6512C32.2956 43.3118 30.8013 40.8642 30.7868 40.8389C30.7217 40.727 30.5769 40.6909 30.4648 40.7559C30.3526 40.8208 30.3164 40.9652 30.3815 41.0772C30.396 41.1024 31.6986 43.2324 34.4413 43.2324V43.236Z" fill="#92B4EA"/>
<path d="M35.9318 33.9762C36.4203 33.9762 37.1838 33.7812 37.7265 32.7271C37.7844 32.6116 37.741 32.4708 37.6252 32.4094C37.5094 32.348 37.3683 32.3949 37.3068 32.5105C36.6446 33.7957 35.6532 33.478 35.6098 33.4636C35.4868 33.4238 35.3529 33.4852 35.3095 33.608C35.2661 33.7307 35.3312 33.8643 35.4542 33.9076C35.4578 33.9076 35.6496 33.9726 35.9282 33.9726L35.9318 33.9762Z" fill="black"/>
<path d="M39.63 54.3836V52.4377C39.63 52.4377 36.8873 51.6652 33.345 51.9468C29.8026 52.2284 27.2481 53.9287 27.2481 53.9287C27.2481 53.9287 24.0242 52.1995 20.2394 51.8818C16.4546 51.5677 14.2438 51.8818 14.2438 51.8818L14.6563 54.38L28.0948 56.9504L39.6336 54.38L39.63 54.3836Z" fill="white"/>
<path d="M13.9506 53.5537L17.7389 79.4854H43.7257L39.9374 53.5537H13.9506Z" fill="#F7ECDE"/>
<path d="M26.1771 53.5537L29.3865 79.4854H31.9085L28.699 53.5537H26.1771Z" fill="#BF6240"/>
<path d="M48.6213 66.0089C48.6213 66.0089 44.9487 58.1641 44.3589 57.6081C43.7728 57.0485 36.9269 54.7272 35.9934 54.7741C35.0635 54.8211 36.5253 56.8897 37.2562 57.4745C37.9871 58.0594 38.9351 58.6911 38.9351 58.6911C38.9351 58.6911 33.8115 58.6911 33.3339 59.554C32.8563 60.4168 34.2312 61.2146 34.2312 61.2146C34.2312 61.2146 32.3968 61.3699 33.0553 62.5468C33.7138 63.7201 38.7433 65.0342 38.7433 65.0342C38.7433 65.0342 39.7022 70.0234 43.0889 71.2039C46.472 72.3844 48.0569 72.0523 48.0569 72.0523L48.6213 66.0089Z" fill="#F48462"/>
<path d="M42.8573 59.2874C42.9767 59.2874 43.0816 59.1972 43.0925 59.0744C43.1033 58.9445 43.0092 58.8326 42.879 58.8181L38.9603 58.4535C38.8301 58.4427 38.7179 58.5365 38.7034 58.6665C38.6926 58.7965 38.7866 58.9084 38.9169 58.9228L42.8356 59.2874C42.8356 59.2874 42.85 59.2874 42.8573 59.2874Z" fill="black"/>
<path d="M40.6537 61.8935C40.7767 61.8935 40.8817 61.796 40.8889 61.6696C40.8961 61.5397 40.7948 61.4278 40.6646 61.4241L36.8979 61.2256C36.7713 61.2256 36.6555 61.3194 36.6519 61.4494C36.6446 61.5794 36.7459 61.6913 36.8762 61.6949L40.6429 61.8935C40.6429 61.8935 40.6501 61.8935 40.6573 61.8935H40.6537Z" fill="black"/>
<path d="M73.8627 78.1587H6.17065V80.0048H73.8627V78.1587Z" fill="white"/>
</svg>
