<svg width="80" height="80" viewBox="0 0 80 80" fill="none" xmlns="http://www.w3.org/2000/svg">
<path d="M74.7827 61.6077C74.3375 62.2625 74.4423 63.0535 74.2799 63.7764C73.4156 67.5323 71.6085 70.7381 68.7958 73.3573C65.8206 76.1336 62.285 77.768 58.2465 78.3128C55.4076 78.6952 52.6314 78.428 49.9339 77.4956C47.6397 76.6994 45.5812 75.4736 43.6955 73.923C41.8517 72.4092 40.537 70.5129 39.3166 68.5171C38.6514 67.218 38.1118 65.8665 37.7033 64.4678C37.5566 63.6926 37.3942 62.9225 37.2685 62.142C37.19 61.6601 37.5252 61.1362 37.389 60.8691C36.9857 60.0781 37.2528 59.2871 37.1428 58.5171C37.2528 58.1085 37.0433 57.658 37.3104 57.2703C37.4519 57.2232 37.4466 57.1132 37.4204 56.9979C37.4781 56.7517 37.1638 56.516 37.3261 56.3065C37.7347 55.7722 37.6247 55.1226 37.7871 54.5359C37.9023 54.1116 38.1485 53.724 38.1276 53.2682H38.1223C38.269 53.263 38.2585 53.1582 38.2428 53.0535C39.2904 50.5338 40.6784 48.2342 42.6165 46.2908C42.7108 46.1965 42.8103 46.1074 42.9046 46.0131C44.1564 44.714 45.6702 43.7764 47.2311 42.9016C48.0168 42.5925 48.7554 42.1839 49.562 41.901C50.6253 41.5291 51.741 41.3353 52.8043 40.9686C53.04 41.152 53.2914 41.1048 53.5638 41.0629C54.7476 40.8848 55.9314 40.6229 57.1308 40.9424C58.147 40.8953 59.1475 41.0472 60.1217 41.2724C63.1807 41.9901 65.9516 43.3363 68.3034 45.4317C71.5195 48.2971 73.6409 51.812 74.3899 56.097C74.4266 56.3012 74.437 56.5841 74.788 56.4479V56.7203C74.6623 56.5527 74.5627 56.6103 74.5365 56.7779C74.4789 57.108 74.5837 57.4065 74.788 57.6737V61.6129L74.7827 61.6077ZM47.7654 58.1923C46.9273 58.229 46.3407 58.7214 45.9426 59.5281C45.4869 60.45 45.8588 61.1834 46.4454 61.8434C46.8645 62.3096 47.3725 62.692 47.8492 63.1006C49.1377 64.2164 50.4106 65.3531 51.7253 66.4322C52.5267 67.0922 53.4014 67.0294 54.2814 66.4479C54.6952 66.1755 54.9361 65.7774 55.2609 65.4369C56.5966 64.033 57.927 62.6239 59.2417 61.2043C60.7974 59.5228 62.3059 57.7994 63.8983 56.1493C64.7468 55.2693 64.773 53.7973 63.9349 52.9854C63.1911 52.2625 61.6145 52.2887 60.8236 53.0901C60.0327 53.8968 59.226 54.6878 58.5137 55.5574C57.9008 56.3117 57.1885 56.9665 56.5442 57.6894C55.4076 58.9728 54.1976 60.1881 53.0191 61.4348C52.8724 61.5867 52.7676 61.6444 52.5791 61.4715C51.61 60.6176 50.6201 59.7952 49.6563 58.9361C49.1325 58.4699 48.5458 58.229 47.7601 58.1871L47.7654 58.1923Z" fill="#3475B9"/>
<path d="M57.1243 8.90967C58.4391 9.40207 58.921 10.3816 58.8686 11.7384C58.8214 13.027 58.8686 14.3156 58.8476 15.6043C58.8424 16.0233 58.9681 16.1491 59.3871 16.1438C60.8119 16.1229 62.2366 16.1229 63.6613 16.1438C65.0179 16.1595 65.7931 16.7619 66.0131 18.0558C66.1127 18.6373 66.0027 19.2502 65.5313 19.7216C63.5304 21.7174 61.5347 23.7237 59.5286 25.7195C59.1357 26.1124 58.6643 26.3114 58.0829 26.3062C55.9563 26.2905 53.8297 26.3114 51.7031 26.3167C51.5669 26.3114 51.4359 26.301 51.2997 26.2957C49.5136 26.2748 48.796 25.599 48.7017 23.8337C48.6912 23.6766 48.7122 23.5142 48.5551 23.4146C48.7541 23.1842 48.7017 22.9065 48.7017 22.6394C48.7017 20.785 48.7331 18.9306 48.6912 17.0762C48.6755 16.2591 48.995 15.6305 49.5293 15.0909C51.305 13.2889 53.1121 11.5079 54.893 9.71113C55.2334 9.37064 55.6996 9.23968 56.0401 8.90967L57.1243 8.90967Z" fill="#3475B9"/>
<path d="M74.7829 57.6677C74.5734 57.4058 74.4739 57.1072 74.5315 56.7719C74.563 56.6043 74.6572 56.5467 74.7829 56.7143V57.6625V57.6677Z" fill="#A63019"/>
<path d="M37.6978 64.4624C38.1116 65.8611 38.6511 67.2126 39.3111 68.5117C37.5407 69.0145 35.7545 69.4179 33.916 69.6379C32.3813 69.8213 30.8413 69.8213 29.3223 69.7217C26.8448 69.5541 24.4196 69.0041 22.0887 68.1083C19.1555 66.9821 16.4736 65.4106 14.1323 63.3309C11.7909 61.2513 9.81096 58.8574 8.32862 56.0758C7.20246 53.9648 6.38534 51.7542 5.81441 49.4179C5.17014 46.7254 5.14395 44.0119 5.29061 41.3037C5.43727 38.6531 6.15487 36.0863 7.19722 33.6138C8.28672 31.0208 9.79525 28.7003 11.5919 26.5682C12.4142 25.5887 13.4094 24.7505 14.3261 23.8495C14.3785 23.8076 14.4308 23.771 14.4832 23.7291C16.7093 21.8223 19.2183 20.3765 21.9368 19.3289C23.8906 18.5745 25.9491 18.1659 28.0233 17.815C29.0342 17.6421 30.0347 17.9616 31.0142 17.6107C31.4489 17.4535 31.8942 17.7312 32.3394 17.7312C33.1827 17.7364 34.0155 17.574 34.8641 17.8412C35.6969 18.1031 36.5769 18.2183 37.4359 18.3964C37.4935 18.5169 37.5616 18.6164 37.703 18.6426C38.604 18.475 39.3792 18.9203 40.1754 19.1979C42.8362 20.1251 45.2457 21.5237 47.4666 23.2471C47.6761 23.4095 47.8437 23.6295 48.0271 23.8234C46.9952 24.8239 45.9581 25.8296 44.9262 26.8302C44.7376 26.6992 44.5438 26.563 44.3552 26.432C44.3552 26.2435 44.261 26.1544 44.0724 26.1544C43.58 25.8244 43.0824 25.4944 42.5901 25.1591L42.4434 25.0648C42.3439 25.0229 42.2444 24.981 42.1448 24.9339C40.4215 24.1377 38.8449 23.0743 36.9016 22.6971C34.7331 22.278 32.596 21.9271 30.3752 22.0528C28.8404 22.1366 27.311 22.2099 25.8234 22.6238C24.3306 23.0324 22.8639 23.5248 21.4916 24.2424C18.5636 25.7773 16.0651 27.8202 14.038 30.4551C11.1466 34.211 9.73763 38.4855 9.4705 43.1686C9.38145 44.7558 9.6224 46.3482 9.91572 47.8935C10.2509 49.6693 10.8428 51.398 11.6547 53.0324C12.6552 55.0439 13.8861 56.8983 15.4365 58.5326C17.2541 60.4499 19.3493 61.9952 21.7116 63.1843C24.1577 64.4153 26.761 65.1487 29.4742 65.3687C32.2556 65.5939 35.016 65.2796 37.6978 64.4467V64.4624Z" fill="white"/>
<path d="M44.9317 26.8404C45.9635 25.8399 47.0007 24.8341 48.0325 23.8336C48.2106 23.6922 48.3835 23.556 48.5616 23.4146C48.7187 23.5193 48.6978 23.6817 48.7082 23.8336C48.8078 25.5989 49.5201 26.2747 51.3063 26.2956C51.4424 26.2956 51.5734 26.3061 51.7096 26.3166C51.5524 26.5157 51.3953 26.7147 51.2382 26.9138C50.1382 27.8671 49.1377 28.9148 48.1478 29.9782C46.7492 31.3716 45.3507 32.7598 43.9522 34.1532C42.9151 35.1537 41.857 36.1333 40.9194 37.2281C39.4161 38.5219 38.0961 40.0096 36.6767 41.3925C36.619 41.4449 36.619 41.5602 36.5929 41.644C36.4933 41.6859 36.3676 41.7016 36.2943 41.7697C35.1367 42.875 33.9739 43.9698 32.8477 45.1065C32.1406 45.8242 31.4125 46.0547 30.5535 45.7194C29.6945 45.3842 29.1759 44.6037 29.1392 43.6765C29.1078 42.7912 29.6473 42.2045 30.1816 41.644C31.2344 40.5387 32.3396 39.4806 33.4239 38.4015C34.9429 37.05 36.42 35.6513 37.6981 34.0641C37.8919 34.0484 38.0123 33.9122 38.1433 33.7865C39.0914 32.8907 39.9504 31.9111 40.8199 30.9421C42.2237 29.6168 43.5908 28.2495 44.916 26.8457L44.9317 26.8404Z" fill="#285A8F"/>
<path d="M37.7079 18.6537C37.5665 18.6276 37.4932 18.528 37.4408 18.4075C37.7813 18.219 37.6765 18.5123 37.7079 18.6537Z" fill="#A63019"/>
<path d="M14.4838 23.7344C14.4314 23.771 14.379 23.8129 14.3267 23.8548C14.3528 23.7815 14.3895 23.7186 14.4838 23.7344Z" fill="#A63019"/>
<path d="M44.9314 26.8408C43.6062 28.2447 42.239 29.6119 40.8353 30.9372C40.7515 30.911 40.6519 30.9006 40.5839 30.8482C37.8968 28.7738 34.8221 27.8466 31.4593 27.789C30.3803 27.7733 29.3118 27.8518 28.259 28.0614C22.7591 29.1562 18.9459 32.3516 16.6307 37.4066C15.7979 39.2243 15.3893 41.152 15.3107 43.1426C15.2584 44.4626 15.4312 45.7617 15.6984 47.0661C16.2955 49.9891 17.715 52.4616 19.6844 54.6303C20.8001 55.856 22.141 56.8147 23.5919 57.6423C25.9438 58.9833 28.4737 59.5962 31.1398 59.6957C33.2193 59.7743 35.1835 59.1562 37.1373 58.5119C37.2473 59.2872 36.9854 60.0781 37.3835 60.8639C37.5197 61.1311 37.1844 61.6549 37.263 62.1368C37.3887 62.9173 37.5511 63.6874 37.6977 64.4626C35.0159 65.2955 32.2555 65.6098 29.4742 65.3846C26.7661 65.1646 24.1576 64.4312 21.7115 63.2002C19.3492 62.0111 17.254 60.471 15.4365 58.5485C13.886 56.9142 12.6603 55.0546 11.6547 53.0483C10.8428 51.4192 10.2509 49.6905 9.91565 47.9095C9.62233 46.3589 9.38138 44.7717 9.47043 43.1845C9.73756 38.5014 11.1466 34.2269 14.0379 30.471C16.065 27.8361 18.5687 25.7984 21.4915 24.2583C22.8639 23.5354 24.3305 23.0483 25.8233 22.6397C27.3109 22.2311 28.8404 22.1525 30.3751 22.0687C32.5907 21.9482 34.7331 22.294 36.9016 22.713C38.8449 23.0902 40.4215 24.1536 42.1448 24.9498C42.2443 24.9969 42.3438 25.0336 42.4433 25.0808C42.4695 25.1489 42.5009 25.2117 42.59 25.175C43.0824 25.5051 43.58 25.8351 44.0723 26.1703C44.0723 26.3589 44.1771 26.4375 44.3552 26.448C44.5437 26.5789 44.7375 26.7151 44.9261 26.8461L44.9314 26.8408Z" fill="#A63019"/>
<path d="M36.5977 41.6396C36.6239 41.5558 36.6239 41.4458 36.6816 41.3882C38.101 40.0053 39.421 38.5228 40.9243 37.2289C41.2595 37.8523 41.6367 38.4599 41.9143 39.1095C42.7419 41.0424 42.9304 43.0749 42.7157 45.1493C42.6842 45.4322 42.5323 45.6993 42.6528 45.9927C42.6371 46.0922 42.6266 46.1865 42.6109 46.286C40.6729 48.2295 39.2848 50.5291 38.2372 53.0487C38.1482 53.0906 37.9701 53.0906 38.1168 53.2687H38.122C37.8129 53.1064 37.6139 53.3735 37.4096 53.494C35.1364 54.8402 32.7374 55.5579 30.0503 55.2488C28.2746 55.0445 26.6718 54.4893 25.1738 53.5411C23.6181 52.5616 22.2458 51.3882 21.3501 49.7748C19.8573 47.0875 19.1973 44.2274 19.9358 41.1682C20.622 38.3395 22.1358 36.0398 24.4928 34.3112C25.9333 33.253 27.5361 32.5511 29.3065 32.2996C30.9041 32.0744 32.4964 32.0587 34.094 32.4882C35.3983 32.834 36.5349 33.494 37.7187 34.0702C36.4406 35.6627 34.9635 37.0561 33.4445 38.4076C33.125 38.1771 32.7479 38.1771 32.3812 38.0933C29.6889 37.4961 27.379 38.879 26.148 41.0215C25.3938 42.3311 25.2785 43.735 25.6557 45.1493C26.3209 47.6375 28.5575 49.4605 31.1136 49.5024C32.8578 49.5338 34.3507 48.8528 35.5763 47.5432C36.9696 46.0555 37.4672 43.4992 36.603 41.6449L36.5977 41.6396Z" fill="#A63019"/>
<path d="M37.7139 34.0599C36.5302 33.4785 35.3935 32.8237 34.0893 32.4779C32.4917 32.0484 30.8994 32.0641 29.3018 32.2893C27.5366 32.5408 25.9338 33.2427 24.4881 34.3009C22.131 36.0295 20.6173 38.3292 19.9311 41.1579C19.1925 44.2118 19.8525 47.0772 21.3453 49.7645C22.241 51.3779 23.6134 52.5513 25.169 53.5308C26.6723 54.479 28.2752 55.0342 30.0456 55.2385C32.7326 55.5476 35.1316 54.8299 37.4049 53.4837C37.6039 53.3632 37.8082 53.0961 38.1173 53.2584C38.1382 53.7194 37.892 54.1071 37.7768 54.5261C37.6144 55.1128 37.7244 55.7624 37.3159 56.2967C37.1587 56.5062 37.4678 56.7419 37.4101 56.9881C37.232 57.0196 37.0906 57.072 37.3001 57.2605C37.033 57.6482 37.2425 58.0987 37.1325 58.5073C35.184 59.1516 33.2145 59.7697 31.1351 59.6911C28.469 59.5916 25.9338 58.9735 23.5872 57.6377C22.1363 56.81 20.7954 55.8514 19.6797 54.6256C17.7102 52.457 16.2855 49.9845 15.6936 47.0615C15.4265 45.7571 15.2536 44.458 15.306 43.138C15.3846 41.1474 15.7931 39.2197 16.6259 37.402C18.9411 32.3522 22.7596 29.1516 28.2542 28.0568C29.307 27.8472 30.3808 27.7634 31.4546 27.7844C34.8174 27.842 37.892 28.7692 40.5791 30.8436C40.6472 30.8959 40.7467 30.9012 40.8305 30.9326C39.961 31.9017 39.102 32.8813 38.1539 33.777C38.023 33.9028 37.9025 34.039 37.7087 34.0547L37.7139 34.0599Z" fill="white"/>
<path d="M47.7646 58.1926C48.5451 58.2293 49.137 58.4755 49.6608 58.9417C50.6193 59.8008 51.6145 60.6284 52.5836 61.4771C52.7774 61.6447 52.8821 61.5923 53.0235 61.4404C54.2021 60.1937 55.412 58.9784 56.5487 57.695C57.193 56.9721 57.9053 56.3173 58.5182 55.563C59.2305 54.6934 60.0372 53.8972 60.8281 53.0957C61.619 52.289 63.1956 52.268 63.9394 52.9909C64.7775 53.8029 64.7513 55.2801 63.9028 56.1549C62.3104 57.7997 60.8019 59.5284 59.2462 61.2099C57.9315 62.6295 56.5958 64.0386 55.2654 65.4425C54.9406 65.783 54.6997 66.1811 54.2859 66.4535C53.4059 67.0349 52.5364 67.0978 51.7298 66.4378C50.415 65.3587 49.1422 64.2219 47.8537 63.1062C47.377 62.6923 46.869 62.3099 46.4499 61.849C45.858 61.1942 45.4914 60.4556 45.9471 59.5336C46.3452 58.7269 46.9318 58.2345 47.7699 58.1978L47.7646 58.1926Z" fill="white"/>
<path d="M43.9576 34.153C45.3562 32.7596 46.7547 31.3714 48.1532 29.978C49.2218 31.4081 50.2327 32.8748 50.9765 34.504C51.9193 36.5626 52.5322 38.7103 52.7993 40.9576C51.736 41.3243 50.6203 41.5129 49.557 41.89C48.7556 42.1729 48.0171 42.5867 47.2261 42.8905C46.9747 41.6805 46.9433 40.439 46.5609 39.2499C45.969 37.4008 45.2252 35.6512 43.9576 34.153Z" fill="#A63019"/>
<path d="M52.7996 40.9571C52.5325 38.7098 51.9144 36.5569 50.9768 34.5034C50.233 32.8743 49.2221 31.4076 48.1536 29.9775C49.1383 28.9141 50.144 27.8665 51.244 26.9131C52.7892 28.8198 54.1144 30.868 55.0991 33.1258C55.9162 35.0011 56.5605 36.9288 56.8695 38.9613C56.969 39.6161 57.1733 40.2604 57.1314 40.9361C55.9319 40.6166 54.7481 40.8785 53.5644 41.0566C53.292 41.0985 53.0406 41.1404 52.8049 40.9623L52.7996 40.9571Z" fill="white"/>
<path d="M43.9579 34.1542C45.2255 35.6523 45.9693 37.4019 46.5612 39.2511C46.9436 40.4454 46.975 41.6869 47.2264 42.8917C45.6655 43.7613 44.157 44.7042 42.8999 46.0033C42.8161 46.0033 42.7323 45.9928 42.6537 45.9876C42.5332 45.6942 42.6904 45.4271 42.7165 45.1442C42.9313 43.0698 42.7427 41.0373 41.9151 39.1044C41.6375 38.4548 41.2604 37.8524 40.9252 37.2238C41.8628 36.129 42.9208 35.1494 43.9579 34.1489V34.1542Z" fill="white"/>
<path d="M37.305 57.2602C37.0954 57.0716 37.2369 57.0192 37.415 56.9878C37.4359 57.103 37.4464 57.213 37.305 57.2602Z" fill="#A63019"/>
<path d="M42.6535 45.9868C42.7373 45.9868 42.8211 45.9973 42.8997 46.0025C42.8054 46.0968 42.7059 46.1859 42.6116 46.2802C42.6273 46.1806 42.6378 46.0863 42.6535 45.9868Z" fill="#A63019"/>
<path d="M38.1159 53.2581C37.9745 53.08 38.1473 53.0852 38.2364 53.0381C38.2469 53.1376 38.2626 53.2424 38.1159 53.2581Z" fill="#A63019"/>
<path d="M44.3607 26.4383C44.1826 26.433 44.0779 26.3492 44.0779 26.1606C44.2664 26.1606 44.3607 26.2497 44.3607 26.4383Z" fill="#A63019"/>
<path d="M42.5959 25.17C42.5068 25.2066 42.4754 25.1438 42.4492 25.0757C42.4964 25.1071 42.5487 25.1385 42.5959 25.17Z" fill="#A63019"/>
<path d="M36.5984 41.638C37.4574 43.4923 36.965 46.0486 35.5717 47.5363C34.3461 48.8459 32.8532 49.5269 31.109 49.4955C28.5529 49.4483 26.3163 47.6306 25.6511 45.1424C25.2739 43.7281 25.3892 42.3242 26.1434 41.0146C27.3743 38.8721 29.6843 37.4892 32.3766 38.0864C32.7432 38.1702 33.1204 38.1702 33.4399 38.4007C32.3556 39.4798 31.2504 40.5379 30.1976 41.6432C29.6633 42.2037 29.1186 42.7904 29.1553 43.6757C29.1919 44.5976 29.7105 45.3834 30.5695 45.7186C31.4285 46.0539 32.1514 45.8182 32.8637 45.1057C33.9899 43.969 35.1579 42.8742 36.3103 41.7689C36.3836 41.7008 36.5093 41.6851 36.6089 41.6432L36.5984 41.638Z" fill="white"/>
</svg>
