<svg width="81" height="80" viewBox="0 0 81 80" fill="none" xmlns="http://www.w3.org/2000/svg">
<path d="M76.8794 17.9155H27.7581V56.9439H76.8794V17.9155Z" fill="white"/>
<path d="M74.223 47.1177H30.6782" stroke="#B79D70" stroke-width="0.292105" stroke-miterlimit="10"/>
<path d="M74.223 42.0249H30.6782" stroke="#B79D70" stroke-width="0.292105" stroke-miterlimit="10"/>
<path d="M74.223 36.9355H30.6782" stroke="#B79D70" stroke-width="0.292105" stroke-miterlimit="10"/>
<path d="M74.223 31.8438H30.6782" stroke="#B79D70" stroke-width="0.292105" stroke-miterlimit="10"/>
<path d="M74.223 26.7534H30.6782" stroke="#B79D70" stroke-width="0.292105" stroke-miterlimit="10"/>
<path d="M74.223 21.6616H30.6782" stroke="#B79D70" stroke-width="0.292105" stroke-miterlimit="10"/>
<path d="M77.0478 57.0155C77.0478 57.0646 77.0139 57.1044 76.9678 57.1132H76.9482H27.3267C27.2717 57.1132 27.2272 57.0684 27.2272 57.0136V17.485C27.2272 17.4299 27.2721 17.3854 27.3267 17.3854H76.9482C77.0033 17.3854 77.0478 17.4303 77.0478 17.485V57.0155ZM27.4263 56.7635V56.9141H27.5768H76.6981H76.8487V56.7635V17.7352V17.5846H76.6981H27.5768H27.4263V17.7352V56.7635Z" fill="#5774CD" stroke="#B79D70" stroke-width="0.301139"/>
<path d="M67.9466 52.0567V21.8122H74.0741V52.0567H67.9466Z" fill="#BF6240" stroke="#B79D70" stroke-width="0.301139"/>
<path d="M58.824 52.0567V29.4797H64.9515V52.0567H58.824Z" fill="#A63019" stroke="#B79D70" stroke-width="0.301139"/>
<path d="M49.8408 52.0588V38.9577H55.9684V52.0588H49.8408Z" fill="#4C93D3" stroke="#B79D70" stroke-width="0.301139"/>
<path d="M41.4243 52.0564V44.0397H47.5519V52.0564H41.4243Z" fill="#119AA6" stroke="#B79D70" stroke-width="0.301139"/>
<path d="M74.2232 52.2075H30.6784" stroke="#92B4EA" stroke-width="0.292105" stroke-miterlimit="10"/>
<path d="M80.6155 76.9233H0.61554V78.7695H80.6155V76.9233Z" fill="white"/>
<path d="M70.2663 77.3223H55.2747C55.0876 77.3223 54.9353 77.1699 54.9353 76.9827V75.0814C54.9353 74.8942 55.0876 74.7419 55.2747 74.7419H70.2663C70.7929 74.7419 71.2202 75.1692 71.2202 75.6958V76.3683C71.2202 76.895 70.7929 77.3223 70.2663 77.3223Z" fill="#A38552"/>
<path d="M66.4671 77.3481H53.3269C53.1397 77.3481 52.9874 77.1958 52.9874 77.0086V75.1073C52.9874 74.9201 53.1397 74.7677 53.3269 74.7677H66.4671C66.9937 74.7677 67.4209 75.195 67.4209 75.7217V76.3942C67.4209 76.9208 66.9937 77.3481 66.4671 77.3481Z" fill="#A38552"/>
<path d="M52.9876 76.8501H66.0136C66.4656 76.8501 66.8333 76.4841 66.8333 76.0303C66.8333 75.5765 66.4673 75.2104 66.0136 75.2104H52.9876V76.8485V76.8501Z" fill="white"/>
<path d="M69.9817 74.7879H55.5829C54.8708 74.7879 54.2929 74.2099 54.2929 73.4977C54.2929 72.7855 54.8708 72.2075 55.5829 72.2075H69.9817C69.9999 72.2075 70.0148 72.2224 70.0148 72.2406V74.7532C70.0148 74.7714 69.9999 74.7863 69.9817 74.7863V74.7879Z" fill="#4C93D3"/>
<path d="M70.3208 74.7879H59.1893C58.4772 74.7879 57.8993 74.2099 57.8993 73.4977C57.8993 72.7855 58.4772 72.2075 59.1893 72.2075H70.3208C70.5443 72.2075 70.7249 72.388 70.7249 72.6116V74.3838C70.7249 74.6074 70.5443 74.7879 70.3208 74.7879Z" fill="#92B4EA"/>
<path d="M70.7249 74.2886H59.2406C58.7885 74.2886 58.4209 73.9226 58.4209 73.4688C58.4209 73.0166 58.7869 72.6489 59.2406 72.6489H70.7249V74.2869V74.2886Z" fill="white"/>
<path d="M68.8021 72.2288H57.2301C56.5181 72.2288 55.9401 71.6508 55.9401 70.9386C55.9401 70.2265 56.5181 69.6484 57.2301 69.6484H68.8021C68.8833 69.6484 68.9495 69.7147 68.9495 69.7958V72.0814C68.9495 72.1626 68.8833 72.2288 68.8021 72.2288Z" fill="#92B4EA"/>
<path d="M69.1683 72.2288H60.2127C59.5007 72.2288 58.9227 71.6508 58.9227 70.9386C58.9227 70.2265 59.5007 69.6484 60.2127 69.6484H69.1683C69.372 69.6484 69.5359 69.8124 69.5359 70.0161V71.8612C69.5359 72.0649 69.372 72.2288 69.1683 72.2288Z" fill="#4C93D3"/>
<path d="M69.5358 71.73H60.1745C59.7224 71.73 59.3548 71.364 59.3548 70.9102C59.3548 70.458 59.7208 70.0903 60.1745 70.0903H69.5358V71.7283V71.73Z" fill="#ECE8EF"/>
<path d="M23.1452 50.0234C23.1452 50.0234 29.4551 52.3687 35.3933 52.7312C40.5353 53.0443 47.5023 50.6349 47.5023 50.6349L51.6284 59.5803C51.6284 59.5803 38.2179 70.3619 29.9072 65.8325C19.1931 59.994 23.1434 50.0234 23.1434 50.0234H23.1452Z" fill="#FAE1A2"/>
<path d="M19.3803 34.691C19.3803 34.691 13.2352 32.9572 10.5919 39.019C7.94865 45.0809 10.0501 61.7687 10.0501 61.7687L23.7041 59.136L22.02 45.6905L19.3785 34.691H19.3803Z" fill="black"/>
<path d="M16.475 48.9715C16.475 48.9715 8.35658 51.1062 7.05324 55.2018C5.7499 59.2973 11.4117 76.5033 13.18 77.2155C14.9502 77.9276 29.9972 77.1624 29.9972 77.1624C29.9972 77.1624 31.0204 65.1687 30.7989 63.7059C30.5775 62.2431 29.6933 56.3918 28.066 53.8085C26.4386 51.2271 22.0911 49.2333 20.277 49.096C18.4648 48.9587 16.4732 48.9715 16.4732 48.9715H16.475Z" fill="#FAE1A2"/>
<path d="M37.1251 56.633C36.953 56.633 36.7974 56.5652 36.6711 56.4371C35.981 55.7285 36.2885 53.1746 36.327 52.8871C36.3361 52.8175 36.3892 52.7626 36.457 52.7498C36.5265 52.737 36.5943 52.7699 36.629 52.8322C36.7773 53.1068 38.0678 55.5308 37.6395 56.3437C37.5516 56.5121 37.3979 56.611 37.1983 56.6311C37.1745 56.633 37.1507 56.6348 37.1269 56.6348L37.1251 56.633ZM36.5906 53.4638C36.5174 54.3811 36.5009 55.7999 36.8999 56.2119C36.975 56.2888 37.0592 56.3199 37.1617 56.3089C37.2551 56.2998 37.3137 56.2631 37.3503 56.1917C37.5736 55.7688 37.0702 54.4506 36.5888 53.4657L36.5906 53.4638Z" fill="#D87907"/>
<path d="M48.1106 51.4482C48.1106 51.4482 49.3005 48.9254 50.9883 48.0301C52.676 47.1349 54.5285 46.7284 53.9958 47.7409C53.4631 48.7533 52.0884 50.293 52.0884 50.293L54.8159 50.1795C54.8159 50.1795 56.6684 49.7731 57.9589 49.72C59.2513 49.6669 59.4343 50.6482 59.4343 50.6482C59.4343 50.6482 60.7267 50.5951 61.177 51.0711C61.6273 51.5471 61.0818 52.23 61.0818 52.23C61.0818 52.23 62.8245 52.6529 61.8671 53.8466C60.9098 55.0403 56.9466 56.5251 55.0941 56.9315C53.2416 57.338 49.3463 57.0048 49.3463 57.0048C49.3463 57.0048 45.784 56.9919 48.1088 51.4501L48.1106 51.4482Z" fill="#F48462"/>
<path d="M57.4256 54.1397C57.389 54.1397 57.3506 54.1268 57.3213 54.1012L53.3875 50.7142C53.3197 50.6556 53.3124 50.5549 53.371 50.4872C53.4296 50.4194 53.5302 50.4121 53.598 50.4707L57.5318 53.8577C57.5995 53.9163 57.6068 54.017 57.5483 54.0847C57.5171 54.1213 57.4714 54.1415 57.4256 54.1415V54.1397Z" fill="black"/>
<path d="M48.4145 53.6529C48.3285 53.6529 48.2571 53.5851 48.2534 53.4973C48.2498 53.4076 48.3193 53.3343 48.409 53.3307C49.8405 53.2794 50.8327 52.9096 51.358 52.2303C51.9109 51.5163 51.7406 50.7016 51.7388 50.6943C51.7205 50.6082 51.7754 50.5222 51.8614 50.5021C51.9493 50.4837 52.0335 50.5387 52.0536 50.6247C52.0628 50.6632 52.2587 51.595 51.6125 52.4281C51.0249 53.186 49.9504 53.5998 48.42 53.6529C48.4182 53.6529 48.4164 53.6529 48.4145 53.6529Z" fill="black"/>
<path d="M47.8244 49.9164L52.8514 58.9125C52.9451 59.0803 52.8852 59.292 52.7175 59.3858L50.4356 60.6613C50.2679 60.7551 50.0561 60.6951 49.9624 60.5273L44.9354 51.5313C44.8416 51.3635 44.9015 51.1517 45.0693 51.058L47.3512 49.7825C47.5189 49.6887 47.7307 49.7486 47.8244 49.9164Z" fill="#D87907"/>
<path d="M21.3222 36.8174C21.3222 36.8174 23.7183 42.2073 22.8891 45.2501C22.058 48.293 19.2884 47.8334 17.63 47.2567C15.9715 46.68 15.1954 45.6712 15.1954 45.6712C15.1954 45.6712 13.6522 46.2058 12.6088 44.7741C11.5654 43.3424 12.1915 41.6874 13.0719 41.3029C13.9524 40.9184 15.0068 41.5501 15.0068 41.5501L14.1739 39.9847C14.1739 39.9847 17.5824 31.9786 21.324 36.8193L21.3222 36.8174Z" fill="#F48462"/>
<path d="M15.005 41.5498C15.005 41.5498 17.328 42.0258 18.9498 39.4444C20.5717 36.8629 20.4271 35.7992 20.4271 35.7992L22.0269 38.474C22.0269 38.474 22.3912 36.6231 21.6553 35.4404C20.9176 34.2577 20.1488 34.4993 20.1488 34.4993L15.0215 35.7644L13.6596 39.8691L15.005 41.548V41.5498Z" fill="black"/>
<path d="M11.4009 51.1245C11.4009 51.1245 -0.629424 57.038 0.721511 68.5392C2.07062 80.0349 16.4989 78.4128 21.899 77.1623C27.2972 75.9119 23.087 67.7098 23.087 67.7098C23.087 67.7098 21.0478 68.422 15.8106 67.5286C10.5735 66.6352 11.4027 51.1245 11.4027 51.1245H11.4009Z" fill="#FAE1A2"/>
<path d="M11.7576 67.0705C11.7576 67.0705 11.7448 67.0705 11.7393 67.0705C10.5733 66.935 6.75477 66.4279 6.61198 65.6004C6.55707 65.2782 6.94331 65.0896 7.06962 65.0273C9.13629 64.0186 11.7613 66.6842 11.8729 66.7977C11.9205 66.8472 11.9315 66.9204 11.9022 66.9808C11.8748 67.0357 11.818 67.0705 11.7576 67.0705ZM8.07825 65.1244C7.7817 65.1244 7.48881 65.1811 7.2124 65.3166C6.96894 65.4356 6.92683 65.5217 6.9305 65.5455C6.99456 65.9208 9.15277 66.4078 11.2835 66.6879C10.6611 66.1441 9.3285 65.1244 8.07825 65.1244Z" fill="#D87907"/>
<path d="M21.8973 38.6464C21.8845 38.6464 21.8717 38.6464 21.8589 38.6409L21.3591 38.52C21.2731 38.4999 21.22 38.412 21.2401 38.3259C21.2603 38.2399 21.35 38.1868 21.4342 38.2069L21.9339 38.3278C22.02 38.3479 22.073 38.4358 22.0529 38.5218C22.0346 38.5951 21.9687 38.6445 21.8973 38.6445V38.6464Z" fill="black"/>
<path d="M18.9024 39.1349C18.8401 39.1349 18.7797 39.0983 18.7541 39.036C18.7193 38.9536 18.7578 38.8602 18.8401 38.8254L20.0007 38.3365C20.0831 38.3018 20.1764 38.3402 20.2112 38.4226C20.246 38.505 20.2076 38.5984 20.1252 38.6332L18.9646 39.1221C18.9445 39.1312 18.9225 39.1349 18.9024 39.1349Z" fill="black"/>
<path d="M21.311 43.3361C21.2708 43.3361 21.2305 43.3214 21.1994 43.2903C21.1353 43.2281 21.1335 43.1274 21.1939 43.0633C21.9444 42.2797 21.0072 40.8535 20.9962 40.8389C20.9468 40.7656 20.9669 40.6649 21.0401 40.6155C21.1133 40.5661 21.214 40.5862 21.2634 40.6594C21.3092 40.7272 22.3563 42.3163 21.4245 43.2867C21.3934 43.3196 21.3513 43.3361 21.3074 43.3361H21.311Z" fill="black"/>
<path d="M19.1788 41.4721C19.0964 41.4721 19.0268 41.4099 19.0195 41.3257L18.9133 40.2235C18.9079 40.1686 18.9317 40.1155 18.9738 40.0825L19.6035 39.5827C19.673 39.5278 19.7737 39.5388 19.8304 39.6084C19.8854 39.6779 19.8744 39.7786 19.8048 39.8354L19.2428 40.2803L19.3399 41.2964C19.349 41.3842 19.2831 41.463 19.1952 41.4721C19.1898 41.4721 19.1843 41.4721 19.1788 41.4721Z" fill="black"/>
<path d="M22.0695 41.1429C21.9871 41.1429 21.9175 41.0806 21.9102 40.9964L21.804 39.8943C21.7985 39.8412 21.8205 39.7899 21.8608 39.7551L22.3404 39.3505C22.4081 39.2938 22.5106 39.3011 22.5674 39.3688C22.6241 39.4366 22.6168 39.5391 22.5491 39.5959L22.1335 39.9455L22.2305 40.9653C22.2397 41.0532 22.1738 41.1319 22.0859 41.1411C22.0804 41.1411 22.0749 41.1411 22.0695 41.1411V41.1429Z" fill="black"/>
<path d="M30.4624 65.371C30.4624 65.371 30.4515 65.371 30.4441 65.371C30.3563 65.3619 30.2922 65.2813 30.3014 65.1934C31.0958 57.9453 27.8796 55.686 27.8466 55.6641C27.7734 55.6146 27.7532 55.5139 27.8027 55.4407C27.8521 55.3675 27.9509 55.3473 28.026 55.3968C28.1651 55.4901 31.4418 57.7677 30.6235 65.2301C30.6144 65.3124 30.5448 65.3729 30.4643 65.3729L30.4624 65.371Z" fill="#D87907"/>
<path d="M19.2944 67.6685C19.2944 67.6685 19.2853 67.6685 19.2816 67.6685L11.7453 67.0716C11.6574 67.0643 11.5897 66.9874 11.597 66.8977C11.6043 66.8098 11.6794 66.7402 11.7709 66.7493L19.3072 67.3463C19.3951 67.3536 19.4628 67.4305 19.4555 67.5202C19.4482 67.6044 19.3786 67.6685 19.2944 67.6685Z" fill="#D87907"/>
<path d="M19.8178 45.4635C19.7226 45.4635 19.622 45.4489 19.5176 45.4159C18.736 45.1706 18.7415 44.244 18.7433 44.2038C18.7433 44.1525 18.7689 44.1067 18.8092 44.0756C18.8495 44.0463 18.9026 44.0371 18.9502 44.0518L20.7477 44.5974C20.7953 44.6121 20.8356 44.6487 20.8521 44.6963C20.8686 44.7439 20.8631 44.797 20.8374 44.8391C20.8191 44.8684 20.4311 45.4635 19.8197 45.4635H19.8178ZM19.0874 44.4308C19.1314 44.6597 19.254 44.9948 19.6146 45.1083C19.9716 45.22 20.2645 45.0058 20.4256 44.8373L19.0874 44.4308Z" fill="black"/>
<path d="M33.0582 63.6329V62.5427C33.0582 62.5427 34.5908 62.1088 36.5729 62.2685C38.555 62.4264 39.9817 63.3794 39.9817 63.3794C39.9817 63.3794 41.7833 62.4091 43.9007 62.232C46.0182 62.055 47.254 62.232 47.254 62.232L47.0232 63.6311L39.5079 65.0719L33.0565 63.6311L33.0582 63.6329Z" fill="white"/>
<path d="M47.4192 63.1694L45.3017 77.7041H30.7692L32.8867 63.1694H47.4192Z" fill="#F7ECDE"/>
<path d="M40.5826 63.1694L38.788 77.7041H37.3786L39.1715 63.1694H40.5826Z" fill="#BF6240"/>
<path d="M23.6968 69.0531C23.6968 69.0531 28.6448 68.2512 30.4991 68.0553C32.5401 67.8411 33.6714 68.9726 34.367 69.7397C35.5459 71.0432 35.5697 73.6448 35.4049 74.0915C35.1541 74.7707 33.9112 73.3811 33.9112 73.3811C33.9112 73.3811 34.032 73.9231 33.4481 74.4119C32.8623 74.8989 32.2381 74.7982 32.2381 74.7982C32.2381 74.7982 32.3351 75.8381 31.8043 75.9003C31.2716 75.9626 29.0164 76.4899 28.7949 75.8509C28.5715 75.2138 30.2428 74.4101 30.2428 74.4101L29.8969 73.3079C29.8969 73.3079 28.9633 75.525 26.9186 75.547C24.872 75.5708 23.8012 73.3152 23.8012 73.3152L23.7023 69.0531H23.6968Z" fill="#F48462"/>
<path d="M33.9109 73.5417C33.9109 73.5417 33.8944 73.5417 33.8852 73.5399C33.7974 73.5271 33.737 73.4447 33.7498 73.3568C33.9438 72.1045 32.6716 71.0701 32.6588 71.061C32.5892 71.006 32.5782 70.9035 32.6331 70.8339C32.6881 70.7644 32.7906 70.7534 32.8601 70.8083C32.9187 70.8541 34.2916 71.9672 34.0683 73.4062C34.0555 73.485 33.9877 73.5435 33.909 73.5435L33.9109 73.5417Z" fill="black"/>
<path d="M32.2362 74.9584C32.2161 74.9584 32.1959 74.9547 32.1776 74.9474C32.0952 74.9144 32.055 74.8211 32.0861 74.7387C32.4833 73.7317 31.6449 72.4959 31.6358 72.4831C31.5845 72.4099 31.6028 72.3092 31.676 72.2598C31.7493 72.2103 31.8499 72.2268 31.8994 72.3C31.9378 72.3568 32.8458 73.6878 32.3845 74.8558C32.3588 74.9199 32.2984 74.9584 32.2344 74.9584H32.2362Z" fill="black"/>
<path d="M17.1948 41.1416C17.1948 41.1416 16.2448 45.5923 18.262 47.3425C18.262 47.3425 18.7398 47.705 20.6967 47.5805L22.5254 49.7134C22.5254 49.7134 26.1096 50.3652 26.9974 51.1213C27.8852 51.8775 28.3794 60.3651 24.7184 62.0128C22.454 63.0308 7.50583 68.0564 7.02074 54.1367C7.02074 54.1367 9.67135 50.7442 9.67135 49.697L12.3073 40.585L15.9684 39.1313L17.1948 41.1416Z" fill="black"/>
<path d="M15.6129 43.1701C15.6129 43.1701 15.6239 43.1682 15.6312 43.1664C15.719 43.1572 15.7996 43.2213 15.8069 43.311C16.5373 50.5665 20.1563 52.1062 20.191 52.1209C20.2734 52.1538 20.3137 52.2472 20.2807 52.3296C20.2478 52.412 20.1544 52.4523 20.0721 52.4193C19.9165 52.3571 16.2389 50.8119 15.4847 43.3422C15.4774 43.2598 15.5323 43.1847 15.611 43.1682L15.6129 43.1701Z" fill="#4C4C4B"/>
</svg>
